<svg width="34" height="21" viewBox="0 0 34 21" fill="none" xmlns="http://www.w3.org/2000/svg">
<mask id="mask0_1_9700" style="mask-type:luminance" maskUnits="userSpaceOnUse" x="0" y="0" width="34" height="21">
<path d="M33.6918 0.5H0.285156V20.5H33.6918V0.5Z" fill="white"/>
</mask>
<g mask="url(#mask0_1_9700)">
<path d="M9.77899 7.7969C9.77899 8.2035 9.82298 8.5332 9.89998 8.7749C9.98798 9.0167 10.098 9.2804 10.252 9.5661C10.307 9.6541 10.328 9.742 10.328 9.8189C10.328 9.9288 10.263 10.0387 10.12 10.1486L9.42699 10.6101C9.32799 10.676 9.22998 10.709 9.14198 10.709C9.03198 10.709 8.92198 10.6541 8.81198 10.5552C8.65798 10.3903 8.52599 10.2145 8.41599 10.0387C8.30698 9.8519 8.19699 9.6431 8.07599 9.3903C7.21899 10.4013 6.14199 10.9068 4.84499 10.9068C3.92199 10.9068 3.18599 10.6431 2.64699 10.1156C2.10899 9.5881 1.83398 8.8848 1.83398 8.0057C1.83398 7.0716 2.16398 6.3134 2.83398 5.742C3.50398 5.1705 4.39399 4.8848 5.52599 4.8848C5.89999 4.8848 6.28498 4.9178 6.69098 4.9727C7.09798 5.0277 7.51499 5.1156 7.95499 5.2145V4.4123C7.95499 3.5771 7.77899 2.9947 7.43799 2.6541C7.08699 2.3134 6.49299 2.14857 5.64699 2.14857C5.26299 2.14857 4.86699 2.19252 4.45999 2.29142C4.05399 2.39032 3.65799 2.5112 3.27399 2.665C3.09799 2.742 2.96599 2.7859 2.88899 2.8079C2.81199 2.8299 2.75698 2.8409 2.71298 2.8409C2.55898 2.8409 2.48198 2.731 2.48198 2.5002V1.96175C2.48198 1.78593 2.50399 1.65406 2.55899 1.57714C2.61399 1.50021 2.71299 1.42329 2.86699 1.34637C3.25199 1.14857 3.71298 0.983734 4.25198 0.851864C4.78998 0.709014 5.36099 0.643074 5.96599 0.643074C7.27399 0.643074 8.22999 0.939774 8.84499 1.53318C9.44899 2.12659 9.75699 3.0277 9.75699 4.2365V7.7969H9.77899ZM5.31798 9.4672C5.67998 9.4672 6.05399 9.4013 6.44899 9.2694C6.84499 9.1376 7.19698 8.8958 7.49298 8.5661C7.66898 8.3574 7.80099 8.1266 7.86699 7.8629C7.93299 7.5991 7.97699 7.2804 7.97699 6.9068V6.4453C7.65799 6.3683 7.31799 6.3024 6.96599 6.2585C6.61399 6.2145 6.27398 6.1925 5.93298 6.1925C5.19698 6.1925 4.65799 6.3354 4.29599 6.6321C3.93299 6.9288 3.75699 7.3464 3.75699 7.8958C3.75699 8.4123 3.88899 8.7969 4.16399 9.0607C4.42699 9.3354 4.81198 9.4672 5.31798 9.4672ZM14.142 10.6541C13.944 10.6541 13.812 10.6211 13.724 10.5442C13.636 10.4782 13.559 10.3244 13.493 10.1156L10.911 1.62109C10.845 1.40131 10.812 1.25846 10.812 1.18153C10.812 1.00571 10.9 0.906814 11.076 0.906814H12.153C12.361 0.906814 12.504 0.939784 12.581 1.0167C12.669 1.08263 12.735 1.23648 12.801 1.44527L14.647 8.72L16.361 1.44527C16.416 1.22549 16.482 1.08263 16.57 1.0167C16.658 0.950764 16.812 0.906814 17.01 0.906814H17.889C18.098 0.906814 18.241 0.939784 18.328 1.0167C18.416 1.08263 18.493 1.23648 18.537 1.44527L20.274 8.8079L22.175 1.44527C22.241 1.22549 22.318 1.08263 22.394 1.0167C22.482 0.950764 22.625 0.906814 22.823 0.906814H23.845C24.021 0.906814 24.12 0.994724 24.12 1.18153C24.12 1.23648 24.109 1.29142 24.098 1.35736C24.087 1.42329 24.065 1.5112 24.021 1.63208L21.372 10.1266C21.307 10.3464 21.23 10.4892 21.142 10.5552C21.054 10.6211 20.911 10.665 20.724 10.665H19.779C19.57 10.665 19.427 10.6321 19.339 10.5552C19.252 10.4782 19.175 10.3354 19.131 10.1156L17.427 3.0277L15.735 10.1046C15.68 10.3244 15.614 10.4672 15.526 10.5442C15.438 10.6211 15.285 10.6541 15.087 10.6541H14.142ZM28.263 10.9508C27.691 10.9508 27.12 10.8848 26.57 10.753C26.021 10.6211 25.592 10.4782 25.307 10.3134C25.131 10.2145 25.01 10.1046 24.966 10.0057C24.922 9.9068 24.9 9.7969 24.9 9.698V9.1376C24.9 8.9068 24.988 8.7969 25.153 8.7969C25.219 8.7969 25.285 8.8079 25.35 8.8299C25.416 8.8519 25.515 8.8958 25.625 8.9398C25.999 9.1046 26.405 9.2365 26.834 9.3244C27.274 9.4123 27.702 9.4563 28.142 9.4563C28.834 9.4563 29.372 9.3354 29.746 9.0936C30.12 8.8519 30.317 8.5002 30.317 8.0497C30.317 7.742 30.219 7.4892 30.021 7.2804C29.823 7.0716 29.449 6.8848 28.911 6.709L27.318 6.2145C26.515 5.9618 25.922 5.5881 25.559 5.0936C25.197 4.6101 25.01 4.0716 25.01 3.5002C25.01 3.0387 25.109 2.6321 25.307 2.28043C25.504 1.92879 25.768 1.62109 26.098 1.37934C26.427 1.12659 26.801 0.939784 27.241 0.807914C27.68 0.676044 28.142 0.621094 28.625 0.621094C28.867 0.621094 29.12 0.632083 29.361 0.665053C29.614 0.698023 29.845 0.741973 30.076 0.785933C30.296 0.840873 30.504 0.895824 30.702 0.961754C30.9 1.02769 31.054 1.09362 31.164 1.15956C31.318 1.24747 31.427 1.33538 31.493 1.43428C31.559 1.52219 31.592 1.64307 31.592 1.79692V2.3134C31.592 2.5442 31.504 2.665 31.339 2.665C31.252 2.665 31.109 2.6211 30.922 2.5332C30.296 2.24747 29.592 2.10461 28.812 2.10461C28.186 2.10461 27.691 2.20351 27.35 2.4123C27.01 2.6211 26.834 2.9398 26.834 3.3903C26.834 3.698 26.944 3.9618 27.164 4.1705C27.383 4.3793 27.79 4.5881 28.372 4.7749L29.933 5.2694C30.724 5.5222 31.296 5.8738 31.636 6.3244C31.977 6.7749 32.142 7.2914 32.142 7.8629C32.142 8.3354 32.043 8.764 31.856 9.1376C31.658 9.5112 31.394 9.8409 31.054 10.1046C30.713 10.3793 30.307 10.5771 29.834 10.72C29.339 10.8738 28.823 10.9508 28.263 10.9508Z" fill="#252F3E"/>
<path fill-rule="evenodd" clip-rule="evenodd" d="M30.3379 16.2913C26.7229 18.9617 21.4699 20.3793 16.9539 20.3793C10.6239 20.3793 4.92088 18.0386 0.612879 14.1485C0.272879 13.8408 0.579872 13.4232 0.986872 13.665C5.64587 16.3683 11.3929 18.0056 17.3379 18.0056C21.3489 18.0056 25.7559 17.1705 29.8109 15.4562C30.4149 15.1815 30.9319 15.8518 30.3379 16.2913Z" fill="#FF9900"/>
<path fill-rule="evenodd" clip-rule="evenodd" d="M31.8449 14.5772C31.3839 13.9838 28.7899 14.2915 27.6149 14.4343C27.2629 14.4783 27.2079 14.1706 27.5269 13.9398C29.5929 12.4893 32.9879 12.9068 33.3839 13.3904C33.7789 13.8849 33.2739 17.2805 31.3399 18.9068C31.0429 19.1596 30.7569 19.0277 30.8889 18.6981C31.3289 17.6101 32.3069 15.1596 31.8449 14.5772Z" fill="#FF9900"/>
</g>
</svg>
