<svg width="21" height="21" viewBox="0 0 21 21" fill="none" xmlns="http://www.w3.org/2000/svg">
<g clip-path="url(#clip0_20_27)">
<path d="M10.9801 7.04883C10.9801 5.66812 12.0995 4.54883 13.4802 4.54883H18.6885C19.1487 4.54883 19.5218 4.92193 19.5218 5.38217V15.7989C19.5218 16.2591 19.1487 16.6322 18.6885 16.6322H13.711C13.144 16.6322 12.5882 16.769 12.1059 17.0671C11.6235 17.3652 11.2337 17.7917 10.9801 18.2989M10.9801 7.04883C10.9801 5.66812 9.86086 4.54883 8.48014 4.54883H3.27181C2.81157 4.54883 2.43848 4.92193 2.43848 5.38217V15.7989C2.43848 16.2591 2.81157 16.6322 3.27181 16.6322H8.24931C8.81632 16.6322 9.37213 16.769 9.85446 17.0671C10.3368 17.3652 10.7266 17.7917 10.9801 18.2989M10.9801 7.04883V18.2989" stroke="#0F4F57" stroke-width="1.5" stroke-linecap="round" stroke-linejoin="round"/>
</g>
<defs>
<clipPath id="clip0_20_27">
<rect width="20" height="20" fill="white" transform="translate(0.980469 0.589844)"/>
</clipPath>
</defs>
</svg>
