<svg width="18" height="17" viewBox="0 0 18 17" fill="none" xmlns="http://www.w3.org/2000/svg">
<path d="M13.4359 10.4648H15.1044C16.0249 10.4648 16.7711 9.71864 16.7711 8.79814V3.38151C16.7711 2.46103 16.0249 1.71484 15.1044 1.71484H6.56282C5.64234 1.71484 4.89615 2.46103 4.89615 3.38151V5.04817M11.7711 5.04817H3.02115C2.10068 5.04817 1.35449 5.79437 1.35449 6.71484V12.1315C1.35449 13.0519 2.10068 13.7981 3.02115 13.7981H4.06282V15.8815L7.81282 13.7981H11.7711C12.6916 13.7981 13.4378 13.0519 13.4378 12.1315V6.71484C13.4378 5.79437 12.6916 5.04817 11.7711 5.04817Z" stroke="#0F4F57" stroke-opacity="0.7" stroke-width="1.5" stroke-linecap="round" stroke-linejoin="round"/>
</svg>
