<svg width="23" height="23" viewBox="0 0 23 23" fill="none" xmlns="http://www.w3.org/2000/svg">
<path d="M11.6934 22.4999V18.234C16.2084 18.234 19.7134 13.7561 17.9804 9.0037C17.3434 7.2575 15.9344 5.848 14.1754 5.2118C9.42338 3.49049 4.9454 6.983 4.9454 11.4984H0.691406C0.691406 4.3013 7.65239 -1.31177 15.1984 1.0457C18.4914 2.081 21.1234 4.7004 22.1464 7.9934C24.5034 15.5398 18.8904 22.4999 11.6934 22.4999Z" fill="#0080FF"/>
<path fill-rule="evenodd" clip-rule="evenodd" d="M11.7071 18.2583H7.45312V14.0049H11.7071V18.2583Z" fill="#0080FF"/>
<path fill-rule="evenodd" clip-rule="evenodd" d="M7.45129 21.5143H4.19531V18.2588H7.45129V21.5143Z" fill="#0080FF"/>
<path fill-rule="evenodd" clip-rule="evenodd" d="M4.19489 18.259H1.46289V15.5273H4.19489V18.259Z" fill="#0080FF"/>
</svg>
