<svg width="1032" height="282" viewBox="0 0 1032 282" fill="none" xmlns="http://www.w3.org/2000/svg">
<g clip-path="url(#clip0_1_11034)">
<g clip-path="url(#clip1_1_11034)">
<g clip-path="url(#clip2_1_11034)">
<mask id="mask0_1_11034" style="mask-type:luminance" maskUnits="userSpaceOnUse" x="0" y="-72" width="1070" height="426">
<path d="M0 -71.3701H1070V353.63H0V-71.3701Z" fill="white"/>
</mask>
<g mask="url(#mask0_1_11034)">
<path opacity="0.2" d="M876.775 160.676L873.671 202.881L832.118 225.159L766.775 229.838L715.189 233.877L718.088 145.731L876.775 160.676Z" fill="black"/>
<path d="M626.804 151.09L724.704 94.4336L812.84 145.439L714.94 202.095L626.804 151.09Z" fill="#1F1F1F"/>
<path d="M626.775 104.046L673.732 17.999L762.073 69.1905L715.105 155.261L626.775 104.046Z" fill="#585858"/>
<path fill-rule="evenodd" clip-rule="evenodd" d="M674.089 34.8214L640.727 95.9563C639.996 97.296 639.817 98.8692 640.228 100.339C640.64 101.81 641.609 103.06 642.928 103.824L706.734 140.749C707.407 141.138 708.151 141.389 708.922 141.486C709.693 141.583 710.475 141.525 711.224 141.315C711.972 141.105 712.671 140.747 713.279 140.262C713.887 139.777 714.393 139.176 714.766 138.492L748.136 77.3405C748.867 76.0006 749.046 74.4272 748.635 72.9567C748.224 71.4862 747.254 70.2354 745.935 69.472L682.12 32.5631C681.447 32.174 680.703 31.9237 679.932 31.8267C679.161 31.7298 678.379 31.7882 677.63 31.9986C676.882 32.209 676.184 32.567 675.575 33.0518C674.967 33.5365 674.462 34.1382 674.089 34.8214Z" fill="#1F1F1F"/>
<path d="M645.236 95.705L678.598 34.5701C679.176 33.5051 680.072 32.6482 681.161 32.1194C679.854 31.6534 678.424 31.6695 677.128 32.1648C675.832 32.66 674.755 33.602 674.089 34.8217L640.727 95.9566C639.996 97.2963 639.817 98.8695 640.228 100.34C640.64 101.81 641.609 103.061 642.928 103.824L706.734 140.75C707.56 141.229 708.491 141.497 709.444 141.53C710.398 141.564 711.345 141.363 712.203 140.943C711.87 140.824 711.549 140.675 711.243 140.497L647.436 103.572C646.117 102.809 645.148 101.558 644.737 100.088C644.326 98.6177 644.505 97.0446 645.236 95.705Z" fill="#131313"/>
<path d="M673.73 18.0721L724.511 -11.1016L812.667 39.8734L762.086 69.1743L673.73 18.0721Z" fill="#484848"/>
<path d="M687.844 21.7761C685.079 20.1763 685.087 17.5792 687.857 15.9825C690.617 14.3927 695.084 14.3917 697.84 15.9845C700.602 17.5802 700.599 20.1723 697.84 21.7701C695.082 23.3678 690.605 23.3719 687.844 21.7761Z" fill="#2D2D2D"/>
<path d="M687.752 20.1077C684.987 18.5099 684.991 15.9158 687.76 14.3201L687.899 14.2399C690.657 12.6501 695.119 12.6521 697.873 14.2439C700.634 15.8396 700.637 18.4287 697.878 20.0255L697.74 20.1057C694.983 21.7024 690.511 21.7034 687.752 20.1077Z" fill="#585858"/>
<path d="M762.059 69.1471L812.658 39.8652V181.097L762.059 210.377L713.457 232.799L707.826 195.888L714.911 155.24L762.059 69.1471Z" fill="#1C1C1C"/>
<path d="M740.468 51.7266C738.87 50.8035 738.872 49.3039 740.473 48.3818L755.993 39.4437C757.587 38.5256 760.165 38.5266 761.756 39.4467L780.406 50.2261C782.001 51.1483 782.002 52.6438 780.409 53.567L764.928 62.5321C763.335 63.4542 760.751 63.4552 759.157 62.5331L740.468 51.7266Z" fill="#2D2D2D"/>
<path d="M740.579 49.5157C738.981 48.5925 738.984 47.093 740.585 46.1708L756.104 37.2328C757.699 36.3146 760.276 36.3156 761.867 37.2358L780.517 48.0152C782.112 48.9373 782.114 50.4329 780.52 51.356L765.04 60.3201C763.446 61.2433 760.863 61.2433 759.268 60.3221L740.579 49.5157Z" fill="#585858"/>
<path d="M626.775 104.028L714.939 155.073V233.719L626.775 182.697V104.028Z" fill="#303030"/>
<path d="M626.778 104.027L714.942 155.071V233.923L626.778 182.902V104.027Z" fill="#303030"/>
<path d="M634.282 142.444C634.282 139.987 636.003 138.992 638.126 140.222L654.055 149.448C655.197 150.11 656.123 151.718 656.123 153.04V189.255C656.123 190.577 655.196 191.113 654.054 190.452L636.351 180.208C635.208 179.546 634.282 177.938 634.282 176.615V142.444Z" fill="#1F1F1F"/>
<path d="M634.282 141.531C634.282 140.208 635.209 139.671 636.352 140.334L652.69 149.798C653.832 150.46 654.757 152.067 654.757 153.389V188.465C654.757 189.788 653.831 190.323 652.689 189.663L636.351 180.208C635.208 179.546 634.282 177.938 634.282 176.616V141.531Z" fill="#262626"/>
<path d="M696.729 163.451C696.729 161.157 698.337 160.23 700.318 161.381C702.294 162.529 703.896 165.31 703.896 167.598V208.031C703.896 210.321 702.292 211.249 700.312 210.105C698.334 208.959 696.729 206.174 696.729 203.883V163.451Z" fill="#131313"/>
<path d="M699.286 160.745C699.177 161.079 699.117 161.467 699.117 161.906V202.411C699.117 204.702 700.723 207.487 702.701 208.632C703.058 208.838 703.403 208.978 703.728 209.054C703.267 210.462 701.911 210.891 700.312 209.966C698.334 208.82 696.729 206.036 696.729 203.745V163.24C696.729 161.362 697.808 160.399 699.286 160.745Z" fill="#1F1F1F"/>
<path d="M639.001 133.018C641.985 134.744 644.403 133.344 644.403 129.891C644.403 126.438 641.985 122.239 639.001 120.512C636.017 118.785 633.599 120.185 633.599 123.638C633.599 127.092 636.017 131.291 639.001 133.018Z" fill="#1F1F1F"/>
<path d="M637.635 133.702C640.618 135.429 643.037 134.029 643.037 130.576C643.037 127.122 640.618 122.923 637.635 121.197C634.651 119.47 632.232 120.87 632.232 124.323C632.232 127.776 634.651 131.975 637.635 133.702Z" fill="#4A4A4A"/>
<path d="M652.655 141.227C655.639 142.953 658.058 141.553 658.058 138.1C658.058 134.647 655.639 130.448 652.655 128.721C649.672 126.994 647.253 128.394 647.253 131.847C647.253 135.301 649.672 139.5 652.655 141.227Z" fill="#1F1F1F"/>
<path d="M651.289 141.91C654.273 143.637 656.691 142.237 656.691 138.784C656.691 135.33 654.273 131.131 651.289 129.405C648.305 127.678 645.887 129.078 645.887 132.531C645.887 135.984 648.305 140.183 651.289 141.91Z" fill="#4A4A4A"/>
<path d="M714.942 155.331L810.772 99.873V177.894L714.942 233.352V155.331Z" fill="#1F1F1F"/>
<path d="M714.942 155.331L810.772 99.873V178.659L714.942 234.118V155.331Z" fill="#1C1C1C"/>
<path d="M803.821 115.752L758.569 141.94C757.589 142.507 756.795 143.886 756.795 145.02V197.465C756.795 198.599 757.589 199.058 758.569 198.491L803.821 172.303C804.801 171.736 805.595 170.358 805.595 169.224V116.779C805.595 115.645 804.801 115.185 803.821 115.752Z" fill="#252525"/>
<path d="M681.708 85.5545C681.469 85.9872 681.147 86.3679 680.76 86.6742C680.373 86.9805 679.929 87.2064 679.453 87.3386C678.978 87.4707 678.481 87.5065 677.992 87.4439C677.503 87.3813 677.031 87.2215 676.604 86.9738C674.803 85.9314 674.155 83.5909 675.163 81.7676C675.402 81.3349 675.724 80.9542 676.111 80.6479C676.498 80.3416 676.942 80.1158 677.418 79.9837C677.893 79.8516 678.39 79.8159 678.879 79.8787C679.368 79.9415 679.84 80.1015 680.267 80.3493L683.539 82.2427L681.708 85.5545ZM683.357 86.5098C683.595 86.077 683.918 85.6962 684.305 85.3898C684.692 85.0834 685.136 84.8575 685.611 84.7253C686.087 84.5931 686.584 84.5573 687.073 84.62C687.562 84.6827 688.034 84.8426 688.461 85.0904C690.261 86.1329 690.909 88.4734 689.901 90.2967L685.314 98.5902C685.075 99.0229 684.753 99.4035 684.366 99.7098C683.979 100.016 683.535 100.242 683.06 100.374C682.585 100.506 682.088 100.542 681.599 100.48C681.11 100.417 680.638 100.257 680.211 100.01C678.41 98.9671 677.762 96.6266 678.77 94.8033L683.357 86.5098Z" fill="#E01E5A"/>
<path d="M693.985 75.1024C692.184 74.0599 691.536 71.7194 692.544 69.8961C692.782 69.4635 693.105 69.083 693.492 68.7767C693.879 68.4705 694.323 68.2447 694.799 68.1127C695.274 67.9806 695.771 67.9449 696.26 68.0076C696.749 68.0702 697.221 68.2301 697.648 68.4778C699.449 69.5202 700.097 71.8608 699.088 73.684L697.257 76.9958L693.985 75.1024ZM693.061 76.7713C694.862 77.8138 695.509 80.1543 694.501 81.9776C694.262 82.4103 693.94 82.7909 693.553 83.0972C693.166 83.4036 692.721 83.6294 692.246 83.7614C691.771 83.8935 691.274 83.9292 690.785 83.8664C690.295 83.8037 689.824 83.6437 689.397 83.3959L681.204 78.6547C679.403 77.6123 678.756 75.2718 679.764 73.4485C680.002 73.0159 680.325 72.6353 680.712 72.3291C681.099 72.0229 681.543 71.7971 682.019 71.665C682.494 71.533 682.991 71.4972 683.48 71.5599C683.969 71.6226 684.441 71.7825 684.868 72.0302L693.061 76.7713Z" fill="#36C5F0"/>
<path d="M704.368 87.6868C704.607 87.2541 704.929 86.8734 705.316 86.5671C705.703 86.2608 706.148 86.035 706.623 85.9029C707.098 85.7709 707.595 85.7352 708.084 85.7979C708.574 85.8607 709.045 86.0207 709.472 86.2685C711.273 87.3099 711.921 89.6504 710.913 91.4737C710.675 91.9063 710.352 92.2869 709.965 92.5931C709.578 92.8994 709.134 93.1252 708.659 93.2574C708.183 93.3895 707.687 93.4254 707.197 93.3628C706.708 93.3003 706.236 93.1406 705.809 92.8931L702.537 90.9996L704.368 87.6868ZM702.72 86.7326C702.482 87.1653 702.159 87.5459 701.772 87.8523C701.385 88.1586 700.941 88.3844 700.466 88.5165C699.99 88.6485 699.493 88.6842 699.004 88.6215C698.515 88.5587 698.043 88.3987 697.616 88.1509C695.815 87.1095 695.167 84.769 696.176 82.9457L700.762 74.6522C701.001 74.2194 701.323 73.8386 701.71 73.5322C702.097 73.2258 702.542 72.9999 703.017 72.8677C703.492 72.7355 703.989 72.6997 704.478 72.7624C704.968 72.8251 705.439 72.985 705.866 73.2328C707.667 74.2753 708.314 76.6158 707.306 78.4391L702.72 86.7326Z" fill="#2EB67D"/>
<path d="M692.092 98.1392C693.893 99.1816 694.541 101.522 693.533 103.344C693.294 103.777 692.972 104.158 692.585 104.464C692.198 104.771 691.754 104.997 691.278 105.129C690.803 105.261 690.306 105.297 689.817 105.234C689.328 105.171 688.856 105.012 688.429 104.764C686.628 103.721 685.98 101.381 686.989 99.5575L688.82 96.2457L692.092 98.1392ZM693.015 96.4702C691.214 95.4288 690.566 93.0883 691.575 91.265C691.813 90.8323 692.136 90.4517 692.523 90.1454C692.91 89.8391 693.354 89.6132 693.829 89.481C694.304 89.3489 694.801 89.313 695.29 89.3756C695.779 89.4382 696.251 89.598 696.678 89.8457L704.871 94.5878C706.672 95.6293 707.32 97.9698 706.312 99.7931C706.073 100.226 705.751 100.606 705.364 100.912C704.976 101.219 704.532 101.445 704.057 101.577C703.582 101.709 703.085 101.745 702.596 101.682C702.107 101.62 701.635 101.46 701.208 101.212L693.015 96.4702Z" fill="#ECB22E"/>
<path d="M596.675 188.24L742.024 272.355C745.85 274.569 745.85 278.159 742.024 280.374L676.132 318.506C672.306 320.72 666.102 320.72 662.276 318.506L516.927 234.392C513.101 232.177 513.101 228.587 516.927 226.373L582.819 188.24C586.645 186.026 592.849 186.026 596.675 188.24Z" fill="black" fill-opacity="0.1"/>
<path d="M572.675 184.232L718.024 268.346C721.85 270.56 721.85 274.151 718.024 276.365L652.132 314.497C648.306 316.711 642.102 316.711 638.276 314.497L492.927 230.383C489.101 228.168 489.101 224.578 492.927 222.364L558.819 184.232C562.645 182.017 568.849 182.017 572.675 184.232Z" fill="#262626"/>
<path d="M638.275 318.006L492.928 233.891C490.996 232.773 490.039 231.304 490.058 229.838L490.054 214.803L720.893 260.911L720.892 275.947C720.856 277.37 719.9 278.786 718.024 279.873L652.132 318.006C648.305 320.22 642.102 320.22 638.275 318.006Z" fill="#1F1F1F"/>
<path d="M572.675 172.552L718.024 256.666C721.85 258.881 721.85 262.471 718.024 264.685L652.132 302.817C648.306 305.032 642.102 305.032 638.276 302.817L492.927 218.703C489.101 216.489 489.101 212.899 492.927 210.684L558.819 172.552C562.645 170.338 568.849 170.338 572.675 172.552Z" fill="#303030"/>
<path d="M573.634 171.2L716.125 253.661C719.952 255.876 719.952 259.466 716.125 261.68L652.135 298.712C648.308 300.927 642.104 300.927 638.278 298.712L495.787 216.251C491.96 214.037 491.96 210.447 495.787 208.233L559.778 171.2C563.604 168.986 569.808 168.986 573.634 171.2Z" fill="#484848"/>
<path d="M573.634 169.196L716.125 251.657C719.952 253.871 719.952 257.461 716.125 259.675L652.135 296.708C648.308 298.922 642.104 298.922 638.278 296.708L495.787 214.247C491.96 212.032 491.96 208.442 495.787 206.228L559.778 169.196C563.604 166.981 569.808 166.981 573.634 169.196Z" fill="#585858"/>
<path d="M588.427 214.5L598.692 220.441C600.605 221.548 600.605 223.343 598.692 224.45L587.791 230.759C585.877 231.866 582.775 231.866 580.862 230.759L570.597 224.818C568.684 223.711 568.684 221.916 570.597 220.809L581.499 214.5C583.412 213.393 586.514 213.393 588.427 214.5Z" fill="#484848"/>
<path d="M608.334 226.019L619.19 232.302C621.103 233.409 621.103 235.204 619.19 236.311L608.289 242.62C606.375 243.727 603.274 243.727 601.36 242.62L590.504 236.337C588.591 235.23 588.591 233.435 590.504 232.328L601.405 226.019C603.319 224.912 606.42 224.912 608.334 226.019Z" fill="#484848"/>
<path d="M567.626 202.463L578.774 208.914C580.687 210.021 580.687 211.816 578.774 212.924L567.873 219.233C565.959 220.34 562.858 220.34 560.944 219.233L549.796 212.781C547.883 211.674 547.883 209.879 549.796 208.771L560.698 202.463C562.611 201.355 565.713 201.355 567.626 202.463Z" fill="#484848"/>
<path d="M546.515 190.246L557.578 196.648C559.491 197.755 559.491 199.55 557.578 200.657L546.676 206.966C544.763 208.073 541.661 208.073 539.748 206.966L528.685 200.564C526.772 199.457 526.772 197.662 528.685 196.554L539.587 190.246C541.5 189.138 544.602 189.138 546.515 190.246Z" fill="#484848"/>
<path d="M628.809 237.87L639.821 244.242C641.734 245.35 641.734 247.145 639.821 248.252L628.919 254.561C627.006 255.668 623.904 255.668 621.991 254.561L610.98 248.188C609.066 247.081 609.066 245.286 610.98 244.179L621.881 237.87C623.794 236.763 626.896 236.763 628.809 237.87Z" fill="#484848"/>
<path d="M650.367 250.339L683.139 269.305C685.053 270.412 685.053 272.207 683.139 273.314L672.238 279.623C670.325 280.73 667.223 280.73 665.31 279.623L632.537 260.658C630.624 259.55 630.624 257.755 632.537 256.648L643.439 250.339C645.352 249.232 648.454 249.232 650.367 250.339Z" fill="#484848"/>
<path d="M547.207 213.785L558.445 220.288C560.358 221.395 560.358 223.191 558.445 224.298L547.543 230.607C545.63 231.714 542.528 231.714 540.615 230.607L529.378 224.103C527.464 222.996 527.464 221.201 529.378 220.094L540.279 213.785C542.192 212.678 545.294 212.678 547.207 213.785Z" fill="#484848"/>
<path d="M526.054 201.543L536.967 207.859C538.88 208.966 538.88 210.761 536.967 211.868L526.065 218.177C524.152 219.284 521.05 219.284 519.137 218.177L508.224 211.861C506.311 210.754 506.311 208.959 508.224 207.852L519.125 201.543C521.039 200.436 524.141 200.436 526.054 201.543Z" fill="#484848"/>
<path d="M630.972 262.261L642.06 268.678C643.973 269.785 643.973 271.58 642.06 272.687L631.159 278.996C629.246 280.103 626.144 280.103 624.23 278.996L613.142 272.579C611.229 271.472 611.229 269.677 613.142 268.57L624.043 262.261C625.957 261.154 629.058 261.154 630.972 262.261Z" fill="#484848"/>
<path d="M652.097 274.487L662.969 280.778C664.883 281.886 664.883 283.681 662.969 284.788L652.068 291.097C650.155 292.204 647.053 292.204 645.14 291.097L634.268 284.805C632.354 283.698 632.354 281.903 634.268 280.796L645.169 274.487C647.082 273.38 650.184 273.38 652.097 274.487Z" fill="#484848"/>
<path d="M567.879 225.748L620.767 256.355C622.681 257.462 622.681 259.257 620.767 260.364L609.866 266.673C607.953 267.78 604.851 267.78 602.938 266.673L550.049 236.066C548.136 234.959 548.136 233.164 550.049 232.056L560.951 225.748C562.864 224.64 565.966 224.64 567.879 225.748Z" fill="#484848"/>
<path d="M565.761 178.217L598.44 197.128C600.353 198.235 600.353 200.03 598.44 201.138L587.539 207.446C585.625 208.554 582.524 208.554 580.61 207.446L547.932 188.535C546.018 187.428 546.018 185.633 547.932 184.525L558.833 178.217C560.746 177.109 563.848 177.109 565.761 178.217Z" fill="#484848"/>
<path d="M651.093 227.53L661.358 233.471C663.271 234.578 663.271 236.373 661.358 237.48L650.457 243.789C648.543 244.896 645.442 244.896 643.528 243.789L633.263 237.849C631.35 236.741 631.35 234.946 633.263 233.839L644.165 227.53C646.078 226.423 649.18 226.423 651.093 227.53Z" fill="#484848"/>
<path d="M671 239.05L681.856 245.333C683.769 246.44 683.769 248.235 681.856 249.343L670.955 255.651C669.041 256.759 665.94 256.759 664.026 255.651L653.17 249.369C651.257 248.261 651.257 246.466 653.17 245.359L664.071 239.05C665.985 237.943 669.086 237.943 671 239.05Z" fill="#484848"/>
<path d="M630.292 215.493L641.44 221.945C643.353 223.052 643.353 224.847 641.44 225.954L630.539 232.263C628.625 233.37 625.524 233.37 623.61 232.263L612.462 225.811C610.549 224.704 610.549 222.909 612.462 221.802L623.364 215.493C625.277 214.386 628.379 214.386 630.292 215.493Z" fill="#484848"/>
<path d="M609.182 203.276L620.245 209.678C622.158 210.785 622.158 212.58 620.245 213.687L609.343 219.996C607.43 221.103 604.328 221.103 602.415 219.996L591.352 213.594C589.439 212.487 589.439 210.692 591.352 209.585L602.254 203.276C604.167 202.169 607.269 202.169 609.182 203.276Z" fill="#484848"/>
<path d="M691.476 250.9L702.488 257.273C704.401 258.38 704.401 260.175 702.488 261.282L691.586 267.591C689.673 268.698 686.571 268.698 684.658 267.591L673.647 261.218C671.733 260.111 671.733 258.316 673.647 257.209L684.548 250.9C686.461 249.793 689.563 249.793 691.476 250.9Z" fill="#484848"/>
<path d="M588.427 212.495L598.692 218.436C600.605 219.543 600.605 221.338 598.692 222.445L587.791 228.754C585.877 229.861 582.775 229.861 580.862 228.754L570.597 222.814C568.684 221.706 568.684 219.911 570.597 218.804L581.499 212.495C583.412 211.388 586.514 211.388 588.427 212.495Z" fill="#696969"/>
<path d="M608.334 224.014L619.19 230.297C621.103 231.404 621.103 233.199 619.19 234.306L608.289 240.615C606.375 241.722 603.274 241.722 601.36 240.615L590.504 234.333C588.591 233.225 588.591 231.43 590.504 230.323L601.405 224.014C603.319 222.907 606.42 222.907 608.334 224.014Z" fill="#696969"/>
<path d="M567.626 200.458L578.774 206.909C580.687 208.017 580.687 209.812 578.774 210.919L567.873 217.228C565.959 218.335 562.858 218.335 560.944 217.228L549.796 210.776C547.883 209.669 547.883 207.874 549.796 206.767L560.698 200.458C562.611 199.35 565.713 199.35 567.626 200.458Z" fill="#696969"/>
<path d="M546.515 188.241L557.578 194.643C559.491 195.75 559.491 197.545 557.578 198.652L546.676 204.961C544.763 206.068 541.661 206.068 539.748 204.961L528.685 198.559C526.772 197.452 526.772 195.657 528.685 194.55L539.587 188.241C541.5 187.134 544.602 187.134 546.515 188.241Z" fill="#696969"/>
<path d="M628.809 235.865L639.821 242.237C641.734 243.345 641.734 245.14 639.821 246.247L628.919 252.556C627.006 253.663 623.904 253.663 621.991 252.556L610.98 246.183C609.066 245.076 609.066 243.281 610.98 242.174L621.881 235.865C623.794 234.758 626.896 234.758 628.809 235.865Z" fill="#696969"/>
<path d="M650.367 248.334L683.139 267.3C685.053 268.407 685.053 270.202 683.139 271.309L672.238 277.618C670.325 278.725 667.223 278.725 665.31 277.618L632.537 258.653C630.624 257.545 630.624 255.75 632.537 254.643L643.439 248.334C645.352 247.227 648.454 247.227 650.367 248.334Z" fill="#696969"/>
<path d="M547.207 211.781L558.445 218.284C560.358 219.392 560.358 221.187 558.445 222.294L547.543 228.603C545.63 229.71 542.528 229.71 540.615 228.603L529.378 222.099C527.464 220.992 527.464 219.197 529.378 218.09L540.279 211.781C542.192 210.674 545.294 210.674 547.207 211.781Z" fill="#696969"/>
<path d="M526.054 199.538L536.967 205.854C538.88 206.961 538.88 208.756 536.967 209.863L526.065 216.172C524.152 217.279 521.05 217.279 519.137 216.172L508.224 209.857C506.311 208.749 506.311 206.954 508.224 205.847L519.125 199.538C521.039 198.431 524.141 198.431 526.054 199.538Z" fill="#696969"/>
<path d="M630.972 260.256L642.06 266.673C643.973 267.78 643.973 269.575 642.06 270.682L631.159 276.991C629.246 278.098 626.144 278.098 624.23 276.991L613.142 270.574C611.229 269.467 611.229 267.672 613.142 266.565L624.043 260.256C625.957 259.149 629.058 259.149 630.972 260.256Z" fill="#696969"/>
<path d="M652.097 272.482L662.969 278.774C664.883 279.881 664.883 281.676 662.969 282.783L652.068 289.092C650.155 290.199 647.053 290.199 645.14 289.092L634.268 282.8C632.354 281.693 632.354 279.898 634.268 278.791L645.169 272.482C647.082 271.375 650.184 271.375 652.097 272.482Z" fill="#696969"/>
<path d="M567.879 223.743L620.767 254.35C622.681 255.457 622.681 257.252 620.767 258.359L609.866 264.668C607.953 265.775 604.851 265.775 602.938 264.668L550.049 234.061C548.136 232.954 548.136 231.159 550.049 230.052L560.951 223.743C562.864 222.636 565.966 222.636 567.879 223.743Z" fill="#696969"/>
<path d="M565.761 176.212L598.44 195.123C600.353 196.23 600.353 198.025 598.44 199.133L587.539 205.441C585.625 206.549 582.524 206.549 580.61 205.441L547.932 186.53C546.018 185.423 546.018 183.628 547.932 182.521L558.833 176.212C560.746 175.105 563.848 175.105 565.761 176.212Z" fill="#696969"/>
<path d="M651.093 225.526L661.358 231.466C663.271 232.573 663.271 234.368 661.358 235.475L650.457 241.784C648.543 242.891 645.442 242.891 643.528 241.784L633.263 235.844C631.35 234.737 631.35 232.942 633.263 231.834L644.165 225.526C646.078 224.418 649.18 224.418 651.093 225.526Z" fill="#696969"/>
<path d="M671 237.046L681.856 243.328C683.769 244.435 683.769 246.231 681.856 247.338L670.955 253.647C669.041 254.754 665.94 254.754 664.026 253.647L653.17 247.364C651.257 246.257 651.257 244.462 653.17 243.354L664.071 237.046C665.985 235.938 669.086 235.938 671 237.046Z" fill="#696969"/>
<path d="M630.292 213.488L641.44 219.94C643.353 221.047 643.353 222.842 641.44 223.949L630.539 230.258C628.625 231.365 625.524 231.365 623.61 230.258L612.462 223.806C610.549 222.699 610.549 220.904 612.462 219.797L623.364 213.488C625.277 212.381 628.379 212.381 630.292 213.488Z" fill="#696969"/>
<path d="M609.182 201.271L620.245 207.673C622.158 208.78 622.158 210.575 620.245 211.682L609.343 217.991C607.43 219.098 604.328 219.098 602.415 217.991L591.352 211.589C589.439 210.482 589.439 208.687 591.352 207.58L602.254 201.271C604.167 200.164 607.269 200.164 609.182 201.271Z" fill="#696969"/>
<path d="M691.476 248.895L702.488 255.268C704.401 256.375 704.401 258.17 702.488 259.277L691.586 265.586C689.673 266.693 686.571 266.693 684.658 265.586L673.647 259.214C671.733 258.106 671.733 256.311 673.647 255.204L684.548 248.895C686.461 247.788 689.563 247.788 691.476 248.895Z" fill="#696969"/>
</g>
</g>
</g>
<g clip-path="url(#clip3_1_11034)">
<g clip-path="url(#clip4_1_11034)">
<path d="M878.488 216.003C878.488 203.464 887.248 188.218 898.053 181.949C908.859 175.68 917.618 180.762 917.618 193.3C917.618 205.838 908.859 221.085 898.053 227.354C887.248 233.623 878.488 228.541 878.488 216.003Z" fill="#1F1F1F"/>
<path d="M935.691 203.896C935.691 216.434 926.931 231.68 916.126 237.949C910.471 241.23 905.376 241.402 901.804 239.022L883.635 228.363C880.439 226.177 878.488 221.921 878.488 216.003C878.488 203.465 887.248 188.219 898.053 181.95C903.556 178.758 908.528 178.508 912.082 180.688L930.544 191.536C933.74 193.722 935.691 197.978 935.691 203.896Z" fill="#131313"/>
<path opacity="0.2" d="M1009.13 208.49L1012.54 218.018C1015.76 227.005 1009.29 236.524 999.787 236.783L965.057 237.731C963.619 237.77 962.21 237.324 961.054 236.465C959.898 235.605 959.061 234.381 958.678 232.988C958.443 232.126 958.03 231.322 957.467 230.629C956.904 229.937 956.203 229.37 955.409 228.966C954.615 228.562 953.746 228.329 952.857 228.283C951.968 228.237 951.079 228.379 950.248 228.698C943.516 231.28 935.055 234.437 925.832 236.918C918.174 238.98 911.823 231.736 913.987 224.07C914.902 220.829 917.23 218.171 920.334 216.898C929.926 212.969 939.076 209.776 947.256 209.907C950.974 209.967 954.728 207.848 955.603 204.216C955.946 202.789 956.757 201.52 957.905 200.612C959.052 199.705 960.47 199.211 961.931 199.211H995.999C998.872 199.211 1001.68 200.102 1004.03 201.763C1006.38 203.424 1008.16 205.773 1009.13 208.49Z" fill="black"/>
<path d="M896.56 226.598C896.56 214.06 905.32 198.814 916.125 192.545C926.931 186.275 935.69 191.358 935.69 203.896C935.69 216.434 926.931 231.68 916.125 237.95C905.32 244.219 896.56 239.137 896.56 226.598Z" fill="#1F1F1F"/>
<path d="M925.65 187.247C925.65 184.46 923.704 183.33 921.302 184.724L912.172 190.021C909.771 191.414 907.824 194.803 907.824 197.589V221.805C907.824 225.984 910.744 227.678 914.346 225.589L919.998 222.309C923.119 220.499 925.651 216.094 925.651 212.471V187.246L925.65 187.247Z" fill="#303030"/>
<path d="M927.657 187.247C927.657 184.46 925.712 183.33 923.311 184.724L914.179 190.021C911.779 191.414 909.833 194.803 909.833 197.589V221.805C909.833 225.984 912.752 227.678 916.354 225.589L922.006 222.309C925.127 220.499 927.658 216.094 927.658 212.471V187.246L927.657 187.247Z" fill="#484848"/>
<path d="M898.255 215.938L863.179 196.112C860.726 194.726 859.5 192.909 859.5 191.093V167.066H954.766V191.091C954.766 192.908 953.541 194.725 951.089 196.11L922.733 212.141L916.016 215.938C911.111 218.709 903.159 218.709 898.255 215.938Z" fill="#303030"/>
<path d="M951.09 172.198C955.994 169.345 955.994 164.719 951.09 161.866L916.014 141.459C911.109 138.606 903.158 138.606 898.254 141.459L863.179 161.866C858.274 164.719 858.274 169.345 863.179 172.198L898.254 192.604C903.159 195.458 911.109 195.458 916.014 192.604L951.09 172.198Z" fill="#1F1F1F"/>
<path d="M898.255 185.667L863.179 165.842C860.726 164.455 859.5 162.639 859.5 160.823V136.797H954.766V160.823C954.766 162.639 953.54 164.455 951.089 165.842L922.731 181.87L916.014 185.667C911.109 188.439 903.159 188.439 898.255 185.667Z" fill="#303030"/>
<path d="M939.559 173.2C939.559 170.414 937.613 169.284 935.212 170.678L930.671 173.313C928.27 174.705 926.324 178.093 926.324 180.879V196.352C926.324 200.531 929.243 202.225 932.845 200.135L933.908 199.519C937.028 197.708 939.56 193.304 939.56 189.682L939.559 173.2Z" fill="#484848"/>
<path d="M940.812 173.939C940.812 171.153 938.865 170.024 936.464 171.417L931.924 174.051C929.522 175.444 927.576 178.833 927.576 181.619V196.352C927.576 200.532 930.496 202.226 934.098 200.136L935.16 199.519C938.282 197.709 940.812 193.304 940.812 189.681V173.939Z" fill="#606060"/>
<path d="M951.09 141.928C955.994 139.075 955.994 134.45 951.09 131.596L916.014 111.19C911.109 108.337 903.159 108.337 898.254 111.19L863.179 131.596C858.274 134.45 858.274 139.075 863.179 141.929L898.254 162.336C903.159 165.189 911.11 165.189 916.014 162.336L951.09 141.928Z" fill="#484848"/>
<path d="M942.704 140.509C945.461 138.911 945.452 136.315 942.691 134.719C939.94 133.13 935.487 133.129 932.74 134.72C929.987 136.316 929.989 138.908 932.74 140.504C935.489 142.099 939.953 142.103 942.704 140.509Z" fill="#2D2D2D"/>
<path d="M942.795 138.843C945.552 137.245 945.548 134.653 942.787 133.058L942.649 132.978C939.899 131.388 935.451 131.39 932.706 132.982C929.953 134.576 929.95 137.164 932.701 138.76L932.838 138.84C935.588 140.436 940.045 140.437 942.795 138.843Z" fill="#585858"/>
<path d="M866.76 151.947C866.76 149.43 868.518 148.41 870.686 149.67L895.834 164.269C897.001 164.946 897.947 166.593 897.947 167.946V205.996C897.947 207.35 897 207.899 895.833 207.222L868.873 191.582C867.707 190.905 866.76 189.258 866.76 187.904V151.947Z" fill="#1F1F1F"/>
<path d="M866.045 151.555C866.045 150.2 866.992 149.652 868.158 150.329L893.838 165.239C895.006 165.916 895.952 167.563 895.952 168.916V204.84C895.952 206.194 895.005 206.744 893.838 206.066L868.158 191.167C866.992 190.49 866.045 188.843 866.045 187.489V151.555Z" fill="#262626"/>
<path d="M884.354 164.94L885.803 165.781C887.003 166.477 887.977 168.171 887.977 169.564V181.466C887.977 182.859 887.003 183.424 885.803 182.727L884.354 181.886C883.153 181.19 882.18 179.496 882.18 178.103V166.201C882.18 164.808 883.153 164.244 884.354 164.94Z" fill="#D9D9D9"/>
<path d="M875.317 159.398L876.766 160.239C877.966 160.935 878.939 162.629 878.939 164.022V175.924C878.939 177.317 877.966 177.882 876.766 177.185L875.317 176.344C874.116 175.648 873.143 173.954 873.143 172.561V160.66C873.143 159.266 874.116 158.702 875.317 159.398Z" fill="#D9D9D9"/>
</g>
</g>
</g>
<defs>
<clipPath id="clip0_1_11034">
<rect width="1070" height="425" fill="white" transform="translate(0 -71.3701)"/>
</clipPath>
<clipPath id="clip1_1_11034">
<rect width="1070" height="425" fill="white" transform="translate(0 -71.3701)"/>
</clipPath>
<clipPath id="clip2_1_11034">
<rect width="1070" height="425" fill="white" transform="translate(0 -71.3701)"/>
</clipPath>
<clipPath id="clip3_1_11034">
<rect width="160.5" height="140.25" fill="white" transform="translate(859.5 109.05)"/>
</clipPath>
<clipPath id="clip4_1_11034">
<rect width="160.5" height="140.25" fill="white" transform="translate(859.5 109.05)"/>
</clipPath>
</defs>
</svg>
