<svg width="128" height="21" viewBox="0 0 128 21" fill="none" xmlns="http://www.w3.org/2000/svg">
<path d="M15.606 5.793H16.3203L18.356 3.7573L18.456 2.893C17.2898 1.86366 15.8805 1.14862 14.3611 0.815421C12.8418 0.482221 11.2625 0.541861 9.77261 0.988691C8.28271 1.43552 6.93131 2.25479 5.84611 3.3691C4.76081 4.4835 3.97761 5.8561 3.57031 7.3573C3.79711 7.2643 4.04831 7.2492 4.28461 7.3144L8.35601 6.643C8.35601 6.643 8.56321 6.3001 8.67031 6.3215C9.54271 5.3634 10.7483 4.775 12.0403 4.6768C13.3323 4.5785 14.6131 4.9778 15.6203 5.793H15.606Z" fill="#EA4335"/>
<path d="M21.2582 7.357C20.7903 5.6339 19.8296 4.0849 18.4939 2.8999L15.6368 5.757C16.2322 6.2436 16.7094 6.859 17.0324 7.5569C17.3553 8.2547 17.5156 9.0168 17.5011 9.7856V10.2928C17.835 10.2928 18.1657 10.3585 18.4742 10.4863C18.7827 10.6141 19.063 10.8014 19.2991 11.0375C19.5353 11.2737 19.7226 11.554 19.8504 11.8625C19.9781 12.171 20.0439 12.5017 20.0439 12.8356C20.0439 13.1696 19.9781 13.5002 19.8504 13.8087C19.7226 14.1172 19.5353 14.3976 19.2991 14.6337C19.063 14.8698 18.7827 15.0571 18.4742 15.1849C18.1657 15.3127 17.835 15.3785 17.5011 15.3785H12.4153L11.9082 15.8928V18.9428L12.4153 19.4499H17.5011C18.9212 19.461 20.3072 19.0146 21.4541 18.1769C22.6009 17.3392 23.4476 16.1545 23.869 14.7983C24.2904 13.442 24.264 11.9861 23.7938 10.646C23.3236 9.3059 22.4346 8.1527 21.2582 7.357Z" fill="#4285F4"/>
<path d="M7.32288 19.4216H12.4086V15.3502H7.32288C6.96058 15.3501 6.60248 15.2721 6.27288 15.1216L5.55858 15.343L3.50858 17.3787L3.33008 18.093C4.47968 18.9611 5.88238 19.4278 7.32288 19.4216Z" fill="#34A853"/>
<path d="M7.32088 6.21391C5.94288 6.22211 4.60188 6.66061 3.48518 7.46791C2.36838 8.27531 1.53168 9.41131 1.09198 10.7172C0.652182 12.0232 0.631283 13.4339 1.03218 14.7523C1.43298 16.0707 2.23568 17.231 3.32798 18.0711L6.27798 15.1211C5.90308 14.9517 5.57488 14.6939 5.32158 14.3698C5.06818 14.0457 4.89728 13.665 4.82338 13.2603C4.74958 12.8556 4.77498 12.439 4.89748 12.0463C5.02008 11.6536 5.23598 11.2965 5.52688 11.0057C5.81778 10.7148 6.17488 10.4988 6.56758 10.3763C6.96028 10.2538 7.37678 10.2283 7.78148 10.3022C8.18618 10.3761 8.56688 10.547 8.89098 10.8003C9.21508 11.0537 9.47288 11.3819 9.64228 11.7568L12.5923 8.80681C11.9731 7.99731 11.1751 7.34211 10.2606 6.89221C9.34608 6.44241 8.33998 6.21031 7.32088 6.21391Z" fill="#FBBC05"/>
<path d="M37.7051 16.5784C36.8295 16.5896 35.9606 16.4239 35.1505 16.0913C34.3405 15.7587 33.6059 15.266 32.9908 14.6427C32.3563 14.0459 31.8528 13.3237 31.5122 12.522C31.1716 11.7203 31.0013 10.8566 31.0122 9.9856C31.0018 9.1146 31.1722 8.251 31.5128 7.4494C31.8534 6.6477 32.3566 5.9255 32.9908 5.3284C33.6029 4.6987 34.3361 4.1994 35.1463 3.8606C35.9565 3.5218 36.8269 3.3505 37.7051 3.357C38.5418 3.3459 39.3724 3.5011 40.1486 3.8138C40.9248 4.1265 41.6311 4.5904 42.2265 5.1784L40.9551 6.4713C40.0844 5.6298 38.9158 5.1675 37.7051 5.1856C37.077 5.1779 36.4542 5.3009 35.8763 5.5468C35.2983 5.7928 34.7778 6.1562 34.3479 6.6141C33.9011 7.0574 33.5486 7.5865 33.3117 8.1696C33.0748 8.7527 32.9583 9.3777 32.9694 10.007C32.9641 10.6291 33.0834 11.246 33.3201 11.8213C33.5569 12.3966 33.9063 12.9188 34.3479 13.357C35.2325 14.2385 36.4261 14.74 37.6748 14.7546C38.9235 14.7693 40.1286 14.296 41.0336 13.4356C41.5939 12.822 41.9377 12.0417 42.0122 11.2141H37.7265V9.3856H43.7908C43.8504 9.7538 43.8743 10.127 43.8622 10.4999C43.8999 11.2716 43.7807 12.0429 43.5119 12.7673C43.243 13.4916 42.83 14.1539 42.2979 14.7141C41.7063 15.3301 40.9915 15.8145 40.2002 16.1357C39.4088 16.4569 38.5586 16.6078 37.7051 16.5784ZM51.8051 15.3642C50.9912 16.1443 49.9074 16.5798 48.7801 16.5798C47.6527 16.5798 46.5689 16.1443 45.7551 15.3642C45.35 14.9714 45.031 14.4987 44.8182 13.9761C44.6055 13.4535 44.5037 12.8924 44.5194 12.3284C44.5042 11.7645 44.6062 11.2035 44.8189 10.681C45.0316 10.1585 45.3503 9.6857 45.7551 9.2927C46.5698 8.5142 47.6532 8.0798 48.7801 8.0798C49.9069 8.0798 50.9904 8.5142 51.8051 9.2927C52.2098 9.6857 52.5286 10.1585 52.7413 10.681C52.954 11.2035 53.056 11.7645 53.0408 12.3284C53.0555 12.893 52.9526 13.4544 52.7386 13.977C52.5246 14.4996 52.2043 14.972 51.7979 15.3642H51.8051ZM47.0908 14.1713C47.3073 14.4025 47.5689 14.5868 47.8594 14.7127C48.15 14.8387 48.4634 14.9037 48.7801 14.9037C49.0968 14.9037 49.4101 14.8387 49.7007 14.7127C49.9913 14.5868 50.2529 14.4025 50.4694 14.1713C50.7054 13.9273 50.8902 13.6386 51.0129 13.3221C51.1355 13.0056 51.1936 12.6677 51.1836 12.3284C51.1942 11.988 51.1364 11.6489 51.0137 11.3312C50.891 11.0134 50.7059 10.7235 50.4694 10.4784C50.25 10.2496 49.9866 10.0676 49.6951 9.9432C49.4036 9.8188 49.0899 9.7547 48.7729 9.7547C48.456 9.7547 48.1423 9.8188 47.8507 9.9432C47.5592 10.0676 47.2958 10.2496 47.0765 10.4784C46.8399 10.7235 46.6548 11.0134 46.5321 11.3312C46.4095 11.6489 46.3517 11.988 46.3622 12.3284C46.3532 12.6682 46.4124 13.0064 46.5363 13.3229C46.6602 13.6395 46.8463 13.9279 47.0836 14.1713H47.0908ZM61.1051 15.3642C60.2912 16.1443 59.2074 16.5798 58.0801 16.5798C56.9527 16.5798 55.8689 16.1443 55.0551 15.3642C54.65 14.9714 54.331 14.4987 54.1182 13.9761C53.9055 13.4535 53.8037 12.8924 53.8194 12.3284C53.8042 11.7645 53.9062 11.2035 54.1189 10.681C54.3316 10.1585 54.6503 9.6857 55.0551 9.2927C55.8689 8.5126 56.9527 8.077 58.0801 8.077C59.2074 8.077 60.2912 8.5126 61.1051 9.2927C61.5098 9.6857 61.8286 10.1585 62.0413 10.681C62.254 11.2035 62.356 11.7645 62.3408 12.3284C62.3564 12.8924 62.2546 13.4535 62.0419 13.9761C61.8292 14.4987 61.5101 14.9714 61.1051 15.3642ZM56.3908 14.1713C56.6073 14.4025 56.8689 14.5868 57.1594 14.7127C57.45 14.8387 57.7634 14.9037 58.0801 14.9037C58.3968 14.9037 58.7101 14.8387 59.0007 14.7127C59.2913 14.5868 59.5529 14.4025 59.7693 14.1713C60.0054 13.9273 60.1902 13.6386 60.3129 13.3221C60.4355 13.0056 60.4936 12.6677 60.4836 12.3284C60.4942 11.988 60.4364 11.6489 60.3137 11.3312C60.191 11.0134 60.0059 10.7235 59.7693 10.4784C59.55 10.2496 59.2866 10.0676 58.9951 9.9432C58.7036 9.8188 58.3899 9.7547 58.0729 9.7547C57.756 9.7547 57.4423 9.8188 57.1507 9.9432C56.8592 10.0676 56.5958 10.2496 56.3765 10.4784C56.1399 10.7235 55.9548 11.0134 55.8321 11.3312C55.7095 11.6489 55.6517 11.988 55.6622 12.3284C55.6532 12.6682 55.7124 13.0064 55.8363 13.3229C55.9602 13.6395 56.1463 13.9279 56.3836 14.1713H56.3908ZM67.2193 20.3927C66.3632 20.42 65.5236 20.1527 64.8408 19.6356C64.2345 19.1798 63.757 18.5743 63.4551 17.8784L65.0836 17.1999C65.2609 17.6157 65.5381 17.9813 65.8908 18.2642C66.2682 18.5684 66.7419 18.728 67.2265 18.7142C67.5338 18.7328 67.8415 18.6851 68.1287 18.5742C68.4159 18.4632 68.6758 18.2917 68.8908 18.0713C69.3211 17.5522 69.5336 16.8866 69.4836 16.2142V15.5999H69.4193C69.1472 15.9232 68.8034 16.1786 68.4153 16.346C68.0273 16.5134 67.6056 16.5881 67.1836 16.5642C66.6473 16.5658 66.1165 16.4562 65.6248 16.2422C65.133 16.0283 64.6909 15.7147 64.3265 15.3213C63.931 14.931 63.6189 14.4645 63.409 13.9501C63.199 13.4357 63.0956 12.884 63.1051 12.3284C63.0952 11.7696 63.1983 11.2146 63.4082 10.6967C63.6181 10.1787 63.9304 9.7085 64.3265 9.3141C64.69 8.9191 65.1318 8.6039 65.6236 8.3887C66.1155 8.1735 66.6467 8.063 67.1836 8.0641C67.638 8.0634 68.0869 8.1634 68.4979 8.357C68.8535 8.5123 69.1705 8.744 69.4265 9.0356H69.4908V8.357H71.2622V15.9642C71.3088 16.5659 71.2322 17.1709 71.0369 17.742C70.8416 18.3131 70.5318 18.8383 70.1265 19.2856C69.7404 19.6549 69.2843 19.9432 68.785 20.1333C68.2856 20.3235 67.7533 20.4117 67.2193 20.3927ZM67.3479 14.907C67.6529 14.9137 67.9557 14.8532 68.2347 14.7297C68.5136 14.6063 68.762 14.423 68.9622 14.1927C69.4029 13.6877 69.6353 13.034 69.6122 12.3642C69.6387 11.6829 69.4065 11.0169 68.9622 10.4999C68.7624 10.2692 68.514 10.0856 68.235 9.9622C67.9559 9.8387 67.653 9.7784 67.3479 9.7856C67.0346 9.7791 66.7235 9.8395 66.4353 9.9627C66.1471 10.0858 65.8884 10.269 65.6765 10.4999C65.204 10.9984 64.9473 11.6632 64.9622 12.3499C64.9549 12.6867 65.0143 13.0216 65.1369 13.3354C65.2595 13.6492 65.4428 13.9357 65.6765 14.1784C65.8874 14.4116 66.1455 14.5971 66.4337 14.7227C66.7219 14.8484 67.0336 14.9112 67.3479 14.907ZM74.4122 3.8356V16.3213H72.5479V3.8356H74.4122ZM79.5265 16.5784C78.9682 16.5928 78.4129 16.4917 77.8955 16.2815C77.378 16.0714 76.9095 15.7566 76.5193 15.357C76.1234 14.9603 75.8123 14.4873 75.6047 13.9667C75.3972 13.4461 75.2977 12.8887 75.3122 12.3284C75.2911 11.7668 75.3833 11.2066 75.5833 10.6814C75.7833 10.1562 76.0871 9.6766 76.4765 9.2713C76.8434 8.8845 77.2871 8.5786 77.7791 8.3732C78.2711 8.1677 78.8006 8.0674 79.3336 8.0784C79.8238 8.0733 80.3099 8.168 80.7622 8.357C81.1696 8.5215 81.5409 8.7641 81.8551 9.0713C82.1248 9.3317 82.3644 9.6216 82.5693 9.9356C82.7351 10.2007 82.8762 10.4804 82.9908 10.7713L83.1836 11.257L77.4693 13.607C77.6422 14.0041 77.9312 14.3395 78.2985 14.569C78.6657 14.7985 79.0938 14.9114 79.5265 14.8927C79.9474 14.8939 80.3615 14.7859 80.7283 14.5793C81.0951 14.3728 81.4021 14.0747 81.6193 13.7141L83.0479 14.6784C82.6833 15.2 82.2168 15.6423 81.6765 15.9784C81.0339 16.3844 80.2864 16.593 79.5265 16.5784ZM77.1408 12.1999L80.9408 10.6213C80.8237 10.343 80.6143 10.1134 80.3479 9.9713C80.0496 9.8028 79.7119 9.7166 79.3693 9.7213C78.788 9.7363 78.2362 9.9802 77.8336 10.3999C77.5927 10.6304 77.4057 10.9112 77.286 11.2224C77.1662 11.5336 77.1166 11.8673 77.1408 12.1999Z" fill="#5F6368"/>
<path d="M92.9504 16.5787C92.1574 16.5923 91.3704 16.4457 90.6354 16.1475C89.9004 15.8493 89.2334 15.4056 88.6744 14.8433C88.1154 14.2809 87.6764 13.6113 87.3824 12.8748C87.0884 12.1383 86.9464 11.35 86.9644 10.5572C86.9464 9.76451 87.0884 8.97621 87.3824 8.23971C87.6764 7.50311 88.1154 6.83361 88.6744 6.27121C89.2334 5.70881 89.9004 5.26521 90.6354 4.96701C91.3704 4.66881 92.1574 4.52211 92.9504 4.53581C93.7534 4.51071 94.5504 4.66731 95.2844 4.99381C96.0174 5.32041 96.6684 5.80841 97.1864 6.42151L96.1574 7.42151C95.7774 6.94291 95.2894 6.56081 94.7334 6.30641C94.1774 6.05191 93.5684 5.93231 92.9574 5.95721C92.3694 5.94401 91.7844 6.04981 91.2384 6.26831C90.6924 6.48681 90.1964 6.81341 89.7794 7.22871C89.3454 7.66441 89.0074 8.18501 88.7844 8.75781C88.5624 9.33061 88.4604 9.94331 88.4864 10.5572C88.4604 11.1712 88.5624 11.7838 88.7844 12.3566C89.0074 12.9295 89.3454 13.4501 89.7794 13.8858C90.1964 14.301 90.6924 14.6277 91.2384 14.8462C91.7844 15.0647 92.3694 15.1705 92.9574 15.1572C93.6404 15.1649 94.3164 15.0186 94.9344 14.7292C95.5524 14.4399 96.0974 14.0148 96.5294 13.4858L97.5574 14.5144C97.0194 15.1584 96.3434 15.6734 95.5794 16.0215C94.7554 16.4017 93.8574 16.5921 92.9504 16.5787Z" fill="#5F6368"/>
<path d="M100.322 16.3218H98.8438V4.78613H100.322V16.3218Z" fill="#5F6368"/>
<path d="M102.737 9.37855C103.511 8.60915 104.559 8.17725 105.651 8.17725C106.743 8.17725 107.79 8.60915 108.565 9.37855C108.944 9.77855 109.24 10.2495 109.436 10.7644C109.632 11.2792 109.725 11.8278 109.708 12.3785C109.725 12.9292 109.632 13.4778 109.436 13.9926C109.24 14.5075 108.944 14.9785 108.565 15.3785C107.79 16.1479 106.743 16.5797 105.651 16.5797C104.559 16.5797 103.511 16.1479 102.737 15.3785C102.358 14.9785 102.062 14.5075 101.866 13.9926C101.669 13.4778 101.577 12.9292 101.594 12.3785C101.577 11.8278 101.669 11.2792 101.866 10.7644C102.062 10.2495 102.358 9.77855 102.737 9.37855ZM103.837 14.4499C104.07 14.6961 104.35 14.8922 104.662 15.0263C104.973 15.1603 105.308 15.2294 105.647 15.2294C105.986 15.2294 106.322 15.1603 106.633 15.0263C106.944 14.8922 107.225 14.6961 107.458 14.4499C107.716 14.1726 107.917 13.8467 108.048 13.491C108.18 13.1354 108.239 12.7572 108.222 12.3785C108.239 11.9998 108.18 11.6216 108.048 11.266C107.917 10.9103 107.716 10.5844 107.458 10.3071C107.225 10.0609 106.944 9.86485 106.633 9.73075C106.322 9.59675 105.986 9.52765 105.647 9.52765C105.308 9.52765 104.973 9.59675 104.662 9.73075C104.35 9.86485 104.07 10.0609 103.837 10.3071C103.578 10.5844 103.377 10.9103 103.246 11.266C103.115 11.6216 103.056 11.9998 103.072 12.3785C103.058 12.7565 103.119 13.1336 103.251 13.488C103.383 13.8424 103.585 14.1669 103.844 14.4428L103.837 14.4499Z" fill="#5F6368"/>
<path d="M117.899 16.3213H116.471V15.2284H116.428C116.174 15.6435 115.814 15.9836 115.385 16.2141C114.94 16.472 114.435 16.6075 113.921 16.607C113.503 16.6355 113.085 16.5694 112.697 16.4136C112.308 16.2577 111.96 16.0162 111.678 15.707C111.137 15.0226 110.865 14.1638 110.914 13.2927V8.43555H112.392V13.0213C112.392 14.4927 113.042 15.2284 114.342 15.2284C114.631 15.2374 114.918 15.1773 115.179 15.053C115.44 14.9288 115.667 14.744 115.842 14.5141C116.226 14.0284 116.43 13.4256 116.421 12.807V8.43555H117.899V16.3213Z" fill="#5F6368"/>
<path d="M122.922 16.5785C122.42 16.5802 121.924 16.4731 121.468 16.2647C121.011 16.0563 120.606 15.7516 120.279 15.3714C119.538 14.5534 119.142 13.4814 119.172 12.3785C119.142 11.2756 119.538 10.2036 120.279 9.38564C120.606 9.00544 121.011 8.70074 121.468 8.49234C121.924 8.28394 122.42 8.17685 122.922 8.17854C123.483 8.16965 124.039 8.30234 124.536 8.56424C124.973 8.78414 125.343 9.11714 125.607 9.52854H125.672L125.607 8.43565V4.78564H127.086V16.3214H125.657V15.2285H125.593C125.328 15.6399 124.958 15.9729 124.522 16.1928C124.029 16.4524 123.479 16.585 122.922 16.5785ZM123.164 15.2285C123.499 15.2334 123.83 15.1671 124.137 15.0341C124.443 14.9011 124.718 14.7044 124.943 14.4571C125.445 13.8852 125.702 13.1383 125.657 12.3785C125.702 11.6187 125.445 10.8718 124.943 10.2999C124.717 10.0513 124.441 9.85265 124.133 9.71665C123.826 9.58075 123.493 9.51054 123.157 9.51054C122.821 9.51054 122.488 9.58075 122.181 9.71665C121.873 9.85265 121.598 10.0513 121.372 10.2999C121.122 10.5812 120.93 10.909 120.808 11.2645C120.685 11.6199 120.634 11.9961 120.657 12.3714C120.634 12.7466 120.685 13.1228 120.808 13.4783C120.93 13.8337 121.122 14.1615 121.372 14.4428C121.597 14.6945 121.873 14.895 122.183 15.0306C122.492 15.1661 122.827 15.2336 123.164 15.2285Z" fill="#5F6368"/>
</svg>
