<svg width="41" height="41" viewBox="0 0 41 41" fill="none" xmlns="http://www.w3.org/2000/svg">
<g clip-path="url(#clip0_20_194)">
<path fill-rule="evenodd" clip-rule="evenodd" d="M32.6602 30.5801H8.66016C7.55559 30.5801 6.66016 29.6847 6.66016 28.5801V12.5801C6.66016 11.4755 7.55559 10.5801 8.66016 10.5801H32.6602C33.7648 10.5801 34.6602 11.4755 34.6602 12.5801V28.5801C34.6602 29.6847 33.7648 30.5801 32.6602 30.5801ZM23.4102 21.0131C23.7435 20.8207 23.7435 20.3395 23.4102 20.1471L18.9102 17.549C18.5769 17.3566 18.1602 17.5971 18.1602 17.982V23.1782C18.1602 23.5631 18.5769 23.8036 18.9102 23.6112L23.4102 21.0131Z" fill="url(#paint0_linear_20_194)" fill-opacity="0.24"/>
<path d="M9.66016 10.5801C9.66016 9.47551 10.5556 8.58008 11.6602 8.58008H29.6602C30.7648 8.58008 31.6602 9.47551 31.6602 10.5801" stroke="#071743" stroke-opacity="0.25" stroke-linecap="round" stroke-linejoin="round"/>
<path d="M31.6602 30.5801C31.6602 31.6847 30.7648 32.5801 29.6602 32.5801H11.6602C10.5556 32.5801 9.66016 31.6847 9.66016 30.5801" stroke="#071743" stroke-opacity="0.25" stroke-linecap="round" stroke-linejoin="round"/>
<path d="M34.6602 15.5801V12.5801C34.6602 11.4755 33.7648 10.5801 32.6602 10.5801H8.66016C7.55559 10.5801 6.66016 11.4755 6.66016 12.5801V15.5801M34.6602 24.5801V28.5801C34.6602 29.6847 33.7648 30.5801 32.6602 30.5801H20.6602H8.66016C7.55559 30.5801 6.66016 29.6847 6.66016 28.5801V24.5801" stroke="#36364A" stroke-linecap="round" stroke-linejoin="round"/>
<path d="M26.1602 14.5801H26.6602C27.7648 14.5801 28.6602 15.4755 28.6602 16.5801V17.726C28.6602 18.8623 29.3022 19.9011 30.3186 20.4093L30.6602 20.5801L30.3186 20.7509C29.3022 21.2591 28.6602 22.2979 28.6602 23.4342V24.5801C28.6602 25.6847 27.7648 26.5801 26.6602 26.5801H26.1602" stroke="#36364A" stroke-linecap="round" stroke-linejoin="round"/>
<path d="M15.1602 14.5801H14.6602C13.5556 14.5801 12.6602 15.4755 12.6602 16.5801V17.726C12.6602 18.8623 12.0182 19.9011 11.0018 20.4093L10.6602 20.5801L11.0018 20.7509C12.0182 21.2591 12.6602 22.2979 12.6602 23.4342V24.5801C12.6602 25.6847 13.5556 26.5801 14.6602 26.5801H15.1602" stroke="#36364A" stroke-linecap="round" stroke-linejoin="round"/>
<path d="M6.66016 18.5801V21.5801" stroke="#36364A" stroke-linecap="round" stroke-linejoin="round"/>
<path d="M34.6602 18.5801V21.5801" stroke="#36364A" stroke-linecap="round" stroke-linejoin="round"/>
<path d="M23.4102 20.1463C23.7435 20.3387 23.7435 20.8199 23.4102 21.0123L18.9102 23.6104C18.5769 23.8028 18.1602 23.5623 18.1602 23.1774V17.9812C18.1602 17.5963 18.5769 17.3558 18.9102 17.5482L23.4102 20.1463Z" stroke="#36364A" stroke-linecap="round" stroke-linejoin="round"/>
<path d="M18.6602 14.5801H22.6602" stroke="#071743" stroke-opacity="0.25" stroke-linecap="round" stroke-linejoin="round"/>
<path d="M18.6602 26.5801H22.6602" stroke="#071743" stroke-opacity="0.25" stroke-linecap="round" stroke-linejoin="round"/>
</g>
<defs>
<linearGradient id="paint0_linear_20_194" x1="20.6602" y1="10.5801" x2="20.6602" y2="30.5801" gradientUnits="userSpaceOnUse">
<stop stop-color="#818498"/>
<stop offset="1" stop-color="#818498" stop-opacity="0"/>
</linearGradient>
<clipPath id="clip0_20_194">
<rect width="40" height="40" fill="white" transform="translate(0.660156 0.580078)"/>
</clipPath>
</defs>
</svg>
