<svg width="389" height="201" viewBox="0 0 389 201" fill="none" xmlns="http://www.w3.org/2000/svg">
<g clip-path="url(#clip0_1_10348)">
<g clip-path="url(#clip1_1_10348)">
<path d="M367.09 84.9535L61.0042 117.124C57.6288 117.479 55.1819 120.52 55.5388 123.915L61.281 178.549C61.6379 181.945 64.6635 184.41 68.0389 184.055L374.125 151.884C377.5 151.53 379.947 148.489 379.59 145.093L373.848 90.46C373.491 87.0641 370.465 84.5987 367.09 84.9535Z" fill="#303030"/>
<path d="M367.09 84.9535L61.0042 117.124C57.6288 117.479 55.1819 120.52 55.5388 123.915L61.281 178.549C61.6379 181.945 64.6635 184.41 68.0389 184.055L374.125 151.884C377.5 151.53 379.947 148.489 379.59 145.093L373.848 90.46C373.491 87.0641 370.465 84.5987 367.09 84.9535Z" stroke="#484848" stroke-width="0.821776"/>
<path d="M99.3558 129.593L80.3872 131.586C76.213 132.025 73.1869 135.785 73.6283 139.985L75.6341 159.069C76.0755 163.268 79.8171 166.317 83.9913 165.878L102.96 163.884C107.134 163.446 110.16 159.686 109.719 155.486L107.713 136.402C107.272 132.203 103.53 129.154 99.3558 129.593Z" fill="#484848"/>
<path d="M99.3558 129.593L80.3872 131.586C76.213 132.025 73.1869 135.785 73.6283 139.985L75.6341 159.069C76.0755 163.268 79.8171 166.317 83.9913 165.878L102.96 163.884C107.134 163.446 110.16 159.686 109.719 155.486L107.713 136.402C107.272 132.203 103.53 129.154 99.3558 129.593Z" stroke="#585858" stroke-width="1.01644"/>
<path d="M97.4901 144.002L89.8136 144.808C89.4064 144.851 89.033 145.055 88.7756 145.375C88.5181 145.695 88.3976 146.105 88.4407 146.514L89.2524 154.237C89.2954 154.647 89.4985 155.023 89.8169 155.282C90.1352 155.542 90.5428 155.663 90.95 155.621L98.6266 154.814C99.0337 154.771 99.4071 154.567 99.6646 154.247C99.9221 153.927 100.043 153.518 99.9995 153.108L99.1878 145.385C99.1447 144.975 98.9417 144.599 98.6233 144.34C98.3049 144.08 97.8973 143.959 97.4901 144.002Z" stroke="#A1A1A1" stroke-width="1.10602" stroke-linecap="round" stroke-linejoin="round"/>
<path d="M85.8573 151.471C85.0128 151.56 84.2489 150.938 84.1596 150.088L83.3479 142.365C83.2586 141.515 83.8764 140.748 84.7209 140.659L92.3974 139.852C93.2418 139.763 94.0057 140.386 94.095 141.235" stroke="#A1A1A1" stroke-width="1.10602" stroke-linecap="square" stroke-linejoin="round"/>
<path d="M121.662 130.542L121.535 129.336L129.909 128.456L130.036 129.662L126.525 130.031L127.579 140.057L126.227 140.2L125.173 130.175L121.662 130.544L121.662 130.542ZM135.317 139.423C134.511 139.507 133.796 139.401 133.172 139.104C132.55 138.801 132.028 138.324 131.667 137.732C131.286 137.113 131.05 136.373 130.96 135.51C130.869 134.647 130.945 133.87 131.188 133.179C131.435 132.484 131.821 131.923 132.345 131.494C132.873 131.061 133.514 130.805 134.271 130.726C134.707 130.68 135.145 130.708 135.586 130.81C136.027 130.911 136.439 131.108 136.823 131.4C137.205 131.689 137.529 132.091 137.793 132.607C138.056 133.122 138.229 133.773 138.312 134.56L138.369 135.108L131.915 135.787L131.797 134.668L136.944 134.127C136.905 133.685 136.762 133.259 136.527 132.884C136.311 132.539 136.003 132.262 135.638 132.085C135.273 131.906 134.858 131.84 134.393 131.889C133.881 131.943 133.45 132.117 133.103 132.412C132.763 132.699 132.504 133.07 132.352 133.49C132.194 133.916 132.138 134.374 132.188 134.827L132.267 135.572C132.334 136.209 132.5 136.737 132.764 137.157C133.032 137.571 133.375 137.873 133.79 138.064C134.208 138.249 134.675 138.314 135.195 138.26C135.534 138.224 135.833 138.145 136.096 138.02C136.361 137.892 136.585 137.721 136.763 137.507C136.943 137.287 137.072 137.027 137.15 136.724L138.43 136.944C138.343 137.381 138.163 137.777 137.888 138.132C137.613 138.482 137.256 138.772 136.821 138.998C136.386 139.222 135.884 139.363 135.317 139.423ZM145.968 131.514L144.847 131.966C144.747 131.77 144.619 131.591 144.466 131.435C144.295 131.254 144.084 131.116 143.851 131.033C143.598 130.937 143.285 130.91 142.911 130.949C142.397 131.003 141.983 131.167 141.666 131.44C141.353 131.709 141.215 132.025 141.253 132.387C141.287 132.709 141.43 132.952 141.682 133.113C141.934 133.276 142.315 133.392 142.822 133.465L144.097 133.641C144.865 133.745 145.453 133.967 145.859 134.305C146.265 134.639 146.499 135.101 146.561 135.69C146.612 136.172 146.52 136.618 146.284 137.027C146.051 137.437 145.7 137.776 145.233 138.047C144.765 138.319 144.206 138.488 143.555 138.557C142.702 138.647 141.975 138.533 141.375 138.22C140.777 137.906 140.365 137.398 140.141 136.697L141.33 136.262C141.494 136.702 141.749 137.02 142.096 137.212C142.448 137.405 142.887 137.474 143.414 137.418C144.013 137.355 144.475 137.177 144.802 136.884C145.131 136.586 145.276 136.257 145.238 135.895C145.226 135.757 145.187 135.624 145.121 135.503C145.055 135.382 144.965 135.276 144.856 135.192C144.63 135.013 144.303 134.895 143.871 134.841L142.44 134.658C141.653 134.556 141.061 134.332 140.661 133.986C140.264 133.635 140.035 133.171 139.974 132.588C139.924 132.114 140.011 131.679 140.239 131.285C140.484 130.878 140.831 130.541 141.245 130.31C141.721 130.042 142.249 129.878 142.793 129.83C143.621 129.743 144.292 129.858 144.803 130.173C145.317 130.489 145.706 130.936 145.968 131.514ZM151.502 129.025L151.617 130.123L147.277 130.579L147.161 129.481L151.502 129.025ZM148.215 127.329L149.501 127.194L150.345 135.225C150.384 135.59 150.465 135.859 150.59 136.032C150.718 136.199 150.868 136.306 151.042 136.35C151.219 136.39 151.402 136.401 151.591 136.381C151.734 136.366 151.848 136.347 151.937 136.323L152.152 136.256L152.535 137.391C152.238 137.531 151.919 137.617 151.592 137.645C151.228 137.683 150.864 137.642 150.498 137.521C150.136 137.4 149.812 137.183 149.561 136.894C149.302 136.595 149.147 136.201 149.096 135.711L148.215 127.331L148.215 127.329ZM158.986 125.4L160.167 136.632L158.815 136.774L157.634 125.543L158.987 125.401L158.986 125.4ZM163.457 131.163L163.99 136.232L162.704 136.367L161.818 127.941L163.062 127.81L163.2 129.127L163.309 129.115C163.46 128.667 163.721 128.292 164.094 127.991C164.467 127.685 164.969 127.499 165.601 127.433C166.168 127.373 166.677 127.438 167.127 127.627C167.576 127.813 167.944 128.129 168.229 128.576C168.515 129.02 168.696 129.6 168.771 130.316L169.334 135.669L168.046 135.804L167.493 130.539C167.423 129.877 167.198 129.38 166.818 129.046C166.437 128.709 165.949 128.572 165.353 128.635C164.942 128.678 164.584 128.805 164.28 129.019C163.978 129.232 163.754 129.52 163.604 129.883C163.454 130.247 163.406 130.673 163.457 131.163ZM174.442 126.614L174.557 127.712L170.216 128.168L170.101 127.07L174.442 126.614ZM171.154 124.918L172.441 124.783L173.285 132.814C173.323 133.179 173.405 133.448 173.529 133.621C173.639 133.776 173.799 133.889 173.982 133.939C174.159 133.979 174.342 133.99 174.531 133.97C174.672 133.956 174.788 133.936 174.877 133.912L175.091 133.845L175.475 134.98C175.178 135.12 174.858 135.206 174.531 135.234C174.167 135.272 173.804 135.231 173.437 135.11C173.075 134.989 172.752 134.772 172.501 134.483C172.241 134.184 172.087 133.79 172.035 133.3L171.154 124.919L171.154 124.918ZM180.702 134.653C179.894 134.737 179.18 134.631 178.557 134.334C177.935 134.031 177.412 133.554 177.051 132.961C176.67 132.343 176.434 131.603 176.343 130.74C176.253 129.877 176.329 129.1 176.573 128.409C176.819 127.714 177.205 127.153 177.729 126.724C178.257 126.291 178.899 126.035 179.656 125.956C180.092 125.91 180.53 125.938 180.971 126.04C181.411 126.14 181.823 126.338 182.207 126.63C182.59 126.919 182.914 127.321 183.177 127.837C183.441 128.352 183.614 129.003 183.696 129.79L183.754 130.338L177.299 131.017L177.182 129.898L182.328 129.357C182.278 128.882 182.139 128.467 181.91 128.114C181.695 127.769 181.387 127.492 181.022 127.315C180.658 127.135 180.243 127.07 179.778 127.119C179.265 127.173 178.835 127.347 178.488 127.642C178.147 127.929 177.888 128.3 177.735 128.72C177.578 129.146 177.523 129.604 177.573 130.057L177.651 130.802C177.718 131.439 177.884 131.967 178.148 132.387C178.416 132.801 178.758 133.103 179.175 133.294C179.591 133.479 180.06 133.544 180.579 133.49C180.917 133.454 181.218 133.375 181.48 133.25C181.737 133.129 181.965 132.954 182.149 132.737C182.328 132.517 182.457 132.257 182.535 131.953L183.815 132.174C183.73 132.607 183.544 133.015 183.272 133.362C182.997 133.712 182.641 134.001 182.206 134.228C181.735 134.461 181.225 134.605 180.702 134.653ZM186.108 133.906L185.223 125.481L186.465 125.35L186.599 126.624L186.687 126.614C186.799 126.176 187.053 125.788 187.409 125.512C187.785 125.209 188.241 125.024 188.72 124.981C188.815 124.971 188.932 124.961 189.075 124.949C189.217 124.937 189.325 124.932 189.398 124.932L189.537 126.248C189.435 126.238 189.334 126.232 189.232 126.23C189.069 126.22 188.905 126.225 188.742 126.242C188.335 126.285 187.98 126.409 187.679 126.615C187.382 126.809 187.146 127.083 186.996 127.405C186.847 127.728 186.791 128.086 186.834 128.44L187.395 133.771L186.108 133.906ZM195.189 124.434L195.304 125.531L190.789 126.006L190.674 124.908L195.189 124.434ZM192.912 133.192L191.904 123.604C191.853 123.121 191.924 122.706 192.116 122.36C192.307 122.016 192.575 121.743 192.917 121.545C193.259 121.346 193.639 121.223 194.031 121.183C194.347 121.15 194.609 121.149 194.814 121.179C195.019 121.21 195.173 121.242 195.276 121.275L195.023 122.433C194.93 122.413 194.836 122.395 194.741 122.379C194.591 122.358 194.439 122.357 194.289 122.376C193.864 122.421 193.569 122.561 193.401 122.797C193.239 123.032 193.18 123.359 193.224 123.775L194.199 133.057L192.912 133.192ZM200.123 132.632C199.592 132.688 199.101 132.64 198.646 132.483C198.208 132.335 197.819 132.066 197.524 131.709C197.228 131.347 197.052 130.893 196.994 130.344C196.944 129.861 196.997 129.461 197.154 129.141C197.311 128.818 197.539 128.554 197.837 128.348C198.136 128.143 198.471 127.978 198.844 127.854C199.219 127.726 199.599 127.615 199.983 127.523C200.485 127.404 200.892 127.311 201.205 127.246C201.521 127.175 201.747 127.091 201.884 126.99C202.023 126.891 202.083 126.738 202.061 126.529L202.056 126.485C201.999 125.944 201.808 125.538 201.483 125.27C201.16 125.001 200.703 124.897 200.111 124.959C199.495 125.024 199.028 125.209 198.708 125.517C198.388 125.824 198.172 126.139 198.063 126.461L196.795 126.15C196.96 125.616 197.208 125.186 197.543 124.863C197.867 124.544 198.254 124.295 198.679 124.134C199.102 123.971 199.524 123.866 199.947 123.822C200.215 123.794 200.528 123.794 200.884 123.824C201.244 123.85 201.596 123.943 201.945 124.106C202.296 124.27 202.602 124.539 202.861 124.913C203.121 125.29 203.287 125.812 203.357 126.481L203.941 132.033L202.653 132.168L202.533 131.026L202.469 131.033C202.4 131.225 202.276 131.437 202.094 131.666C201.912 131.897 201.66 132.102 201.337 132.284C201.015 132.465 200.61 132.581 200.123 132.632ZM200.197 131.45C200.706 131.397 201.124 131.25 201.452 131.013C201.764 130.797 202.012 130.498 202.166 130.15C202.315 129.813 202.37 129.469 202.333 129.117L202.208 127.935C202.162 128.007 202.047 128.079 201.868 128.153C201.666 128.232 201.46 128.3 201.25 128.357C200.847 128.463 200.442 128.561 200.035 128.651C199.721 128.724 199.414 128.829 199.12 128.963C198.863 129.073 198.638 129.247 198.468 129.47C198.313 129.678 198.253 129.947 198.288 130.277C198.335 130.726 198.536 131.049 198.891 131.244C199.249 131.436 199.684 131.504 200.197 131.45ZM209.709 131.604C208.925 131.686 208.228 131.57 207.622 131.258C207.01 130.939 206.5 130.451 206.152 129.853C205.777 129.231 205.546 128.5 205.458 127.658C205.368 126.803 205.445 126.031 205.689 125.343C205.912 124.686 206.313 124.104 206.846 123.663C207.374 123.231 208.016 122.975 208.773 122.895C209.361 122.834 209.903 122.888 210.398 123.057C210.894 123.227 211.313 123.493 211.657 123.856C212 124.219 212.236 124.661 212.363 125.18L211.077 125.315C210.939 124.941 210.685 124.624 210.315 124.363C209.95 124.099 209.484 123.996 208.916 124.056C208.445 124.096 207.998 124.282 207.638 124.59C207.291 124.888 207.037 125.287 206.876 125.784C206.719 126.277 206.674 126.843 206.741 127.478C206.809 128.129 206.97 128.686 207.224 129.148C207.482 129.608 207.812 129.953 208.214 130.18C208.621 130.407 209.078 130.494 209.587 130.441C209.921 130.406 210.219 130.315 210.479 130.169C210.739 130.027 210.961 129.825 211.127 129.58C211.294 129.335 211.401 129.054 211.439 128.759L212.725 128.624C212.709 129.122 212.569 129.607 212.32 130.037C212.071 130.466 211.72 130.827 211.298 131.087C210.857 131.367 210.327 131.539 209.709 131.604ZM218.394 130.691C217.587 130.776 216.873 130.669 216.25 130.372C215.628 130.069 215.105 129.593 214.744 129C214.363 128.382 214.128 127.641 214.037 126.778C213.946 125.916 214.022 125.138 214.266 124.448C214.512 123.752 214.898 123.191 215.422 122.762C215.95 122.33 216.593 122.074 217.348 121.994C217.785 121.948 218.222 121.976 218.663 122.078C219.104 122.179 219.516 122.376 219.9 122.669C220.282 122.957 220.606 123.359 220.87 123.875C221.134 124.391 221.307 125.042 221.389 125.828L221.447 126.377L214.992 127.055L214.874 125.936L220.021 125.395C219.971 124.92 219.832 124.505 219.603 124.152C219.388 123.807 219.08 123.53 218.715 123.353C218.35 123.174 217.936 123.108 217.471 123.157C216.958 123.211 216.528 123.385 216.181 123.681C215.84 123.967 215.581 124.339 215.428 124.758C215.271 125.185 215.216 125.643 215.266 126.095L215.344 126.841C215.411 127.477 215.576 128.005 215.841 128.425C216.109 128.84 216.451 129.142 216.868 129.332C217.284 129.517 217.752 129.583 218.272 129.528C218.61 129.493 218.911 129.413 219.173 129.288C219.43 129.167 219.658 128.992 219.842 128.775C220.02 128.556 220.149 128.296 220.227 127.992L221.508 128.212C221.422 128.649 221.241 129.045 220.965 129.4C220.676 129.763 220.312 130.058 219.899 130.266C219.428 130.5 218.918 130.644 218.394 130.691ZM228.098 129.493L227.994 128.506L231.252 124.059C231.635 123.539 231.948 123.088 232.191 122.707C232.433 122.324 232.606 121.969 232.708 121.644C232.812 121.318 232.847 120.974 232.81 120.635C232.769 120.24 232.638 119.909 232.419 119.638C232.202 119.368 231.913 119.164 231.586 119.05C231.228 118.924 230.847 118.883 230.471 118.928C230.079 118.961 229.701 119.094 229.375 119.316C229.078 119.525 228.858 119.797 228.717 120.133C228.577 120.497 228.529 120.891 228.579 121.279L227.292 121.414C227.223 120.757 227.313 120.163 227.563 119.634C227.812 119.105 228.182 118.674 228.673 118.341C229.187 118.001 229.776 117.794 230.389 117.739C231.044 117.67 231.639 117.749 232.172 117.973C232.688 118.184 233.14 118.529 233.479 118.973C233.816 119.414 234.015 119.924 234.076 120.501C234.119 120.915 234.087 121.327 233.979 121.739C233.875 122.145 233.666 122.608 233.354 123.128C233.045 123.645 232.606 124.284 232.039 125.041L229.815 128.004L229.824 128.092L235.015 127.546L235.141 128.753L228.098 129.493Z" fill="white"/>
<path d="M175.224 146.206L126.972 151.277C124.852 151.5 123.315 153.41 123.54 155.542C123.764 157.675 125.664 159.223 127.784 159L176.036 153.929C178.156 153.706 179.693 151.797 179.469 149.664C179.244 147.531 177.344 145.983 175.224 146.206Z" fill="#484848"/>
<path d="M355.723 111.394L314.868 115.688C312.704 115.915 311.135 117.865 311.364 120.042L312.321 129.149C312.55 131.327 314.489 132.907 316.653 132.68L357.509 128.386C359.673 128.158 361.242 126.209 361.013 124.032L360.056 114.924C359.827 112.747 357.887 111.166 355.723 111.394Z" fill="#3E3E3E"/>
<path d="M355.723 111.394L314.868 115.688C312.704 115.915 311.135 117.865 311.364 120.042L312.321 129.149C312.55 131.327 314.489 132.907 316.653 132.68L357.509 128.386C359.673 128.158 361.242 126.209 361.013 124.032L360.056 114.924C359.827 112.747 357.887 111.166 355.723 111.394Z" stroke="#696969" stroke-width="0.945651"/>
<path d="M318.17 127.277L317.449 120.418L319.752 120.176C320.287 120.12 320.735 120.171 321.094 120.329C321.457 120.485 321.736 120.719 321.935 121.03C322.134 121.341 322.255 121.699 322.297 122.103C322.34 122.506 322.296 122.882 322.166 123.23C322.039 123.578 321.817 123.866 321.497 124.099C321.179 124.328 320.754 124.471 320.224 124.527L318.572 124.701L318.495 123.965L320.119 123.794C320.485 123.755 320.773 123.661 320.982 123.51C321.19 123.36 321.333 123.171 321.41 122.943C321.49 122.7 321.516 122.442 321.485 122.188C321.456 121.912 321.38 121.673 321.255 121.467C321.13 121.259 320.94 121.098 320.715 121.01C320.478 120.907 320.174 120.877 319.803 120.916L318.352 121.068L318.996 127.188L318.17 127.275L318.17 127.277ZM324.119 126.652L323.399 119.793L325.701 119.551C326.234 119.495 326.681 119.54 327.042 119.687C327.403 119.832 327.682 120.055 327.879 120.355C328.077 120.654 328.197 121.006 328.24 121.41C328.282 121.814 328.238 122.181 328.106 122.511C327.97 122.847 327.733 123.132 327.428 123.327C327.106 123.539 326.682 123.673 326.154 123.729L324.291 123.924L324.212 123.174L326.049 122.981C326.413 122.943 326.7 122.858 326.91 122.728C327.109 122.614 327.263 122.435 327.348 122.221C327.429 122.012 327.456 121.77 327.427 121.495C327.398 121.221 327.321 120.987 327.198 120.792C327.071 120.594 326.881 120.445 326.659 120.368C326.423 120.277 326.121 120.252 325.753 120.29L324.302 120.443L324.945 126.563L324.119 126.65L324.119 126.652ZM327.004 123.233L329.005 126.138L328.047 126.239L326.072 123.331L327.004 123.233ZM330.219 119.077L330.939 125.935L330.115 126.022L329.394 119.163L330.219 119.076L330.219 119.077ZM332.153 118.874L334.784 124.433L334.863 124.425L336.281 118.44L337.146 118.349L335.363 125.47L334.511 125.56L331.288 118.965L332.153 118.874ZM338.623 125.128L337.756 125.219L339.539 118.097L340.391 118.008L343.614 124.603L342.749 124.694L340.105 119.134L340.052 119.14L338.623 125.128ZM338.66 122.415L342.147 122.049L342.225 122.785L338.737 123.151L338.66 122.415ZM342.864 118.493L342.786 117.755L347.899 117.218L347.976 117.955L345.832 118.18L346.475 124.3L345.65 124.387L345.007 118.269L342.864 118.493ZM349.893 123.942L349.172 117.085L353.285 116.653L353.363 117.39L350.075 117.735L350.319 120.052L353.394 119.729L353.471 120.466L350.396 120.789L350.641 123.119L353.983 122.768L354.06 123.505L349.893 123.942Z" fill="#D8D8D8"/>
</g>
</g>
<g clip-path="url(#clip2_1_10348)">
<g clip-path="url(#clip3_1_10348)">
<path d="M335.026 32.6672L27.2968 27.2957C23.9033 27.2365 21.1047 29.9202 21.0458 33.29L20.0995 87.5031C20.0407 90.8729 22.744 93.6526 26.1375 93.7119L333.867 99.0833C337.26 99.1425 340.059 96.4588 340.118 93.089L341.064 38.8759C341.123 35.5062 338.42 32.7264 335.026 32.6672Z" fill="#303030"/>
<path d="M335.026 32.6672L27.2968 27.2957C23.9033 27.2365 21.1047 29.9202 21.0458 33.29L20.0995 87.5031C20.0407 90.8729 22.744 93.6526 26.1375 93.7119L333.867 99.0833C337.26 99.1425 340.059 96.4588 340.118 93.089L341.064 38.8759C341.123 35.5062 338.42 32.7264 335.026 32.6672Z" stroke="#484848" stroke-width="0.816439"/>
<path d="M63.8455 44.1325L44.7753 43.7996C40.5787 43.7264 37.1178 47.0453 37.045 51.2126L36.7145 70.1501C36.6418 74.3175 39.9848 77.7552 44.1813 77.8284L63.2516 78.1613C67.4481 78.2346 70.9091 74.9156 70.9818 70.7483L71.3124 51.8108C71.3851 47.6434 68.0421 44.2057 63.8455 44.1325Z" fill="#303B32"/>
<path d="M63.8455 44.1325L44.7753 43.7996C40.5787 43.7264 37.1178 47.0453 37.045 51.2126L36.7145 70.1501C36.6418 74.3175 39.9848 77.7552 44.1813 77.8284L63.2516 78.1613C67.4481 78.2346 70.9091 74.9156 70.9818 70.7483L71.3124 51.8108C71.3851 47.6434 68.0421 44.2057 63.8455 44.1325Z" stroke="#2E5235" stroke-width="1.00983"/>
<path d="M60.2397 58.023L52.522 57.8883C52.1127 57.8811 51.7173 58.0358 51.4228 58.3182C51.1283 58.6006 50.9589 58.9876 50.9518 59.3941L50.818 67.058C50.8109 67.4645 50.9667 67.8572 51.2512 68.1497C51.5356 68.4422 51.9254 68.6106 52.3348 68.6177L60.0524 68.7524C60.4617 68.7596 60.8572 68.605 61.1516 68.3226C61.4461 68.0402 61.6156 67.6531 61.6227 67.2466L61.7564 59.5827C61.7635 59.1762 61.6077 58.7835 61.3233 58.491C61.0388 58.1985 60.649 58.0301 60.2397 58.023Z" stroke="#A2CEAD" stroke-width="1.09884" stroke-linecap="round" stroke-linejoin="round"/>
<path d="M47.7869 63.939C46.938 63.9242 46.2554 63.2223 46.2701 62.3793L46.4039 54.7154C46.4186 53.8724 47.1253 53.1947 47.9742 53.2096L55.6918 53.3443C56.5407 53.3591 57.2233 54.061 57.2086 54.904" stroke="#A2CEAD" stroke-width="1.09884" stroke-linecap="square" stroke-linejoin="round"/>
<path d="M85.8743 47.5939L85.8952 46.3973L94.3141 46.5442L94.2932 47.7409L90.7629 47.6793L90.5892 57.6302L89.2309 57.6065L89.4046 47.6566L85.8754 47.595L85.8743 47.5939ZM98.348 57.9398C97.5366 57.9256 96.8407 57.735 96.2581 57.3689C95.6776 56.997 95.2168 56.4674 94.9304 55.8431C94.6275 55.1917 94.4829 54.4379 94.4979 53.5817C94.5128 52.7255 94.6837 51.9729 95.0093 51.3258C95.3383 50.6745 95.7904 50.1709 96.3624 49.814C96.9389 49.4539 97.607 49.2805 98.3677 49.2938C98.8065 49.3014 99.2374 49.3812 99.6627 49.5343C100.088 49.6863 100.472 49.9296 100.818 50.262C101.163 50.591 101.435 51.024 101.633 51.5608C101.834 52.0988 101.926 52.7564 101.912 53.537L101.903 54.0811L95.4131 53.9679L95.4325 52.8577L100.607 52.948C100.622 52.5104 100.532 52.0754 100.343 51.6796C100.171 51.3156 99.8997 51.0071 99.5592 50.7898C99.2189 50.5703 98.815 50.4559 98.3476 50.4477C97.8316 50.4387 97.3839 50.5579 97.0035 50.8054C96.6308 51.0448 96.3283 51.3776 96.1265 51.7703C95.9183 52.1691 95.8071 52.6109 95.8018 53.0602L95.7888 53.8003C95.7778 54.432 95.8787 54.9693 96.0894 55.4121C96.3045 55.8507 96.6074 56.1878 96.9981 56.4246C97.3889 56.6559 97.8456 56.7767 98.3682 56.7858C98.7078 56.7918 99.0162 56.7501 99.2913 56.6596C99.5708 56.5659 99.8137 56.4256 100.018 56.2375C100.222 56.0439 100.381 55.8047 100.496 55.5153L101.74 55.8864C101.6 56.3045 101.373 56.6707 101.057 56.985C100.741 57.2949 100.352 57.5356 99.8928 57.705C99.4333 57.8722 98.918 57.9497 98.348 57.9398ZM109.882 51.4759L108.714 51.783C108.639 51.5796 108.534 51.3888 108.401 51.2168C108.254 51.019 108.061 50.8588 107.839 50.7492C107.599 50.6245 107.291 50.56 106.916 50.5535C106.4 50.5445 105.969 50.6552 105.621 50.8846C105.277 51.1108 105.103 51.4034 105.096 51.7625C105.091 52.0822 105.203 52.3372 105.434 52.5263C105.664 52.7154 106.027 52.8762 106.521 53.0074L107.766 53.3347C108.516 53.5285 109.072 53.8164 109.434 54.1962C109.797 54.5727 109.973 55.0532 109.963 55.6379C109.954 56.1163 109.808 56.542 109.524 56.9148C109.244 57.2878 108.855 57.5778 108.357 57.787C107.86 57.9974 107.284 58.0958 106.631 58.0844C105.771 58.0694 105.065 57.8709 104.508 57.4921C103.952 57.1122 103.605 56.5651 103.467 55.8508L104.7 55.5679C104.809 56.0188 105.025 56.361 105.346 56.5911C105.671 56.8224 106.099 56.9427 106.628 56.9519C107.231 56.9624 107.712 56.8438 108.071 56.596C108.434 56.3439 108.618 56.0393 108.624 55.6791C108.63 55.5431 108.607 55.4074 108.556 55.2809C108.505 55.1544 108.429 55.0398 108.331 54.9446C108.129 54.7418 107.817 54.5874 107.396 54.4826L105.998 54.1307C105.229 53.9366 104.669 53.6453 104.314 53.258C103.962 52.8664 103.791 52.3837 103.801 51.8056C103.809 51.3349 103.95 50.919 104.223 50.5612C104.516 50.1911 104.901 49.9034 105.34 49.7265C105.846 49.5214 106.389 49.4249 106.934 49.4433C107.768 49.4578 108.42 49.6499 108.887 50.0217C109.36 50.3924 109.692 50.8779 109.882 51.4759ZM115.677 49.7043L115.658 50.7926L111.295 50.7164L111.314 49.6282L115.677 49.7043ZM112.62 47.6468L113.915 47.6694L113.775 55.6398C113.769 56.0011 113.817 56.2757 113.92 56.4582C114.027 56.6375 114.163 56.7604 114.33 56.8246C114.501 56.8856 114.682 56.9184 114.871 56.9217C115.015 56.9242 115.131 56.9185 115.222 56.9059L115.443 56.8659L115.686 58.0245C115.374 58.1259 115.046 58.1718 114.718 58.1598C114.347 58.1523 113.982 58.066 113.648 57.9068C113.303 57.7442 113.008 57.4929 112.795 57.1789C112.573 56.8553 112.466 56.4504 112.475 55.9643L112.62 47.6468ZM123.548 47.0545L123.353 58.2021L121.994 58.1784L122.188 47.0308L123.548 47.0545ZM127.284 53.2395L127.197 58.2692L125.903 58.2466L126.049 49.8854L127.299 49.9072L127.276 51.2133L127.386 51.2152C127.591 50.795 127.895 50.4586 128.302 50.2083C128.709 49.9537 129.23 49.8325 129.866 49.8436C130.436 49.8535 130.933 49.9783 131.356 50.2178C131.78 50.4541 132.107 50.8081 132.336 51.2797C132.566 51.7492 132.673 52.3392 132.661 53.0497L132.568 58.363L131.275 58.3404L131.366 53.1147C131.378 52.4578 131.215 51.9436 130.878 51.5708C130.541 51.1947 130.072 51.0015 129.473 50.991C129.061 50.9838 128.689 51.066 128.362 51.2377C128.037 51.4106 127.778 51.6656 127.586 52.0029C127.393 52.3412 127.293 52.7534 127.284 53.2395ZM138.739 50.1069L138.72 51.1951L134.358 51.119L134.377 50.0307L138.739 50.1069ZM135.683 48.0494L136.977 48.072L136.838 56.0424C136.832 56.4037 136.88 56.6783 136.983 56.8608C137.073 57.0264 137.218 57.1559 137.393 57.2272C137.563 57.2882 137.743 57.3209 137.934 57.3242C138.076 57.3267 138.193 57.3211 138.285 57.3085L138.505 57.2685L138.749 58.4271C138.437 58.5285 138.109 58.5743 137.781 58.5624C137.41 58.5548 137.045 58.4685 136.71 58.3093C136.365 58.1471 136.071 57.8957 135.857 57.5815C135.636 57.2578 135.529 56.853 135.538 56.3668L135.683 48.0494ZM143.976 58.7362C143.165 58.7221 142.468 58.5314 141.886 58.1653C141.306 57.7938 140.845 57.2641 140.559 56.6396C140.256 55.9881 140.111 55.2343 140.126 54.3782C140.141 53.522 140.312 52.7693 140.638 52.1223C140.967 51.4709 141.418 50.9673 141.991 50.6105C142.567 50.2504 143.235 50.0769 143.996 50.0902C144.434 50.0979 144.866 50.1777 145.291 50.3308C145.716 50.4827 146.101 50.726 146.446 51.0584C146.791 51.3875 147.064 51.8205 147.262 52.3573C147.461 52.8952 147.554 53.5528 147.541 54.3334L147.531 54.8776L141.04 54.7643L141.06 53.6541L146.235 53.7445C146.243 53.2726 146.155 52.8505 145.972 52.476C145.8 52.1118 145.527 51.8033 145.186 51.5862C144.847 51.3667 144.443 51.2523 143.976 51.2442C143.46 51.2352 143.012 51.3544 142.632 51.6018C142.258 51.8407 141.955 52.1736 141.754 52.5667C141.546 52.9657 141.435 53.4074 141.43 53.8566L141.417 54.5967C141.406 55.2284 141.506 55.7657 141.718 56.2086C141.933 56.6471 142.236 56.9843 142.626 57.2211C143.017 57.4524 143.474 57.5732 143.997 57.5823C144.336 57.5882 144.645 57.5465 144.92 57.456C145.199 57.3623 145.441 57.222 145.645 57.0339C145.85 56.8404 146.01 56.6011 146.124 56.3118L147.368 56.6829C147.229 57.101 147.002 57.4672 146.685 57.7814C146.369 58.0913 145.981 58.3321 145.521 58.5015C145.025 58.6735 144.502 58.7531 143.976 58.7362ZM149.434 58.6563L149.58 50.2961L150.829 50.3179L150.807 51.5813L150.895 51.5829C151.055 51.1717 151.339 50.8404 151.745 50.5902C152.155 50.3388 152.63 50.2127 153.111 50.2274C153.207 50.2291 153.325 50.2333 153.467 50.2391C153.61 50.2449 153.718 50.2522 153.791 50.2612L153.768 51.5673C153.669 51.5451 153.568 51.527 153.467 51.5128C153.306 51.4839 153.144 51.4682 152.98 51.466C152.571 51.4588 152.204 51.5378 151.88 51.703C151.562 51.8571 151.294 52.0967 151.106 52.3948C150.919 52.6928 150.819 53.0371 150.819 53.3886L150.727 58.6799L149.434 58.6563ZM159.599 50.471L159.58 51.5593L155.041 51.48L155.06 50.3918L159.599 50.471ZM156.274 58.7768L156.44 49.2626C156.448 48.7831 156.569 48.3855 156.8 48.0697C157.033 47.7551 157.332 47.5204 157.696 47.3669C158.059 47.214 158.451 47.1395 158.846 47.1482C159.163 47.1538 159.423 47.1835 159.623 47.2385C159.823 47.2923 159.972 47.342 160.07 47.3864L159.677 48.4912C159.587 48.4601 159.496 48.4311 159.405 48.4043C159.259 48.3651 159.108 48.3459 158.956 48.3472C158.528 48.3397 158.218 48.4416 158.024 48.6529C157.834 48.8631 157.735 49.1757 157.728 49.5896L157.567 58.7993L156.274 58.7768ZM163.499 59.0989C162.966 59.0896 162.483 58.9804 162.052 58.7736C161.635 58.5752 161.281 58.2657 161.031 57.8796C160.782 57.4898 160.662 57.0233 160.671 56.4792C160.68 55.9997 160.782 55.6138 160.977 55.3193C161.172 55.0215 161.431 54.7906 161.751 54.6253C162.072 54.46 162.425 54.3392 162.81 54.2627C163.199 54.1818 163.59 54.1197 163.981 54.075C164.494 54.0194 164.91 53.9773 165.228 53.9511C165.551 53.9195 165.786 53.8645 165.933 53.7827C166.084 53.7021 166.162 53.5589 166.165 53.352L166.166 53.3082C166.175 52.7717 166.035 52.3509 165.744 52.049C165.457 51.7462 165.016 51.5895 164.419 51.5791C163.802 51.5683 163.316 51.6935 162.96 51.9567C162.605 52.2188 162.353 52.5013 162.206 52.8032L160.985 52.3471C161.213 51.8418 161.512 51.4517 161.883 51.1756C162.244 50.9015 162.658 50.7047 163.099 50.5978C163.523 50.491 163.959 50.4397 164.396 50.4452C164.666 50.4499 164.977 50.4882 165.326 50.56C165.679 50.6286 166.019 50.7626 166.344 50.9644C166.673 51.1672 166.944 51.4677 167.156 51.8656C167.369 52.2658 167.469 52.7976 167.457 53.4611L167.361 58.9703L166.068 58.9477L166.087 57.8157L166.022 57.8145C165.931 57.9936 165.781 58.1859 165.573 58.3882C165.365 58.5927 165.089 58.7631 164.747 58.9028C164.405 59.0414 163.989 59.1075 163.499 59.0989ZM163.716 57.9484C164.228 57.9573 164.662 57.8641 165.016 57.671C165.352 57.4972 165.634 57.2346 165.83 56.912C166.017 56.5999 166.114 56.2697 166.12 55.9205L166.141 54.7446C166.085 54.8094 165.963 54.8675 165.776 54.919C165.566 54.9717 165.353 55.0133 165.138 55.0436C164.725 55.0994 164.311 55.1466 163.897 55.1851C163.56 55.2231 163.244 55.2877 162.95 55.3811C162.681 55.4577 162.437 55.6016 162.24 55.7991C162.062 55.9844 161.97 56.2401 161.965 56.5675C161.957 57.0131 162.116 57.3532 162.445 57.5878C162.778 57.8192 163.201 57.9394 163.716 57.9484ZM173.139 59.2453C172.35 59.2315 171.674 59.0335 171.111 58.6546C170.542 58.2686 170.095 57.7302 169.822 57.1022C169.526 56.4465 169.385 55.7026 169.4 54.8672C169.415 54.0187 169.586 53.2715 169.911 52.6278C170.213 52.0106 170.681 51.489 171.264 51.1214C171.841 50.7613 172.509 50.5879 173.268 50.6012C173.86 50.6115 174.392 50.7303 174.864 50.9554C175.335 51.1815 175.719 51.4927 176.015 51.8899C176.311 52.2872 176.492 52.7481 176.556 53.2716L175.262 53.249C175.17 52.8663 174.956 52.5253 174.622 52.2248C174.291 51.9223 173.84 51.7655 173.27 51.7555C172.766 51.7467 172.322 51.8704 171.937 52.1243C171.557 52.375 171.256 52.7345 171.036 53.2026C170.819 53.6676 170.705 54.2154 170.694 54.846C170.683 55.492 170.775 56.0565 170.972 56.5396C171.172 57.0217 171.458 57.399 171.829 57.6706C172.205 57.9421 172.648 58.0824 173.16 58.0913C173.474 58.1008 173.787 58.0466 174.079 57.9321C174.353 57.8242 174.598 57.6533 174.794 57.4335C174.989 57.2136 175.129 56.951 175.203 56.6671L176.496 56.6897C176.419 57.175 176.222 57.6338 175.922 58.0248C175.623 58.4158 175.23 58.7268 174.779 58.93C174.308 59.1518 173.761 59.2561 173.139 59.2453ZM181.872 59.3977C181.06 59.3835 180.363 59.1929 179.782 58.8268C179.201 58.4549 178.74 57.9254 178.454 57.301C178.151 56.6496 178.006 55.8958 178.021 55.0396C178.036 54.1835 178.207 53.4308 178.533 52.7837C178.862 52.1324 179.313 51.6288 179.886 51.2719C180.462 50.9118 181.131 50.7384 181.891 50.7517C182.329 50.7593 182.761 50.8391 183.186 50.9922C183.611 51.1442 183.997 51.3875 184.341 51.7199C184.686 52.049 184.959 52.4819 185.158 53.0188C185.356 53.5566 185.449 54.2143 185.436 54.9949L185.426 55.539L178.937 55.4258L178.956 54.3156L184.13 54.4059C184.146 53.9683 184.055 53.5333 183.867 53.1375C183.695 52.7733 183.423 52.4648 183.082 52.2476C182.742 52.0282 182.339 51.9138 181.871 51.9056C181.355 51.8966 180.907 52.0159 180.527 52.2633C180.154 52.5025 179.851 52.8354 179.649 53.2281C179.441 53.6272 179.33 54.0689 179.325 54.5181L179.312 55.2582C179.301 55.8899 179.401 56.4272 179.613 56.8701C179.828 57.3086 180.131 57.6457 180.522 57.8825C180.912 58.1139 181.369 58.2346 181.892 58.2437C182.231 58.2497 182.54 58.208 182.815 58.1175C183.094 58.0238 183.336 57.8835 183.54 57.6954C183.745 57.5018 183.905 57.2626 184.019 56.9732L185.263 57.3443C185.124 57.7624 184.897 58.1286 184.58 58.4429C184.264 58.7528 183.876 58.9935 183.416 59.1629C182.92 59.335 182.397 59.4145 181.872 59.3977ZM195.789 48.3155L195.595 59.4631L194.235 59.4394L194.405 49.7063L194.339 49.7051L191.566 51.4638L191.59 50.093L194.43 48.2917L195.789 48.3155Z" fill="white"/>
<path d="M166.08 69.8998L88.7791 68.5506C86.5614 68.5118 84.7325 70.2657 84.6941 72.4679C84.6556 74.67 86.4222 76.4866 88.6399 76.5253L165.941 77.8746C168.158 77.9133 169.987 76.1595 170.026 73.9573C170.064 71.7552 168.298 69.9386 166.08 69.8998Z" fill="#484848"/>
<path d="M320.525 57.199L283.861 56.559C281.686 56.521 279.891 58.2416 279.854 60.4021L279.696 69.44C279.658 71.6005 281.391 73.3827 283.567 73.4207L320.231 74.0606C322.407 74.0986 324.201 72.378 324.239 70.2175L324.396 61.1796C324.434 59.0191 322.701 57.2369 320.525 57.199Z" fill="#2E5235" fill-opacity="0.3"/>
<path d="M320.525 57.199L283.861 56.559C281.686 56.521 279.891 58.2416 279.854 60.4021L279.696 69.44C279.658 71.6005 281.391 73.3827 283.567 73.4207L320.231 74.0606C322.407 74.0986 324.201 72.378 324.239 70.2175L324.396 61.1796C324.434 59.0191 322.701 57.2369 320.525 57.199Z" stroke="#3A523E" stroke-width="0.939509"/>
<path d="M285.73 68.3111L285.849 61.5056L288.164 61.546C288.702 61.5554 289.139 61.6594 289.478 61.858C289.817 62.0545 290.068 62.3174 290.227 62.6454C290.387 62.9746 290.462 63.3395 290.455 63.7402C290.448 64.1409 290.36 64.5041 290.189 64.8285C290.02 65.1541 289.764 65.4114 289.419 65.6003C289.074 65.7871 288.636 65.8758 288.102 65.8665L286.443 65.8375L286.456 65.1062L288.088 65.1347C288.457 65.1411 288.753 65.0827 288.978 64.9607C289.204 64.8387 289.368 64.6707 289.472 64.4579C289.578 64.2418 289.635 63.9986 289.639 63.726C289.648 63.4738 289.6 63.223 289.498 62.9919C289.399 62.773 289.231 62.5925 289.018 62.4787C288.795 62.351 288.498 62.2834 288.125 62.2769L286.666 62.2514L286.56 68.3256L285.73 68.3111ZM296.327 61.6885L297.156 61.7029L297.078 66.2093C297.07 66.6746 296.952 67.0877 296.725 67.4495C296.496 67.8125 296.17 68.1049 295.783 68.2938C295.38 68.4949 294.91 68.5907 294.373 68.5814C293.835 68.572 293.368 68.4598 292.973 68.2448C292.592 68.0416 292.275 67.7382 292.057 67.368C291.842 66.9863 291.736 66.5534 291.751 66.1164L291.83 61.61L292.66 61.6245L292.583 66.0641C292.577 66.3958 292.645 66.6938 292.788 66.9547C292.93 67.2146 293.137 67.4208 293.406 67.5744C293.678 67.7248 294.005 67.8039 294.386 67.8106C294.768 67.8172 295.097 67.7496 295.374 67.6088C295.651 67.4647 295.864 67.2658 296.013 67.011C296.165 66.7552 296.244 66.4598 296.25 66.1281L296.327 61.6885ZM298.695 68.5374L298.813 61.7319L301.209 61.7737C301.687 61.782 302.079 61.871 302.387 62.0407C302.694 62.2081 302.92 62.43 303.068 62.7075C303.214 62.9827 303.285 63.2862 303.279 63.618C303.274 63.9103 303.218 64.1513 303.11 64.34C303.011 64.521 302.868 64.6742 302.693 64.785C302.524 64.8928 302.339 64.9724 302.144 65.0208L302.143 65.0865C302.352 65.1044 302.561 65.1814 302.771 65.3176C302.98 65.4548 303.154 65.6484 303.293 65.8984C303.431 66.1494 303.498 66.4539 303.491 66.813C303.485 67.1535 303.402 67.4598 303.241 67.7286C303.08 67.9996 302.829 68.2109 302.49 68.3638C302.15 68.5178 301.711 68.5901 301.171 68.5806L298.695 68.5374ZM299.538 67.8206L301.184 67.8493C301.726 67.8588 302.113 67.7615 302.343 67.5574C302.455 67.4643 302.545 67.3483 302.606 67.2174C302.668 67.0865 302.701 66.9438 302.702 66.7992C302.706 66.5693 302.65 66.3548 302.536 66.1578C302.417 65.9558 302.246 65.7898 302.039 65.6782C301.802 65.5492 301.536 65.4823 301.266 65.484L299.579 65.4546L299.538 67.8206ZM299.591 64.7375L301.131 64.7643C301.381 64.7687 301.607 64.7234 301.809 64.6294C302.006 64.542 302.175 64.4025 302.298 64.2262C302.424 64.0433 302.491 63.8268 302.49 63.6053C302.495 63.4637 302.471 63.3226 302.419 63.1906C302.368 63.0586 302.289 62.9385 302.189 62.8378C301.983 62.6239 301.652 62.513 301.196 62.505L299.631 62.4777L299.591 64.7375ZM304.824 68.6444L304.942 61.8389L305.771 61.8533L305.665 67.9275L308.852 67.9831L308.839 68.7145L304.824 68.6444ZM311.072 61.9459L310.954 68.7514L310.123 68.7369L310.242 61.9314L311.072 61.9459ZM318.213 64.1984L317.383 64.1839C317.305 63.7475 317.062 63.3575 316.702 63.0944C316.531 62.9667 316.339 62.8689 316.135 62.8052C315.923 62.739 315.703 62.7038 315.48 62.7007C315.066 62.6935 314.688 62.792 314.348 62.9942C313.995 63.2125 313.711 63.5268 313.532 63.8999C313.328 64.3015 313.222 64.798 313.211 65.387C313.201 65.976 313.291 66.4748 313.48 66.8844C313.671 67.293 313.933 67.6042 314.264 67.818C314.597 68.0319 314.971 68.1436 315.385 68.1508C315.614 68.1548 315.832 68.1269 316.043 68.0692C316.254 68.0105 316.446 67.9229 316.62 67.8033C316.988 67.5513 317.245 67.1697 317.339 66.736L318.168 66.7505C318.107 67.0784 317.986 67.3925 317.811 67.6774C317.479 68.2144 316.958 68.6103 316.349 68.7886C316.043 68.8829 315.718 68.9277 315.372 68.9216C314.788 68.9114 314.271 68.76 313.82 68.4685C313.36 68.1656 312.996 67.7402 312.768 67.2411C312.515 66.7132 312.396 66.0912 312.409 65.373C312.421 64.6559 312.562 64.0374 312.833 63.5186C313.103 63.0009 313.467 62.6042 313.928 62.3286C314.4 62.0495 314.944 61.9111 315.494 61.9299C315.84 61.936 316.163 61.992 316.466 62.0969C316.77 62.2019 317.043 62.3523 317.284 62.5493C317.527 62.7452 317.728 62.9809 317.888 63.2586C318.048 63.5341 318.157 63.847 318.213 64.1984Z" fill="#A2CEAD"/>
</g>
</g>
<defs>
<clipPath id="clip0_1_10348">
<rect width="321.984" height="69.8923" fill="white" transform="translate(53.4199 116.6) rotate(-5.99997)"/>
</clipPath>
<clipPath id="clip1_1_10348">
<rect width="321.984" height="69.8923" fill="white" transform="translate(53.4199 116.6) rotate(-5.99997)"/>
</clipPath>
<clipPath id="clip2_1_10348">
<rect width="321.989" height="67.8903" fill="white" transform="translate(20.3203 26.1992) rotate(0.999999)"/>
</clipPath>
<clipPath id="clip3_1_10348">
<rect width="321.989" height="67.8903" fill="white" transform="translate(20.3203 26.1992) rotate(0.999999)"/>
</clipPath>
</defs>
</svg>
