<svg width="342" height="177" viewBox="0 0 342 177" fill="none" xmlns="http://www.w3.org/2000/svg">
<g clip-path="url(#clip0_1_10625)">
<g clip-path="url(#clip1_1_10625)">
<g opacity="0.5">
<path d="M281.62 16.1309H60.4499C57.3494 16.1309 54.8359 18.6443 54.8359 21.7449V47.8699C54.8359 50.9704 57.3494 53.4839 60.4499 53.4839H281.62C284.72 53.4839 287.234 50.9704 287.234 47.8699V21.7449C287.234 18.6443 284.72 16.1309 281.62 16.1309Z" fill="#303030"/>
<path d="M281.62 16.1309H60.4499C57.3494 16.1309 54.8359 18.6443 54.8359 21.7449V47.8699C54.8359 50.9704 57.3494 53.4839 60.4499 53.4839H281.62C284.72 53.4839 287.234 50.9704 287.234 47.8699V21.7449C287.234 18.6443 284.72 16.1309 281.62 16.1309Z" stroke="#484848" stroke-width="0.848933"/>
</g>
<path d="M295.404 30.8838H46.6668C43.1504 30.8838 40.2998 33.7344 40.2998 37.2508V154.539C40.2998 158.056 43.1504 160.906 46.6668 160.906H295.404C298.92 160.906 301.771 158.056 301.771 154.539V37.2508C301.771 33.7344 298.92 30.8838 295.404 30.8838Z" fill="#303030"/>
<path d="M285.216 44.4668H56.8531C55.2121 44.4668 53.8818 45.7971 53.8818 47.4381V119.733C53.8818 121.374 55.2121 122.704 56.8531 122.704H285.216C286.857 122.704 288.187 121.374 288.187 119.733V47.4381C288.187 45.7971 286.857 44.4668 285.216 44.4668Z" fill="#303030"/>
<path d="M65.325 62.7188H63.9404L67.0509 54.075H68.5578L71.6674 62.7197H70.2837L67.8387 55.6464H67.7717L65.3242 62.7197L65.325 62.7188ZM65.5568 59.3341H70.0477V60.4309H65.5568V59.3341ZM74.0767 58.8698V62.7188H72.8152V56.2364H74.0266V57.2907H74.1064C74.2558 56.9478 74.4893 56.6719 74.8076 56.4639C75.1277 56.2559 75.5318 56.1515 76.0182 56.1515C76.4596 56.1515 76.8476 56.2449 77.1795 56.4299C77.5106 56.6133 77.7687 56.8858 77.9521 57.2492C78.1346 57.6116 78.2263 58.0607 78.2263 58.5956V62.7188H76.9639V58.7467C76.9639 58.2764 76.8417 57.9096 76.5972 57.6448C76.3518 57.3773 76.0156 57.2441 75.5878 57.2441C75.2958 57.2441 75.036 57.3069 74.8068 57.4342C74.5787 57.5646 74.393 57.7579 74.2719 57.9911C74.1421 58.2331 74.0767 58.5268 74.0767 58.8698ZM82.9446 56.2364V57.2492H79.4037V56.2355H82.9438L82.9446 56.2364ZM80.3528 54.6828H81.6152V60.8155C81.6152 61.06 81.6517 61.2442 81.7256 61.3682C81.7977 61.4896 81.892 61.5719 82.0074 61.6169C82.1263 61.6594 82.2536 61.6806 82.392 61.6806C82.493 61.6806 82.5813 61.6738 82.6577 61.6594L82.8351 61.6254L83.0626 62.6679C82.9608 62.7041 82.8564 62.7325 82.7502 62.7528C82.5838 62.7871 82.4142 62.8042 82.2443 62.8037C81.9255 62.8117 81.6087 62.7509 81.3155 62.6254C81.033 62.5052 80.7913 62.306 80.6194 62.0516C80.4411 61.7926 80.3528 61.4683 80.3528 61.077V54.6828ZM87.0017 62.8496C86.3939 62.8496 85.8641 62.7103 85.4108 62.4319C84.9551 62.1504 84.589 61.7449 84.3556 61.2629C84.1051 60.762 83.9795 60.1763 83.9795 59.5065C83.9795 58.8341 84.1051 58.2466 84.3556 57.7424C84.5879 57.2587 84.9537 56.8516 85.4099 56.5692C85.8633 56.2907 86.3939 56.1515 87.0017 56.1515C87.6095 56.1515 88.1393 56.2907 88.5926 56.5692C89.0459 56.8476 89.3974 57.2398 89.6478 57.7424C89.8982 58.2466 90.023 58.8341 90.023 59.5065C90.023 60.1771 89.8982 60.762 89.6478 61.2629C89.4143 61.7449 89.0483 62.1504 88.5926 62.4319C88.1393 62.7103 87.6095 62.8496 87.0017 62.8496ZM87.0059 61.7901C87.3998 61.7901 87.7258 61.6865 87.9848 61.4777C88.2437 61.2697 88.4347 60.9921 88.5586 60.6457C88.686 60.3002 88.7488 59.919 88.7488 59.5031C88.7488 59.0888 88.6851 58.7093 88.5586 58.363C88.4493 58.0348 88.2506 57.7437 87.9848 57.5225C87.7258 57.312 87.399 57.2067 87.0059 57.2067C86.6086 57.2067 86.2801 57.312 86.0178 57.5234C85.7518 57.7452 85.5521 58.036 85.4405 58.3638C85.313 58.7299 85.2498 59.1154 85.2537 59.5031C85.2537 59.919 85.3166 60.3011 85.4405 60.6466C85.5661 60.9921 85.7597 61.2697 86.0178 61.4785C86.2801 61.6865 86.6086 61.7901 87.0059 61.7901ZM92.6938 58.8698V62.7188H91.4323V56.2364H92.6437V57.2907H92.7235C92.8692 56.9514 93.1131 56.6635 93.4239 56.4639C93.7448 56.2559 94.1488 56.1515 94.6353 56.1515C95.0767 56.1515 95.4638 56.2449 95.7958 56.4299C96.1277 56.6133 96.3858 56.8858 96.5683 57.2492C96.7517 57.6116 96.8425 58.0607 96.8425 58.5956V62.7188H95.5819V58.7467C95.5819 58.2764 95.4596 57.9096 95.2143 57.6448C94.9698 57.3773 94.6336 57.2441 94.2057 57.2441C93.9128 57.2441 93.6531 57.3069 93.4247 57.4342C93.1963 57.5645 93.0103 57.7578 92.889 57.9911C92.7591 58.2331 92.6946 58.5259 92.6946 58.8689L92.6938 58.8698ZM98.5344 62.7188V56.2364H99.7968V62.7188H98.5361H98.5344ZM99.1728 55.2355C98.9627 55.2395 98.7594 55.1608 98.6066 55.0165C98.5328 54.9489 98.474 54.8667 98.4341 54.775C98.3942 54.6833 98.374 54.5842 98.3748 54.4842C98.3736 54.3842 98.3936 54.2851 98.4335 54.1935C98.4735 54.1019 98.5325 54.0198 98.6066 53.9527C98.6816 53.88 98.7702 53.8227 98.8674 53.7842C98.9645 53.7458 99.0683 53.7269 99.1728 53.7286C99.3919 53.7286 99.5795 53.8033 99.7331 53.9527C99.8086 54.0191 99.8689 54.1009 99.9099 54.1926C99.9509 54.2843 99.9717 54.3837 99.9708 54.4842C99.9712 54.5847 99.9501 54.6841 99.9091 54.7758C99.8682 54.8676 99.8082 54.9496 99.7331 55.0165C99.5827 55.1607 99.3812 55.2395 99.1728 55.2355ZM103.382 62.8623C102.998 62.8678 102.618 62.7899 102.267 62.6339C101.946 62.4889 101.673 62.2565 101.478 61.9633C101.287 61.6704 101.191 61.3121 101.191 60.8868C101.191 60.5218 101.261 60.2204 101.402 59.9836C101.543 59.7476 101.733 59.5608 101.972 59.4233C102.211 59.2849 102.479 59.1805 102.774 59.11C103.072 59.0392 103.373 58.9857 103.677 58.9496L104.622 58.8401C104.864 58.8095 105.04 58.7603 105.15 58.6923C105.26 58.6244 105.315 58.5149 105.315 58.363V58.3332C105.315 57.9648 105.21 57.6796 105.002 57.4767C104.797 57.2746 104.49 57.1727 104.082 57.1727C103.658 57.1727 103.322 57.267 103.078 57.4554C102.836 57.6422 102.668 57.8485 102.575 58.076L101.389 57.806C101.53 57.4121 101.736 57.0938 102.006 56.8518C102.277 56.6081 102.598 56.4267 102.947 56.3204C103.309 56.2067 103.686 56.1498 104.065 56.1515C104.324 56.1515 104.598 56.1829 104.889 56.2449C105.181 56.3043 105.454 56.413 105.707 56.5734C105.963 56.7347 106.172 56.9639 106.335 57.261C106.499 57.5573 106.581 57.941 106.581 58.4139V62.718H105.348V61.8325H105.297C105.216 61.9955 105.093 62.156 104.93 62.3139C104.767 62.4709 104.557 62.6025 104.302 62.7061C104.046 62.8105 103.739 62.8623 103.382 62.8623ZM103.656 61.8495C104.004 61.8495 104.303 61.7808 104.551 61.6424C104.801 61.5048 104.991 61.3249 105.12 61.1025C105.25 60.8844 105.319 60.635 105.318 60.3809V59.5447C105.274 59.5897 105.187 59.6321 105.057 59.672C104.93 59.7085 104.785 59.7399 104.622 59.7688C104.459 59.7942 104.3 59.818 104.145 59.8401L103.757 59.891C103.528 59.9183 103.304 59.9707 103.086 60.0472C102.886 60.1202 102.726 60.2255 102.605 60.3639C102.486 60.4989 102.427 60.6788 102.427 60.9038C102.427 61.2162 102.543 61.4522 102.774 61.6127C103.004 61.7706 103.299 61.8495 103.656 61.8495ZM114.868 54.075H116.168V60.2034C116.168 60.7578 116.057 61.2315 115.838 61.6254C115.63 62.0112 115.311 62.3258 114.922 62.5287C114.528 62.7341 114.067 62.8368 113.538 62.8368C113.087 62.8442 112.639 62.7536 112.225 62.5711C111.853 62.4051 111.536 62.1372 111.31 61.7986C111.088 61.459 110.976 61.0447 110.976 60.5574H112.272C112.272 60.7968 112.327 61.004 112.437 61.178C112.549 61.3529 112.702 61.4896 112.897 61.588C113.094 61.6831 113.319 61.7315 113.572 61.7315C113.847 61.7315 114.081 61.6738 114.273 61.5583C114.471 61.4355 114.626 61.2539 114.716 61.0388C114.818 60.8113 114.868 60.5328 114.868 60.2034V54.075ZM120.695 62.8496C120.087 62.8496 119.557 62.7103 119.104 62.4319C118.648 62.1504 118.282 61.7449 118.049 61.2629C117.798 60.762 117.674 60.1763 117.674 59.5065C117.674 58.8341 117.798 58.2466 118.049 57.7424C118.281 57.2586 118.648 56.8515 119.104 56.5692C119.557 56.2907 120.087 56.1515 120.695 56.1515C121.303 56.1515 121.833 56.2907 122.287 56.5692C122.739 56.8476 123.091 57.2398 123.341 57.7424C123.592 58.2466 123.717 58.8341 123.717 59.5065C123.717 60.1771 123.592 60.762 123.341 61.2629C123.108 61.7448 122.742 62.1503 122.287 62.4319C121.833 62.7103 121.303 62.8496 120.695 62.8496ZM120.699 61.7901C121.093 61.7901 121.42 61.6865 121.679 61.4777C121.937 61.2697 122.129 60.9921 122.253 60.6457C122.383 60.279 122.447 59.8921 122.442 59.5031C122.442 59.0888 122.379 58.7093 122.253 58.363C122.143 58.0349 121.945 57.7438 121.679 57.5225C121.42 57.312 121.093 57.2067 120.699 57.2067C120.303 57.2067 119.973 57.312 119.712 57.5234C119.446 57.7451 119.246 58.0359 119.134 58.3638C119.007 58.73 118.944 59.1154 118.948 59.5031C118.948 59.919 119.01 60.3011 119.134 60.6466C119.26 60.9921 119.453 61.2697 119.711 61.4785C119.974 61.6865 120.303 61.7901 120.699 61.7901ZM126.388 58.8698V62.7188H125.126V56.2364H126.337V57.2907H126.417C126.566 56.9478 126.8 56.6719 127.118 56.4639C127.439 56.2559 127.842 56.1515 128.329 56.1515C128.771 56.1515 129.158 56.2449 129.49 56.4299C129.826 56.617 130.095 56.9031 130.262 57.2492C130.445 57.6116 130.537 58.0607 130.537 58.5956V62.7188H129.274V58.7467C129.274 58.2764 129.152 57.9096 128.908 57.6448C128.662 57.3773 128.326 57.2441 127.899 57.2441C127.627 57.239 127.358 57.3045 127.118 57.4342C126.889 57.5642 126.703 57.7576 126.581 57.9911C126.452 58.2331 126.388 58.5268 126.388 58.8698ZM135.023 62.8496C134.384 62.8496 133.834 62.7137 133.373 62.4404C132.914 62.1644 132.544 61.7613 132.309 61.2799C132.061 60.779 131.937 60.1924 131.937 59.5192C131.937 58.8553 132.061 58.2704 132.309 57.7636C132.541 57.2785 132.903 56.8677 133.356 56.5776C133.806 56.2933 134.332 56.1515 134.934 56.1515C135.3 56.1515 135.655 56.2118 135.998 56.3332C136.341 56.4537 136.649 56.6439 136.922 56.9028C137.195 57.1617 137.41 57.4979 137.568 57.9113C137.725 58.3222 137.804 58.8214 137.804 59.4097V59.8571H132.651V58.9114H136.567C136.567 58.5803 136.5 58.2857 136.365 58.0302C136.236 57.7772 136.038 57.5653 135.795 57.4181C135.538 57.2646 135.242 57.1869 134.943 57.194C134.588 57.194 134.279 57.2814 134.014 57.4554C133.756 57.6235 133.546 57.8566 133.406 58.1312C133.265 58.4098 133.193 58.718 133.196 59.0302V59.7688C133.196 60.2017 133.271 60.5702 133.423 60.8741C133.578 61.178 133.793 61.4106 134.069 61.5702C134.345 61.7281 134.667 61.8071 135.035 61.8071C135.275 61.8071 135.493 61.7731 135.69 61.7052C135.883 61.6401 136.058 61.5322 136.204 61.3896C136.349 61.247 136.46 61.0734 136.529 60.8817L137.724 61.0982C137.631 61.4442 137.455 61.7619 137.209 62.0227C136.951 62.2931 136.635 62.502 136.285 62.6339C135.916 62.7782 135.495 62.8496 135.023 62.8496ZM144.062 57.8188L142.918 58.0217C142.868 57.8699 142.791 57.7282 142.691 57.6032C142.58 57.4637 142.438 57.3523 142.277 57.278C142.103 57.194 141.884 57.1515 141.623 57.1515C141.265 57.1515 140.967 57.2322 140.728 57.3926C140.489 57.5497 140.369 57.7543 140.369 58.0039C140.366 58.1039 140.386 58.2033 140.428 58.2942C140.47 58.3851 140.532 58.465 140.61 58.5276C140.771 58.6601 141.029 58.7679 141.386 58.8528L142.417 59.0888C143.013 59.2272 143.457 59.4394 143.75 59.7263C144.042 60.0133 144.189 60.386 144.189 60.8452C144.189 61.2332 144.076 61.5796 143.851 61.8835C143.629 62.184 143.318 62.4208 142.918 62.5923C142.522 62.7638 142.062 62.8496 141.538 62.8496C140.812 62.8496 140.22 62.6951 139.761 62.3852C139.303 62.0728 139.022 61.6296 138.917 61.0558L140.137 60.8698C140.213 61.1882 140.369 61.4284 140.606 61.5914C140.842 61.7527 141.15 61.8325 141.529 61.8325C141.944 61.8325 142.274 61.7468 142.522 61.5753C142.769 61.4004 142.893 61.1882 142.893 60.9378C142.895 60.8411 142.875 60.7453 142.836 60.657C142.796 60.5687 142.738 60.4901 142.665 60.4267C142.516 60.2892 142.287 60.1848 141.977 60.1143L140.88 59.874C140.275 59.7365 139.827 59.5175 139.538 59.2153C139.251 58.9148 139.107 58.5336 139.107 58.0718C139.107 57.6897 139.214 57.3544 139.428 57.0675C139.642 56.7805 139.938 56.5564 140.315 56.3968C140.692 56.233 141.124 56.1515 141.61 56.1515C142.31 56.1515 142.862 56.3043 143.265 56.6074C143.667 56.9087 143.933 57.312 144.062 57.8188Z" fill="white"/>
<path d="M149.511 62.2945V54.2678H152.222C152.85 54.2678 153.364 54.3757 153.766 54.5896C154.169 54.8018 154.467 55.0922 154.66 55.464C154.854 55.8341 154.951 56.2569 154.951 56.7289C154.951 57.2026 154.854 57.6211 154.66 57.987C154.467 58.3529 154.171 58.6407 153.771 58.8495C153.371 59.0558 152.86 59.1594 152.238 59.1594H150.044V58.2816H152.207C152.636 58.2816 152.98 58.2188 153.242 58.0931C153.506 57.9675 153.696 57.7901 153.814 57.56C153.934 57.3274 153.994 57.0506 153.994 56.7297C154.001 56.4386 153.939 56.1499 153.814 55.8868C153.689 55.642 153.486 55.446 153.238 55.3299C152.974 55.1974 152.625 55.1304 152.192 55.1304H150.483V62.2945H149.511ZM153.288 58.6891L155.264 62.2945H154.135L152.192 58.6891H153.288ZM158.825 62.4201C158.282 62.4201 157.805 62.2903 157.395 62.0322C156.981 61.7665 156.65 61.39 156.439 60.9455C156.211 60.4812 156.098 59.9379 156.098 59.3156C156.098 58.6891 156.211 58.1415 156.439 57.6738C156.668 57.2068 156.987 56.8427 157.395 56.5846C157.805 56.3257 158.282 56.1966 158.825 56.1966C159.369 56.1966 159.844 56.3257 160.251 56.5846C160.662 56.8427 160.981 57.206 161.208 57.6738C161.438 58.1415 161.553 58.6891 161.553 59.3156C161.553 59.9379 161.438 60.4812 161.208 60.9455C160.999 61.3911 160.667 61.768 160.251 62.0322C159.844 62.2903 159.369 62.4201 158.825 62.4201ZM158.825 61.5882C159.238 61.5882 159.577 61.4829 159.844 61.2715C160.111 61.0593 160.308 60.7817 160.436 60.437C160.566 60.0781 160.632 59.6985 160.628 59.3164C160.628 58.9132 160.564 58.5388 160.436 58.1908C160.32 57.8607 160.115 57.5691 159.844 57.3486C159.577 57.1347 159.238 57.0269 158.825 57.0269C158.413 57.0269 158.073 57.1347 157.807 57.3486C157.535 57.5694 157.331 57.8609 157.215 58.1908C157.087 58.5388 157.023 58.9132 157.023 59.3156C157.023 59.718 157.087 60.0915 157.215 60.4362C157.343 60.7817 157.54 61.0602 157.807 61.2715C158.073 61.4838 158.413 61.5882 158.825 61.5882ZM163.89 54.2678V62.2945H162.965V54.2678H163.89ZM166.509 54.2678V62.2945H165.584V54.2678H166.509ZM170.648 62.4201C170.105 62.4201 169.628 62.2903 169.218 62.0322C168.804 61.7663 168.472 61.3899 168.261 60.9455C168.034 60.4812 167.921 59.9379 167.921 59.3156C167.921 58.6891 168.034 58.1415 168.261 57.6738C168.491 57.2068 168.81 56.8427 169.218 56.5846C169.628 56.3257 170.105 56.1966 170.648 56.1966C171.192 56.1966 171.667 56.3257 172.075 56.5846C172.485 56.8427 172.804 57.206 173.031 57.6738C173.261 58.1415 173.376 58.6891 173.376 59.3156C173.376 59.9379 173.261 60.4812 173.031 60.9455C172.822 61.391 172.49 61.7677 172.075 62.0322C171.667 62.2903 171.192 62.4201 170.648 62.4201ZM170.648 61.5882C171.061 61.5882 171.4 61.4829 171.667 61.2715C171.938 61.0535 172.143 60.7646 172.259 60.437C172.389 60.078 172.454 59.6984 172.451 59.3164C172.451 58.9132 172.387 58.5388 172.259 58.1908C172.143 57.8609 171.938 57.5694 171.667 57.3486C171.4 57.1347 171.061 57.0269 170.648 57.0269C170.236 57.0269 169.895 57.1347 169.63 57.3486C169.358 57.5694 169.153 57.8608 169.037 58.1908C168.91 58.5388 168.845 58.9132 168.845 59.3156C168.845 59.718 168.91 60.0915 169.037 60.4362C169.165 60.7817 169.363 61.0602 169.63 61.2715C169.895 61.4838 170.236 61.5882 170.648 61.5882ZM178.582 59.8334V56.2747H179.506V62.2936H178.582V61.2749H178.519C178.378 61.5805 178.158 61.8412 177.86 62.0559C177.562 62.2673 177.186 62.3726 176.732 62.3726C176.382 62.3793 176.036 62.2944 175.728 62.1264C175.428 61.9507 175.187 61.6882 175.038 61.3734C174.871 61.0364 174.788 60.6119 174.788 60.1V56.2747H175.712V60.0372C175.712 60.4761 175.835 60.8267 176.081 61.0873C176.329 61.3488 176.645 61.4795 177.03 61.4795C177.259 61.4795 177.493 61.4201 177.731 61.3029C177.971 61.1849 178.172 61.0058 178.335 60.7622C178.499 60.5194 178.582 60.2095 178.582 59.8334ZM183.819 56.2747V57.0583H180.699V56.2747H183.819ZM181.608 54.8324H182.533V60.5703C182.533 60.8309 182.571 61.027 182.646 61.1578C182.725 61.2851 182.824 61.3717 182.944 61.4167C183.067 61.4592 183.196 61.4795 183.332 61.4795C183.434 61.4795 183.518 61.4744 183.584 61.4634L183.74 61.432L183.928 62.2631C183.842 62.2929 183.754 62.3165 183.665 62.3336C183.553 62.359 183.41 62.3726 183.238 62.3726C182.977 62.3726 182.721 62.3166 182.47 62.2045C182.221 62.0916 182.008 61.9143 181.851 61.6909C181.689 61.4617 181.608 61.1714 181.608 60.8208V54.8324ZM188.298 62.2945V61.589L190.947 58.6891C191.258 58.3495 191.514 58.0541 191.715 57.8028C191.917 57.5498 192.065 57.3121 192.162 57.0897C192.261 56.8656 192.311 56.6304 192.311 56.3851C192.311 56.1024 192.243 55.8587 192.107 55.6516C191.972 55.4441 191.782 55.2785 191.558 55.1737C191.313 55.0584 191.045 55.0007 190.775 55.0047C190.467 55.0047 190.198 55.0692 189.967 55.1974C189.744 55.3188 189.56 55.5026 189.439 55.7263C189.311 55.9729 189.248 56.2476 189.254 56.5252H188.329C188.329 56.0557 188.438 55.6423 188.654 55.2874C188.868 54.9347 189.175 54.6472 189.54 54.4563C189.917 54.2577 190.338 54.1592 190.806 54.1592C191.277 54.1592 191.693 54.2577 192.056 54.4563C192.419 54.655 192.704 54.9232 192.911 55.2594C193.117 55.5964 193.22 55.9716 193.22 56.3842C193.22 56.6797 193.166 56.9683 193.059 57.2501C192.955 57.5303 192.772 57.8427 192.511 58.1874C192.252 58.5295 191.893 58.9472 191.433 59.4412L189.63 61.3692V61.432H193.361V62.2945H188.298ZM195.67 61.2673C195.577 61.2685 195.485 61.2508 195.399 61.2152C195.313 61.1796 195.236 61.1268 195.171 61.0602C195.105 60.9957 195.052 60.9182 195.016 60.8324C194.981 60.7467 194.963 60.6546 194.964 60.5618C194.963 60.4692 194.981 60.3772 195.016 60.2917C195.052 60.2061 195.105 60.1288 195.171 60.0644C195.236 59.9975 195.313 59.9446 195.399 59.9088C195.485 59.8731 195.577 59.8552 195.67 59.8564C195.762 59.8552 195.854 59.8731 195.94 59.9089C196.026 59.9446 196.103 59.9976 196.167 60.0644C196.234 60.1287 196.287 60.206 196.323 60.2916C196.358 60.3771 196.376 60.4691 196.375 60.5618C196.373 60.6852 196.339 60.8059 196.277 60.9127C196.215 61.0196 196.128 61.1091 196.022 61.1731C195.916 61.2364 195.794 61.269 195.67 61.2673ZM195.67 57.2077C195.577 57.2088 195.485 57.191 195.399 57.1552C195.313 57.1194 195.236 57.0665 195.171 56.9997C195.105 56.9353 195.052 56.8579 195.016 56.7724C194.981 56.6868 194.963 56.5949 194.964 56.5022C194.963 56.4094 194.981 56.3173 195.016 56.2316C195.052 56.1459 195.105 56.0684 195.171 56.0039C195.236 55.9372 195.313 55.8845 195.399 55.8489C195.485 55.8132 195.577 55.7955 195.67 55.7968C195.863 55.7968 196.029 55.8655 196.167 56.0039C196.234 56.0683 196.287 56.1458 196.323 56.2315C196.359 56.3172 196.376 56.4094 196.375 56.5022C196.373 56.6256 196.339 56.7463 196.277 56.8531C196.215 56.96 196.128 57.0495 196.022 57.1135C195.915 57.1765 195.794 57.2097 195.67 57.2077Z" fill="#6DBDF5"/>
<path d="M204.565 62.2942V56.2745H205.459V57.1837H205.522C205.632 56.8865 205.83 56.6437 206.117 56.4587C206.405 56.2728 206.729 56.1802 207.089 56.1802C207.157 56.1802 207.242 56.1819 207.344 56.1845C207.446 56.187 207.523 56.1913 207.576 56.1964V57.137C207.504 57.1223 207.432 57.1104 207.36 57.1013C207.245 57.0827 207.128 57.0736 207.011 57.0741C206.739 57.0691 206.469 57.1324 206.228 57.2584C206.005 57.3735 205.818 57.5466 205.686 57.7592C205.554 57.978 205.486 58.2296 205.491 58.4851V62.2942H204.565ZM210.934 62.4199C210.391 62.4199 209.914 62.29 209.504 62.0319C209.09 61.7662 208.759 61.3897 208.548 60.9453C208.32 60.4809 208.207 59.9376 208.207 59.3153C208.207 58.6888 208.32 58.1413 208.548 57.6735C208.777 57.2066 209.096 56.8424 209.504 56.5843C209.914 56.3254 210.391 56.1964 210.934 56.1964C211.477 56.1964 211.953 56.3254 212.36 56.5843C212.771 56.8424 213.09 57.2057 213.317 57.6735C213.547 58.1413 213.662 58.6888 213.662 59.3153C213.662 59.9376 213.547 60.4809 213.317 60.9453C213.108 61.3908 212.776 61.7677 212.36 62.0319C211.953 62.29 211.477 62.4199 210.934 62.4199ZM210.934 61.5879C211.347 61.5879 211.686 61.4827 211.953 61.2713C212.219 61.059 212.417 60.7814 212.545 60.4368C212.675 60.0778 212.741 59.6982 212.737 59.3162C212.737 58.9129 212.673 58.5386 212.545 58.1905C212.429 57.8604 212.224 57.5689 211.953 57.3484C211.686 57.1344 211.347 57.0266 210.934 57.0266C210.522 57.0266 210.182 57.1344 209.915 57.3484C209.644 57.5689 209.439 57.8604 209.324 58.1905C209.196 58.5386 209.131 58.9129 209.131 59.3153C209.131 59.7177 209.196 60.0913 209.324 60.4359C209.451 60.7814 209.649 61.0599 209.915 61.2713C210.182 61.4835 210.522 61.5879 210.934 61.5879ZM215.999 54.2676V62.2942H215.074V54.2676H215.999ZM218.618 54.2676V62.2942H217.692V54.2676H218.618ZM222.757 62.4199C222.214 62.4199 221.737 62.29 221.327 62.0319C220.913 61.766 220.581 61.3896 220.37 60.9453C220.143 60.4809 220.03 59.9376 220.03 59.3153C220.03 58.6888 220.143 58.1413 220.37 57.6735C220.6 57.2066 220.919 56.8424 221.327 56.5843C221.737 56.3254 222.214 56.1964 222.757 56.1964C223.301 56.1964 223.776 56.3254 224.183 56.5843C224.593 56.8424 224.913 57.2057 225.14 57.6735C225.369 58.1413 225.485 58.6888 225.485 59.3153C225.485 59.9376 225.369 60.4809 225.14 60.9453C224.93 61.3907 224.599 61.7675 224.183 62.0319C223.776 62.29 223.301 62.4199 222.757 62.4199ZM222.757 61.5879C223.17 61.5879 223.509 61.4827 223.776 61.2713C224.047 61.0533 224.252 60.7644 224.368 60.4368C224.498 60.0777 224.563 59.6982 224.559 59.3162C224.559 58.9129 224.496 58.5386 224.368 58.1905C224.252 57.8606 224.047 57.5692 223.776 57.3484C223.509 57.1344 223.17 57.0266 222.757 57.0266C222.344 57.0266 222.004 57.1344 221.738 57.3484C221.467 57.5692 221.262 57.8606 221.146 58.1905C221.019 58.5386 220.954 58.9129 220.954 59.3153C220.954 59.7177 221.019 60.0913 221.146 60.4359C221.274 60.7814 221.471 61.0599 221.738 61.2713C222.004 61.4835 222.344 61.5879 222.757 61.5879ZM230.69 59.8332V56.2745H231.615V62.2934H230.69V61.2747H230.628C230.487 61.5803 230.267 61.8409 229.969 62.0557C229.671 62.2671 229.295 62.3723 228.841 62.3723C228.464 62.3723 228.129 62.29 227.837 62.1261C227.537 61.9505 227.296 61.688 227.147 61.3731C226.98 61.0361 226.897 60.6117 226.897 60.0997V56.2745H227.821V60.0369C227.821 60.4758 227.944 60.8264 228.19 61.0871C228.438 61.3485 228.754 61.4793 229.138 61.4793C229.368 61.4793 229.602 61.4198 229.84 61.3027C230.08 61.1847 230.281 61.0056 230.443 60.7619C230.608 60.5191 230.69 60.2093 230.69 59.8332ZM235.927 56.2745V57.058H232.808V56.2745H235.927ZM233.717 54.8321H234.641V60.5701C234.641 60.8307 234.68 61.0268 234.755 61.1575C234.822 61.2757 234.927 61.3672 235.053 61.4164C235.176 61.4589 235.305 61.4793 235.441 61.4793C235.543 61.4793 235.626 61.4742 235.692 61.4631L235.849 61.4317L236.037 62.2628C235.951 62.2927 235.863 62.3162 235.774 62.3333C235.662 62.3588 235.519 62.3723 235.347 62.3723C235.082 62.3715 234.82 62.3142 234.579 62.2042C234.33 62.0914 234.116 61.914 233.96 61.6906C233.798 61.4614 233.717 61.1711 233.717 60.8205V54.8321ZM242.695 62.4199C242.194 62.4199 241.75 62.2925 241.367 62.0396C240.983 61.7832 240.682 61.4224 240.465 60.958C240.249 60.4903 240.14 59.9376 240.14 59.3001C240.14 58.6676 240.249 58.1192 240.465 57.654C240.682 57.1888 240.984 56.8297 241.371 56.5758C241.757 56.3228 242.204 56.1964 242.711 56.1964C243.103 56.1964 243.413 56.2617 243.64 56.3916C243.869 56.5198 244.045 56.6667 244.165 56.8305C244.288 56.9927 244.383 57.1259 244.451 57.2304H244.53V54.2676H245.454V62.2942H244.56V61.3689H244.451C244.36 61.5116 244.264 61.6504 244.161 61.7849C244.014 61.9673 243.831 62.1178 243.624 62.2272C243.391 62.3554 243.082 62.4199 242.695 62.4199ZM242.821 61.5879C243.192 61.5879 243.505 61.492 243.762 61.2993C244.017 61.1023 244.212 60.8324 244.346 60.4877C244.479 60.1396 244.545 59.7389 244.545 59.2848C244.545 58.8348 244.48 58.4418 244.349 58.1048C244.218 57.7652 244.026 57.5012 243.769 57.3127C243.513 57.1225 243.197 57.0266 242.821 57.0266C242.429 57.0266 242.102 57.1276 241.841 57.3288C241.574 57.5388 241.372 57.8198 241.257 58.1396C241.129 58.4791 241.065 58.8612 241.065 59.2848C241.065 59.7126 241.131 60.1023 241.261 60.4521C241.394 60.8001 241.59 61.0769 241.849 61.2832C242.11 61.4869 242.434 61.5879 242.821 61.5879ZM249.722 62.4199C249.179 62.4199 248.702 62.29 248.291 62.0319C247.878 61.7659 247.547 61.3896 247.336 60.9453C247.108 60.4809 246.994 59.9376 246.994 59.3153C246.994 58.6888 247.108 58.1413 247.336 57.6735C247.546 57.2281 247.877 56.8508 248.291 56.5843C248.702 56.3254 249.179 56.1964 249.722 56.1964C250.266 56.1964 250.741 56.3254 251.149 56.5843C251.559 56.8424 251.877 57.2057 252.105 57.6735C252.335 58.1413 252.449 58.6888 252.449 59.3153C252.449 59.9376 252.335 60.4809 252.105 60.9453C251.895 61.3906 251.564 61.7674 251.149 62.0319C250.741 62.29 250.266 62.4199 249.722 62.4199ZM249.722 61.5879C250.135 61.5879 250.475 61.4827 250.741 61.2713C251.012 61.0533 251.217 60.7644 251.333 60.4368C251.464 60.0777 251.529 59.6982 251.525 59.3162C251.525 58.9129 251.461 58.5386 251.333 58.1905C251.217 57.8606 251.013 57.5692 250.741 57.3484C250.475 57.1344 250.135 57.0266 249.722 57.0266C249.309 57.0266 248.97 57.1344 248.703 57.3484C248.432 57.5692 248.227 57.8606 248.111 58.1905C247.983 58.5386 247.92 58.9129 247.92 59.3153C247.92 59.7177 247.983 60.0913 248.111 60.4359C248.24 60.7814 248.437 61.0599 248.703 61.2713C248.97 61.4835 249.309 61.5879 249.722 61.5879ZM254.787 58.6727V62.2942H253.862V56.2745H254.755V57.2151H254.833C254.975 56.9095 255.189 56.6633 255.477 56.4782C255.764 56.2906 256.135 56.1964 256.59 56.1964C256.997 56.1964 257.354 56.2795 257.659 56.4468C257.965 56.6115 258.203 56.8628 258.372 57.1989C258.542 57.5334 258.627 57.957 258.627 58.4689V62.2942H257.703V58.5318C257.703 58.0589 257.58 57.6913 257.334 57.4265C257.088 57.1599 256.751 57.0275 256.323 57.0275C256.047 57.0226 255.774 57.0886 255.531 57.2193C255.301 57.3467 255.119 57.5334 254.986 57.7796C254.853 58.025 254.787 58.3229 254.787 58.6727ZM262.841 62.4199C262.261 62.4199 261.761 62.2917 261.34 62.0353C260.921 61.7753 260.585 61.3998 260.373 60.9538C260.148 60.4886 260.036 59.9478 260.036 59.3315C260.036 58.7143 260.148 58.171 260.373 57.7015C260.599 57.2278 260.916 56.8594 261.321 56.5954C261.728 56.3296 262.204 56.1964 262.747 56.1964C263.061 56.1964 263.37 56.2481 263.676 56.3526C263.981 56.457 264.26 56.6268 264.511 56.8619C264.762 57.0945 264.962 57.4035 265.11 57.7873C265.259 58.171 265.334 58.6447 265.334 59.2058V59.598H260.693V58.7983H264.393C264.393 58.4588 264.325 58.1557 264.189 57.8891C264.062 57.6292 263.863 57.4106 263.617 57.2584C263.355 57.0995 263.053 57.0191 262.747 57.0266C262.379 57.0266 262.06 57.1183 261.791 57.3017C261.528 57.4782 261.315 57.7213 261.176 58.0063C261.032 58.2965 260.958 58.6163 260.96 58.9401V59.4724C260.96 59.9274 261.038 60.3128 261.195 60.6286C261.355 60.9427 261.576 61.1804 261.857 61.346C262.14 61.5073 262.468 61.5888 262.841 61.5888C263.084 61.5888 263.304 61.5548 263.5 61.4869C263.692 61.4206 263.867 61.3134 264.013 61.1728C264.157 61.0319 264.267 60.857 264.346 60.6482L265.239 60.8986C265.147 61.199 264.985 61.4731 264.766 61.6983C264.533 61.9328 264.252 62.1146 263.942 62.2314C263.59 62.3615 263.217 62.4254 262.841 62.4199Z" fill="#D8D8D8"/>
<path d="M65.8552 80.5464L64.0215 74.5267H64.9927L66.2941 79.1355H66.3569L67.6422 74.5267H68.6295L69.8995 79.1194H69.9623L71.2629 74.5267H72.2349L70.4012 80.5456H69.492L68.1753 75.9214H68.0811L66.7644 80.5464H65.8552ZM75.2291 80.6874C74.8479 80.6874 74.5016 80.6152 74.1908 80.4717C73.8901 80.3343 73.6335 80.1159 73.4497 79.841C73.2672 79.5642 73.1755 79.2297 73.1755 78.8375C73.1755 78.4929 73.2434 78.2136 73.3793 77.9988C73.5151 77.7823 73.6968 77.6125 73.9243 77.4894C74.1609 77.3632 74.4141 77.2709 74.6764 77.2152C74.954 77.1524 75.2316 77.1032 75.5118 77.0667C75.8768 77.0191 76.174 76.9843 76.4015 76.9605C76.6307 76.9351 76.7979 76.8909 76.9023 76.8307C77.0102 76.7712 77.0636 76.6668 77.0636 76.5174V76.486C77.0636 76.0997 76.9575 75.7983 76.7461 75.5844C76.5373 75.3705 76.2198 75.2635 75.7936 75.2635C75.3522 75.2635 75.0058 75.3603 74.7554 75.553C74.5041 75.7466 74.3275 75.9529 74.2265 76.1727L73.3479 75.8586C73.5049 75.4936 73.7137 75.2083 73.9752 75.0046C74.2384 74.7983 74.527 74.6548 74.8377 74.5733C75.1394 74.4917 75.4505 74.4497 75.7631 74.4485C75.9558 74.4485 76.1782 74.4715 76.4286 74.519C76.6825 74.5632 76.9261 74.6557 77.1613 74.7975C77.399 74.9384 77.5968 75.1515 77.753 75.4359C77.91 75.7211 77.9881 76.1023 77.9881 76.5802V80.5464H77.0628V79.7315H77.0161C76.935 79.8873 76.8292 80.0289 76.7028 80.1508C76.5346 80.314 76.3362 80.4429 76.1188 80.5303C75.876 80.6356 75.5797 80.6874 75.2291 80.6874ZM75.37 79.8563C75.7359 79.8563 76.0441 79.7849 76.2954 79.6406C76.5252 79.516 76.7175 79.3322 76.8526 79.1084C76.9877 78.8845 77.0605 78.6286 77.0636 78.3672V77.5208C77.0246 77.5675 76.938 77.6108 76.8047 77.6499C76.6552 77.6908 76.5036 77.7236 76.3505 77.7483C76.056 77.7938 75.7605 77.8329 75.4642 77.8655C75.2351 77.8943 75.0094 77.9455 74.7902 78.0183C74.5839 78.0862 74.4167 78.1898 74.2893 78.3282C74.1637 78.464 74.1009 78.6491 74.1009 78.8842C74.1009 79.2068 74.2197 79.4488 74.4574 79.6143C74.6977 79.7756 75.0024 79.8563 75.37 79.8563ZM79.6766 80.5464V74.5267H80.602V80.5456L79.6766 80.5464ZM80.147 73.5232C79.9731 73.526 79.8052 73.4598 79.68 73.339C79.6188 73.2829 79.5701 73.2145 79.537 73.1383C79.504 73.0621 79.4873 72.9798 79.4882 72.8967C79.4882 72.7235 79.5527 72.5767 79.6809 72.4536C79.8058 72.333 79.9734 72.2668 80.147 72.2693C80.3269 72.2693 80.4814 72.3305 80.6096 72.4536C80.6719 72.5092 80.7215 72.5776 80.7552 72.654C80.7889 72.7304 80.8058 72.8132 80.8049 72.8967C80.8057 72.9801 80.7887 73.0627 80.755 73.1389C80.7213 73.2152 80.6718 73.2834 80.6096 73.339C80.5486 73.3989 80.4762 73.446 80.3968 73.4776C80.3174 73.5092 80.2324 73.5247 80.147 73.5232ZM84.9137 74.5267V75.3102H81.7939V74.5267H84.9137ZM82.7031 73.0843H83.6284V78.8222C83.6284 79.0829 83.6658 79.279 83.7413 79.4097C83.8203 79.5371 83.9196 79.6236 84.0393 79.6686C84.1624 79.7111 84.2914 79.7315 84.4273 79.7315C84.5291 79.7315 84.6132 79.7255 84.6786 79.7153L84.8348 79.6839L85.0232 80.515C84.9373 80.5448 84.8494 80.5684 84.7601 80.5855C84.648 80.611 84.5054 80.6245 84.333 80.6245C84.0724 80.6245 83.816 80.5685 83.5656 80.4564C83.3168 80.3438 83.1027 80.1665 82.9459 79.9428C82.7846 79.7136 82.7031 79.4224 82.7031 79.0727V73.0843ZM86.3043 80.5464V74.5267H87.2296V80.5456L86.3043 80.5464ZM86.7746 73.5232C86.601 73.5258 86.4334 73.4596 86.3085 73.339C86.2473 73.2829 86.1985 73.2145 86.1655 73.1383C86.1324 73.0621 86.1158 72.9798 86.1167 72.8967C86.1167 72.7235 86.1803 72.5767 86.3085 72.4536C86.4336 72.3328 86.6015 72.2665 86.7754 72.2693C86.9554 72.2693 87.1091 72.3305 87.2372 72.4536C87.2997 72.5092 87.3494 72.5775 87.3833 72.6539C87.4171 72.7303 87.4342 72.8131 87.4333 72.8967C87.4342 72.9801 87.4172 73.0627 87.3835 73.1389C87.3498 73.2152 87.3002 73.2834 87.2381 73.339C87.177 73.399 87.1045 73.4461 87.0249 73.4778C86.9453 73.5094 86.8602 73.5249 86.7746 73.5232ZM89.8477 76.9249V80.5464H88.9232V74.5267H89.8172V75.4673H89.8953C90.037 75.1617 90.251 74.9155 90.5379 74.7304C90.8257 74.5419 91.1967 74.4485 91.6508 74.4485C92.0583 74.4485 92.4149 74.5317 92.7205 74.699C93.0261 74.8637 93.2647 75.115 93.4345 75.4511C93.6042 75.7856 93.6891 76.2092 93.6891 76.7211V80.5464H92.7638V76.784C92.7638 76.3111 92.6415 75.9435 92.3962 75.6786C92.15 75.4121 91.813 75.2797 91.3851 75.2797C91.109 75.2748 90.8363 75.3408 90.5931 75.4715C90.3639 75.5989 90.1813 75.7856 90.0481 76.0318C89.9148 76.2771 89.8477 76.5751 89.8477 76.9249ZM97.809 82.9294C97.3625 82.9294 96.9779 82.8717 96.657 82.7571C96.3631 82.6601 96.0903 82.5083 95.8531 82.3097C95.6545 82.142 95.484 81.9437 95.3479 81.7222L96.0848 81.2044C96.168 81.3147 96.2741 81.4404 96.4023 81.5813C96.5297 81.7247 96.7054 81.8487 96.927 81.9531C97.1519 82.0601 97.4457 82.1144 97.8099 82.1144C98.2954 82.1144 98.6961 81.9964 99.0119 81.7613C99.3286 81.5261 99.4865 81.1585 99.4865 80.6559V79.4335H99.4084C99.3405 79.5438 99.2437 79.6797 99.1181 79.841C98.9722 80.0191 98.7906 80.1646 98.5849 80.268C98.3557 80.3911 98.0442 80.4522 97.6519 80.4522C97.1926 80.4591 96.7401 80.3399 96.3437 80.1075C95.9592 79.8775 95.6553 79.543 95.4303 79.1041C95.2079 78.6652 95.0975 78.1321 95.0975 77.5047C95.0975 76.8884 95.2053 76.3519 95.4226 75.8943C95.6391 75.435 95.9405 75.0793 96.3276 74.8289C96.7147 74.5742 97.1613 74.4485 97.6681 74.4485C98.0603 74.4485 98.371 74.5139 98.6011 74.6438C98.8337 74.772 99.0111 74.9189 99.1333 75.0827C99.259 75.2448 99.3558 75.3781 99.4237 75.4825H99.517V74.5267H100.411V80.7188C100.411 81.2366 100.294 81.6568 100.059 81.9811C99.8241 82.3089 99.4964 82.5586 99.1181 82.6976C98.7002 82.8566 98.2561 82.9352 97.809 82.9294ZM97.7776 79.6211C98.1486 79.6211 98.4627 79.5362 98.7182 79.3664C98.9746 79.1966 99.169 78.9521 99.3023 78.6338C99.4356 78.3154 99.5026 77.9334 99.5026 77.4894C99.5026 77.0565 99.4364 76.6728 99.3065 76.3408C99.1917 76.0307 98.9902 75.7602 98.7258 75.5615C98.4703 75.373 98.1537 75.2788 97.7776 75.2788C97.3862 75.2788 97.0594 75.3781 96.7979 75.5768C96.5328 75.784 96.3306 76.0609 96.2139 76.3765C96.0821 76.7325 96.017 77.1098 96.022 77.4894C96.022 77.9071 96.0874 78.2772 96.2173 78.5981C96.3514 78.9173 96.5475 79.1678 96.8056 79.3511C97.067 79.5311 97.3913 79.6211 97.7776 79.6211ZM107.888 74.5267V75.3102H104.644V74.5267H107.888ZM105.616 80.5456V73.6964C105.616 73.3517 105.697 73.0639 105.859 72.8347C106.018 72.6074 106.236 72.4282 106.49 72.3169C106.748 72.2021 107.027 72.1434 107.309 72.1445C107.536 72.1445 107.722 72.1632 107.865 72.1997C108.01 72.2362 108.116 72.2702 108.187 72.3016L107.921 73.1013C107.856 73.08 107.79 73.0602 107.725 73.0419C107.619 73.0157 107.511 73.0039 107.403 73.0071C107.097 73.0071 106.876 73.0835 106.741 73.238C106.607 73.3925 106.541 73.6183 106.541 73.9163V80.5464L105.616 80.5456ZM111.383 80.6721C110.839 80.6721 110.362 80.5422 109.952 80.2841C109.538 80.0182 109.207 79.6418 108.996 79.1975C108.769 78.7331 108.655 78.1898 108.655 77.5675C108.655 76.941 108.769 76.3935 108.996 75.9257C109.225 75.4588 109.545 75.0946 109.952 74.8365C110.362 74.5776 110.839 74.4485 111.383 74.4485C111.926 74.4485 112.401 74.5776 112.809 74.8365C113.22 75.0946 113.539 75.4579 113.766 75.9257C113.996 76.3935 114.11 76.941 114.11 77.5675C114.11 78.1898 113.996 78.7331 113.766 79.1975C113.556 79.6429 113.225 80.0197 112.81 80.2841C112.402 80.5422 111.926 80.6721 111.383 80.6721ZM111.383 79.8401C111.796 79.8401 112.136 79.7349 112.401 79.5235C112.668 79.3112 112.866 79.0336 112.994 78.689C113.121 78.3435 113.186 77.9699 113.186 77.5684C113.186 77.1651 113.121 76.7908 112.994 76.4435C112.878 76.1134 112.673 75.8216 112.402 75.6006C112.136 75.3866 111.796 75.2788 111.383 75.2788C110.97 75.2788 110.63 75.3858 110.364 75.6006C110.093 75.8216 109.888 76.1133 109.772 76.4435C109.645 76.7908 109.58 77.1651 109.58 77.5675C109.58 77.9699 109.644 78.3435 109.772 78.6881C109.899 79.0336 110.097 79.3121 110.364 79.5235C110.63 79.7357 110.97 79.8401 111.383 79.8401ZM115.522 80.5464V74.5267H116.416V75.4359H116.479C116.589 75.1387 116.787 74.8968 117.075 74.7109C117.362 74.5258 117.686 74.4324 118.046 74.4324C118.114 74.4324 118.199 74.4341 118.301 74.4367C118.402 74.4392 118.48 74.4426 118.532 74.4485V75.3892C118.461 75.3744 118.389 75.3625 118.317 75.3535C118.202 75.3349 118.085 75.3258 117.969 75.3263C117.696 75.3215 117.426 75.3848 117.184 75.5106C116.957 75.6303 116.777 75.7975 116.643 76.0114C116.513 76.2237 116.447 76.4656 116.447 76.7373V80.5464H115.522ZM122.733 80.5464V74.5267H123.657V80.5456L122.733 80.5464ZM123.203 73.5232C123.029 73.5259 122.861 73.4597 122.736 73.339C122.675 73.2829 122.626 73.2145 122.593 73.1383C122.56 73.0621 122.543 72.9798 122.544 72.8967C122.544 72.7235 122.608 72.5767 122.736 72.4536C122.861 72.3329 123.029 72.2666 123.203 72.2693C123.383 72.2693 123.538 72.3305 123.665 72.4536C123.727 72.5092 123.777 72.5775 123.811 72.6539C123.845 72.7303 123.862 72.8131 123.861 72.8967C123.862 72.9801 123.845 73.0628 123.811 73.139C123.777 73.2153 123.727 73.2835 123.665 73.339C123.604 73.3989 123.532 73.446 123.453 73.4776C123.373 73.5093 123.288 73.5248 123.203 73.5232ZM126.276 76.9249V80.5464H125.352V74.5267H126.245V75.4673H126.323C126.465 75.1617 126.679 74.9155 126.966 74.7304C127.253 74.5419 127.624 74.4485 128.079 74.4485C128.487 74.4485 128.843 74.5317 129.149 74.699C129.455 74.8637 129.692 75.115 129.862 75.4511C130.032 75.7856 130.117 76.2092 130.117 76.7211V80.5464H129.192V76.784C129.192 76.3111 129.069 75.9435 128.824 75.6786C128.578 75.4121 128.241 75.2797 127.813 75.2797C127.537 75.2748 127.264 75.3408 127.021 75.4715C126.789 75.6014 126.6 75.7961 126.477 76.0318C126.343 76.2771 126.276 76.5751 126.276 76.9249ZM136.071 75.8748L135.24 76.1099C135.184 75.9645 135.106 75.8285 135.009 75.7067C134.901 75.5663 134.762 75.4534 134.602 75.3773C134.429 75.2907 134.208 75.2474 133.939 75.2474C133.57 75.2474 133.264 75.3323 133.018 75.5021C132.775 75.6702 132.653 75.8824 132.653 76.1413C132.653 76.3705 132.737 76.5531 132.905 76.6863C133.072 76.8196 133.333 76.93 133.688 77.0191L134.582 77.239C135.12 77.3689 135.521 77.5692 135.785 77.8383C136.049 78.1049 136.181 78.4487 136.181 78.8689C136.185 79.2016 136.08 79.5265 135.883 79.7943C135.687 80.0659 135.412 80.2799 135.06 80.4369C134.707 80.5931 134.297 80.6721 133.829 80.6721C133.215 80.6721 132.707 80.5388 132.305 80.2722C131.902 80.0057 131.647 79.616 131.54 79.1041L132.418 78.8842C132.502 79.2085 132.66 79.4513 132.893 79.6143C133.128 79.7756 133.434 79.8563 133.814 79.8563C134.245 79.8563 134.587 79.7654 134.84 79.582C135.097 79.397 135.225 79.1746 135.225 78.9165C135.227 78.8182 135.209 78.7206 135.171 78.6299C135.133 78.5393 135.076 78.4576 135.005 78.3901C134.859 78.2475 134.634 78.1397 134.331 78.0692L133.327 77.8341C132.777 77.7034 132.372 77.5013 132.113 77.2271C131.857 76.9504 131.729 76.604 131.729 76.188C131.729 75.8484 131.824 75.5479 132.015 75.2873C132.22 75.017 132.491 74.8048 132.803 74.6718C133.137 74.5224 133.516 74.4485 133.939 74.4485C134.535 74.4485 135.002 74.5793 135.342 74.8399C135.684 75.1014 135.928 75.4452 136.071 75.8748ZM140.191 74.5267V75.3102H137.071V74.5267H140.191ZM137.98 73.0843H138.906V78.8222C138.906 79.0829 138.943 79.279 139.02 79.4097C139.086 79.5273 139.191 79.6186 139.317 79.6686C139.44 79.7111 139.569 79.7315 139.705 79.7315C139.807 79.7315 139.891 79.7255 139.956 79.7153L140.113 79.6839L140.301 80.515C140.215 80.5448 140.127 80.5683 140.038 80.5855C139.925 80.611 139.784 80.6245 139.611 80.6245C139.346 80.6239 139.084 80.5666 138.843 80.4564C138.594 80.3438 138.38 80.1665 138.223 79.9428C138.062 79.7136 137.98 79.4224 137.98 79.0727V73.0843ZM143.353 80.6874C142.996 80.6923 142.641 80.6187 142.315 80.4717C142.015 80.334 141.758 80.1157 141.574 79.841C141.391 79.5642 141.3 79.2297 141.3 78.8375C141.3 78.4929 141.368 78.2136 141.504 77.9988C141.639 77.7823 141.821 77.6125 142.049 77.4894C142.285 77.3632 142.538 77.2709 142.801 77.2152C143.077 77.1528 143.355 77.1033 143.636 77.0667C144.002 77.0191 144.298 76.9843 144.526 76.9605C144.756 76.9351 144.923 76.8909 145.027 76.8307C145.134 76.7712 145.188 76.6668 145.188 76.5174V76.486C145.188 76.0997 145.082 75.7983 144.87 75.5844C144.662 75.3705 144.344 75.2635 143.918 75.2635C143.476 75.2635 143.13 75.3603 142.88 75.553C142.628 75.7466 142.453 75.9529 142.351 76.1727L141.472 75.8586C141.629 75.4936 141.838 75.2083 142.1 75.0046C142.354 74.8027 142.648 74.6559 142.962 74.5733C143.263 74.4915 143.574 74.4496 143.887 74.4485C144.08 74.4485 144.302 74.4715 144.553 74.519C144.807 74.5632 145.05 74.6557 145.286 74.7975C145.523 74.9384 145.721 75.1515 145.877 75.4359C146.034 75.7211 146.112 76.1023 146.112 76.5802V80.5464H145.188V79.7315H145.14C145.06 79.8875 144.954 80.0292 144.827 80.1508C144.659 80.3142 144.461 80.4431 144.243 80.5303C144 80.6356 143.704 80.6874 143.353 80.6874ZM143.495 79.8563C143.86 79.8563 144.169 79.7849 144.42 79.6406C144.65 79.5162 144.842 79.3325 144.977 79.1086C145.112 78.8847 145.185 78.6287 145.188 78.3672V77.5208C145.149 77.5675 145.062 77.6108 144.929 77.6499C144.779 77.6908 144.628 77.7236 144.475 77.7483C144.18 77.7939 143.885 77.8329 143.589 77.8655C143.359 77.8944 143.134 77.9456 142.914 78.0183C142.708 78.0862 142.541 78.1898 142.413 78.3282C142.288 78.464 142.225 78.6491 142.225 78.8842C142.225 79.2068 142.344 79.4488 142.582 79.6143C142.822 79.7756 143.127 79.8563 143.495 79.8563ZM148.725 76.9249V80.5464H147.801V74.5267H148.694V75.4673H148.773C148.914 75.1617 149.128 74.9155 149.416 74.7304C149.703 74.5419 150.074 74.4485 150.529 74.4485C150.936 74.4485 151.293 74.5317 151.598 74.699C151.904 74.8637 152.142 75.115 152.311 75.4511C152.482 75.7856 152.567 76.2092 152.567 76.7211V80.5464H151.642V76.784C151.642 76.3111 151.518 75.9435 151.273 75.6786C151.028 75.4121 150.691 75.2797 150.262 75.2797C149.967 75.2797 149.703 75.3433 149.471 75.4715C149.241 75.5989 149.059 75.7856 148.926 76.0318C148.792 76.2771 148.725 76.5751 148.725 76.9249ZM156.702 80.6721C156.137 80.6721 155.652 80.5388 155.244 80.2722C154.833 80.0015 154.507 79.6197 154.304 79.1712C154.084 78.7034 153.974 78.1694 153.974 77.5675C153.974 76.9563 154.086 76.4172 154.311 75.9495C154.519 75.5017 154.848 75.1205 155.26 74.8484C155.667 74.5818 156.143 74.4485 156.687 74.4485C157.109 74.4485 157.492 74.5267 157.831 74.6837C158.171 74.8399 158.449 75.0598 158.666 75.3416C158.882 75.6243 159.017 75.9529 159.069 76.3298H158.144C158.067 76.0437 157.902 75.7886 157.674 75.5997C157.434 75.3858 157.109 75.2788 156.702 75.2788C156.364 75.2719 156.033 75.3708 155.754 75.5615C155.474 75.76 155.255 76.0329 155.123 76.3493C154.974 76.6863 154.9 77.0819 154.9 77.5361C154.9 78.0013 154.973 78.4063 155.119 78.7518C155.267 79.0965 155.477 79.3639 155.746 79.5549C156.018 79.7459 156.336 79.841 156.702 79.841C156.942 79.841 157.16 79.7985 157.357 79.7153C157.551 79.6336 157.724 79.5073 157.861 79.3465C157.998 79.1858 158.095 78.9952 158.144 78.79H159.069C159.021 79.1374 158.887 79.4675 158.681 79.751C158.477 80.0328 158.207 80.2578 157.87 80.425C157.536 80.5897 157.146 80.6721 156.702 80.6721ZM162.945 80.6721C162.365 80.6721 161.865 80.5439 161.444 80.2875C161.025 80.027 160.689 79.6516 160.476 79.206C160.251 78.7408 160.139 78.2 160.139 77.5837C160.139 76.9665 160.251 76.4232 160.476 75.9537C160.704 75.48 161.02 75.1116 161.425 74.8484C161.832 74.5818 162.308 74.4485 162.851 74.4485C163.165 74.4485 163.474 74.5003 163.78 74.6047C164.086 74.7092 164.364 74.8798 164.615 75.1141C164.865 75.3467 165.066 75.6557 165.214 76.0394C165.364 76.4232 165.438 76.8969 165.438 77.458V77.8502H160.797V77.0505H164.497C164.497 76.711 164.429 76.4079 164.293 76.1413C164.166 75.8812 163.967 75.6625 163.721 75.5106C163.459 75.3517 163.157 75.2713 162.851 75.2788C162.482 75.2788 162.164 75.3705 161.895 75.553C161.628 75.7338 161.423 75.969 161.279 76.2593C161.136 76.549 161.062 76.8682 161.064 77.1915V77.7246C161.064 78.1796 161.143 78.565 161.299 78.8808C161.459 79.1949 161.679 79.4326 161.961 79.5982C162.244 79.7595 162.572 79.841 162.945 79.841C163.188 79.841 163.408 79.807 163.604 79.7391C163.802 79.6686 163.973 79.5642 164.117 79.425C164.261 79.2841 164.372 79.1092 164.45 78.9004L165.343 79.1508C165.251 79.4512 165.089 79.7253 164.87 79.9505C164.636 80.185 164.356 80.3668 164.046 80.4836C163.694 80.6137 163.321 80.6776 162.945 80.6721ZM172.567 74.5267V75.3102H169.447V74.5267H172.567ZM170.356 73.0843H171.281V78.8222C171.281 79.0829 171.319 79.279 171.394 79.4097C171.473 79.5371 171.573 79.6236 171.692 79.6686C171.816 79.7111 171.945 79.7315 172.08 79.7315C172.182 79.7315 172.266 79.7255 172.332 79.7153L172.488 79.6839L172.676 80.515C172.591 80.5448 172.503 80.5683 172.414 80.5855C172.273 80.6139 172.13 80.627 171.986 80.6245C171.721 80.6238 171.46 80.5665 171.219 80.4564C170.97 80.3438 170.756 80.1665 170.599 79.9428C170.437 79.7136 170.356 79.4224 170.356 79.0727V73.0843ZM176.339 80.6721C175.795 80.6721 175.318 80.5422 174.908 80.2841C174.494 80.0184 174.163 79.6419 173.952 79.1975C173.725 78.7331 173.611 78.1898 173.611 77.5675C173.611 76.941 173.725 76.3935 173.952 75.9257C174.182 75.4588 174.501 75.0946 174.908 74.8365C175.318 74.5776 175.795 74.4485 176.339 74.4485C176.882 74.4485 177.357 74.5776 177.765 74.8365C178.176 75.0946 178.494 75.4579 178.722 75.9257C178.952 76.3935 179.066 76.941 179.066 77.5675C179.066 78.1898 178.952 78.7331 178.722 79.1975C178.512 79.643 178.18 80.0199 177.765 80.2841C177.357 80.5422 176.882 80.6721 176.339 80.6721ZM176.339 79.8401C176.751 79.8401 177.091 79.7349 177.357 79.5235C177.624 79.3112 177.822 79.0336 177.949 78.689C178.08 78.33 178.145 77.9504 178.142 77.5684C178.142 77.1651 178.077 76.7908 177.949 76.4435C177.822 76.0955 177.624 75.8153 177.357 75.6006C177.091 75.3866 176.751 75.2788 176.339 75.2788C175.926 75.2788 175.587 75.3858 175.32 75.6006C175.048 75.8213 174.844 76.1132 174.728 76.4435C174.6 76.7908 174.536 77.1651 174.536 77.5675C174.536 77.9699 174.6 78.3435 174.728 78.6881C174.856 79.0336 175.053 79.3121 175.32 79.5235C175.587 79.7357 175.926 79.8401 176.339 79.8401ZM187.846 75.8756L187.015 76.1099C186.959 75.9645 186.881 75.8285 186.784 75.7067C186.676 75.5663 186.536 75.4534 186.376 75.3773C186.204 75.2907 185.983 75.2474 185.714 75.2474C185.346 75.2474 185.039 75.3323 184.793 75.5021C184.55 75.6702 184.429 75.8824 184.429 76.1413C184.429 76.3705 184.512 76.5531 184.679 76.6863C184.847 76.8196 185.108 76.93 185.463 77.0191L186.357 77.239C186.895 77.3689 187.296 77.5692 187.56 77.8383C187.824 78.1049 187.955 78.4487 187.955 78.8689C187.96 79.2016 187.855 79.5265 187.657 79.7943C187.462 80.0659 187.188 80.2799 186.835 80.4369C186.483 80.5931 186.072 80.6721 185.604 80.6721C184.99 80.6721 184.482 80.5388 184.08 80.2722C183.678 80.0057 183.423 79.616 183.315 79.1041L184.194 78.8842C184.277 79.2085 184.435 79.4513 184.668 79.6143C184.903 79.7756 185.21 79.8563 185.589 79.8563C186.02 79.8563 186.362 79.7654 186.616 79.582C186.871 79.397 187 79.1746 187 78.9165C187.002 78.8182 186.984 78.7205 186.946 78.6298C186.908 78.5392 186.851 78.4575 186.78 78.3901C186.634 78.2475 186.409 78.1397 186.106 78.0692L185.103 77.8341C184.551 77.7034 184.146 77.5013 183.887 77.2271C183.632 76.9504 183.504 76.604 183.504 76.188C183.504 75.8484 183.599 75.5479 183.79 75.2873C183.994 75.017 184.266 74.8048 184.578 74.6718C184.912 74.5224 185.291 74.4485 185.714 74.4485C186.309 74.4485 186.777 74.5793 187.117 74.8399C187.46 75.1014 187.702 75.446 187.846 75.8756ZM191.966 74.5267V75.3102H188.846V74.5267H191.966ZM189.755 73.0843H190.681V78.8222C190.681 79.0829 190.719 79.279 190.794 79.4097C190.861 79.5279 190.966 79.6194 191.092 79.6686C191.215 79.7111 191.344 79.7315 191.48 79.7315C191.582 79.7315 191.665 79.7255 191.731 79.7153L191.888 79.6839L192.075 80.515C191.99 80.5449 191.902 80.5684 191.813 80.5855C191.701 80.611 191.558 80.6245 191.386 80.6245C191.121 80.6237 190.859 80.5664 190.618 80.4564C190.369 80.3436 190.156 80.1662 189.999 79.9428C189.837 79.7136 189.755 79.4224 189.755 79.0727V73.0843ZM195.129 80.6874C194.747 80.6874 194.401 80.6152 194.09 80.4717C193.789 80.3343 193.533 80.1159 193.35 79.841C193.166 79.5642 193.075 79.2297 193.075 78.8375C193.075 78.4929 193.143 78.2136 193.279 77.9988C193.415 77.7823 193.597 77.6125 193.823 77.4894C194.06 77.3633 194.314 77.271 194.576 77.2152C194.853 77.1524 195.131 77.1032 195.411 77.0667C195.777 77.0191 196.073 76.9843 196.3 76.9605C196.531 76.9351 196.698 76.8909 196.802 76.8307C196.909 76.7712 196.963 76.6668 196.963 76.5174V76.486C196.963 76.0997 196.857 75.7983 196.645 75.5844C196.436 75.3705 196.119 75.2635 195.693 75.2635C195.251 75.2635 194.906 75.3603 194.654 75.553C194.404 75.7466 194.227 75.9529 194.125 76.1727L193.248 75.8586C193.404 75.4936 193.614 75.2083 193.874 75.0046C194.138 74.7983 194.426 74.6548 194.737 74.5733C195.038 74.4915 195.349 74.4496 195.661 74.4485C195.855 74.4485 196.077 74.4715 196.328 74.519C196.581 74.5632 196.826 74.6557 197.061 74.7975C197.299 74.9384 197.496 75.1515 197.653 75.4359C197.809 75.7211 197.888 76.1023 197.888 76.5802V80.5464H196.963V79.7315H196.916C196.835 79.8873 196.729 80.029 196.602 80.1508C196.434 80.314 196.236 80.4429 196.019 80.5303C195.775 80.6356 195.479 80.6874 195.129 80.6874ZM195.27 79.8563C195.636 79.8563 195.944 79.7849 196.194 79.6406C196.433 79.512 196.631 79.3194 196.767 79.0846C196.895 78.8672 196.962 78.6195 196.963 78.3672V77.5208C196.924 77.5675 196.837 77.6108 196.704 77.6499C196.554 77.6909 196.403 77.7237 196.25 77.7483C195.955 77.7937 195.66 77.8328 195.364 77.8655C195.135 77.8943 194.909 77.9455 194.69 78.0183C194.483 78.0862 194.316 78.1898 194.188 78.3282C194.063 78.464 194 78.6491 194 78.8842C194 79.2068 194.119 79.4488 194.356 79.6143C194.597 79.7756 194.901 79.8563 195.27 79.8563ZM199.576 80.5464V74.5267H200.47V75.4359H200.532C200.642 75.1387 200.841 74.8968 201.127 74.7109C201.417 74.5248 201.755 74.428 202.1 74.4324C202.167 74.4324 202.252 74.4341 202.354 74.4367C202.456 74.4392 202.533 74.4426 202.586 74.4485V75.3892C202.515 75.3745 202.443 75.3626 202.37 75.3535C202.255 75.3349 202.138 75.3258 202.021 75.3263C201.749 75.3213 201.48 75.3846 201.238 75.5106C201.013 75.6256 200.824 75.8015 200.694 76.0184C200.563 76.2352 200.497 76.4843 200.501 76.7373V80.5464H199.576ZM206.677 74.5267V75.3102H203.558V74.5267H206.677ZM204.467 73.0843H205.392V78.8222C205.392 79.0829 205.43 79.279 205.505 79.4097C205.572 79.5279 205.677 79.6194 205.803 79.6686C205.926 79.7111 206.056 79.7315 206.191 79.7315C206.293 79.7315 206.376 79.7255 206.442 79.7153L206.599 79.6839L206.787 80.515C206.701 80.5449 206.613 80.5684 206.524 80.5855C206.412 80.611 206.269 80.6245 206.097 80.6245C205.832 80.6237 205.57 80.5664 205.329 80.4564C205.08 80.3436 204.867 80.1662 204.71 79.9428C204.548 79.7136 204.467 79.4224 204.467 79.0727V73.0843ZM66.9834 109.163C66.5241 109.163 66.109 109.072 65.7414 108.889C65.3866 108.718 65.0815 108.459 64.8551 108.137C64.6324 107.815 64.5061 107.437 64.4909 107.047H65.4316C65.4681 107.41 65.6328 107.711 65.9256 107.948C66.2211 108.183 66.5734 108.301 66.9834 108.301C67.2918 108.307 67.5957 108.227 67.8612 108.07C68.1181 107.918 68.3284 107.698 68.469 107.435C68.6176 107.163 68.6923 106.857 68.6923 106.514C68.6923 106.164 68.6159 105.851 68.4614 105.577C68.3153 105.306 68.0985 105.08 67.834 104.923C67.5572 104.76 67.2415 104.676 66.9206 104.68C66.6644 104.679 66.4096 104.718 66.165 104.794C65.937 104.855 65.7209 104.954 65.5258 105.087L64.6166 104.978L65.1022 101.027H69.2721V101.889H65.918L65.6353 104.256H65.6828C66.0877 103.961 66.5763 103.801 67.0776 103.802C67.5328 103.794 67.9815 103.912 68.3738 104.143C68.766 104.374 69.0867 104.709 69.3001 105.111C69.5217 105.516 69.6329 105.979 69.6329 106.498C69.6329 107.01 69.5183 107.468 69.2883 107.87C69.0657 108.265 68.7408 108.593 68.3476 108.818C67.9478 109.048 67.4928 109.163 66.9834 109.163ZM74.3097 109.054V103.034H75.2028V103.974H75.2817C75.3969 103.665 75.6101 103.402 75.8887 103.226C76.1689 103.046 76.5042 102.956 76.8955 102.956C77.2928 102.956 77.6239 103.046 77.8871 103.226C78.1537 103.404 78.3617 103.653 78.5102 103.974H78.573C78.7275 103.664 78.9585 103.417 79.2666 103.234C79.5756 103.048 79.9458 102.956 80.3762 102.956C80.9144 102.956 81.3541 103.124 81.6971 103.461C82.0392 103.795 82.2099 104.317 82.2099 105.025V109.054H81.2845V105.025C81.2845 104.581 81.164 104.263 80.9212 104.072C80.6764 103.881 80.3734 103.78 80.0629 103.786C79.6393 103.786 79.3116 103.914 79.0782 104.171C78.8464 104.424 78.7301 104.745 78.7301 105.135V109.054H77.7895V104.93C77.7895 104.588 77.6791 104.313 77.4567 104.103C77.2343 103.892 76.9482 103.786 76.5984 103.786C76.3601 103.785 76.1264 103.852 75.9244 103.979C75.7142 104.11 75.5414 104.293 75.4226 104.511C75.2935 104.75 75.2285 105.019 75.2342 105.291V109.054H74.3097ZM83.9009 109.054V103.034H84.8263V109.054H83.9009ZM84.3712 102.03C84.1976 102.033 84.0301 101.967 83.9052 101.846C83.8439 101.79 83.7951 101.722 83.762 101.645C83.729 101.569 83.7124 101.487 83.7133 101.404C83.7133 101.231 83.777 101.084 83.9052 100.961C84.0303 100.84 84.1982 100.774 84.3721 100.776C84.5521 100.776 84.7057 100.838 84.8339 100.961C84.8963 101.016 84.9461 101.085 84.9799 101.161C85.0138 101.237 85.0308 101.32 85.03 101.404C85.0309 101.487 85.014 101.57 84.9803 101.646C84.9466 101.722 84.897 101.791 84.8348 101.846C84.7737 101.906 84.7012 101.953 84.6216 101.985C84.542 102.017 84.4569 102.032 84.3712 102.03ZM87.4444 105.432V109.054H86.5199V103.034H87.4147V103.974H87.4928C87.6314 103.672 87.8546 103.416 88.1354 103.238C88.4232 103.05 88.7942 102.956 89.2484 102.956C89.6559 102.956 90.0124 103.039 90.318 103.206C90.6236 103.371 90.8613 103.622 91.0311 103.959C91.2018 104.294 91.2867 104.716 91.2867 105.228V109.054H90.3613V105.291C90.3613 104.818 90.2391 104.45 89.9937 104.186C89.7475 103.919 89.4105 103.786 88.9826 103.786C88.7065 103.781 88.4338 103.848 88.1906 103.979C87.9614 104.106 87.7789 104.294 87.6456 104.539C87.5123 104.784 87.4461 105.082 87.4461 105.432H87.4444ZM97.8514 109.195C97.4934 109.2 97.1387 109.126 96.8124 108.979C96.5118 108.841 96.2555 108.623 96.0721 108.348C95.8896 108.071 95.7979 107.737 95.7979 107.345C95.7979 107 95.8658 106.721 96.0016 106.506C96.1355 106.291 96.3235 106.116 96.5466 105.997C96.7733 105.873 97.0246 105.783 97.2988 105.722C97.5755 105.66 97.854 105.61 98.1333 105.574C98.4992 105.526 98.7955 105.491 99.023 105.468C99.2522 105.441 99.4203 105.398 99.5247 105.339C99.6317 105.278 99.686 105.174 99.686 105.025V104.993C99.686 104.607 99.5799 104.306 99.3676 104.092C99.1588 103.878 98.8413 103.771 98.416 103.771C97.9745 103.771 97.6282 103.867 97.3769 104.061C97.1265 104.254 96.9499 104.46 96.848 104.68L95.9702 104.367C96.1264 104.001 96.3353 103.715 96.5976 103.512C96.8521 103.31 97.1454 103.163 97.4592 103.08C97.7733 102.997 98.0815 102.956 98.3846 102.956C98.5773 102.956 98.7997 102.979 99.0501 103.026C99.304 103.07 99.5485 103.163 99.7836 103.305C100.021 103.446 100.218 103.659 100.375 103.943C100.532 104.228 100.61 104.609 100.61 105.087V109.054H99.6851V108.239H99.6393C99.5578 108.394 99.4517 108.536 99.3252 108.658C99.1569 108.821 98.959 108.95 98.742 109.038C98.4983 109.143 98.2012 109.195 97.8514 109.195ZM97.9924 108.363C98.3574 108.363 98.6664 108.292 98.9177 108.149C99.1473 108.024 99.3394 107.84 99.4743 107.616C99.6092 107.392 99.682 107.136 99.6851 106.874V106.028C99.6461 106.075 99.5603 106.118 99.4271 106.157C99.2772 106.198 99.1253 106.231 98.972 106.256C98.6777 106.301 98.3825 106.34 98.0866 106.373C97.8575 106.402 97.6317 106.453 97.4125 106.525C97.2215 106.584 97.0487 106.691 96.9108 106.835C96.7852 106.971 96.7224 107.157 96.7224 107.392C96.7224 107.713 96.8412 107.956 97.0789 108.121C97.32 108.283 97.6239 108.363 97.9924 108.363ZM104.728 111.437C104.281 111.437 103.898 111.379 103.576 111.264C103.282 111.167 103.01 111.015 102.773 110.817C102.574 110.649 102.403 110.451 102.267 110.229L103.004 109.712C103.088 109.822 103.193 109.948 103.321 110.088C103.449 110.232 103.624 110.356 103.847 110.46C104.072 110.567 104.364 110.622 104.728 110.622C105.214 110.622 105.615 110.504 105.932 110.268C106.247 110.033 106.405 109.665 106.405 109.163V107.941H106.327C106.259 108.05 106.162 108.186 106.037 108.348C105.891 108.526 105.71 108.672 105.505 108.775C105.275 108.898 104.963 108.959 104.571 108.959C104.111 108.966 103.659 108.847 103.263 108.615C102.879 108.385 102.574 108.05 102.349 107.611C102.128 107.172 102.016 106.639 102.016 106.013C102.016 105.396 102.125 104.859 102.341 104.401C102.558 103.942 102.86 103.586 103.247 103.336C103.634 103.082 104.08 102.956 104.587 102.956C104.979 102.956 105.29 103.021 105.521 103.152C105.752 103.279 105.93 103.426 106.053 103.591C106.179 103.752 106.275 103.885 106.342 103.99H106.437V103.034H107.331V109.226C107.331 109.743 107.213 110.164 106.977 110.488C106.743 110.816 106.415 111.066 106.037 111.205C105.619 111.364 105.175 111.443 104.728 111.437ZM104.697 108.128C105.068 108.128 105.381 108.043 105.638 107.874C105.893 107.704 106.088 107.46 106.221 107.141C106.354 106.823 106.421 106.441 106.421 105.997C106.421 105.563 106.356 105.18 106.225 104.849C106.111 104.538 105.91 104.268 105.645 104.069C105.389 103.88 105.073 103.786 104.697 103.786C104.305 103.786 103.978 103.885 103.718 104.084C103.452 104.291 103.25 104.568 103.134 104.884C103.001 105.24 102.936 105.617 102.941 105.997C102.941 106.415 103.006 106.784 103.137 107.106C103.257 107.408 103.461 107.669 103.725 107.858C103.987 108.038 104.311 108.128 104.697 108.128ZM111.469 109.179C110.926 109.179 110.449 109.049 110.039 108.791C109.625 108.526 109.293 108.15 109.082 107.705C108.855 107.24 108.742 106.697 108.742 106.075C108.742 105.448 108.855 104.901 109.082 104.433C109.292 103.987 109.624 103.61 110.039 103.344C110.449 103.085 110.926 102.956 111.469 102.956C112.012 102.956 112.488 103.085 112.895 103.344C113.306 103.602 113.625 103.965 113.852 104.433C114.081 104.901 114.197 105.448 114.197 106.075C114.197 106.697 114.081 107.24 113.852 107.705C113.642 108.151 113.311 108.527 112.895 108.791C112.488 109.049 112.012 109.179 111.469 109.179ZM111.469 108.348C111.882 108.348 112.221 108.242 112.488 108.031C112.754 107.819 112.951 107.541 113.08 107.196C113.208 106.851 113.272 106.477 113.272 106.075C113.275 105.692 113.21 105.311 113.08 104.951C112.964 104.62 112.759 104.329 112.488 104.108C112.221 103.894 111.882 103.786 111.469 103.786C111.057 103.786 110.717 103.894 110.45 104.108C110.179 104.328 109.974 104.62 109.858 104.951C109.728 105.311 109.663 105.692 109.666 106.075C109.666 106.477 109.731 106.851 109.859 107.196C109.986 107.541 110.184 107.819 110.45 108.031C110.716 108.242 111.057 108.348 111.469 108.348Z" fill="#A1A1A1"/>
<g filter="url(#filter0_d_1_10625)">
<path d="M158.861 97.5254H130.711C127.898 97.5254 125.617 99.8059 125.617 102.619V107.848C125.617 110.662 127.898 112.942 130.711 112.942H158.861C161.675 112.942 163.955 110.662 163.955 107.848V102.619C163.955 99.8059 161.675 97.5254 158.861 97.5254Z" fill="#2E5235" fill-opacity="0.3"/>
<path d="M131.286 108.205H130.557L132.665 102.463H133.383L135.491 108.205H134.762L133.047 103.372H133.002L131.286 108.205ZM131.555 105.963H134.493V106.58H131.555V105.963ZM140.736 104.258H140.041C139.97 103.891 139.76 103.565 139.454 103.35C139.309 103.244 139.147 103.165 138.976 103.114C138.797 103.061 138.612 103.035 138.425 103.035C138.078 103.035 137.763 103.124 137.481 103.299C137.2 103.474 136.977 103.733 136.811 104.075C136.646 104.417 136.564 104.838 136.564 105.334C136.564 105.832 136.646 106.251 136.811 106.593C136.977 106.935 137.2 107.194 137.481 107.37C137.763 107.546 138.078 107.633 138.425 107.633C138.616 107.633 138.8 107.607 138.976 107.555C139.151 107.503 139.311 107.425 139.454 107.323C139.758 107.104 139.968 106.778 140.041 106.411H140.736C140.689 106.689 140.593 106.956 140.45 107.199C140.18 107.657 139.749 107.999 139.241 108.158C138.978 108.243 138.702 108.286 138.425 108.284C137.936 108.284 137.5 108.165 137.119 107.925C136.729 107.676 136.417 107.323 136.219 106.905C136.001 106.463 135.891 105.94 135.891 105.334C135.891 104.729 136.001 104.205 136.219 103.765C136.438 103.323 136.738 102.983 137.119 102.744C137.511 102.502 137.964 102.377 138.425 102.385C138.716 102.385 138.987 102.427 139.241 102.511C139.498 102.596 139.729 102.719 139.934 102.881C140.139 103.042 140.312 103.238 140.45 103.47C140.588 103.7 140.684 103.962 140.736 104.258ZM141.545 103.08V102.463H145.852V103.08H144.046V108.205H143.351V103.08H141.545ZM147.62 102.463V108.205H146.925V102.463H147.62ZM149.25 102.463L150.955 107.297H151.022L152.727 102.463H153.455L151.347 108.205H150.63L148.521 102.463H149.25ZM154.35 108.205V102.463H157.815V103.08H155.045V105.02H157.636V105.637H155.045V107.588H157.86V108.205H154.35Z" fill="#A2CEAD"/>
<path d="M158.861 97.9199H130.711C128.115 97.9199 126.012 100.024 126.012 102.619V107.848C126.012 110.443 128.115 112.547 130.711 112.547H158.861C161.456 112.547 163.56 110.443 163.56 107.848V102.619C163.56 100.024 161.456 97.9199 158.861 97.9199Z" stroke="#3A523E" stroke-width="0.789507"/>
</g>
<path d="M285.216 44.4668H56.8531C55.2121 44.4668 53.8818 45.7971 53.8818 47.4381V119.733C53.8818 121.374 55.2121 122.704 56.8531 122.704H285.216C286.857 122.704 288.187 121.374 288.187 119.733V47.4381C288.187 45.7971 286.857 44.4668 285.216 44.4668Z" stroke="#484848" stroke-width="0.848933"/>
<path d="M54.7588 139.721L57.1409 146.478H57.2352L59.6181 139.721H60.6368L57.6902 147.748H56.6868L53.7393 139.721H54.758H54.7588ZM61.7625 147.748V141.728H62.687V147.748H61.7617H61.7625ZM62.232 140.725C62.0581 140.728 61.8901 140.661 61.7651 140.54C61.7039 140.484 61.6552 140.416 61.6223 140.339C61.5894 140.263 61.573 140.18 61.5741 140.097C61.5741 139.925 61.6377 139.777 61.7659 139.655C61.891 139.534 62.0589 139.468 62.2328 139.471C62.4128 139.471 62.5665 139.532 62.6946 139.655C62.8254 139.777 62.8899 139.925 62.8899 140.097C62.8908 140.181 62.8739 140.264 62.8402 140.34C62.8065 140.416 62.7569 140.485 62.6946 140.54C62.6337 140.6 62.5613 140.648 62.4819 140.679C62.4024 140.711 62.3175 140.726 62.232 140.725ZM66.9045 147.874C66.3247 147.874 65.8247 147.745 65.4036 147.489C64.9841 147.229 64.6482 146.853 64.4358 146.407C64.2108 145.942 64.0988 145.401 64.0988 144.785C64.0988 144.168 64.2108 143.625 64.4358 143.154C64.6633 142.681 64.9791 142.313 65.3841 142.049C65.7916 141.783 66.267 141.65 66.8103 141.65C67.1244 141.65 67.4342 141.702 67.7399 141.806C68.0455 141.911 68.3239 142.08 68.5744 142.316C68.8248 142.548 69.0243 142.856 69.1737 143.241C69.3231 143.625 69.397 144.097 69.397 144.659V145.052H64.7567V144.252H68.4564C68.4564 143.912 68.3884 143.609 68.2526 143.343C68.1253 143.083 67.9269 142.864 67.6804 142.712C67.4188 142.553 67.1171 142.473 66.8111 142.48C66.4427 142.48 66.1235 142.572 65.8544 142.754C65.5911 142.932 65.3789 143.175 65.2389 143.46C65.0953 143.75 65.0215 144.069 65.0233 144.393V144.926C65.0233 145.38 65.1022 145.766 65.2584 146.082C65.4042 146.381 65.6344 146.63 65.9206 146.8C66.2033 146.961 66.5318 147.042 66.9054 147.042C67.1473 147.042 67.3672 147.008 67.5633 146.941C67.755 146.874 67.9302 146.767 68.0769 146.627C68.2203 146.486 68.3316 146.311 68.4097 146.102L69.3036 146.352C69.2111 146.653 69.0484 146.927 68.829 147.152C68.5958 147.387 68.315 147.568 68.0056 147.685C67.6533 147.815 67.28 147.879 66.9045 147.874ZM72.1679 147.748L70.3342 141.728H71.3062L72.6068 146.337H72.6696L73.9549 141.728H74.943L76.2122 146.321H76.275L77.5764 141.728H78.5485L76.7148 147.748H75.8047L74.4889 143.123H74.3938L73.0779 147.748H72.1679ZM84.6472 147.889C84.2652 147.889 83.9188 147.817 83.6081 147.673C83.3073 147.536 83.0506 147.317 82.867 147.042C82.6845 146.766 82.5928 146.431 82.5928 146.039C82.5928 145.694 82.6607 145.414 82.7965 145.2C82.9304 144.986 83.1184 144.81 83.3415 144.691C83.5682 144.568 83.8195 144.477 84.0937 144.417C84.3704 144.354 84.6489 144.304 84.9282 144.267C85.2941 144.221 85.5904 144.185 85.8179 144.162C86.0479 144.136 86.2152 144.092 86.3196 144.032C86.4274 143.973 86.4809 143.868 86.4809 143.719V143.687C86.4809 143.301 86.3748 143.001 86.1634 142.786C85.9537 142.572 85.637 142.465 85.2109 142.465C84.7694 142.465 84.4231 142.562 84.1718 142.754C83.9214 142.948 83.7448 143.154 83.6429 143.374L82.7651 143.061C82.9222 142.695 83.131 142.41 83.3925 142.206C83.647 142.005 83.9403 141.858 84.2541 141.775C84.5682 141.692 84.8764 141.65 85.1795 141.65C85.373 141.65 85.5955 141.673 85.8459 141.72C86.0989 141.765 86.3434 141.857 86.5785 141.998C86.8162 142.14 87.0132 142.352 87.1702 142.637C87.3273 142.922 87.4054 143.304 87.4054 143.782V147.748H86.4809V146.933H86.4342C86.3525 147.089 86.2464 147.23 86.1201 147.352C85.952 147.515 85.754 147.644 85.5369 147.732C85.2941 147.836 84.997 147.889 84.6472 147.889ZM84.7873 147.058C85.1532 147.058 85.4613 146.986 85.7126 146.842C85.9428 146.718 86.1354 146.534 86.2705 146.31C86.4057 146.086 86.4783 145.83 86.4809 145.569V144.722C86.441 144.769 86.3552 144.812 86.222 144.851C86.0721 144.892 85.9202 144.925 85.7669 144.95C85.5971 144.975 85.4316 144.999 85.2695 145.02C85.1099 145.038 84.9808 145.054 84.8815 145.067C84.6524 145.096 84.4266 145.147 84.2074 145.22C84.0167 145.278 83.8442 145.385 83.7066 145.53C83.5801 145.665 83.5181 145.851 83.5181 146.086C83.5181 146.407 83.637 146.65 83.8747 146.815C84.1149 146.977 84.4188 147.058 84.7873 147.058ZM90.0184 139.721V147.748H89.0931V139.721H90.0184ZM92.6373 139.721V147.748H91.712V139.721H92.6373ZM100.241 139.721V147.748H99.2692V140.741H99.2225L97.2632 142.041V141.054L99.2692 139.721H100.241ZM102.55 147.748V147.042L105.199 144.142C105.51 143.803 105.766 143.507 105.967 143.256C106.146 143.039 106.296 142.799 106.414 142.543C106.513 142.318 106.563 142.083 106.563 141.838C106.563 141.556 106.495 141.311 106.359 141.105C106.225 140.897 106.035 140.732 105.81 140.627C105.565 140.512 105.297 140.454 105.027 140.458C104.719 140.458 104.449 140.523 104.219 140.65C103.996 140.772 103.812 140.956 103.69 141.18C103.563 141.426 103.5 141.701 103.506 141.979H102.581C102.581 141.508 102.69 141.096 102.906 140.741C103.12 140.388 103.427 140.101 103.792 139.91C104.168 139.711 104.59 139.612 105.057 139.612C105.528 139.612 105.945 139.711 106.309 139.91C106.671 140.108 106.956 140.376 107.163 140.713C107.369 141.05 107.472 141.425 107.472 141.838C107.472 142.133 107.419 142.422 107.311 142.704C107.207 142.984 107.024 143.296 106.763 143.641C106.504 143.983 106.145 144.401 105.685 144.895L103.882 146.823V146.885H107.613V147.748H102.55ZM114.875 147.874C114.295 147.874 113.795 147.745 113.374 147.489C112.955 147.229 112.619 146.853 112.406 146.407C112.181 145.942 112.069 145.401 112.069 144.785C112.069 144.168 112.181 143.625 112.406 143.154C112.634 142.681 112.95 142.313 113.355 142.049C113.762 141.783 114.238 141.65 114.781 141.65C115.095 141.65 115.404 141.702 115.71 141.806C116.015 141.911 116.294 142.08 116.545 142.316C116.795 142.548 116.995 142.856 117.144 143.241C117.293 143.625 117.368 144.097 117.368 144.659V145.052H112.727V144.252H116.427C116.427 143.912 116.359 143.609 116.223 143.343C116.096 143.083 115.898 142.864 115.651 142.712C115.389 142.553 115.087 142.473 114.781 142.48C114.412 142.48 114.093 142.572 113.825 142.754C113.558 142.935 113.353 143.17 113.21 143.46C113.065 143.75 112.994 144.061 112.994 144.393V144.926C112.994 145.38 113.073 145.766 113.229 146.082C113.375 146.381 113.605 146.63 113.891 146.8C114.174 146.961 114.502 147.042 114.876 147.042C115.118 147.042 115.338 147.008 115.534 146.941C115.726 146.874 115.901 146.767 116.048 146.627C116.191 146.486 116.302 146.311 116.38 146.102L117.273 146.352C117.18 146.655 117.021 146.922 116.8 147.152C116.566 147.387 116.286 147.568 115.976 147.685C115.624 147.815 115.251 147.879 114.875 147.874ZM123.514 141.728L121.288 147.748H120.347L118.121 141.728H119.124L120.786 146.525H120.849L122.51 141.728H123.514ZM127.043 147.874C126.463 147.874 125.963 147.745 125.542 147.489C125.123 147.228 124.787 146.853 124.574 146.407C124.349 145.942 124.237 145.401 124.237 144.785C124.237 144.168 124.349 143.625 124.574 143.154C124.802 142.681 125.118 142.313 125.522 142.049C125.93 141.783 126.405 141.65 126.949 141.65C127.263 141.65 127.572 141.702 127.877 141.806C128.184 141.911 128.461 142.08 128.713 142.316C128.963 142.548 129.164 142.856 129.312 143.241C129.461 143.625 129.535 144.097 129.535 144.659V145.052H124.895V144.252H128.595C128.595 143.912 128.527 143.609 128.391 143.343C128.264 143.083 128.065 142.864 127.819 142.712C127.557 142.553 127.255 142.473 126.949 142.48C126.58 142.48 126.262 142.572 125.993 142.754C125.726 142.935 125.521 143.17 125.377 143.46C125.234 143.75 125.16 144.069 125.162 144.393V144.926C125.162 145.38 125.241 145.766 125.397 146.082C125.556 146.396 125.777 146.635 126.059 146.8C126.342 146.961 126.669 147.042 127.043 147.042C127.286 147.042 127.506 147.008 127.702 146.941C127.9 146.87 128.071 146.766 128.214 146.627C128.359 146.486 128.47 146.311 128.548 146.102L129.441 146.352C129.348 146.655 129.189 146.922 128.967 147.152C128.734 147.386 128.453 147.568 128.144 147.685C127.792 147.815 127.418 147.879 127.043 147.874ZM131.867 144.126V147.748H130.943V141.728H131.836V142.669H131.914C132.056 142.363 132.27 142.117 132.558 141.932C132.844 141.743 133.215 141.65 133.671 141.65C134.078 141.65 134.435 141.733 134.74 141.9C135.046 142.065 135.283 142.316 135.453 142.653C135.623 142.987 135.708 143.411 135.708 143.923V147.748H134.783V143.985C134.783 143.513 134.66 143.144 134.415 142.88C134.169 142.614 133.832 142.48 133.404 142.48C133.109 142.48 132.844 142.545 132.612 142.672C132.38 142.802 132.19 142.997 132.067 143.233C131.934 143.479 131.867 143.777 131.867 144.126ZM140.016 141.728V142.512H136.896V141.728H140.016ZM137.806 140.286H138.731V146.024C138.731 146.284 138.768 146.48 138.844 146.611C138.923 146.739 139.022 146.825 139.142 146.87C139.265 146.912 139.394 146.933 139.53 146.933C139.632 146.933 139.716 146.927 139.781 146.917L139.937 146.885L140.126 147.716C140.04 147.746 139.952 147.77 139.863 147.787C139.751 147.813 139.609 147.826 139.436 147.826C139.175 147.826 138.919 147.77 138.668 147.658C138.419 147.545 138.205 147.368 138.048 147.144C137.887 146.914 137.806 146.624 137.806 146.274V140.286ZM145.563 143.076L144.733 143.311C144.676 143.166 144.598 143.03 144.501 142.907C144.393 142.767 144.253 142.655 144.094 142.579C143.921 142.492 143.701 142.449 143.432 142.449C143.063 142.449 142.757 142.534 142.51 142.704C142.268 142.871 142.146 143.084 142.146 143.343C142.146 143.573 142.229 143.755 142.397 143.888C142.564 144.021 142.825 144.131 143.181 144.221L144.074 144.44C144.612 144.57 145.014 144.771 145.277 145.04C145.541 145.306 145.674 145.649 145.674 146.07C145.674 146.415 145.574 146.723 145.376 146.995C145.179 147.267 144.905 147.481 144.552 147.638C144.2 147.795 143.79 147.874 143.322 147.874C142.708 147.874 142.2 147.74 141.797 147.474C141.395 147.207 141.14 146.817 141.033 146.306L141.911 146.086C141.994 146.41 142.153 146.653 142.385 146.815C142.62 146.977 142.927 147.058 143.306 147.058C143.737 147.058 144.079 146.967 144.333 146.783C144.589 146.598 144.717 146.376 144.717 146.117C144.719 146.019 144.701 145.922 144.663 145.832C144.625 145.741 144.569 145.66 144.498 145.592C144.351 145.448 144.127 145.341 143.824 145.271L142.82 145.036C142.269 144.905 141.864 144.703 141.605 144.429C141.349 144.151 141.221 143.805 141.221 143.389C141.221 143.05 141.317 142.749 141.507 142.489C141.711 142.218 141.983 142.006 142.295 141.873C142.654 141.719 143.041 141.643 143.432 141.65C144.027 141.65 144.495 141.78 144.835 142.041C145.177 142.303 145.42 142.647 145.563 143.076Z" fill="#A1A1A1"/>
<path d="M151.934 140.107L155.329 143.928L151.934 147.748" stroke="#A1A1A1" stroke-width="0.848933"/>
<path d="M295.404 30.8838H46.6668C43.1504 30.8838 40.2998 33.7344 40.2998 37.2508V154.539C40.2998 158.056 43.1504 160.906 46.6668 160.906H295.404C298.92 160.906 301.771 158.056 301.771 154.539V37.2508C301.771 33.7344 298.92 30.8838 295.404 30.8838Z" stroke="#484848" stroke-width="0.848933"/>
</g>
</g>
<defs>
<filter id="filter0_d_1_10625" x="125.617" y="97.5254" width="38.3379" height="16.2065" filterUnits="userSpaceOnUse" color-interpolation-filters="sRGB">
<feFlood flood-opacity="0" result="BackgroundImageFix"/>
<feColorMatrix in="SourceAlpha" type="matrix" values="0 0 0 0 0 0 0 0 0 0 0 0 0 0 0 0 0 0 127 0" result="hardAlpha"/>
<feOffset dy="0.789507"/>
<feComposite in2="hardAlpha" operator="out"/>
<feColorMatrix type="matrix" values="0 0 0 0 0.227451 0 0 0 0 0.321569 0 0 0 0 0.243137 0 0 0 1 0"/>
<feBlend mode="normal" in2="BackgroundImageFix" result="effect1_dropShadow_1_10625"/>
<feBlend mode="normal" in="SourceGraphic" in2="effect1_dropShadow_1_10625" result="shape"/>
</filter>
<clipPath id="clip0_1_10625">
<rect width="266.24" height="151.11" fill="white" transform="translate(37.9199 13.1592)"/>
</clipPath>
<clipPath id="clip1_1_10625">
<rect width="266.24" height="151.11" fill="white" transform="translate(37.9199 13.1592)"/>
</clipPath>
</defs>
</svg>
