<svg width="106" height="23" viewBox="0 0 106 23" fill="none" xmlns="http://www.w3.org/2000/svg">
<g clip-path="url(#clip0_20_51)">
<g clip-path="url(#clip1_20_51)">
<path fill-rule="evenodd" clip-rule="evenodd" d="M12.8888 0.232153C12.9701 0.244583 13.0465 0.27891 13.1097 0.331419C13.1729 0.383928 13.2204 0.452621 13.2471 0.530069L13.2628 0.586902L13.8008 3.33507C14.5204 3.60975 15.1988 3.98108 15.8173 4.43874L16.043 4.61291L18.7596 3.68982C18.9346 3.61466 19.1216 3.66874 19.2534 3.81816C20.1875 4.86041 20.9465 6.11807 21.3869 7.43899C21.42 7.51263 21.4297 7.59458 21.4147 7.67387C21.3997 7.75316 21.3608 7.826 21.303 7.88265L21.2551 7.92207L19.0995 9.74624C19.1769 10.1541 19.199 10.5951 19.199 11.0241C19.199 11.3696 19.1843 11.7198 19.1391 12.0544L19.0995 12.3028L21.2551 14.1288C21.3299 14.1817 21.3839 14.2588 21.4079 14.3469C21.432 14.435 21.4245 14.5286 21.3869 14.6119C20.9474 15.9337 20.1893 17.1896 19.2543 18.2309C19.1364 18.3647 18.9761 18.4225 18.8186 18.3803L18.7596 18.3601L16.0439 17.4361C15.4479 17.9137 14.7819 18.307 14.0707 18.6058L13.8017 18.714L13.2628 21.464C13.2442 21.554 13.1984 21.6362 13.1316 21.6996C13.0647 21.763 12.98 21.8045 12.8888 21.8187C12.185 21.9471 11.4812 22.0222 10.7562 22.0222C10.0304 22.0222 9.32656 21.9471 8.62276 21.8187C8.54132 21.8062 8.46483 21.7719 8.40153 21.7194C8.33823 21.6669 8.2905 21.5983 8.26349 21.5208L8.24875 21.464L7.71077 18.714C6.97877 18.4402 6.29006 18.0633 5.66571 17.5947L5.46765 17.4361L2.75196 18.3601C2.57693 18.4353 2.38992 18.3812 2.25727 18.2309C1.32225 17.1896 0.56411 15.9337 0.124698 14.6119C0.0917198 14.5382 0.0820767 14.4563 0.0970524 14.377C0.112028 14.2978 0.150912 14.2249 0.208527 14.1682L0.25643 14.1288L2.41111 12.3028C2.33888 11.8805 2.30558 11.4524 2.31162 11.0241C2.31162 10.6812 2.32544 10.3301 2.37058 9.99465L2.41111 9.74715L0.255508 7.92207C0.180729 7.86919 0.126716 7.79211 0.102691 7.70401C0.0786664 7.6159 0.0861189 7.52223 0.123777 7.43899C0.563189 6.11807 1.32133 4.86041 2.25635 3.81816C2.3073 3.75477 2.37534 3.70713 2.45251 3.68083C2.52967 3.65453 2.61277 3.65066 2.69208 3.66966L2.75196 3.68891L5.46765 4.61199C6.0718 4.12245 6.74543 3.72458 7.46665 3.43132L7.71077 3.33416L8.24875 0.585986C8.26711 0.495871 8.31282 0.413533 8.3797 0.350093C8.44659 0.286652 8.53142 0.245166 8.62276 0.231236C10.0306 -0.0484328 11.48 -0.0484328 12.8879 0.231236L12.8888 0.232153ZM73.1389 7.60124C73.6824 7.60124 74.1845 7.71857 74.646 7.95415C75.1183 8.19834 75.5275 8.54782 75.8417 8.97532C76.177 9.42082 76.4396 9.96532 76.6303 10.6097C76.821 11.2551 76.9158 11.9856 76.9158 12.8042C76.9158 13.5696 76.8081 14.2764 76.5897 14.9245C76.3909 15.5379 76.0812 16.1101 75.6759 16.613C75.2939 17.0826 74.8139 17.4642 74.2692 17.7313C73.7047 18.0042 73.0839 18.1423 72.4563 18.1346C71.9128 18.1346 71.4577 18.0595 71.0902 17.9091C70.7248 17.7606 70.3856 17.5551 70.0852 17.3005V21.2073H66.9715V7.79649H68.8996L68.9945 7.80107C69.1337 7.80848 69.2688 7.85107 69.3869 7.92482C69.5219 8.01577 69.6198 8.15163 69.6632 8.30799L69.8935 9.05415L70.0474 8.89557C70.204 8.74066 70.3698 8.59765 70.5421 8.46474C71.2847 7.89234 72.1996 7.58788 73.1389 7.60124ZM45.7379 7.95415C45.1304 7.73912 44.4895 7.63298 43.8448 7.64065C43.047 7.64065 42.3322 7.77449 41.6993 8.04307C41.0919 8.29395 40.5417 8.66436 40.0817 9.13207C39.6355 9.5916 39.2871 10.1359 39.0573 10.7326C38.818 11.3494 38.6971 12.0055 38.7008 12.6667C38.7008 13.5696 38.839 14.3616 39.1181 15.0418C39.3954 15.7229 39.774 16.2921 40.253 16.7505C40.7321 17.2088 41.2912 17.5535 41.9305 17.7863C42.5698 18.0182 43.2552 18.1346 43.9848 18.1346C44.3404 18.1346 44.7126 18.1099 45.105 18.0613C45.4965 18.0118 45.888 17.9238 46.2804 17.7955C46.6719 17.6681 47.0542 17.4921 47.4255 17.2656C47.7442 17.0731 48.0445 16.8293 48.3264 16.5378L48.4655 16.3875L47.5618 15.2976C47.4338 15.1206 47.2468 15.0317 46.999 15.0317C46.811 15.0317 46.6323 15.0748 46.4619 15.1601C46.2906 15.2453 46.1026 15.3397 45.8991 15.4442C45.6743 15.5575 45.4408 15.6528 45.2008 15.7293C44.9392 15.8146 44.6278 15.8576 44.2667 15.8576C43.5896 15.8576 43.0369 15.6651 42.6085 15.2829C42.2087 14.9254 41.9517 14.3644 41.8375 13.599L41.8154 13.4321H47.8225C47.9635 13.4321 48.0786 13.4156 48.1689 13.3836C48.2593 13.351 48.3357 13.2886 48.3854 13.2066C48.4458 13.1009 48.4835 12.9839 48.4959 12.8629C48.5162 12.719 48.5263 12.5329 48.5263 12.3037C48.5263 11.5704 48.4103 10.9141 48.179 10.3347C47.9659 9.78323 47.6371 9.28325 47.2145 8.86807C46.7931 8.46252 46.2897 8.15097 45.7379 7.95415ZM60.501 7.64065C61.146 7.63287 61.7873 7.73902 62.395 7.95415C62.9468 8.1507 63.4502 8.46194 63.8717 8.86715C64.2834 9.26682 64.6049 9.75632 64.8362 10.3347C65.0665 10.9141 65.1825 11.5704 65.1825 12.3037C65.1825 12.5329 65.1733 12.719 65.1521 12.8629C65.1397 12.9839 65.1021 13.1009 65.0416 13.2066C64.9922 13.2885 64.9161 13.3509 64.826 13.3836C64.7142 13.4193 64.5971 13.4357 64.4797 13.4321H58.4716L58.4937 13.599C58.6079 14.3644 58.8649 14.9254 59.2657 15.2829C59.694 15.6661 60.2467 15.8567 60.9238 15.8567C61.2849 15.8567 61.5963 15.8146 61.857 15.7293C62.097 15.6531 62.3304 15.5581 62.5553 15.4451C62.7598 15.3397 62.9477 15.2453 63.1181 15.161C63.2885 15.0748 63.4682 15.0326 63.6552 15.0326C63.9039 15.0326 64.0909 15.1206 64.218 15.2976L65.1227 16.3875L64.9826 16.5378C64.7154 16.818 64.4129 17.0627 64.0826 17.2656C63.7105 17.4921 63.3291 17.669 62.9376 17.7964C62.5552 17.9219 62.1615 18.0106 61.7621 18.0613C61.3697 18.1099 60.9975 18.1346 60.6419 18.1346C59.9419 18.1398 59.2465 18.0219 58.5877 17.7863C57.9612 17.5623 57.3893 17.2094 56.9092 16.7505C56.4302 16.2921 56.0525 15.7238 55.7743 15.0427C55.4961 14.3616 55.357 13.5696 55.357 12.6667C55.357 11.9856 55.4768 11.3412 55.7144 10.7326C55.9443 10.1359 56.2927 9.5916 56.7388 9.13207C57.1985 8.66447 57.7484 8.29406 58.3555 8.04307C58.9884 7.77449 59.7032 7.63974 60.5001 7.63974L60.501 7.64065ZM85.3854 8.00365C84.7359 7.76165 84.0165 7.64065 83.2261 7.64065C82.4283 7.64065 81.7033 7.76165 81.0502 8.00365C80.4215 8.23077 79.8469 8.58502 79.3626 9.04407C78.8828 9.50729 78.5095 10.0683 78.2682 10.6886C78.0102 11.333 77.8813 12.0581 77.8813 12.8629C77.8813 13.6741 78.0102 14.4056 78.2682 15.0574C78.5261 15.7082 78.8909 16.261 79.3626 16.7166C79.8464 17.1784 80.4211 17.5357 81.0502 17.7661C81.7042 18.0118 82.4283 18.1346 83.2261 18.1346C84.0165 18.1346 84.7368 18.0118 85.3854 17.7661C86.0105 17.5364 86.5804 17.1788 87.0583 16.7166C87.5235 16.261 87.8855 15.7082 88.1434 15.0574C88.4014 14.4066 88.5303 13.6741 88.5303 12.8629C88.5303 12.0581 88.4014 11.333 88.1434 10.6886C87.9029 10.0701 87.533 9.50953 87.0583 9.04407C86.58 8.58456 86.01 8.23011 85.3854 8.00365ZM102.254 4.84207V7.81666H104.785V9.89749H102.254V14.9538L102.257 15.0528C102.271 15.2444 102.329 15.4066 102.43 15.5386C102.547 15.6917 102.715 15.7687 102.936 15.7687C103.106 15.7724 103.273 15.7336 103.424 15.656C103.481 15.6266 103.534 15.601 103.585 15.5771C103.64 15.5533 103.7 15.5417 103.761 15.5432C103.841 15.5396 103.92 15.5621 103.986 15.6074C104.044 15.6496 104.102 15.7165 104.162 15.8081L105.107 17.251L104.954 17.3582C104.583 17.6032 104.178 17.7906 103.751 17.9137C103.248 18.0604 102.729 18.1346 102.193 18.1346C101.697 18.1346 101.261 18.0641 100.882 17.9238C100.524 17.7957 100.198 17.591 99.9274 17.3243C99.6651 17.0585 99.4645 16.7387 99.3397 16.3875C99.2013 15.9931 99.1333 15.5777 99.1389 15.1601V9.8984H98.2545L98.1762 9.89382C98.0521 9.88121 97.9353 9.82951 97.8427 9.74624C97.7294 9.6454 97.6723 9.49599 97.6723 9.2989V8.11182L99.3295 7.79741L99.9431 5.31324L99.9661 5.23807C100.062 4.97407 100.282 4.84207 100.626 4.84207H102.254ZM37.9777 6.30507V3.67424H26.3438V6.30507H30.4625V17.9779H33.8581V6.30507H37.9777ZM53.5284 3.28191V17.9779H50.4148V3.28191H53.5284ZM97.1491 7.9349C96.8607 7.71215 96.4794 7.60124 96.004 7.60124C95.4412 7.60124 94.9216 7.76807 94.4463 8.10174C93.9964 8.42604 93.6051 8.82403 93.2892 9.27874L93.1603 9.46574L92.9899 8.51424C92.9679 8.40041 92.9359 8.28874 92.894 8.18057C92.861 8.0942 92.8058 8.01801 92.7338 7.95966C92.6563 7.90073 92.5671 7.85886 92.4721 7.83682C92.3815 7.81542 92.2889 7.80314 92.1958 7.80015L92.0852 7.79741H90.2382V17.9779H93.3519V11.7336C93.8208 10.8829 94.4638 10.4576 95.2809 10.4576C95.5158 10.4576 95.7102 10.4722 95.864 10.5016C96.0178 10.5309 96.1514 10.5465 96.2656 10.5465C96.3992 10.5465 96.507 10.519 96.5871 10.4631C96.6572 10.4102 96.7073 10.3352 96.729 10.2504L96.7484 10.1734L97.1491 7.9349ZM10.7553 4.58541C7.17371 4.58541 4.27378 7.4674 4.27378 11.0222C4.27378 14.5771 7.17556 17.4591 10.7553 17.4591C14.3351 17.4591 17.2369 14.5771 17.2369 11.0222C17.2369 7.4674 14.336 4.58541 10.7553 4.58541ZM71.4365 9.99191C71.6208 9.94882 71.8262 9.92774 72.0538 9.92774C72.3025 9.92774 72.5263 9.97632 72.7272 10.0744C72.928 10.1734 73.1012 10.3347 73.2449 10.5602C73.3886 10.7866 73.501 11.0827 73.5811 11.4494C73.6612 11.8161 73.7018 12.2671 73.7018 12.8042C73.7018 13.3671 73.6511 13.8446 73.5516 14.237C73.4503 14.6302 73.3121 14.9492 73.1343 15.1949C72.9565 15.4396 72.7474 15.6184 72.5061 15.7293C72.2572 15.8422 71.9864 15.8991 71.7129 15.8961C71.4117 15.8961 71.1233 15.8457 70.8488 15.744C70.6 15.6484 70.3743 15.5016 70.1865 15.3131L70.0852 15.2096V10.8893C70.2098 10.7418 70.344 10.6025 70.4868 10.4722C70.6182 10.3532 70.7655 10.2526 70.9244 10.1734C71.081 10.0946 71.2523 10.0341 71.4365 9.99191ZM83.2261 9.8984C82.4891 9.8984 81.9502 10.1441 81.6084 10.6345C81.2667 11.1249 81.0962 11.8747 81.0962 12.8831C81.0962 13.8905 81.2667 14.6412 81.6084 15.1353C81.9493 15.6303 82.4891 15.8769 83.2261 15.8769C83.9418 15.8769 84.4697 15.6294 84.8078 15.1353C85.1458 14.6412 85.3144 13.8905 85.3144 12.8831C85.3144 11.8747 85.1458 11.1249 84.8078 10.6345C84.4697 10.1431 83.9418 9.8984 83.2261 9.8984ZM14.8574 10.1276V8.21174H6.65324V10.1276H9.77887V14.7292H11.7318V10.1276H14.8574ZM43.9047 9.74074C43.3086 9.74074 42.8434 9.90574 42.5081 10.2366C42.1737 10.5666 41.9526 11.0433 41.8449 11.6648H45.7323C45.7329 11.4263 45.701 11.1889 45.6374 10.959C45.5768 10.7353 45.4708 10.5263 45.3261 10.3448C45.173 10.158 44.9789 10.0087 44.7586 9.90849C44.5237 9.79665 44.2391 9.74074 43.9047 9.74074ZM59.1653 10.2366C59.4996 9.90665 59.9649 9.74165 60.5609 9.74165C60.8962 9.74165 61.1808 9.79666 61.4148 9.90757C61.6497 10.0194 61.8386 10.1642 61.9832 10.3448C62.1269 10.5245 62.231 10.7298 62.2946 10.959C62.3581 11.1881 62.3894 11.4228 62.3894 11.6648H58.502C58.6089 11.0433 58.8299 10.5676 59.1653 10.2366Z" fill="#36364A"/>
</g>
</g>
<defs>
<clipPath id="clip0_20_51">
<rect width="105" height="22" fill="white" transform="translate(0.0898438 0.0214844)"/>
</clipPath>
<clipPath id="clip1_20_51">
<rect width="105" height="22" fill="white" transform="translate(0.0898438 0.0214844)"/>
</clipPath>
</defs>
</svg>
