<svg width="16" height="17" viewBox="0 0 16 17" fill="none" xmlns="http://www.w3.org/2000/svg">
<path d="M7.14287 8.19985C7.14287 8.42718 7.23317 8.64519 7.39392 8.80593C7.55466 8.96668 7.77268 9.05698 8 9.05698C8.22733 9.05698 8.44534 8.96668 8.60608 8.80593C8.76683 8.64519 8.85713 8.42718 8.85713 8.19985C8.85713 7.97253 8.76683 7.75451 8.60608 7.59377C8.44534 7.43302 8.22733 7.34272 8 7.34272C7.77268 7.34272 7.55466 7.43302 7.39392 7.59377C7.23317 7.75451 7.14287 7.97253 7.14287 8.19985ZM10.7143 8.19985C10.7143 8.42718 10.8046 8.64519 10.9653 8.80593C11.126 8.96668 11.3441 9.05698 11.5714 9.05698C11.7987 9.05698 12.0167 8.96668 12.1775 8.80593C12.3382 8.64519 12.4285 8.42718 12.4285 8.19985C12.4285 7.97253 12.3382 7.75451 12.1775 7.59377C12.0167 7.43302 11.7987 7.34272 11.5714 7.34272C11.3441 7.34272 11.126 7.43302 10.9653 7.59377C10.8046 7.75451 10.7143 7.97253 10.7143 8.19985ZM3.57149 8.19985C3.57149 8.42718 3.66179 8.64519 3.82253 8.80593C3.98328 8.96668 4.20129 9.05698 4.42862 9.05698C4.65594 9.05698 4.87396 8.96668 5.0347 8.80593C5.19544 8.64519 5.28575 8.42718 5.28575 8.19985C5.28575 7.97253 5.19544 7.75451 5.0347 7.59377C4.87396 7.43302 4.65594 7.34272 4.42862 7.34272C4.20129 7.34272 3.98328 7.43302 3.82253 7.59377C3.66179 7.75451 3.57149 7.97253 3.57149 8.19985ZM15.3785 5.09989C14.9749 4.14097 14.3963 3.28027 13.6589 2.54099C12.9265 1.806 12.0572 1.22176 11.1 0.821372C10.1178 0.408877 9.07499 0.199951 8 0.199951H7.96429C6.88216 0.205308 5.83396 0.419591 4.84825 0.841015C3.89926 1.24551 3.03803 1.83078 2.31257 2.56421C1.58222 3.3017 1.00902 4.15883 0.612594 5.11418C0.201885 6.10345 -0.00525577 7.15522 0.000101307 8.23735C0.00616061 9.47746 0.299547 10.6993 0.857233 11.8069V14.5212C0.857233 14.7391 0.943775 14.948 1.09782 15.102C1.25187 15.2561 1.4608 15.3426 1.67865 15.3426H4.39469C5.50234 15.9003 6.72418 16.1937 7.96429 16.1998H8.00179C9.07142 16.1998 10.1089 15.9926 11.0857 15.5873C12.038 15.1916 12.9042 14.6142 13.6356 13.8873C14.3731 13.1569 14.9535 12.3034 15.3588 11.3516C15.7803 10.3659 15.9945 9.31769 15.9999 8.23557C16.0053 7.14808 15.7945 6.09273 15.3785 5.09989ZM12.6803 12.9212C11.4285 14.1605 9.76784 14.8426 8 14.8426H7.96964C6.89287 14.8373 5.82324 14.5694 4.87861 14.0658L4.72861 13.9855H2.21436V11.4712L2.134 11.3212C1.63044 10.3766 1.36258 9.30698 1.35723 8.23021C1.35008 6.44987 2.03043 4.77847 3.27863 3.51955C4.52504 2.26064 6.19109 1.56422 7.97143 1.55708H8.00179C8.89463 1.55708 9.76069 1.73029 10.5768 2.07314C11.3732 2.40707 12.0874 2.88742 12.7017 3.5017C13.3142 4.11419 13.7964 4.83025 14.1303 5.62667C14.4767 6.45166 14.6499 7.32665 14.6463 8.23021C14.6356 10.0088 13.9374 11.6748 12.6803 12.9212Z" fill="#627EEA"/>
</svg>
