<svg width="41" height="41" viewBox="0 0 41 41" fill="none" xmlns="http://www.w3.org/2000/svg">
<g clip-path="url(#clip0_20_246)">
<path fill-rule="evenodd" clip-rule="evenodd" d="M31.6602 20.5801C31.6602 26.6552 26.7353 31.5801 20.6602 31.5801V25.5801H25.0518C25.4248 25.5801 25.7205 25.2715 25.6497 24.9194C25.1632 22.5017 23.2687 20.6912 20.6602 20.6912V19.469C22.0645 19.469 23.203 18.3746 23.203 17.0245C23.203 15.6745 22.0645 14.5801 20.6602 14.5801V9.58008C26.7353 9.58008 31.6602 14.505 31.6602 20.5801Z" fill="url(#paint0_linear_20_246)" fill-opacity="0.32"/>
<path d="M6.66016 35.5801C7.76473 35.5801 8.66016 34.6846 8.66016 33.5801C8.66016 32.4755 7.76473 31.5801 6.66016 31.5801C5.55559 31.5801 4.66016 32.4755 4.66016 33.5801C4.66016 34.6846 5.55559 35.5801 6.66016 35.5801Z" stroke="#071743" stroke-opacity="0.25" stroke-linecap="round" stroke-linejoin="round" stroke-dasharray="1 2"/>
<path d="M7.66016 9.58008C9.31701 9.58008 10.6602 8.23693 10.6602 6.58008C10.6602 4.92322 9.31701 3.58008 7.66016 3.58008C6.0033 3.58008 4.66016 4.92322 4.66016 6.58008C4.66016 8.23693 6.0033 9.58008 7.66016 9.58008Z" stroke="#071743" stroke-opacity="0.25" stroke-linecap="round" stroke-linejoin="round" stroke-dasharray="1 2"/>
<path d="M34.1602 10.5801C34.9886 10.5801 35.6602 9.90851 35.6602 9.08008C35.6602 8.25165 34.9886 7.58008 34.1602 7.58008C33.3317 7.58008 32.6602 8.25165 32.6602 9.08008C32.6602 9.90851 33.3317 10.5801 34.1602 10.5801Z" stroke="#36364A" stroke-linecap="round" stroke-linejoin="round"/>
<path d="M34.1602 35.5801C35.5409 35.5801 36.6602 34.4608 36.6602 33.0801C36.6602 31.6994 35.5409 30.5801 34.1602 30.5801C32.7794 30.5801 31.6602 31.6994 31.6602 33.0801C31.6602 34.4608 32.7794 35.5801 34.1602 35.5801Z" stroke="#36364A" stroke-linecap="round" stroke-linejoin="round"/>
<path d="M20.6602 31.5801C14.5851 31.5801 9.66016 26.6552 9.66016 20.5801C9.66016 14.505 14.5851 9.58008 20.6602 9.58008" stroke="#071743" stroke-opacity="0.25" stroke-linecap="round" stroke-linejoin="round" stroke-dasharray="1 2"/>
<path d="M20.6602 4.58008V36.5801M20.6602 31.5801C26.7353 31.5801 31.6602 26.6552 31.6602 20.5801C31.6602 14.505 26.7353 9.58008 20.6602 9.58008" stroke="#36364A" stroke-linecap="round" stroke-linejoin="round"/>
<path d="M18.1172 17.0245C18.1172 18.3746 19.2557 19.469 20.66 19.469V14.5801C19.2557 14.5801 18.1172 15.6745 18.1172 17.0245Z" stroke="#071743" stroke-opacity="0.25" stroke-linecap="round" stroke-linejoin="round" stroke-dasharray="1 1.75"/>
<path d="M20.6602 20.6914C18.0517 20.6914 16.1572 22.5019 15.6707 24.9196C15.5999 25.2717 15.8956 25.5803 16.2686 25.5803H20.6602V20.6914Z" stroke="#071743" stroke-opacity="0.25" stroke-linecap="round" stroke-linejoin="round" stroke-dasharray="1 1.75"/>
<path d="M20.6602 19.469C22.0645 19.469 23.203 18.3746 23.203 17.0245C23.203 15.6745 22.0645 14.5801 20.6602 14.5801V19.469Z" stroke="#36364A" stroke-linejoin="round"/>
<path d="M25.6497 24.9196C25.1632 22.5019 23.2687 20.6914 20.6602 20.6914V25.5803H25.0518C25.4248 25.5803 25.7205 25.2717 25.6497 24.9196Z" stroke="#36364A" stroke-linejoin="round"/>
</g>
<defs>
<linearGradient id="paint0_linear_20_246" x1="26.1602" y1="9.58008" x2="26.1602" y2="31.5801" gradientUnits="userSpaceOnUse">
<stop stop-color="#818498"/>
<stop offset="1" stop-color="#818498" stop-opacity="0"/>
</linearGradient>
<clipPath id="clip0_20_246">
<rect width="40" height="40" fill="white" transform="translate(0.660156 0.580078)"/>
</clipPath>
</defs>
</svg>
