<svg width="131" height="21" viewBox="0 0 131 21" fill="none" xmlns="http://www.w3.org/2000/svg">
<g clip-path="url(#clip0_20_91)">
<g clip-path="url(#clip1_20_91)">
<g clip-path="url(#clip2_20_91)">
<path d="M26.1513 10.9844C26.5445 14.047 26.9093 16.9225 27.2881 19.7949C27.333 20.139 27.2612 20.2604 26.873 20.2797C24.5352 20.395 24.5366 20.4042 23.6915 18.291C23.3397 17.4117 22.9968 16.5289 22.622 15.6583C22.5395 15.5152 22.5091 15.3491 22.5357 15.187C22.5623 15.0248 22.6443 14.8762 22.7683 14.7654C23.8742 13.5662 24.9512 12.3344 26.1513 10.9844Z" fill="#36364A"/>
<path d="M12.4105 13.5508C12.7453 15.2367 13.0756 16.8213 13.3665 18.4129C13.4562 18.9056 13.8601 19.5315 13.5145 19.8646C13.2166 20.1509 12.555 19.7459 12.0465 19.7643C10.6957 19.8142 10.0669 19.1944 9.84747 17.893C9.71866 17.129 9.66166 16.5999 10.3066 16.0082C11.0593 15.2325 11.762 14.4118 12.4105 13.5508Z" fill="#36364A"/>
<path d="M16.2249 16.627C16.2249 15.6802 16.2101 14.7334 16.2321 13.787C16.2406 13.4153 16.1348 13.2899 15.7303 13.2768C12.9717 13.1876 10.2138 13.0795 7.4564 12.9524C7.02331 12.9327 6.85232 13.0528 6.76031 13.471C6.33486 15.4075 5.85195 17.3327 5.43636 19.2715C5.31967 19.8159 5.10695 20.0166 4.52397 19.9548C3.8771 19.8893 3.2259 19.8747 2.57663 19.911C2.08744 19.9351 1.9932 19.7357 2.00037 19.3197C2.04256 16.4118 2.10495 13.5038 2.07623 10.5968C2.07093 9.70225 2.3768 8.83244 2.94376 8.12984C4.46966 6.0587 5.93947 3.95031 7.4178 1.84718C7.49754 1.70317 7.62303 1.58836 7.77537 1.52005C7.9277 1.45174 8.09864 1.43363 8.26243 1.46845C13.7745 2.04441 19.2887 2.60242 24.805 3.14245C25.15 3.18284 25.4795 3.30586 25.7641 3.50057C29.0466 5.58398 32.3232 7.67485 35.6223 9.73284C36.116 10.0397 36.1295 10.215 35.655 10.4925C35.5529 10.5464 35.4618 10.6179 35.3858 10.7038C34.4357 11.9026 33.3213 11.8487 31.975 11.3174C30.3476 10.677 28.6314 10.2523 26.9628 9.70786C26.804 9.64499 26.6318 9.62117 26.4614 9.63852C26.2909 9.65587 26.1274 9.71385 25.9853 9.80736C24.4504 10.7384 22.9085 11.658 21.3596 12.5662C21.2201 12.6392 21.1009 12.7444 21.0125 12.8725C20.924 13.0007 20.8689 13.1481 20.852 13.3018C20.5122 15.3006 20.1236 17.2906 19.8112 19.2947C19.7215 19.8689 19.5119 20.0508 18.9276 20.0109C18.1855 19.9681 17.4415 19.9669 16.6993 20.0074C16.2591 20.0267 16.1463 19.8759 16.1607 19.4661C16.1895 18.5197 16.1697 17.572 16.1697 16.6252L16.2249 16.627Z" fill="#36364A"/>
<path d="M49.1916 10.8923C50.3022 9.25599 51.9076 8.78354 53.762 9.02788C54.7913 9.11088 55.7493 9.57498 56.4398 10.3252C57.1302 11.0755 57.5009 12.0551 57.4761 13.0635C57.5473 15.1475 57.4824 17.236 57.5135 19.322C57.5213 19.8568 57.2161 19.8238 56.8513 19.8289C56.4516 19.8324 56.1324 19.8522 56.1433 19.2799C56.1776 17.5057 56.1604 15.7314 56.1516 13.9598C56.145 13.5958 56.1162 13.2325 56.0654 12.8719C55.7369 10.3094 53.433 9.88102 51.7057 10.4488C50.6157 10.8036 49.9286 11.8788 49.914 13.247C49.8933 15.1767 49.8944 17.1066 49.9172 19.0366C49.9234 19.5643 49.8466 19.8476 49.1869 19.8476C48.5163 19.8476 48.4557 19.5364 48.4603 19.0244C48.4769 17.1995 48.4967 15.3746 48.4603 13.5497C48.4084 11.1109 46.6738 9.78623 44.3663 10.3773C43.8045 10.5169 43.3036 10.8294 42.9379 11.2687C42.5721 11.7079 42.3608 12.2505 42.3353 12.8161C42.1804 14.8961 42.1536 16.9833 42.255 19.0665C42.2637 19.8958 41.8356 19.8623 41.2688 19.8269C41.0233 19.8122 40.8536 19.7503 40.8619 19.4685C40.9252 17.1772 40.689 14.8773 40.9854 12.5946C41.2138 10.8351 42.1827 9.55862 44.005 9.14751C45.9524 8.70547 47.7487 8.98277 49.0307 10.6987C49.0711 10.7509 49.1205 10.8057 49.1916 10.8923Z" fill="#36364A"/>
<path d="M120.001 10.8383C120.691 10.0311 121.613 9.44345 122.647 9.15057C123.68 8.85769 124.78 8.87293 125.806 9.19433C128.435 9.8878 129.77 12.0909 129.562 15.2388C129.506 16.2743 129.133 17.2694 128.492 18.0962C127.852 18.923 126.972 19.5436 125.967 19.8782C124.922 20.228 123.795 20.2731 122.724 20.008C121.653 19.7429 120.684 19.1791 119.936 18.3853C119.057 17.3863 118.583 16.1078 118.602 14.7907C118.578 10.6218 118.596 6.45239 118.59 2.28347C118.59 1.81711 118.644 1.4653 119.261 1.45161C119.902 1.43742 120.01 1.76692 120.008 2.28955C119.994 5.07661 120.001 7.86366 120.001 10.8383ZM120.001 14.5565C119.923 17.9838 122.836 19.5689 125.757 18.5541C127.566 17.926 128.551 15.8461 128.169 13.6876C127.885 12.0797 127.115 10.8418 125.402 10.3927C122.312 9.57604 119.996 11.3761 120.001 14.5565Z" fill="#36364A"/>
<path d="M113.672 10.8658C113.672 7.87196 113.676 5.06312 113.666 2.25476C113.666 1.77675 113.733 1.4437 114.352 1.4513C114.863 1.45941 115.063 1.63126 115.061 2.14527C115.044 6.39784 115.09 10.6504 115.03 14.9019C114.985 18.0671 112.635 20.181 109.376 20.1318C106.299 20.0857 104.066 17.8162 104.051 14.7184C104.036 11.829 105.414 9.77647 107.901 9.17526C110.043 8.65566 112.001 9.00695 113.672 10.8658ZM109.533 18.8377C112.06 18.8412 113.666 17.1831 113.672 14.5623C113.677 11.871 112.093 10.2124 109.525 10.219C107.002 10.2256 105.425 11.8807 105.418 14.5324C105.409 17.1491 107.018 18.8342 109.533 18.8377Z" fill="#36364A"/>
<path d="M88.0435 11.0783C88.0435 8.12809 88.0519 5.27311 88.0363 2.41814C88.0338 1.9173 88.1354 1.62076 88.7359 1.63951C89.2119 1.65421 89.3987 1.82606 89.3971 2.29851C89.3811 6.62457 89.4381 10.9516 89.3566 15.2756C89.3006 18.2553 86.9402 20.3332 83.8552 20.319C83.1509 20.3377 82.4499 20.2197 81.7928 19.9717C81.1357 19.7238 80.5356 19.3508 80.0272 18.8745C79.5189 18.3982 79.1124 17.8281 78.8314 17.1971C78.5504 16.5662 78.4005 15.887 78.3904 15.1991C78.2777 12.4293 79.4253 10.3388 81.6477 9.56166C84.031 8.72828 86.2187 9.04511 88.0435 11.0783ZM83.9184 19.0243C86.4155 19.0127 88.0705 17.277 88.042 14.7059C88.0099 12.0308 86.3921 10.3824 83.8219 10.4052C81.3192 10.4275 79.7378 12.1211 79.7539 14.7616C79.7699 17.3692 81.3981 19.036 83.9184 19.0243Z" fill="#36364A"/>
<path d="M96.9662 20.1352C95.4792 20.1245 94.151 19.7606 93.2609 18.4948C93.0279 18.1638 92.7232 17.7674 93.2558 17.4237C93.7057 17.1332 94.0056 17.3142 94.3265 17.7065C94.9207 18.3532 95.729 18.775 96.6098 18.898C97.4905 19.0209 98.3874 18.8373 99.1435 18.3792C99.3956 18.2296 99.5993 18.0132 99.7309 17.7552C99.8624 17.4972 99.9164 17.2081 99.8867 16.9213C99.8693 16.6453 99.7653 16.3812 99.5888 16.1649C99.4124 15.9486 99.1721 15.7906 98.9006 15.7123C97.8855 15.3839 96.8489 15.1227 95.7978 14.9306C95.3562 14.8287 94.924 14.6907 94.506 14.518C94.1241 14.3582 93.7849 14.1148 93.5145 13.8067C93.2442 13.4986 93.0497 13.134 92.9465 12.7409C92.8432 12.3479 92.8337 11.9369 92.9187 11.5397C93.0037 11.1425 93.181 10.7697 93.4369 10.45C94.7738 8.60734 99.4413 8.27632 100.847 10.667C101.029 10.9766 101.435 11.3224 100.906 11.666C100.455 11.9596 100.128 11.8825 99.7787 11.404C98.8134 10.0718 96.2084 9.80317 94.9265 10.85C94.6921 11.0055 94.5083 11.2232 94.3966 11.4775C94.2849 11.7317 94.2499 12.0119 94.2959 12.2849C94.3418 12.5579 94.4667 12.8124 94.6559 13.0184C94.845 13.2244 95.0906 13.3732 95.3635 13.4474C96.2183 13.7358 97.1224 13.8869 98.0053 14.0962C98.6321 14.2297 99.2371 14.4472 99.8031 14.7426C100.254 14.9632 100.634 15.3016 100.9 15.7202C101.166 16.1389 101.308 16.6213 101.31 17.1141C101.312 17.6068 101.175 18.0905 100.913 18.5115C100.651 18.9325 100.274 19.2743 99.8254 19.499C98.9509 19.965 97.9611 20.1852 96.9662 20.1352Z" fill="#36364A"/>
<path d="M75.9199 16.3564C75.9199 17.2947 75.8939 18.232 75.9303 19.1713C75.9501 19.6782 75.7943 19.8551 75.2556 19.8394C74.7641 19.8247 74.5289 19.734 74.5361 19.1875C74.5662 17.4412 74.5617 15.6943 74.544 13.948C74.516 11.2836 72.5291 9.76946 69.8728 10.3707C69.1583 10.5197 68.5176 10.9024 68.056 11.4554C67.5944 12.0084 67.3399 12.6987 67.3344 13.4122C67.2554 15.2878 67.2787 17.1634 67.2917 19.039C67.2953 19.5662 67.2218 19.8394 66.5652 19.847C65.8692 19.8551 65.8531 19.518 65.8697 19.0243C65.9377 17.0473 65.728 15.0617 65.9833 13.0903C66.3301 10.4102 68.2602 8.90314 71.188 8.97512C71.7923 8.96384 72.393 9.06899 72.9556 9.28458C73.5182 9.50016 74.0317 9.82195 74.467 10.2315C74.9022 10.6411 75.2505 11.1305 75.492 11.6716C75.7335 12.2128 75.8634 12.7951 75.8743 13.3853C75.9418 14.3713 75.8852 15.3623 75.8852 16.3548L75.9199 16.3564Z" fill="#36364A"/>
<path d="M62.3735 14.5848C62.3735 16.0949 62.3528 17.605 62.3849 19.1146C62.3963 19.6444 62.2578 19.8319 61.6769 19.8385C61.0469 19.8456 60.9976 19.5643 61.0022 19.0781C61.0178 16.1106 61.0132 13.1426 61.0069 10.1746C61.0069 9.70215 60.9923 9.29104 61.6817 9.27583C62.3709 9.26062 62.387 9.64182 62.3823 10.133C62.3646 11.6173 62.3735 13.101 62.3735 14.5848Z" fill="#36364A"/>
<path d="M60.5264 5.99283C60.5308 5.69216 60.6554 5.40508 60.8737 5.19297C61.0919 4.98087 61.3864 4.86058 61.6943 4.85783C61.8535 4.85362 62.0119 4.88231 62.1591 4.94203C62.3062 5.00175 62.4388 5.09115 62.5481 5.20438C62.6574 5.3176 62.741 5.4521 62.7934 5.59907C62.8458 5.74604 62.8658 5.90215 62.8522 6.05721C62.8365 6.35368 62.7027 6.63242 62.4794 6.83379C62.2561 7.03517 61.9609 7.1432 61.6571 7.13479C61.3533 7.12638 61.0649 7.00219 60.8536 6.78878C60.6423 6.57538 60.5249 6.28969 60.5264 5.99283Z" fill="#36364A"/>
</g>
</g>
</g>
<defs>
<clipPath id="clip0_20_91">
<rect width="130" height="20" fill="white" transform="translate(0.589844 0.910156)"/>
</clipPath>
<clipPath id="clip1_20_91">
<rect width="130" height="20" fill="white" transform="translate(0.589844 0.910156)"/>
</clipPath>
<clipPath id="clip2_20_91">
<rect width="130" height="20" fill="white" transform="translate(0.589844 0.910156)"/>
</clipPath>
</defs>
</svg>
