<svg width="106" height="25" viewBox="0 0 106 25" fill="none" xmlns="http://www.w3.org/2000/svg">
<g clip-path="url(#clip0_20_66)">
<g clip-path="url(#clip1_20_66)">
<g clip-path="url(#clip2_20_66)">
<mask id="mask0_20_66" style="mask-type:luminance" maskUnits="userSpaceOnUse" x="0" y="0" width="106" height="25">
<path d="M105.255 0.0214844H0.69043V24.0215H105.255V0.0214844Z" fill="white"/>
</mask>
<g mask="url(#mask0_20_66)">
<path d="M6.6399 13.1425C6.34428 13.4365 5.97474 13.5835 5.5313 13.5835H4.01622H1.83598C1.5034 13.5835 1.24473 13.4733 1.02301 13.2527C0.838243 13.0322 0.69043 12.7749 0.69043 12.4442V6.82087V1.16084C0.69043 0.83006 0.838243 0.572786 1.02301 0.352265C1.24473 0.168498 1.54035 0.0214844 1.83598 0.0214844H5.23568H8.63538C8.96796 0.0214844 9.22663 0.168498 9.44835 0.352265C9.67007 0.572786 9.78093 0.83006 9.78093 1.16084V5.57125V9.35685C9.78093 9.76114 9.63311 10.1654 9.33749 10.4227L8.00717 11.7458L6.6399 13.1425Z" fill="#36364A"/>
<path d="M11.5558 5.93878C11.2601 5.64476 11.1123 5.27722 11.1123 4.87293V3.32929V1.16084C11.1123 0.83006 11.2601 0.572786 11.4449 0.352265C11.6666 0.168498 11.9623 0.0214844 12.2579 0.0214844H17.9117H23.6025C23.9351 0.0214844 24.1938 0.168498 24.4155 0.352265C24.6372 0.572786 24.7481 0.83006 24.7481 1.16084V4.54215V7.92347C24.7481 8.25425 24.6002 8.51153 24.4155 8.73205C24.1938 8.95257 23.9351 9.06283 23.6025 9.06283H19.1681H15.325C14.9185 9.06283 14.5121 8.91581 14.2164 8.62179L12.8861 7.29866L11.5558 5.93878Z" fill="#36364A"/>
<path d="M18.8343 10.9C19.1299 10.606 19.4993 10.459 19.9428 10.459H21.4579H23.6013C23.9338 10.459 24.1924 10.606 24.4141 10.7898C24.6359 11.0103 24.7467 11.2676 24.7467 11.5983V17.2216V22.8449C24.7467 23.1757 24.5989 23.433 24.4141 23.6535C24.1924 23.874 23.9338 23.9843 23.6013 23.9843H20.2014H16.8017C16.4691 23.9843 16.2105 23.8372 15.9887 23.6535C15.767 23.433 15.6562 23.1757 15.6562 22.8449V18.4345V14.6489C15.6562 14.2446 15.804 13.8403 16.0996 13.583L17.4299 12.2599L18.8343 10.9Z" fill="#36364A"/>
<path d="M13.8827 18.1046C14.1783 18.3986 14.3261 18.7661 14.3261 19.2072V20.7141V22.8825C14.3261 23.2133 14.1783 23.4706 13.9935 23.6911C13.7718 23.9116 13.5131 24.0219 13.1806 24.0219H7.52678H1.83598C1.5034 24.0219 1.24473 23.8749 1.02301 23.6911C0.838243 23.4706 0.69043 23.1766 0.69043 22.8825V19.5012V16.1199C0.69043 15.7891 0.838243 15.5318 1.02301 15.3113C1.24473 15.0908 1.5034 14.9805 1.83598 14.9805H6.27037H10.0765C10.483 14.9805 10.8894 15.1276 11.1481 15.4216L12.4784 16.7447L13.8827 18.1046Z" fill="#36364A"/>
<path d="M62.9221 18.1037C62.7743 18.2139 62.6265 18.3242 62.5156 18.3977C62.4047 18.4712 62.3308 18.508 62.2569 18.5447C62.183 18.5815 62.1091 18.6182 62.0722 18.6182C61.9982 18.6182 61.9613 18.6182 61.8504 18.6182C61.5548 18.6182 61.3331 18.4712 61.2222 18.2139C61.1114 17.9199 61.0375 17.4054 61.0375 16.6335V13.0685C61.0375 12.4436 61.0005 11.9291 60.9266 11.5983C60.8527 11.2675 60.7418 10.9368 60.5571 10.6427C59.9658 9.72388 58.8202 9.24609 57.1574 9.24609C55.938 9.24609 54.9402 9.46661 54.2012 9.8709C53.4621 10.2752 53.1295 10.8632 53.1295 11.5983C53.1295 11.9659 53.2404 12.2966 53.4621 12.5172C53.6838 12.7377 53.9795 12.8847 54.312 12.8847C54.6816 12.8847 55.0141 12.7744 55.2359 12.5539C55.4576 12.3334 55.6054 12.0394 55.6054 11.7086C55.6054 11.4145 55.4945 11.1573 55.3098 10.9735C55.162 10.8265 55.0881 10.753 55.0881 10.753C55.0511 10.7162 55.0511 10.7162 55.0511 10.6795C55.0511 10.606 55.0881 10.5325 55.1989 10.4222C55.3098 10.3487 55.4206 10.2752 55.5684 10.2017C55.7163 10.1282 55.901 10.0914 56.0858 10.0547C56.2706 10.0179 56.4923 10.0179 56.677 10.0179C57.6748 10.0179 58.3399 10.3119 58.6724 10.9C58.7463 11.047 58.8202 11.1573 58.8572 11.3043C58.8942 11.4146 58.9311 11.5983 58.9681 11.7821C59.005 11.9659 59.005 12.1864 59.042 12.4436C59.042 12.7377 59.0789 13.0685 59.0789 13.436L57.0466 13.8035L56.2336 13.9505C55.8271 14.024 55.4576 14.0976 55.1989 14.1711C54.9033 14.2446 54.6446 14.3181 54.4229 14.3916C54.2012 14.4651 54.0164 14.5753 53.8316 14.6856C53.6469 14.7959 53.4991 14.9061 53.3512 15.0164C52.8339 15.4942 52.5752 16.1557 52.5752 17.0011C52.5752 17.9199 52.8339 18.655 53.3882 19.1695C53.9055 19.6841 54.6446 19.9781 55.5684 19.9781C56.2336 19.9781 56.8618 19.8311 57.4161 19.5371C57.9703 19.243 58.5246 18.7652 59.1159 18.1037C59.1898 18.3977 59.2637 18.655 59.3006 18.802C59.3746 18.949 59.4485 19.096 59.5593 19.243C59.7071 19.4636 59.8919 19.6106 60.1136 19.7208C60.3353 19.8311 60.5571 19.9046 60.8157 19.9046C61.2222 19.9046 61.5918 19.7943 61.9613 19.6106C62.3308 19.4268 62.7743 19.0593 63.2547 18.6182L62.9221 18.1037ZM59.1159 13.9873V15.6779C59.1159 16.413 59.005 17.0011 58.7833 17.3686C58.5616 17.7361 58.2659 18.0302 57.8595 18.2507C57.453 18.4712 57.0096 18.5815 56.5662 18.5815C55.9749 18.5815 55.4945 18.3977 55.162 18.0302C54.7924 17.6626 54.6446 17.1848 54.6446 16.5968C54.6446 15.6412 55.0881 15.0164 55.938 14.6856C56.2336 14.5753 56.6401 14.4651 57.1205 14.3548C57.6008 14.2813 58.2659 14.1343 59.1159 13.9873Z" fill="#36364A"/>
<path d="M70.4574 18.2508C70.0879 18.3979 69.7553 18.5081 69.5336 18.5449C69.3118 18.6184 69.0901 18.6184 68.9053 18.6184C68.351 18.6184 67.9446 18.4714 67.6859 18.1406C67.4272 17.8098 67.2794 17.332 67.2794 16.7072V10.5694H70.3096V9.871H67.2794V5.82812H66.799L65.3948 7.22476V9.83425H62.9189V10.5326H65.3948V17.4055C65.3948 18.1773 65.5795 18.8021 65.9491 19.1697C66.3186 19.574 66.8729 19.7577 67.575 19.7577C68.0554 19.7577 68.5358 19.6842 69.0162 19.5005C69.4966 19.3535 70.0509 19.0594 70.6791 18.6919L70.4574 18.2508Z" fill="#36364A"/>
<path d="M83.3559 8.18016C83.7254 8.18016 84.0581 8.0699 84.3168 7.81262C84.5754 7.55535 84.6862 7.26132 84.6862 6.89379C84.6862 6.52625 84.5754 6.23222 84.3168 5.97495C84.0581 5.71768 83.7624 5.60742 83.3928 5.60742C83.0602 5.60742 82.7278 5.71768 82.4691 5.97495C82.2104 6.23222 82.0996 6.52625 82.0996 6.85703C82.0996 7.22457 82.2104 7.5186 82.4691 7.77587C82.6908 8.03314 83.0233 8.18016 83.3559 8.18016Z" fill="#36364A"/>
<path d="M104.16 17.1481C103.865 17.4789 103.569 17.7361 103.311 17.9567C103.052 18.1772 102.793 18.3242 102.535 18.4712C102.276 18.5815 102.017 18.6917 101.721 18.7285C101.426 18.7652 101.13 18.802 100.761 18.802C99.5419 18.802 98.6181 18.3977 97.9899 17.5891C97.7312 17.2216 97.5464 16.8173 97.4356 16.3395C97.3247 15.8617 97.2877 15.2369 97.2877 14.4283H105.011C104.974 13.6933 104.899 13.0685 104.826 12.6274C104.714 12.1496 104.567 11.7453 104.345 11.341C103.975 10.6795 103.421 10.1649 102.682 9.79739C101.943 9.42985 101.13 9.24609 100.207 9.24609C99.431 9.24609 98.7289 9.35635 98.1007 9.61362C97.4725 9.8709 96.9552 10.2017 96.5117 10.6427C96.0683 11.0838 95.7357 11.6351 95.514 12.2966C95.2923 12.9582 95.1445 13.6933 95.1445 14.4651C95.1445 15.2737 95.2553 16.0087 95.514 16.6703C95.7357 17.3319 96.1052 17.8832 96.5117 18.361C96.9552 18.8387 97.4725 19.1695 98.1007 19.4268C98.7289 19.6841 99.431 19.7943 100.207 19.7943C100.688 19.7943 101.093 19.7576 101.5 19.6841C101.906 19.6106 102.276 19.4636 102.609 19.2798C102.978 19.096 103.311 18.8755 103.644 18.5815C103.975 18.2874 104.345 17.9567 104.678 17.5524L104.16 17.1481ZM100.096 9.90765C101.02 9.90765 101.685 10.2017 102.091 10.7897C102.497 11.3778 102.757 12.3334 102.867 13.73H97.2508C97.3617 12.3701 97.6203 11.3778 98.0638 10.7897C98.5072 10.2017 99.2093 9.90765 100.096 9.90765Z" fill="#36364A"/>
<path d="M49.6174 18.6915C49.4326 18.618 49.2848 18.5077 49.174 18.3607C49.0631 18.2137 49.0261 17.9932 48.9892 17.7359C48.9522 17.4786 48.9522 17.1111 48.9522 16.67V4.17383L45.146 5.09266V5.79098C45.5156 5.79098 45.8481 5.82773 46.0699 5.90124C46.3285 5.97474 46.5133 6.08501 46.6242 6.23202C46.772 6.37903 46.8459 6.59955 46.9198 6.89358C46.9567 7.18761 46.9937 7.55514 46.9937 7.99618V16.67C46.9937 17.1111 46.9937 17.4419 46.9567 17.7359C46.9198 17.9932 46.8828 18.2137 46.772 18.3607C46.6611 18.5077 46.5133 18.618 46.3285 18.6915C46.1438 18.765 45.8851 18.8017 45.5525 18.8753L45.0352 18.912V19.5736H50.9477V18.912L50.4304 18.8753C50.0608 18.8385 49.8022 18.765 49.6174 18.6915Z" fill="#36364A"/>
<path d="M85.35 18.6928C85.1652 18.6193 85.0174 18.509 84.9066 18.362C84.7957 18.215 84.7588 17.9945 84.7218 17.7372C84.6848 17.4799 84.6848 17.1124 84.6848 16.6713V8.95312L80.8786 9.87195V10.5703C81.2482 10.5703 81.5808 10.607 81.8025 10.6805C82.0612 10.754 82.2459 10.8643 82.3937 11.0113C82.5416 11.1583 82.6155 11.3788 82.6894 11.6729C82.7263 11.9669 82.7633 12.3344 82.7633 12.7755V16.7081C82.7633 17.1491 82.7633 17.4799 82.7263 17.7739C82.6894 18.0312 82.6524 18.2517 82.5416 18.3987C82.4307 18.5458 82.2829 18.656 82.0981 18.7295C81.9133 18.803 81.6547 18.8398 81.3221 18.9133L80.8047 18.95V19.6116H86.7173V18.95L86.1999 18.9133C85.7934 18.8398 85.5348 18.7663 85.35 18.6928Z" fill="#36364A"/>
<path d="M92.7046 18.6915C92.5199 18.618 92.372 18.5077 92.2612 18.3607C92.1503 18.2137 92.1134 17.9932 92.0764 17.7359C92.0395 17.4786 92.0395 17.1111 92.0395 16.67V4.17383L88.2702 5.12942V5.82773C88.6397 5.82773 88.9723 5.86448 89.194 5.93799C89.4527 6.0115 89.6375 6.12176 89.7853 6.26877C89.9331 6.41579 90.007 6.63631 90.0809 6.93033C90.1179 7.22436 90.1548 7.5919 90.1548 8.03294V16.7068C90.1548 17.1478 90.1548 17.4786 90.1179 17.7726C90.0809 18.0299 90.044 18.2504 89.9331 18.3975C89.8223 18.5445 89.6744 18.6547 89.4897 18.7282C89.3049 18.8017 89.0462 18.8385 88.7136 18.912L88.1963 18.9488V19.6103H94.1089V18.9488L93.5915 18.912C93.185 18.8385 92.9263 18.765 92.7046 18.6915Z" fill="#36364A"/>
<path d="M79.2542 5.09302C78.8108 4.799 78.2565 4.61523 77.5543 4.61523C76.5196 4.61523 75.6697 4.94601 75.0415 5.60757C74.4133 6.26913 74.1177 7.18797 74.1177 8.32733C74.1177 8.43759 74.1177 9.02564 74.1177 9.20941C74.1177 9.42993 74.1547 9.6137 74.1547 9.83422H72.1592V10.5325H74.1547V16.6704C74.1547 17.1114 74.1546 17.4422 74.1177 17.7362C74.0807 17.9935 74.0439 18.214 73.933 18.361C73.8221 18.508 73.6743 18.6183 73.4896 18.6918C73.3048 18.7653 73.0461 18.8021 72.7135 18.8756L72.1962 18.9123V19.5739H78.2564V18.9123L77.5913 18.8756C77.2587 18.8021 77 18.7653 76.8153 18.6918C76.6305 18.6183 76.4827 18.508 76.3718 18.361C76.261 18.214 76.224 17.9935 76.1871 17.7362C76.1501 17.4789 76.1501 17.1114 76.1501 16.6704V10.5693H78.8847V9.87097H76.1501C76.1132 9.79746 75.8175 8.91538 75.6697 7.95979C75.5958 7.37174 75.5958 6.89394 75.7067 6.48965C75.8175 5.97511 76.0762 5.64432 76.4827 5.46056H76.5196C76.5196 5.46056 76.5196 5.46056 76.5566 5.46056C76.5566 5.46056 76.5566 5.46056 76.5935 5.46056H76.6305C76.8153 5.38705 77 5.3503 77.1848 5.3503C77.3696 5.3503 77.5543 5.38705 77.7391 5.46056C77.8869 5.53406 77.9978 5.60757 77.9978 5.68108C77.9978 5.71783 77.9608 5.79134 77.8869 5.86485C77.6652 6.08537 77.5174 6.37939 77.5174 6.71017C77.5174 7.04096 77.6282 7.29823 77.85 7.51875C78.0717 7.73927 78.3673 7.81278 78.6999 7.81278C79.0694 7.81278 79.402 7.66576 79.6607 7.40849C79.9194 7.15122 80.0302 6.78368 80.0302 6.37939C79.9194 5.79134 79.6976 5.38705 79.2542 5.09302Z" fill="#36364A"/>
<path d="M32.8037 5.13086V5.82917L33.5797 5.90268C34.1709 5.97618 34.5774 6.1232 34.7622 6.34372C34.8361 6.41722 34.873 6.49073 34.91 6.56424C34.947 6.63774 34.9839 6.71125 34.9839 6.85826C34.9839 6.96853 35.0209 7.11554 35.0209 7.29931C35.0209 7.48307 35.0209 7.74036 35.0209 8.03438V16.6714C35.0209 16.9655 35.0209 17.2227 35.0209 17.4065C35.0209 17.5903 34.9839 17.7373 34.9839 17.8475C34.9839 17.9578 34.947 18.0681 34.91 18.1416C34.873 18.2151 34.8361 18.2886 34.7622 18.3253C34.5774 18.5826 34.1709 18.7296 33.5797 18.7664L32.8037 18.8399V19.5382H39.7138V18.8399L38.7161 18.7664C38.1249 18.7296 37.7554 18.5826 37.5337 18.3253C37.4598 18.2518 37.4228 18.2151 37.4228 18.1416C37.3859 18.0681 37.3859 17.9578 37.3489 17.8475C37.312 17.7373 37.312 17.5903 37.312 17.4065C37.312 17.2227 37.312 17.0022 37.312 16.6714V13.3269H39.1965C39.4182 13.3269 39.603 13.3636 39.7508 13.4004C39.9356 13.4371 40.1203 13.5106 40.2681 13.6209C40.416 13.7312 40.5268 13.8782 40.6377 14.0987C40.7485 14.2825 40.8594 14.5397 40.9333 14.8338L41.1181 15.4218H41.968V10.3131H41.1181L40.9703 10.9011C40.8594 11.2319 40.7485 11.4892 40.6746 11.673C40.5638 11.8935 40.4529 12.0405 40.3051 12.1508C40.1573 12.261 40.0095 12.3713 39.8247 12.408C39.7138 12.4448 39.603 12.4448 39.4182 12.4815H37.275V6.04969H39.6399C40.3421 6.04969 40.9333 6.08644 41.3768 6.15995C41.8202 6.23346 42.1897 6.38047 42.4484 6.60099C42.7071 6.82151 42.8918 7.11554 42.9657 7.48307C43.0766 7.85061 43.1136 8.36516 43.1505 8.95321H44.0004V5.13086H32.8037Z" fill="#36364A"/>
</g>
</g>
</g>
</g>
<defs>
<clipPath id="clip0_20_66">
<rect width="105" height="24" fill="white" transform="translate(0.69043 0.0214844)"/>
</clipPath>
<clipPath id="clip1_20_66">
<rect width="105" height="24" fill="white" transform="translate(0.69043 0.0214844)"/>
</clipPath>
<clipPath id="clip2_20_66">
<rect width="105" height="24" fill="white" transform="translate(0.69043 0.0214844)"/>
</clipPath>
</defs>
</svg>
