<svg width="361" height="187" viewBox="0 0 361 187" fill="none" xmlns="http://www.w3.org/2000/svg">
<g clip-path="url(#clip0_1_10293)">
<g clip-path="url(#clip1_1_10293)">
<path d="M332.876 100.451H27.6373C23.5844 100.451 20.2988 103.69 20.2988 107.684V166.506C20.2988 170.5 23.5844 173.739 27.6373 173.739H332.876C336.929 173.739 340.214 170.5 340.214 166.506V107.684C340.214 103.69 336.929 100.451 332.876 100.451Z" fill="#303030"/>
<path d="M45.2619 115.88H41.3192C38.3551 115.88 35.9521 118.248 35.9521 121.17V125.056C35.9521 127.978 38.3551 130.346 41.3192 130.346H45.2619C48.2261 130.346 50.629 127.978 50.629 125.056V121.17C50.629 118.248 48.2261 115.88 45.2619 115.88Z" fill="#29342B"/>
<path d="M45.2469 119.256H41.3336C40.253 119.256 39.377 120.119 39.377 121.184V125.042C39.377 126.107 40.253 126.97 41.3336 126.97H45.2469C46.3275 126.97 47.2036 126.107 47.2036 125.042V121.184C47.2036 120.119 46.3275 119.256 45.2469 119.256Z" fill="#A2CEAD"/>
<path d="M45.2619 115.88H41.3192C38.3551 115.88 35.9521 118.248 35.9521 121.17V125.056C35.9521 127.978 38.3551 130.346 41.3192 130.346H45.2619C48.2261 130.346 50.629 127.978 50.629 125.056V121.17C50.629 118.248 48.2261 115.88 45.2619 115.88Z" stroke="#3A523E" stroke-width="0.968367"/>
<path d="M61.4322 117.385V128.416H60.0234V117.385H61.4322ZM67.2797 120.332C68.0623 120.332 68.7041 120.553 69.205 120.995C69.7059 121.427 69.9564 122.07 69.9564 122.924V128.416H68.7041V123.232C68.7041 122.687 68.5632 122.25 68.2815 121.921C67.9997 121.581 67.5614 121.412 66.9666 121.412C66.2671 121.412 65.6987 121.607 65.2604 121.998C64.8319 122.388 64.6186 122.893 64.6186 123.51V128.416H63.3664V120.548H64.6186V121.489H64.6499C64.9004 121.16 65.2448 120.887 65.6831 120.671C66.1213 120.444 66.6536 120.332 67.2797 120.332ZM74.8764 123.741C74.9703 123.762 75.3303 123.849 75.9565 124.004C76.5924 124.148 77.0776 124.41 77.4122 124.79C77.7458 125.171 77.9131 125.659 77.9131 126.256C77.9131 126.729 77.7771 127.146 77.5061 127.506C77.2342 127.866 76.8585 128.143 76.3791 128.339C75.9095 128.535 75.3714 128.632 74.7668 128.632C73.587 128.632 72.6947 128.381 72.0901 127.876C71.4845 127.372 71.1607 126.678 71.1196 125.793H72.3719C72.4237 126.338 72.6067 126.77 72.9197 127.089C73.2426 127.398 73.8589 127.552 74.7668 127.552C75.3929 127.552 75.8625 127.429 76.1756 127.182C76.4984 126.924 76.6609 126.642 76.6609 126.333C76.6609 126.025 76.5826 125.784 76.4261 125.608C76.2773 125.432 76.0824 125.298 75.8625 125.222C75.5519 125.106 75.2327 125.013 74.9077 124.945L74.4694 124.852C74.3172 124.82 74.1658 124.784 74.0155 124.744C73.5643 124.656 73.1198 124.537 72.6849 124.389C72.339 124.255 72.0324 124.037 71.7927 123.757C71.552 123.468 71.4327 123.072 71.4327 122.569C71.4327 122.157 71.552 121.782 71.7927 121.442C72.0324 121.103 72.3768 120.835 72.8258 120.64C73.2856 120.435 73.8169 120.332 74.4224 120.332C75.3714 120.332 76.1228 120.563 76.6765 121.026C77.2293 121.489 77.5374 122.08 77.6 122.8H76.3478C76.2782 122.425 76.0922 122.08 75.8156 121.813C75.5544 121.546 75.0897 121.412 74.4224 121.412C73.8687 121.412 73.4412 121.509 73.1389 121.705C72.8356 121.901 72.6849 122.158 72.6849 122.476C72.6849 122.723 72.7573 122.919 72.9041 123.062C73.0508 123.207 73.2328 123.314 73.4519 123.386C73.6809 123.459 73.9998 123.541 74.4068 123.633L74.8764 123.741ZM80.8833 121.628V126.364C80.8833 126.734 80.9714 126.991 81.1494 127.136C81.3265 127.28 81.619 127.352 82.026 127.352C82.2031 127.352 82.344 127.347 82.4486 127.336V128.416C82.1399 128.481 81.825 128.512 81.5094 128.509C80.9146 128.509 80.4499 128.359 80.1163 128.061C79.7935 127.762 79.6311 127.239 79.6311 126.488V121.628H78.4571V120.548H79.6311V117.925H80.8833V120.548H82.4486V121.628H80.8833ZM88.6414 122.553C88.6414 121.792 88.0994 121.412 87.0135 121.412C86.2621 121.412 85.7358 121.53 85.4325 121.766C85.1302 122.003 84.958 122.41 84.916 122.985H83.6637C83.7058 122.172 83.9983 121.529 84.5403 121.057C85.0833 120.574 85.908 120.332 87.0135 120.332C87.8695 120.332 88.5632 120.527 89.0954 120.918C89.6276 121.299 89.8937 121.93 89.8937 122.816V126.642C89.8937 126.95 89.9358 127.177 90.0189 127.321C90.1128 127.455 90.2958 127.521 90.5668 127.521C90.6607 127.521 90.739 127.517 90.8016 127.506V128.37C90.5647 128.45 90.3163 128.492 90.0659 128.493C89.6697 128.493 89.3566 128.421 89.1267 128.277C88.9075 128.123 88.7461 127.841 88.6414 127.429H88.6101C88.3389 127.818 87.9656 128.127 87.5301 128.324C87.082 128.529 86.539 128.632 85.9021 128.632C85.0989 128.632 84.4571 128.427 83.9768 128.015C83.5072 127.603 83.2724 127.063 83.2724 126.395C83.2724 125.819 83.4084 125.361 83.6794 125.022C83.9513 124.682 84.3211 124.425 84.7907 124.25C85.2711 124.065 85.9021 123.9 86.6848 123.757C87.0758 123.692 87.4626 123.604 87.8431 123.494C88.1043 123.413 88.3029 123.299 88.4379 123.155C88.5739 123.01 88.6414 122.811 88.6414 122.553ZM86.0273 127.552C86.81 127.552 87.442 127.372 87.9214 127.012C88.4017 126.642 88.6414 126.096 88.6414 125.377V124.065C88.4331 124.271 87.8177 124.477 86.7944 124.682C85.9804 124.857 85.3963 125.063 85.0412 125.3C84.6968 125.536 84.5246 125.881 84.5246 126.333C84.5246 127.146 85.0255 127.552 86.0273 127.552ZM95.6511 120.332C96.4338 120.332 97.0756 120.553 97.5765 120.995C98.0774 121.427 98.3278 122.07 98.3278 122.924V128.416H97.0756V123.232C97.0756 122.687 96.9347 122.25 96.6529 121.921C96.3712 121.581 95.9329 121.412 95.3381 121.412C94.6386 121.412 94.0702 121.607 93.6319 121.998C93.2034 122.388 92.9901 122.893 92.9901 123.51V128.416H91.7378V120.548H92.9901V121.489H93.0214C93.2719 121.16 93.6162 120.887 94.0545 120.671C94.4928 120.444 95.025 120.332 95.6511 120.332ZM105.674 123.386C105.633 122.874 105.418 122.39 105.064 122.013C104.698 121.612 104.15 121.412 103.42 121.412C102.543 121.412 101.886 121.715 101.448 122.322C101.019 122.929 100.806 123.649 100.806 124.482C100.806 125.315 101.019 126.034 101.448 126.642C101.886 127.249 102.543 127.552 103.42 127.552C104.161 127.552 104.708 127.352 105.064 126.95C105.429 126.549 105.632 126.071 105.674 125.516H106.926C106.904 126.083 106.728 126.633 106.417 127.111C106.106 127.588 105.671 127.975 105.158 128.231C104.646 128.498 104.067 128.632 103.42 128.632C102.647 128.632 101.969 128.458 101.385 128.108C100.799 127.756 100.327 127.248 100.023 126.642C99.7102 126.015 99.5537 125.295 99.5537 124.482C99.5537 123.669 99.7102 122.949 100.023 122.322C100.327 121.716 100.799 121.207 101.385 120.856C101.969 120.506 102.647 120.332 103.42 120.332C104.067 120.332 104.641 120.466 105.142 120.733C105.653 120.99 106.06 121.35 106.363 121.813C106.676 122.276 106.864 122.8 106.926 123.386H105.674ZM111.522 127.552C112.231 127.552 112.774 127.388 113.149 127.058C113.525 126.73 113.76 126.374 113.854 125.994H115.106C114.907 126.743 114.475 127.413 113.87 127.907C113.275 128.39 112.508 128.632 111.569 128.632C110.775 128.632 110.081 128.462 109.487 128.123C108.903 127.774 108.435 127.265 108.14 126.657C107.827 126.031 107.671 125.304 107.671 124.482C107.671 123.186 108.015 122.172 108.704 121.442C109.393 120.702 110.326 120.332 111.506 120.332C112.737 120.332 113.666 120.722 114.292 121.504C114.918 122.285 115.231 123.386 115.231 124.806H108.923C108.923 125.3 109.022 125.758 109.221 126.179C109.418 126.591 109.711 126.924 110.097 127.182C110.493 127.429 110.968 127.552 111.522 127.552ZM111.506 121.412C111.015 121.412 110.572 121.515 110.175 121.72C109.797 121.918 109.479 122.211 109.252 122.569C109.033 122.916 108.919 123.317 108.923 123.726H113.979C113.979 123.305 113.874 122.919 113.666 122.569C113.469 122.21 113.17 121.915 112.805 121.72C112.429 121.515 111.996 121.412 111.506 121.412ZM119.542 121.489C119.542 120.327 119.871 119.38 120.528 118.65C121.185 117.909 122.156 117.539 123.44 117.539C124.066 117.539 124.64 117.667 125.161 117.925C125.683 118.172 126.101 118.537 126.414 119.02C126.727 119.503 126.883 120.074 126.883 120.733C126.883 121.37 126.732 121.931 126.429 122.414C126.127 122.887 125.756 123.283 125.318 123.602C124.89 123.911 124.321 124.271 123.612 124.682C122.808 125.136 122.192 125.536 121.765 125.886C121.362 126.213 121.072 126.655 120.935 127.151V127.182H126.727V128.416H119.229C119.229 126.596 120.304 125.068 122.453 123.834L123.079 123.479C123.726 123.119 124.202 122.831 124.504 122.615C124.798 122.419 125.044 122.161 125.224 121.859C125.391 121.56 125.474 121.191 125.474 120.748C125.474 120.203 125.318 119.741 125.005 119.36C124.692 118.969 124.16 118.773 123.408 118.773C122.521 118.773 121.89 119.02 121.514 119.514C121.138 120.008 120.951 120.666 120.951 121.489H119.542Z" fill="white"/>
<path d="M66.8489 153.005H65.8148C65.7101 152.467 65.398 151.99 64.9441 151.674C64.7279 151.52 64.4864 151.402 64.2299 151.328C63.9648 151.251 63.6896 151.212 63.413 151.213C62.8965 151.213 62.4279 151.343 62.0082 151.599C61.5914 151.858 61.2597 152.237 61.0122 152.738C60.7676 153.239 60.6454 153.855 60.6454 154.583C60.6454 155.312 60.7676 155.927 61.0122 156.428C61.2597 156.93 61.5914 157.309 62.0082 157.566C62.4288 157.824 62.8965 157.952 63.413 157.952C63.6968 157.952 63.9687 157.913 64.2299 157.837C64.4912 157.76 64.7289 157.647 64.9441 157.497C65.3955 157.176 65.7067 156.699 65.8148 156.161H66.8479C66.7788 156.568 66.6349 156.959 66.4234 157.315C66.0211 157.987 65.3809 158.488 64.6262 158.721C64.2485 158.844 63.8435 158.906 63.413 158.906C62.6852 158.906 62.0375 158.731 61.4701 158.38C60.9027 158.029 60.4575 157.531 60.1327 156.884C59.8069 156.238 59.6436 155.471 59.6436 154.583C59.6436 153.696 59.8069 152.928 60.1327 152.282C60.4575 151.636 60.9036 151.136 61.4701 150.786C62.0375 150.435 62.6852 150.26 63.413 150.26C63.8435 150.26 64.2485 150.321 64.6262 150.445C65.0077 150.568 65.3501 150.75 65.6563 150.988C65.9616 151.223 66.2179 151.51 66.4234 151.851C66.6288 152.187 66.7707 152.572 66.8479 153.005H66.8489ZM72.4215 156.21V152.479H73.4057V158.791H72.4215V157.722H72.3549C72.1982 158.051 71.9566 158.333 71.6545 158.54C71.3375 158.762 70.9374 158.873 70.4541 158.873C70.0529 158.873 69.6978 158.786 69.3867 158.614C69.0672 158.43 68.8114 158.155 68.653 157.826C68.4749 157.472 68.3859 157.026 68.3859 156.49V152.479H69.3701V156.423C69.3701 156.884 69.5002 157.251 69.7614 157.525C70.0256 157.8 70.3621 157.936 70.7701 157.936C71.0146 157.936 71.2641 157.875 71.5165 157.751C71.7728 157.628 71.9861 157.439 72.1593 157.184C72.3334 156.93 72.4215 156.605 72.4215 156.21ZM75.2077 158.791V152.48H76.1577V153.432H76.2242C76.3416 153.12 76.5529 152.866 76.8582 152.672C77.1663 152.477 77.5259 152.375 77.8923 152.38C78.0646 152.382 78.2368 152.387 78.4088 152.397V153.383C78.333 153.368 78.2567 153.356 78.1799 153.346C78.0625 153.327 77.9392 153.318 77.8081 153.318C77.498 153.318 77.2192 153.382 76.9746 153.51C76.735 153.631 76.5345 153.816 76.3959 154.043C76.2574 154.27 76.1864 154.532 76.191 154.797V158.791H75.2077ZM79.575 158.791V152.48H80.5259V153.432H80.5925C80.7121 153.116 80.9352 152.849 81.2264 152.672C81.5345 152.477 81.8942 152.375 82.2605 152.38C82.4328 152.382 82.605 152.387 82.7771 152.397V153.383C82.7013 153.368 82.6249 153.356 82.5481 153.346C82.4307 153.327 82.3075 153.318 82.1764 153.318C81.8653 153.318 81.5874 153.382 81.3428 153.51C81.1032 153.631 80.9027 153.816 80.7642 154.043C80.6256 154.27 80.5546 154.532 80.5592 154.797V158.791H79.575ZM86.4331 158.922C85.8167 158.922 85.2845 158.788 84.8364 158.52C84.3903 158.247 84.0331 157.853 83.8072 157.386C83.5675 156.898 83.4482 156.331 83.4482 155.684C83.4482 155.038 83.5675 154.468 83.8072 153.975C84.0274 153.504 84.3767 153.102 84.8159 152.816C85.2493 152.536 85.7551 152.397 86.3333 152.397C86.6696 152.397 87.0035 152.452 87.3214 152.561C87.6462 152.67 87.9426 152.85 88.2097 153.096C88.4758 153.34 88.6891 153.663 88.8476 154.065C89.0061 154.468 89.0853 154.964 89.0853 155.553V155.964H84.1487V155.125H88.0845C88.0845 154.77 88.0121 154.452 87.8673 154.172C87.7318 153.899 87.5208 153.67 87.2588 153.51C86.9801 153.344 86.6589 153.26 86.3333 153.268C85.9419 153.268 85.6025 153.365 85.3158 153.556C85.0354 153.741 84.8096 153.996 84.6613 154.295C84.5086 154.599 84.4302 154.934 84.4324 155.273V155.832C84.4324 156.309 84.5155 156.713 84.6828 157.044C84.8521 157.372 85.0869 157.623 85.3872 157.797C85.7071 157.971 86.0684 158.059 86.434 158.051C86.6923 158.051 86.9252 158.016 87.1335 157.945C87.3449 157.87 87.5268 157.761 87.6804 157.615C87.833 157.468 87.9504 157.285 88.0346 157.066L88.9845 157.328C88.8847 157.646 88.7165 157.926 88.4807 158.167C88.2439 158.404 87.9524 158.591 87.6051 158.725C87.23 158.861 86.8327 158.928 86.4331 158.922ZM91.5654 154.993V158.791H90.5812V152.48H91.5321V153.465H91.6153C91.7659 153.145 91.9939 152.886 92.3001 152.694C92.6053 152.496 92.9996 152.397 93.4839 152.397C93.9163 152.397 94.2959 152.484 94.6217 152.66C94.9465 152.832 95.1989 153.096 95.3799 153.449C95.5608 153.8 95.6508 154.243 95.6508 154.779V158.791H94.6676V154.847C94.6676 154.35 94.5365 153.964 94.2753 153.687C94.0141 153.407 93.656 153.268 93.1992 153.268C92.8861 153.268 92.6053 153.336 92.3578 153.469C92.1132 153.604 91.9195 153.8 91.7777 154.057C91.6358 154.315 91.5654 154.626 91.5654 154.993ZM100.233 152.48V153.301H96.9158V152.48H100.233ZM97.8824 150.967H98.8666V156.983C98.8666 157.257 98.9067 157.462 98.9869 157.6C99.058 157.723 99.1699 157.818 99.3039 157.87C99.435 157.914 99.572 157.936 99.7168 157.936C99.8244 157.936 99.9144 157.931 99.9839 157.92L100.15 157.886L100.351 158.758C100.259 158.789 100.166 158.814 100.071 158.832C99.9216 158.862 99.7694 158.876 99.617 158.873C99.3391 158.873 99.0662 158.815 98.8001 158.696C98.5354 158.578 98.3077 158.392 98.1407 158.158C97.9685 157.917 97.8824 157.612 97.8824 157.246V150.967ZM105.15 158.791V150.375H108.035C108.702 150.375 109.25 150.487 109.677 150.713C110.106 150.935 110.423 151.239 110.628 151.629C110.833 152.018 110.937 152.46 110.937 152.956C110.937 153.452 110.833 153.891 110.628 154.275C110.423 154.659 110.108 154.96 109.682 155.179C109.256 155.396 108.713 155.504 108.052 155.504H105.717V154.583H108.018C108.474 154.583 108.841 154.517 109.119 154.386C109.38 154.272 109.595 154.075 109.728 153.827C109.855 153.583 109.92 153.292 109.92 152.956C109.92 152.618 109.855 152.324 109.728 152.073C109.595 151.816 109.379 151.611 109.115 151.489C108.834 151.349 108.463 151.279 108.001 151.279H106.184V158.791H105.15ZM109.169 155.011L111.269 158.791H110.068L108 155.011H109.169ZM115.059 158.922C114.481 158.922 113.973 158.787 113.538 158.515C113.097 158.237 112.745 157.843 112.52 157.377C112.278 156.889 112.157 156.32 112.157 155.667C112.157 155.011 112.278 154.436 112.519 153.946C112.743 153.479 113.096 153.083 113.537 152.804C113.974 152.533 114.481 152.397 115.059 152.397C115.636 152.397 116.143 152.532 116.576 152.804C117.013 153.075 117.352 153.455 117.594 153.946C117.838 154.436 117.961 155.011 117.961 155.667C117.961 156.319 117.838 156.889 117.594 157.377C117.352 157.865 117.013 158.245 116.576 158.515C116.143 158.787 115.637 158.922 115.059 158.922ZM115.059 158.051C115.498 158.051 115.859 157.94 116.143 157.719C116.427 157.497 116.636 157.205 116.772 156.843C116.909 156.481 116.977 156.09 116.977 155.667C116.977 155.246 116.909 154.853 116.772 154.488C116.649 154.142 116.431 153.836 116.143 153.605C115.859 153.38 115.497 153.267 115.059 153.267C114.62 153.267 114.259 153.38 113.975 153.605C113.691 153.83 113.482 154.124 113.346 154.488C113.207 154.866 113.137 155.265 113.14 155.667C113.14 156.09 113.209 156.481 113.346 156.844C113.482 157.205 113.691 157.497 113.975 157.719C114.259 157.94 114.62 158.051 115.059 158.051ZM120.447 150.375V158.791H119.462V150.375H120.447ZM123.232 150.375V158.791H122.249V150.375H123.232ZM127.635 158.922C127.057 158.922 126.55 158.787 126.114 158.515C125.674 158.237 125.321 157.842 125.097 157.377C124.855 156.889 124.734 156.32 124.734 155.667C124.734 155.011 124.855 154.436 125.097 153.946C125.341 153.455 125.681 153.075 126.114 152.804C126.55 152.533 127.057 152.397 127.635 152.397C128.213 152.397 128.719 152.532 129.153 152.804C129.595 153.081 129.949 153.477 130.17 153.946C130.415 154.436 130.537 155.011 130.537 155.667C130.537 156.319 130.415 156.889 130.17 157.377C129.947 157.844 129.594 158.239 129.153 158.515C128.719 158.787 128.213 158.922 127.635 158.922ZM127.635 158.051C128.075 158.051 128.437 157.94 128.719 157.719C129.003 157.497 129.213 157.205 129.349 156.843C129.488 156.466 129.557 156.068 129.554 155.667C129.554 155.246 129.485 154.853 129.349 154.488C129.226 154.142 129.008 153.836 128.719 153.605C128.437 153.38 128.075 153.267 127.635 153.267C127.196 153.267 126.835 153.38 126.551 153.605C126.263 153.837 126.045 154.142 125.922 154.488C125.784 154.866 125.714 155.266 125.718 155.667C125.718 156.09 125.786 156.481 125.922 156.844C126.058 157.205 126.269 157.497 126.551 157.719C126.835 157.94 127.196 158.051 127.635 158.051ZM136.074 156.209V152.48H137.059V158.791H136.074V157.722H136.008C135.851 158.051 135.61 158.333 135.307 158.54C134.99 158.762 134.59 158.873 134.107 158.873C133.707 158.873 133.351 158.786 133.04 158.614C132.72 158.43 132.464 158.155 132.306 157.826C132.128 157.472 132.039 157.026 132.039 156.49V152.479H133.023V156.423C133.023 156.884 133.154 157.251 133.415 157.525C133.679 157.8 134.015 157.936 134.424 157.936C134.668 157.936 134.917 157.875 135.17 157.751C135.426 157.628 135.64 157.439 135.812 157.184C135.987 156.93 136.074 156.604 136.074 156.209ZM141.646 152.48V153.301H138.327V152.48H141.646ZM139.294 150.967H140.278V156.983C140.278 157.257 140.318 157.462 140.399 157.6C140.47 157.723 140.582 157.818 140.715 157.87C140.847 157.914 140.985 157.936 141.128 157.936C141.237 157.936 141.326 157.931 141.395 157.92L141.562 157.886L141.762 158.758C141.671 158.789 141.577 158.814 141.482 158.832C141.333 158.862 141.181 158.876 141.029 158.873C140.751 158.873 140.478 158.815 140.212 158.696C139.947 158.578 139.719 158.392 139.552 158.158C139.38 157.917 139.294 157.612 139.294 157.246V150.967Z" fill="#A1A1A1"/>
<path d="M184.659 151.077H154.33C152.439 151.077 150.906 152.588 150.906 154.452C150.906 156.316 152.439 157.827 154.33 157.827H184.659C186.55 157.827 188.083 156.316 188.083 154.452C188.083 152.588 186.55 151.077 184.659 151.077Z" fill="#484848"/>
<path d="M317.222 121.666H301.569C297.246 121.666 293.742 125.12 293.742 129.38V144.809C293.742 149.069 297.246 152.523 301.569 152.523H317.222C321.545 152.523 325.049 149.069 325.049 144.809V129.38C325.049 125.12 321.545 121.666 317.222 121.666Z" fill="#484848"/>
<path d="M306.46 131.309L312.33 137.094L306.46 142.88" stroke="white" stroke-width="0.971281"/>
<path d="M332.876 100.451H27.6373C23.5844 100.451 20.2988 103.69 20.2988 107.684V166.506C20.2988 170.5 23.5844 173.739 27.6373 173.739H332.876C336.929 173.739 340.214 170.5 340.214 166.506V107.684C340.214 103.69 336.929 100.451 332.876 100.451Z" stroke="#484848" stroke-width="0.968367"/>
</g>
</g>
<g clip-path="url(#clip2_1_10293)">
<g clip-path="url(#clip3_1_10293)">
<path d="M332.876 13.001H27.6373C23.5844 13.001 20.2988 16.2393 20.2988 20.2341V79.0555C20.2988 83.0502 23.5844 86.2886 27.6373 86.2886H332.876C336.929 86.2886 340.214 83.0502 340.214 79.0555V20.2341C340.214 16.2393 336.929 13.001 332.876 13.001Z" fill="#303030"/>
<path d="M45.2619 28.4297H41.3192C38.3551 28.4297 35.9521 30.7981 35.9521 33.7198V37.6058C35.9521 40.5275 38.3551 42.8959 41.3192 42.8959H45.2619C48.2261 42.8959 50.629 40.5275 50.629 37.6058V33.7198C50.629 30.7981 48.2261 28.4297 45.2619 28.4297Z" fill="#29342B"/>
<path d="M45.2469 31.8057H41.3336C40.253 31.8057 39.377 32.6691 39.377 33.7342V37.5914C39.377 38.6565 40.253 39.5199 41.3336 39.5199H45.2469C46.3275 39.5199 47.2036 38.6565 47.2036 37.5914V33.7342C47.2036 32.6691 46.3275 31.8057 45.2469 31.8057Z" fill="#A2CEAD"/>
<path d="M45.2619 28.4297H41.3192C38.3551 28.4297 35.9521 30.7981 35.9521 33.7198V37.6058C35.9521 40.5275 38.3551 42.8959 41.3192 42.8959H45.2619C48.2261 42.8959 50.629 40.5275 50.629 37.6058V33.7198C50.629 30.7981 48.2261 28.4297 45.2619 28.4297Z" stroke="#3A523E" stroke-width="0.968367"/>
<path d="M61.4322 29.9346V40.966H60.0234V29.9346H61.4322ZM67.2797 32.8814C68.0623 32.8814 68.7041 33.1032 69.205 33.5449C69.7059 33.9769 69.9564 34.62 69.9564 35.4734V40.966H68.7041V35.782C68.7041 35.2372 68.5632 34.7994 68.2815 34.4706C67.9997 34.1311 67.5614 33.9614 66.9666 33.9614C66.2671 33.9614 65.6987 34.1572 65.2604 34.5477C64.8319 34.9382 64.6186 35.4426 64.6186 36.0597V40.966H63.3664V33.0974H64.6186V34.0386H64.6499C64.9004 33.7097 65.2448 33.4369 65.6831 33.2209C66.1213 32.9942 66.6536 32.8814 67.2797 32.8814ZM74.8764 36.2911C74.9703 36.3114 75.3303 36.3991 75.9565 36.5534C76.5924 36.6981 77.0776 36.9594 77.4122 37.3403C77.7458 37.7212 77.9131 38.2091 77.9131 38.806C77.9131 39.2785 77.7771 39.696 77.5061 40.0557C77.2342 40.4154 76.8585 40.6931 76.3791 40.8889C75.9095 41.0846 75.3714 41.182 74.7668 41.182C73.587 41.182 72.6947 40.9303 72.0901 40.426C71.4845 39.9217 71.1607 39.2274 71.1196 38.3431H72.3719C72.4237 38.888 72.6067 39.32 72.9197 39.6391C73.2426 39.9477 73.8589 40.102 74.7668 40.102C75.3929 40.102 75.8625 39.9786 76.1756 39.7317C76.4984 39.4742 76.6609 39.1917 76.6609 38.8831C76.6609 38.5746 76.5826 38.3335 76.4261 38.158C76.2773 37.9813 76.0824 37.848 75.8625 37.7723C75.552 37.6557 75.2327 37.5629 74.9077 37.4946L74.4694 37.402C74.3172 37.3698 74.1658 37.3338 74.0155 37.294C73.5643 37.2056 73.1198 37.087 72.6849 36.9391C72.339 36.8043 72.0324 36.587 71.7927 36.3066C71.552 36.0182 71.4327 35.6219 71.4327 35.1186C71.4327 34.7068 71.552 34.3317 71.7927 33.9923C72.0324 33.6529 72.3768 33.3848 72.8258 33.19C73.2856 32.9846 73.8169 32.8814 74.4224 32.8814C75.3714 32.8814 76.1228 33.1129 76.6765 33.5757C77.2293 34.0386 77.5374 34.6297 77.6 35.35H76.3478C76.2782 34.9746 76.0922 34.6296 75.8156 34.3626C75.5544 34.0955 75.0897 33.9614 74.4224 33.9614C73.8687 33.9614 73.4412 34.0588 73.1389 34.2546C72.8356 34.4503 72.6849 34.7078 72.6849 35.026C72.6849 35.2729 72.7573 35.4686 72.9041 35.6123C73.0508 35.7569 73.2328 35.864 73.4519 35.9363C73.6809 36.0086 73.9998 36.0906 74.4068 36.1831L74.8764 36.2911ZM80.8833 34.1774V38.914C80.8833 39.2843 80.9714 39.5408 81.1494 39.6854C81.3265 39.8301 81.619 39.9014 82.026 39.9014C82.2031 39.9014 82.344 39.8966 82.4486 39.886V40.966C82.1399 41.0304 81.825 41.0615 81.5094 41.0586C80.9146 41.0586 80.4499 40.9091 80.1163 40.6111C79.7935 40.3122 79.6311 39.7886 79.6311 39.0374V34.1774H78.4571V33.0974H79.6311V30.4746H80.8833V33.0974H82.4486V34.1774H80.8833ZM88.6414 35.1031C88.6414 34.3414 88.0994 33.9614 87.0135 33.9614C86.2621 33.9614 85.7358 34.08 85.4325 34.3163C85.1302 34.5525 84.958 34.9595 84.916 35.5351H83.6637C83.7058 34.7222 83.9983 34.0791 84.5403 33.6066C85.0833 33.1235 85.908 32.8814 87.0135 32.8814C87.8695 32.8814 88.5632 33.0772 89.0954 33.4677C89.6276 33.8486 89.8937 34.4802 89.8937 35.3654V39.1917C89.8937 39.5003 89.9358 39.7269 90.0189 39.8706C90.1128 40.0046 90.2958 40.0711 90.5668 40.0711C90.6607 40.0711 90.739 40.0663 90.8016 40.0557V40.9197C90.5647 40.9997 90.3163 41.0414 90.0659 41.0431C89.6697 41.0431 89.3566 40.9708 89.1267 40.8271C88.9075 40.6729 88.7461 40.3903 88.6414 39.9786H88.6101C88.3389 40.3677 87.9656 40.677 87.5301 40.8734C87.082 41.0788 86.539 41.182 85.9021 41.182C85.0989 41.182 84.4571 40.9766 83.9768 40.5649C83.5072 40.1531 83.2724 39.6131 83.2724 38.9449C83.2724 38.3692 83.4084 37.9111 83.6794 37.5717C83.9513 37.2323 84.3211 36.9748 84.7907 36.8003C85.2711 36.6151 85.9021 36.4502 86.6848 36.3066C87.0758 36.2418 87.4626 36.1542 87.8431 36.0443C88.1043 35.9623 88.3029 35.8485 88.4379 35.7049C88.5739 35.5602 88.6414 35.3606 88.6414 35.1031ZM86.0273 40.102C86.81 40.102 87.442 39.9217 87.9214 39.562C88.4018 39.1917 88.6414 38.6459 88.6414 37.9266V36.6151C88.4331 36.8205 87.8177 37.0269 86.7944 37.2323C85.9804 37.4068 85.3963 37.6132 85.0412 37.8494C84.6968 38.0857 84.5246 38.4309 84.5246 38.8831C84.5246 39.696 85.0255 40.102 86.0273 40.102ZM95.6511 32.8814C96.4338 32.8814 97.0756 33.1032 97.5765 33.5449C98.0774 33.9769 98.3279 34.62 98.3279 35.4734V40.966H97.0756V35.782C97.0756 35.2372 96.9347 34.7994 96.653 34.4706C96.3712 34.1311 95.9329 33.9614 95.3381 33.9614C94.6386 33.9614 94.0702 34.1572 93.6319 34.5477C93.2034 34.9382 92.9901 35.4426 92.9901 36.0597V40.966H91.7378V33.0974H92.9901V34.0386H93.0214C93.2719 33.7097 93.6162 33.4369 94.0545 33.2209C94.4928 32.9942 95.025 32.8814 95.6511 32.8814ZM105.674 35.9363C105.633 35.4239 105.418 34.9401 105.064 34.5631C104.698 34.162 104.15 33.9614 103.42 33.9614C102.543 33.9614 101.886 34.2652 101.448 34.8717C101.019 35.4792 100.806 36.1986 100.806 37.0317C100.806 37.8649 101.019 38.5842 101.448 39.1917C101.886 39.7992 102.543 40.102 103.42 40.102C104.161 40.102 104.708 39.9014 105.064 39.5003C105.429 39.0991 105.632 38.6209 105.674 38.0654H106.926C106.904 38.6323 106.728 39.183 106.417 39.6604C106.106 40.1379 105.671 40.5247 105.158 40.7809C104.646 41.048 104.067 41.182 103.42 41.182C102.647 41.182 101.969 41.0075 101.385 40.6574C100.799 40.3062 100.327 39.7978 100.023 39.1917C99.7102 38.5649 99.5537 37.8446 99.5537 37.0317C99.5537 36.2188 99.7102 35.4985 100.023 34.8717C100.327 34.2656 100.799 33.7572 101.385 33.406C101.969 33.056 102.647 32.8814 103.42 32.8814C104.067 32.8814 104.641 33.0155 105.142 33.2826C105.653 33.54 106.06 33.8997 106.363 34.3626C106.676 34.8254 106.864 35.35 106.926 35.9363H105.674ZM111.522 40.102C112.231 40.102 112.774 39.9381 113.149 39.6083C113.525 39.2795 113.76 38.9236 113.854 38.5437H115.106C114.907 39.2933 114.475 39.9624 113.87 40.4569C113.275 40.94 112.508 41.182 111.569 41.182C110.775 41.182 110.081 41.0123 109.487 40.6729C108.903 40.3237 108.435 39.8144 108.14 39.2071C107.827 38.5804 107.671 37.8542 107.671 37.0317C107.671 35.7357 108.015 34.7222 108.704 33.9923C109.393 33.2517 110.326 32.8814 111.506 32.8814C112.737 32.8814 113.666 33.272 114.292 34.054C114.918 34.8351 115.231 35.9363 115.231 37.3557H108.923C108.923 37.8494 109.022 38.3075 109.221 38.7289C109.418 39.1406 109.711 39.4742 110.097 39.7317C110.493 39.9786 110.968 40.102 111.522 40.102ZM111.506 33.9614C111.015 33.9614 110.572 34.0646 110.175 34.27C109.797 34.4679 109.479 34.7606 109.252 35.1186C109.033 35.4659 108.919 35.8671 108.923 36.2757H113.979C113.979 35.8543 113.874 35.4686 113.666 35.1186C113.469 34.7594 113.17 34.4646 112.805 34.27C112.429 34.0646 111.996 33.9614 111.506 33.9614ZM122.939 30.3049V40.966H121.53V32.9894C121.228 33.2671 120.919 33.4426 120.606 33.514C120.304 33.5757 119.86 33.6066 119.276 33.6066V32.6037C120.163 32.6037 120.789 32.4137 121.154 32.0329C121.53 31.6423 121.76 31.0657 121.843 30.3049H122.939Z" fill="white"/>
<path d="M66.8489 65.5549H65.8148C65.7101 65.017 65.398 64.5401 64.9441 64.2242C64.7279 64.0693 64.4864 63.9522 64.2299 63.878C63.9648 63.8008 63.6896 63.7622 63.413 63.7632C62.8965 63.7632 62.4279 63.8925 62.0082 64.149C61.5914 64.4074 61.2597 64.7864 61.0122 65.2878C60.7676 65.7892 60.6454 66.4044 60.6454 67.1325C60.6454 67.8615 60.7676 68.4767 61.0122 68.9781C61.2597 69.4795 61.5914 69.8585 62.0082 70.116C62.4288 70.3734 62.8965 70.5017 63.413 70.5017C63.6968 70.5017 63.9687 70.4631 64.2299 70.3869C64.4912 70.3098 64.7289 70.197 64.9441 70.0465C65.3955 69.7261 65.7067 69.2488 65.8148 68.711H66.8479C66.7788 69.118 66.6349 69.5091 66.4234 69.8652C66.0211 70.5366 65.3809 71.0374 64.6262 71.2712C64.2485 71.3936 63.8435 71.4554 63.413 71.4554C62.6852 71.4554 62.0375 71.2808 61.4701 70.9298C60.9027 70.5788 60.4575 70.0812 60.1327 69.4342C59.8069 68.7881 59.6436 68.0206 59.6436 67.1325C59.6436 66.2453 59.8069 65.4777 60.1327 64.8317C60.4575 64.1856 60.9036 63.6861 61.4701 63.3361C62.0375 62.9851 62.6852 62.8096 63.413 62.8096C63.8435 62.8096 64.2485 62.8713 64.6262 62.9947C65.0077 63.1181 65.3501 63.2994 65.6563 63.5376C65.9616 63.7729 66.2179 64.0603 66.4234 64.4006C66.6288 64.7372 66.7707 65.1219 66.8479 65.5549H66.8489ZM72.4215 68.7602V65.0284H73.4057V71.3406H72.4215V70.2722H72.3549C72.1982 70.6005 71.9566 70.8825 71.6545 71.0899C71.3375 71.3117 70.9374 71.4226 70.4541 71.4226C70.0529 71.4226 69.6978 71.3358 69.3867 71.1641C69.0672 70.98 68.8114 70.7051 68.653 70.3754C68.4749 70.0215 68.3859 69.576 68.3859 69.0398V65.0284H69.3701V68.9733C69.3701 69.4342 69.5002 69.8006 69.7614 70.0745C70.0256 70.3493 70.3621 70.4862 70.7701 70.4862C71.0146 70.4862 71.2641 70.4245 71.5165 70.3011C71.7728 70.1777 71.9861 69.9887 72.1593 69.7341C72.3334 69.4795 72.4215 69.1546 72.4215 68.7602ZM75.2077 71.3406V65.0294H76.1577V65.9821H76.2242C76.3416 65.6696 76.5529 65.416 76.8582 65.2222C77.1663 65.0269 77.5259 64.9252 77.8923 64.93C78.0646 64.9314 78.2368 64.9368 78.4088 64.9464V65.9329C78.333 65.9177 78.2567 65.9055 78.1799 65.8962C78.0625 65.877 77.9392 65.8673 77.8081 65.8673C77.498 65.8673 77.2192 65.9319 76.9746 66.0602C76.735 66.1809 76.5345 66.3654 76.3959 66.5928C76.2574 66.8202 76.1864 67.0813 76.191 67.3465V71.3406H75.2077ZM79.575 71.3406V65.0294H80.5259V65.9821H80.5925C80.7121 65.6663 80.9352 65.3989 81.2264 65.2222C81.5345 65.0269 81.8942 64.9252 82.2605 64.93C82.4328 64.9314 82.605 64.9368 82.7771 64.9464V65.9329C82.7013 65.9177 82.6249 65.9055 82.5481 65.8962C82.4307 65.877 82.3075 65.8673 82.1764 65.8673C81.8653 65.8673 81.5874 65.9319 81.3428 66.0602C81.1032 66.1809 80.9027 66.3654 80.7642 66.5928C80.6256 66.8202 80.5546 67.0813 80.5592 67.3465V71.3406H79.575ZM86.4331 71.4718C85.8167 71.4718 85.2845 71.3377 84.8364 71.0696C84.3903 70.7966 84.0331 70.403 83.8072 69.9356C83.5675 69.4477 83.4482 68.8807 83.4482 68.2337C83.4482 67.5876 83.5675 67.0177 83.8072 66.525C84.0274 66.0536 84.3767 65.6521 84.8159 65.3659C85.2493 65.0862 85.7551 64.9464 86.3333 64.9464C86.6696 64.9467 87.0035 65.0021 87.3214 65.1104C87.6462 65.2203 87.9426 65.3996 88.2097 65.6455C88.4758 65.8895 88.6891 66.2125 88.8476 66.6146C89.0061 67.0177 89.0853 67.5134 89.0853 68.1025V68.5133H84.1487V67.6744H88.0845C88.0845 67.3195 88.0121 67.0013 87.8673 66.7217C87.7318 66.449 87.5208 66.2197 87.2588 66.0602C86.9801 65.894 86.6589 65.81 86.3333 65.8181C85.9419 65.8181 85.6025 65.9146 85.3158 66.1055C85.0354 66.2909 84.8096 66.5461 84.6613 66.8451C84.5086 67.149 84.4302 67.4838 84.4324 67.8229V68.3822C84.4324 68.8585 84.5155 69.2626 84.6828 69.5943C84.8521 69.9221 85.0869 70.1729 85.3872 70.3464C85.7071 70.5212 86.0684 70.609 86.434 70.601C86.6923 70.601 86.9252 70.5653 87.1335 70.4949C87.3449 70.4197 87.5268 70.3107 87.6804 70.1651C87.833 70.0176 87.9504 69.8344 88.0346 69.6155L88.9845 69.8778C88.8847 70.196 88.7165 70.4756 88.4807 70.7167C88.2439 70.9539 87.9524 71.141 87.6051 71.275C87.23 71.4112 86.8327 71.4779 86.4331 71.4718ZM91.5654 67.5432V71.3406H90.5812V65.0294H91.5321V66.0149H91.6153C91.7659 65.6947 91.9939 65.4363 92.3001 65.2434C92.6053 65.0457 92.9996 64.9464 93.4839 64.9464C93.9163 64.9464 94.2959 65.0342 94.6217 65.2097C94.9465 65.3823 95.1989 65.6455 95.3799 65.9985C95.5608 66.3495 95.6508 66.793 95.6508 67.3292V71.3406H94.6676V67.3967C94.6676 66.9001 94.5365 66.5134 94.2753 66.2366C94.0141 65.957 93.656 65.8181 93.1992 65.8181C92.8861 65.8181 92.6053 65.8856 92.3578 66.0187C92.1132 66.1537 91.9195 66.3495 91.7777 66.6069C91.6358 66.8644 91.5654 67.1759 91.5654 67.5432ZM100.233 65.0294V65.8509H96.9158V65.0294H100.233ZM97.8824 63.5164H98.8666V69.5326C98.8666 69.8064 98.9067 70.0118 98.9869 70.1497C99.058 70.2729 99.1699 70.3683 99.3039 70.4197C99.435 70.4641 99.572 70.4862 99.7168 70.4862C99.8244 70.4862 99.9144 70.4805 99.9839 70.4699L100.15 70.4361L100.351 71.3078C100.259 71.3392 100.166 71.364 100.071 71.3821C99.9216 71.4121 99.7694 71.4257 99.617 71.4226C99.3391 71.4226 99.0662 71.3647 98.8001 71.2461C98.5354 71.1281 98.3077 70.9423 98.1407 70.708C97.9685 70.467 97.8824 70.1622 97.8824 69.7958V63.5164ZM105.15 71.3406V62.9253H108.035C108.702 62.9253 109.25 63.0371 109.677 63.2628C110.106 63.4846 110.423 63.7893 110.628 64.1789C110.833 64.5675 110.937 65.0101 110.937 65.5057C110.937 66.0014 110.833 66.4411 110.628 66.8249C110.423 67.2086 110.108 67.5095 109.682 67.7284C109.256 67.9454 108.713 68.0534 108.052 68.0534H105.717V67.1325H108.018C108.474 67.1325 108.841 67.0669 109.119 66.9357C109.38 66.8218 109.595 66.6249 109.728 66.3765C109.855 66.1325 109.92 65.8423 109.92 65.5057C109.92 65.1682 109.855 64.8741 109.728 64.6224C109.595 64.3659 109.379 64.1605 109.115 64.039C108.834 63.8992 108.463 63.8288 108.001 63.8288H106.184V71.3406H105.15ZM109.169 67.5606L111.269 71.3406H110.068L108 67.5606H109.169ZM115.059 71.4718C114.481 71.4718 113.973 71.3367 113.538 71.0648C113.097 70.7865 112.745 70.3924 112.52 69.927C112.278 69.439 112.157 68.8701 112.157 68.2173C112.157 67.5606 112.278 66.9859 112.519 66.496C112.743 66.0287 113.096 65.6328 113.537 65.3534C113.974 65.0824 114.481 64.9464 115.059 64.9464C115.636 64.9464 116.143 65.0814 116.576 65.3534C117.013 65.6243 117.352 66.0052 117.594 66.496C117.838 66.9859 117.961 67.5606 117.961 68.2173C117.961 68.8691 117.838 69.439 117.594 69.927C117.352 70.4149 117.013 70.7948 116.576 71.0648C116.143 71.3367 115.637 71.4718 115.059 71.4718ZM115.059 70.601C115.498 70.601 115.859 70.4901 116.143 70.2683C116.427 70.0465 116.636 69.7544 116.772 69.3927C116.909 69.0311 116.977 68.6396 116.977 68.2173C116.977 67.7959 116.909 67.4025 116.772 67.038C116.649 66.692 116.431 66.3862 116.143 66.1547C115.859 65.93 115.497 65.8172 115.059 65.8172C114.62 65.8172 114.259 65.93 113.975 66.1547C113.691 66.3794 113.482 66.6735 113.346 67.038C113.207 67.4159 113.137 67.8153 113.14 68.2173C113.14 68.6396 113.209 69.0311 113.346 69.3937C113.482 69.7544 113.691 70.0465 113.975 70.2683C114.259 70.4901 114.62 70.601 115.059 70.601ZM120.447 62.9253V71.3406H119.462V62.9253H120.447ZM123.232 62.9253V71.3406H122.249V62.9253H123.232ZM127.635 71.4718C127.057 71.4718 126.55 71.3367 126.114 71.0648C125.674 70.7864 125.321 70.3923 125.097 69.927C124.855 69.439 124.734 68.8701 124.734 68.2173C124.734 67.5606 124.855 66.9859 125.097 66.496C125.341 66.0052 125.681 65.6243 126.114 65.3534C126.55 65.0824 127.057 64.9464 127.635 64.9464C128.213 64.9464 128.719 65.0814 129.153 65.3534C129.595 65.6307 129.949 66.0272 130.17 66.496C130.415 66.9859 130.537 67.5606 130.537 68.2173C130.537 68.8691 130.415 69.439 130.17 69.927C129.947 70.3937 129.594 70.7883 129.153 71.0648C128.719 71.3367 128.213 71.4718 127.635 71.4718ZM127.635 70.601C128.075 70.601 128.437 70.4901 128.719 70.2683C129.003 70.0465 129.213 69.7544 129.349 69.3927C129.488 69.0161 129.557 68.618 129.554 68.2173C129.554 67.7959 129.485 67.4025 129.349 67.038C129.226 66.6918 129.008 66.3861 128.719 66.1547C128.437 65.93 128.075 65.8172 127.635 65.8172C127.196 65.8172 126.835 65.93 126.551 66.1547C126.263 66.3864 126.045 66.692 125.922 67.038C125.784 67.416 125.714 67.8153 125.718 68.2173C125.718 68.6396 125.786 69.0311 125.922 69.3937C126.058 69.7544 126.269 70.0465 126.551 70.2683C126.835 70.4901 127.196 70.601 127.635 70.601ZM136.074 68.7592V65.0294H137.059V71.3406H136.074V70.2722H136.008C135.851 70.6006 135.61 70.8826 135.307 71.0899C134.99 71.3117 134.59 71.4226 134.107 71.4226C133.707 71.4226 133.351 71.3358 133.04 71.1641C132.72 70.9799 132.464 70.705 132.306 70.3754C132.128 70.0215 132.039 69.576 132.039 69.0398V65.0284H133.023V68.9733C133.023 69.4342 133.154 69.8006 133.415 70.0745C133.679 70.3493 134.015 70.4862 134.424 70.4862C134.668 70.4862 134.917 70.4245 135.17 70.3011C135.426 70.1777 135.64 69.9887 135.812 69.7341C135.987 69.4795 136.074 69.1536 136.074 68.7592ZM141.646 65.0294V65.8509H138.327V65.0294H141.646ZM139.294 63.5164H140.278V69.5326C140.278 69.8064 140.318 70.0118 140.399 70.1497C140.47 70.2727 140.582 70.3681 140.715 70.4197C140.847 70.4641 140.985 70.4862 141.128 70.4862C141.237 70.4862 141.326 70.4805 141.395 70.4699L141.562 70.4361L141.762 71.3078C141.671 71.3393 141.577 71.3641 141.482 71.3821C141.333 71.4121 141.181 71.4257 141.029 71.4226C140.751 71.4226 140.478 71.3647 140.212 71.2461C139.947 71.1281 139.719 70.9423 139.552 70.708C139.38 70.467 139.294 70.1622 139.294 69.7958V63.5164Z" fill="#A1A1A1"/>
<path d="M208.138 63.627H154.33C152.439 63.627 150.906 65.138 150.906 67.002C150.906 68.8659 152.439 70.377 154.33 70.377H208.138C210.029 70.377 211.562 68.8659 211.562 67.002C211.562 65.138 210.029 63.627 208.138 63.627Z" fill="#484848"/>
<path d="M317.222 34.2158H301.569C297.246 34.2158 293.742 37.6696 293.742 41.9301V57.3587C293.742 61.6192 297.246 65.073 301.569 65.073H317.222C321.545 65.073 325.049 61.6192 325.049 57.3587V41.9301C325.049 37.6696 321.545 34.2158 317.222 34.2158Z" fill="#484848"/>
<path d="M306.46 43.8584L312.33 49.6441L306.46 55.4298" stroke="white" stroke-width="0.971281"/>
<path d="M332.876 13.001H27.6373C23.5844 13.001 20.2988 16.2393 20.2988 20.2341V79.0555C20.2988 83.0502 23.5844 86.2886 27.6373 86.2886H332.876C336.929 86.2886 340.214 83.0502 340.214 79.0555V20.2341C340.214 16.2393 336.929 13.001 332.876 13.001Z" stroke="#484848" stroke-width="0.968367"/>
</g>
</g>
<defs>
<clipPath id="clip0_1_10293">
<rect width="320.891" height="74.25" fill="white" transform="translate(19.8105 99.9697)"/>
</clipPath>
<clipPath id="clip1_1_10293">
<rect width="320.891" height="74.25" fill="white" transform="translate(19.8105 99.9697)"/>
</clipPath>
<clipPath id="clip2_1_10293">
<rect width="320.891" height="74.25" fill="white" transform="translate(19.8105 12.5195)"/>
</clipPath>
<clipPath id="clip3_1_10293">
<rect width="320.891" height="74.25" fill="white" transform="translate(19.8105 12.5195)"/>
</clipPath>
</defs>
</svg>
