<svg width="107" height="28" viewBox="0 0 107 28" fill="none" xmlns="http://www.w3.org/2000/svg">
<g clip-path="url(#clip0_20_115)">
<g clip-path="url(#clip1_20_115)">
<g clip-path="url(#clip2_20_115)">
<path d="M49.1944 9.61157V11.8359C48.2338 10.3152 46.6101 9.33921 44.5746 9.33921C41.3498 9.33921 38.6738 11.9266 38.6738 15.2857C38.6738 18.6448 41.3498 21.2322 44.5746 21.2322C46.6101 21.2322 48.2338 20.2563 49.1944 18.7356V20.5059C49.1944 22.8209 47.6164 24.3189 44.9633 24.3189C42.4933 24.3189 41.4412 23.411 40.8694 22.2535L39.543 23.0025C40.4349 24.7728 42.3332 25.7715 44.9633 25.7715C47.9137 25.7715 50.7039 23.9557 50.7039 20.5059V9.61157H49.1944ZM44.6889 19.7796C42.1502 19.7796 40.1833 17.805 40.1833 15.2857C40.1833 12.7664 42.1502 10.7918 44.6889 10.7918C47.2275 10.7918 49.1944 12.7664 49.1944 15.2857C49.1944 17.805 47.2275 19.7796 44.6889 19.7796ZM59.2288 21.2322C62.568 21.2322 65.2438 18.6448 65.2438 15.2857C65.2438 11.9266 62.568 9.33921 59.2288 9.33921C55.8897 9.33921 53.2138 11.9266 53.2138 15.2857C53.2138 18.6448 55.8897 21.2322 59.2288 21.2322ZM59.2288 19.7796C56.6901 19.7796 54.7233 17.805 54.7233 15.2857C54.7233 12.7664 56.6901 10.7918 59.2288 10.7918C61.7675 10.7918 63.7343 12.7664 63.7343 15.2857C63.7343 17.805 61.7675 19.7796 59.2288 19.7796ZM73.0987 21.2322C76.4378 21.2322 79.1138 18.6448 79.1138 15.2857C79.1138 11.9266 76.4378 9.33921 73.0987 9.33921C69.7596 9.33921 67.0837 11.9266 67.0837 15.2857C67.0837 18.6448 69.7596 21.2322 73.0987 21.2322ZM73.0987 19.7796C70.5601 19.7796 68.5932 17.805 68.5932 15.2857C68.5932 12.7664 70.5601 10.7918 73.0987 10.7918C75.6374 10.7918 77.6043 12.7664 77.6043 15.2857C77.6043 17.805 75.6374 19.7796 73.0987 19.7796ZM91.474 5.07227V11.8359C90.5134 10.3152 88.8896 9.33921 86.8541 9.33921C83.6293 9.33921 80.9537 11.9266 80.9537 15.2857C80.9537 18.6448 83.6293 21.2322 86.8541 21.2322C88.8896 21.2322 90.5134 20.2563 91.474 18.7356V20.9598H92.9834V5.07227H91.474ZM86.9684 19.7796C84.4298 19.7796 82.4631 17.805 82.4631 15.2857C82.4631 12.7664 84.4298 10.7918 86.9684 10.7918C89.5071 10.7918 91.474 12.7664 91.474 15.2857C91.474 17.805 89.5071 19.7796 86.9684 19.7796ZM104.413 9.61157L100.708 19.1214L96.4084 9.61157H94.8074L99.9305 21.0279L99.6332 21.7315C99.0156 23.2067 97.9864 24.2508 96.4999 24.0919V25.4991C98.5583 25.658 100.251 24.1827 101.119 22.0038L106.014 9.61157H104.413Z" fill="#36364A"/>
<path d="M17.0288 0.737108C17.0288 0.347278 16.7129 0.03125 16.323 0.03125C15.9331 0.03125 15.6172 0.347278 15.6172 0.737108V4.97229C15.6172 5.36207 15.9331 5.67809 16.323 5.67809C16.7129 5.67809 17.0288 5.36207 17.0288 4.97229V0.737108Z" fill="#36364A"/>
<path d="M6.04288 12.7877C6.24024 12.4499 6.12311 12.0182 5.78134 11.8234L2.06812 9.70598C1.72632 9.51111 1.28928 9.6268 1.09195 9.96424C0.894621 10.302 1.01172 10.7336 1.35351 10.9285L5.06673 13.0459C5.4085 13.2408 5.84552 13.1253 6.04288 12.7877Z" fill="#36364A"/>
<path d="M25.7071 3.32204C25.9019 2.9802 25.7864 2.54326 25.4487 2.34581C25.1111 2.14855 24.6795 2.26564 24.4845 2.60748L22.3671 6.3206C22.1723 6.66244 22.2879 7.09952 22.6255 7.29682C22.9631 7.49413 23.3948 7.37699 23.5897 7.0353L25.7071 3.32204Z" fill="#36364A"/>
<path d="M10.0209 7.29682C10.3586 7.09952 10.4742 6.66244 10.2794 6.3206L8.16195 2.60749C7.96702 2.26565 7.53538 2.14854 7.19782 2.34582C6.8601 2.54327 6.74456 2.9802 6.93935 3.32204L9.05679 7.0353C9.25172 7.37699 9.68336 7.49413 10.0209 7.29682Z" fill="#36364A"/>
<path d="M31.293 10.9285C31.6348 10.7336 31.752 10.302 31.5546 9.96424C31.3572 9.6268 30.9202 9.51111 30.5784 9.70598L26.8652 11.8234C26.5235 12.0182 26.4063 12.4499 26.6037 12.7877C26.8011 13.1253 27.238 13.2408 27.5798 13.0459L31.293 10.9285Z" fill="#36364A"/>
<path d="M22.924 21.2025V27.0327C22.924 27.47 22.6306 27.7615 22.1906 27.7615H10.4569C10.0168 27.7615 9.72352 27.47 9.72352 27.0327V21.2025H15.5904V27.7615H17.0572V21.2025H22.924ZM15.5904 16.1011H8.99026C8.55018 16.1011 8.25684 16.3927 8.25684 16.8299V19.0162C8.25684 19.4535 8.55018 19.745 8.99026 19.745H15.5904V16.1011ZM23.6572 16.1011H17.0572V19.745H23.6572C24.0974 19.745 24.3907 19.4535 24.3907 19.0162V16.8299C24.3907 16.3927 24.0974 16.1011 23.6572 16.1011ZM21.5306 15.2995L21.6039 15.008C21.8973 14.2792 21.824 13.4047 21.3839 12.7489C20.944 12.0929 20.1372 11.7285 19.3306 11.7285C18.3038 11.7285 17.4238 12.3115 17.0572 13.259L15.5904 16.8299H19.2573C20.2106 16.8299 21.1638 16.2468 21.5306 15.2995ZM18.4505 13.769C18.5971 13.4047 18.9639 13.186 19.3306 13.186C19.6239 13.186 19.9173 13.3318 20.1372 13.6234C20.2839 13.9148 20.3573 14.2063 20.2106 14.4979L20.1372 14.7893C19.9905 15.1537 19.6239 15.3723 19.2573 15.3723H17.7905L18.4505 13.769ZM15.5904 13.259C15.2238 12.3115 14.2704 11.7285 13.317 11.7285C12.5103 11.7285 11.7035 12.0929 11.2636 12.8217C10.8236 13.4775 10.7503 14.2792 11.0436 15.0809L11.1169 15.3723C11.4837 16.2468 12.437 16.8299 13.3904 16.8299H16.9837L15.5904 13.259ZM14.1969 13.769L14.8571 15.3723H13.3904C13.0237 15.3723 12.657 15.1537 12.5103 14.7893L12.3637 14.4979C12.2904 14.2063 12.2904 13.842 12.5103 13.6234C12.657 13.3318 12.9504 13.186 13.317 13.186C13.6837 13.186 14.0504 13.4047 14.1969 13.769Z" fill="#36364A"/>
</g>
</g>
</g>
<defs>
<clipPath id="clip0_20_115">
<rect width="106" height="27.73" fill="white" transform="translate(0.980469 0.03125)"/>
</clipPath>
<clipPath id="clip1_20_115">
<rect width="106" height="27.73" fill="white" transform="translate(0.980469 0.03125)"/>
</clipPath>
<clipPath id="clip2_20_115">
<rect width="105.968" height="27.73" fill="white" transform="translate(0.996094 0.03125)"/>
</clipPath>
</defs>
</svg>
