<svg width="108" height="23" viewBox="0 0 108 23" fill="none" xmlns="http://www.w3.org/2000/svg">
<g clip-path="url(#clip0_20_125)">
<g clip-path="url(#clip1_20_125)">
<g clip-path="url(#clip2_20_125)">
<path d="M54.7651 18.5921H57.7753L61.1864 9.40918H61.2242L64.616 18.5921H67.6649L71.0185 5.25586H68.0461L65.7783 14.4769H65.7405L62.5008 5.25586H59.9288L56.6896 14.4769H56.6513L54.4029 5.25586H51.4111L54.7651 18.5921Z" fill="#36364A"/>
<path d="M71.873 18.5915H74.6929V13.1998C74.6929 11.7328 75.7986 10.723 77.4369 10.723C79.0756 10.723 80.0663 11.6566 80.0663 13.1998V18.5915H82.8867V12.8187C82.8867 10.0944 80.9428 8.2082 78.0465 8.2082C76.7128 8.2082 75.5694 8.6464 74.7312 9.44658H74.6929V4.68359H71.873V18.5915Z" fill="#36364A"/>
<path d="M89.591 18.8781C92.9251 18.8781 95.2878 16.5538 95.2878 13.5435C95.2878 10.5333 92.9251 8.20898 89.591 8.20898C86.2752 8.20898 83.8936 10.5333 83.8936 13.5435C83.8936 16.5538 86.2752 18.8781 89.591 18.8781ZM89.591 16.4013C87.8379 16.4013 86.7135 15.182 86.7135 13.5435C86.7135 11.9051 87.8379 10.6857 89.591 10.6857C91.344 10.6857 92.4679 11.9051 92.4679 13.5435C92.4679 15.182 91.344 16.4013 89.591 16.4013Z" fill="#36364A"/>
<path d="M96.3408 22.879H99.1607V17.8112H99.1989C99.8469 18.4399 101.105 18.8781 102.362 18.8781C105.354 18.8781 107.583 16.5918 107.583 13.5435C107.583 10.5143 105.335 8.20898 102.343 8.20898C101.047 8.20898 99.8658 8.59 99.0846 9.39018H99.0464V8.49475H96.3408V22.879ZM101.924 16.4013C100.361 16.4013 99.1607 15.3916 99.1607 14.1723V12.8958C99.1607 11.7146 100.418 10.7048 101.905 10.7048C103.601 10.7048 104.763 11.8479 104.763 13.5435C104.763 15.2392 103.582 16.4013 101.924 16.4013Z" fill="#36364A"/>
<path fill-rule="evenodd" clip-rule="evenodd" d="M45.8227 4.3398C42.0131 0.543357 35.8518 0.548197 32.048 4.35432L16.6434 19.7006C20.822 23.3606 27.1527 23.2124 31.09 19.2726L45.9118 4.44156L45.8227 4.3398ZM16.1821 4.42429C19.9907 0.613318 26.1629 0.613318 29.9714 4.42429L30.0872 4.54011L15.8079 18.8283L8.79753 11.8135L16.1821 4.42429ZM7.91043 10.9295L0.916016 3.99274C4.74638 0.6192 10.5868 0.763049 14.2457 4.42429L14.3594 4.53799L7.91043 10.9295Z" fill="#36364A"/>
</g>
</g>
</g>
<defs>
<clipPath id="clip0_20_125">
<rect width="107" height="22" fill="white" transform="translate(0.69043 0.910156)"/>
</clipPath>
<clipPath id="clip1_20_125">
<rect width="107" height="22" fill="white" transform="translate(0.69043 0.910156)"/>
</clipPath>
<clipPath id="clip2_20_125">
<rect width="107" height="22" fill="white" transform="translate(0.69043 0.910156)"/>
</clipPath>
</defs>
</svg>
