<svg width="472" height="209" viewBox="0 0 472 209" fill="none" xmlns="http://www.w3.org/2000/svg">
<g clip-path="url(#clip0_1_10407)">
<g clip-path="url(#clip1_1_10407)">
<g clip-path="url(#clip2_1_10407)">
<path d="M584.59 75.2119H95.7569C89.4336 75.2119 84.3076 80.273 84.3076 86.5162V117.972C84.3076 124.215 89.4336 129.276 95.7569 129.276H584.59C590.913 129.276 596.039 124.215 596.039 117.972V86.5162C596.039 80.273 590.913 75.2119 584.59 75.2119Z" fill="#303030"/>
<path d="M584.59 75.2119H95.7569C89.4336 75.2119 84.3076 80.273 84.3076 86.5162V117.972C84.3076 124.215 89.4336 129.276 95.7569 129.276H584.59C590.913 129.276 596.039 124.215 596.039 117.972V86.5162C596.039 80.273 590.913 75.2119 584.59 75.2119Z" stroke="#484848" stroke-width="0.989274"/>
<path d="M127.615 87.0078H111.686C107.562 87.0078 104.219 90.3086 104.219 94.3803V110.108C104.219 114.18 107.562 117.481 111.686 117.481H127.615C131.739 117.481 135.082 114.18 135.082 110.108V94.3803C135.082 90.3086 131.739 87.0078 127.615 87.0078Z" fill="#484848"/>
<path d="M127.615 87.0078H111.686C107.562 87.0078 104.219 90.3086 104.219 94.3803V110.108C104.219 114.18 107.562 117.481 111.686 117.481H127.615C131.739 117.481 135.082 114.18 135.082 110.108V94.3803C135.082 90.3086 131.739 87.0078 127.615 87.0078Z" stroke="#585858" stroke-width="0.989274"/>
<path d="M116.664 109.125C116.664 109.125 113.677 106.832 113.677 102.244C113.677 97.6566 116.664 95.3633 116.664 95.3633M122.637 95.3633C122.637 95.3633 125.624 97.6566 125.624 102.244C125.624 106.832 122.637 109.125 122.637 109.125M121.89 99.951L117.41 104.538M117.41 99.951L121.89 104.538" stroke="#D8D8D8" stroke-width="0.989274" stroke-linecap="round" stroke-linejoin="round"/>
<path d="M346.147 87.0078H153.501C148.277 87.0078 144.043 91.1888 144.043 96.3463V108.142C144.043 113.3 148.277 117.481 153.501 117.481H346.147C351.37 117.481 355.605 113.3 355.605 108.142V96.3463C355.605 91.1888 351.37 87.0078 346.147 87.0078Z" fill="#303030"/>
<path d="M346.147 87.0078H153.501C148.277 87.0078 144.043 91.1888 144.043 96.3463V108.142C144.043 113.3 148.277 117.481 153.501 117.481H346.147C351.37 117.481 355.605 113.3 355.605 108.142V96.3463C355.605 91.1888 351.37 87.0078 346.147 87.0078Z" stroke="#484848" stroke-width="0.989274"/>
<path d="M156.117 98.3727V97.375H163.176V98.3727H160.217V106.669H159.076V98.3727H156.117ZM166.725 106.814C166.044 106.814 165.458 106.665 164.965 106.369C164.473 106.067 164.079 105.632 163.83 105.116C163.566 104.577 163.434 103.951 163.434 103.238C163.434 102.524 163.566 101.895 163.829 101.35C164.072 100.83 164.458 100.386 164.942 100.07C165.42 99.7617 165.977 99.6074 166.615 99.6074C166.983 99.6074 167.345 99.6674 167.704 99.7883C168.062 99.9102 168.389 100.107 168.682 100.378C168.977 100.648 169.211 101.005 169.386 101.45C169.561 101.895 169.648 102.442 169.648 103.092V103.546H164.206V102.62H168.545C168.545 102.227 168.465 101.876 168.306 101.568C168.157 101.267 167.924 101.014 167.635 100.837C167.328 100.653 166.974 100.56 166.615 100.569C166.183 100.569 165.808 100.675 165.494 100.887C165.184 101.091 164.935 101.373 164.772 101.703C164.603 102.039 164.516 102.409 164.519 102.784V103.401C164.519 103.928 164.611 104.374 164.795 104.74C164.982 105.103 165.241 105.38 165.571 105.57C165.902 105.757 166.287 105.851 166.725 105.851C167.01 105.851 167.267 105.812 167.497 105.733C167.722 105.656 167.927 105.532 168.099 105.37C168.268 105.208 168.398 105.004 168.489 104.762L169.538 105.053C169.43 105.401 169.239 105.718 168.981 105.978C168.708 106.25 168.378 106.46 168.015 106.596C167.603 106.746 167.165 106.82 166.725 106.814ZM176.299 101.26L175.324 101.531C175.258 101.363 175.167 101.205 175.053 101.064C174.927 100.902 174.763 100.771 174.575 100.683C174.372 100.583 174.113 100.533 173.799 100.533C173.367 100.533 173.006 100.632 172.719 100.828C172.433 101.022 172.29 101.269 172.29 101.568C172.29 101.834 172.389 102.044 172.585 102.199C172.781 102.353 173.087 102.482 173.504 102.584L174.551 102.839C175.183 102.99 175.654 103.222 175.963 103.533C176.272 103.841 176.427 104.239 176.427 104.726C176.432 105.111 176.31 105.487 176.079 105.797C175.848 106.112 175.526 106.36 175.113 106.542C174.699 106.722 174.218 106.814 173.669 106.814C172.95 106.814 172.353 106.659 171.881 106.351C171.409 106.042 171.111 105.591 170.985 104.998L172.015 104.745C172.113 105.119 172.298 105.401 172.571 105.588C172.847 105.776 173.206 105.87 173.651 105.87C174.157 105.87 174.557 105.764 174.856 105.552C175.155 105.337 175.306 105.08 175.306 104.781C175.309 104.667 175.287 104.554 175.243 104.45C175.198 104.345 175.132 104.25 175.048 104.172C174.877 104.005 174.613 103.882 174.258 103.8L173.081 103.529C172.434 103.377 171.96 103.142 171.657 102.825C171.357 102.504 171.206 102.103 171.206 101.623C171.206 101.229 171.318 100.88 171.542 100.579C171.782 100.266 172.1 100.02 172.466 99.8659C172.858 99.6939 173.302 99.6074 173.798 99.6074C174.497 99.6074 175.045 99.7588 175.444 100.062C175.845 100.363 176.13 100.763 176.299 101.26ZM181.13 99.6978V100.605H177.472V99.6978H181.13ZM178.538 98.0277H179.623V104.672C179.623 104.975 179.667 105.201 179.755 105.352C179.848 105.501 179.964 105.601 180.105 105.652C180.249 105.701 180.401 105.725 180.56 105.725C180.679 105.725 180.778 105.719 180.855 105.706L181.038 105.67L181.259 106.633C181.158 106.667 181.055 106.694 180.95 106.714C180.819 106.744 180.651 106.759 180.45 106.759C180.144 106.759 179.843 106.694 179.549 106.564C179.257 106.434 179.006 106.228 178.823 105.969C178.633 105.704 178.538 105.368 178.538 104.962V98.0277Z" fill="#A1A1A1"/>
<path d="M566.669 87.0078H374.023C368.8 87.0078 364.565 91.1888 364.565 96.3463V108.142C364.565 113.3 368.8 117.481 374.023 117.481H566.669C571.893 117.481 576.127 113.3 576.127 108.142V96.3463C576.127 91.1888 571.893 87.0078 566.669 87.0078Z" fill="#303030"/>
<path d="M566.669 87.0078H374.023C368.8 87.0078 364.565 91.1888 364.565 96.3463V108.142C364.565 113.3 368.8 117.481 374.023 117.481H566.669C571.893 117.481 576.127 113.3 576.127 108.142V96.3463C576.127 91.1888 571.893 87.0078 566.669 87.0078Z" stroke="#484848" stroke-width="0.989274"/>
<path d="M380.298 97.3741V106.668H379.158V98.5547H379.102L376.805 100.061V98.9174L379.158 97.3741H380.298ZM383.005 106.668V105.853L386.111 102.494C386.477 102.1 386.776 101.758 387.012 101.468C387.248 101.174 387.424 100.899 387.537 100.643C387.652 100.385 387.712 100.106 387.711 99.8247C387.711 99.4984 387.632 99.2153 387.472 98.9764C387.314 98.7363 387.092 98.5446 386.829 98.423C386.542 98.2895 386.227 98.2226 385.909 98.2273C385.548 98.2273 385.232 98.3021 384.963 98.4505C384.701 98.5917 384.485 98.8043 384.342 99.0629C384.193 99.3487 384.118 99.6672 384.126 99.9889H383.042C383.042 99.4443 383.168 98.9666 383.423 98.5537C383.674 98.1457 384.033 97.8132 384.462 97.5923C384.903 97.3623 385.398 97.2483 385.946 97.2483C386.498 97.2483 386.987 97.3623 387.413 97.5923C387.839 97.8223 388.172 98.133 388.414 98.5222C388.656 98.9135 388.778 99.348 388.778 99.8247C388.778 100.167 388.715 100.501 388.589 100.827C388.467 101.152 388.252 101.514 387.945 101.913C387.549 102.417 387.127 102.902 386.682 103.365L384.567 105.598V105.671H388.943V106.668H383.005ZM394.021 106.796C393.415 106.796 392.874 106.693 392.4 106.487C391.955 106.302 391.567 106.007 391.274 105.629C390.996 105.256 390.839 104.808 390.823 104.346H391.981C392.005 104.644 392.11 104.903 392.294 105.121C392.477 105.335 392.718 105.503 393.015 105.621C393.312 105.738 393.642 105.797 394.003 105.797C394.408 105.797 394.766 105.728 395.079 105.588C395.391 105.449 395.636 105.256 395.814 105.008C395.992 104.759 396.081 104.472 396.081 104.145C396.081 103.804 395.995 103.502 395.823 103.243C395.639 102.968 395.377 102.754 395.07 102.625C394.739 102.477 394.334 102.403 393.856 102.403H393.102V101.404H393.856C394.23 101.404 394.558 101.338 394.84 101.205C395.124 101.071 395.346 100.884 395.506 100.642C395.669 100.4 395.75 100.116 395.75 99.7893C395.75 99.4748 395.679 99.1995 395.539 98.9675C395.396 98.7335 395.189 98.5446 394.941 98.423C394.661 98.287 394.352 98.2199 394.04 98.2273C393.716 98.2273 393.409 98.2863 393.121 98.4043C392.848 98.5101 392.607 98.6838 392.422 98.9086C392.241 99.1258 392.144 99.3902 392.128 99.6979H391.025C391.044 99.2113 391.192 98.7837 391.471 98.418C391.749 98.0494 392.115 97.7614 392.565 97.556C393.034 97.3469 393.544 97.2416 394.058 97.2473C394.641 97.2473 395.14 97.3643 395.557 97.5972C395.955 97.8094 396.287 98.1248 396.517 98.5095C396.741 98.8869 396.853 99.2959 396.853 99.7343C396.853 100.258 396.713 100.704 396.435 101.073C396.155 101.445 395.759 101.714 395.309 101.84V101.913C395.903 102.009 396.367 102.259 396.701 102.662C397.035 103.061 397.202 103.556 397.202 104.146C397.202 104.65 397.063 105.104 396.784 105.506C396.498 105.914 396.108 106.24 395.653 106.45C395.175 106.68 394.632 106.796 394.021 106.796Z" fill="#A1A1A1"/>
</g>
</g>
<g clip-path="url(#clip3_1_10407)">
<g clip-path="url(#clip4_1_10407)">
<path d="M552.366 59.6416H69.8238C63.4916 59.6416 58.3584 64.8042 58.3584 71.1726V136.348C58.3584 142.716 63.4916 147.879 69.8238 147.879H552.366C558.698 147.879 563.831 142.716 563.831 136.348V71.1726C563.831 64.8042 558.698 59.6416 552.366 59.6416Z" fill="#303030"/>
<path d="M552.366 59.6416H69.8238C63.4916 59.6416 58.3584 64.8042 58.3584 71.1726V136.348C58.3584 142.716 63.4916 147.879 69.8238 147.879H552.366C558.698 147.879 563.831 142.716 563.831 136.348V71.1726C563.831 64.8042 558.698 59.6416 552.366 59.6416Z" stroke="#484848" stroke-width="0.999806"/>
<path d="M78.9414 88.2182V78.7393H84.6302V79.7569H80.083V82.9604H84.3351V83.978H80.083V87.1995H84.704V88.2182H78.9414ZM87.6262 83.9409V88.2182H86.5394V81.1095H87.5893V82.2194H87.682C87.8475 81.8585 88.0987 81.5677 88.4367 81.3491C88.7737 81.1275 89.2094 81.0162 89.7428 81.0162C90.2213 81.0162 90.641 81.1145 91 81.312C91.3589 81.5065 91.638 81.8033 91.8374 82.2014C92.0368 82.5954 92.1365 83.0957 92.1365 83.7003V88.2182H91.0498V83.7745C91.0498 83.216 90.9062 82.7819 90.6181 82.4691C90.329 82.1542 89.9342 81.9978 89.4307 81.9978C89.1065 81.992 88.7862 82.0701 88.5005 82.2244C88.2313 82.3748 88.018 82.5954 87.8614 82.8862C87.7049 83.1769 87.6262 83.5278 87.6262 83.9409ZM99.6498 81.1085L97.0347 88.2182H95.9301L93.316 81.1095H94.4944L96.4465 86.7744H96.5193L98.4714 81.1095L99.6498 81.1085ZM101.083 88.2182V81.1095H102.17V88.2182H101.083ZM101.636 79.9234C101.432 79.9266 101.234 79.8483 101.087 79.7058C101.016 79.6395 100.958 79.5587 100.919 79.4687C100.881 79.3787 100.861 79.2815 100.862 79.1834C100.862 78.9789 100.937 78.8054 101.087 78.6601C101.234 78.5174 101.432 78.4392 101.636 78.4425C101.847 78.4425 102.028 78.5147 102.178 78.6601C102.251 78.7257 102.31 78.8064 102.35 78.8967C102.389 78.9869 102.409 79.0847 102.408 79.1834C102.409 79.2819 102.389 79.3794 102.35 79.4695C102.31 79.5596 102.252 79.6402 102.179 79.7058C102.107 79.7765 102.023 79.8322 101.929 79.8695C101.836 79.9069 101.736 79.9252 101.636 79.9234ZM104.158 88.2182V81.1095H105.208V82.1823H105.282C105.411 81.8314 105.644 81.5456 105.982 81.3261C106.319 81.1075 106.699 80.9972 107.123 80.9972C107.203 80.9972 107.303 80.9992 107.422 81.0022C107.542 81.0052 107.632 81.0102 107.693 81.0162V82.1272C107.61 82.1097 107.525 82.0957 107.44 82.0851C107.305 82.063 107.168 82.0523 107.031 82.053C106.711 82.0472 106.395 82.122 106.11 82.2705C105.843 82.4119 105.632 82.6094 105.475 82.8621C105.322 83.1128 105.246 83.3985 105.246 83.7193V88.2182H104.158ZM111.638 88.3666C110.999 88.3666 110.44 88.2131 109.958 87.9083C109.472 87.5943 109.083 87.1497 108.835 86.625C108.568 86.0765 108.434 85.4349 108.434 84.6999C108.434 83.96 108.568 83.3133 108.835 82.7608C109.104 82.2094 109.479 81.7792 109.958 81.4744C110.439 81.1686 110.999 81.0162 111.638 81.0162C112.276 81.0162 112.834 81.1686 113.313 81.4744C113.795 81.7792 114.17 82.2084 114.436 82.7608C114.706 83.3133 114.841 83.96 114.841 84.6999C114.841 85.4349 114.706 86.0765 114.436 86.625C114.19 87.151 113.801 87.5961 113.313 87.9083C112.835 88.2131 112.277 88.3666 111.639 88.3666H111.638ZM111.638 87.385C112.123 87.385 112.522 87.2596 112.834 87.01C113.148 86.7593 113.379 86.4315 113.53 86.0244C113.679 85.6163 113.755 85.1752 113.755 84.7009C113.755 84.2247 113.68 83.7825 113.53 83.3714C113.394 82.9818 113.153 82.6375 112.835 82.3768C112.522 82.1242 112.123 81.9978 111.639 81.9978C111.153 81.9978 110.754 82.1242 110.442 82.3768C110.123 82.6374 109.883 82.9817 109.746 83.3714C109.597 83.7825 109.521 84.2247 109.521 84.6999C109.521 85.1752 109.596 85.6173 109.746 86.0234C109.896 86.4315 110.128 86.7603 110.441 87.01C110.754 87.2606 111.153 87.385 111.638 87.385ZM117.586 83.9409V88.2182H116.499V81.1095H117.549V82.2194H117.64C117.807 81.8585 118.058 81.5677 118.396 81.3491C118.733 81.1275 119.169 81.0162 119.702 81.0162C120.181 81.0162 120.599 81.1145 120.958 81.312C121.317 81.5065 121.597 81.8033 121.797 82.2014C121.996 82.5954 122.096 83.0957 122.096 83.7003V88.2182H121.009V83.7745C121.009 83.216 120.866 82.7819 120.578 82.4691C120.288 82.1542 119.893 81.9978 119.39 81.9978C119.066 81.992 118.746 82.0701 118.46 82.2244C118.191 82.3748 117.976 82.5954 117.82 82.8862C117.663 83.1769 117.586 83.5278 117.586 83.9409ZM124.081 88.2182V81.1095H125.13V82.2194H125.223C125.358 81.8546 125.609 81.5443 125.935 81.3351C126.264 81.1225 126.658 81.0162 127.119 81.0162C127.585 81.0162 127.973 81.1225 128.283 81.3351C128.596 81.5456 128.84 81.8394 129.015 82.2194H129.089C129.268 81.8534 129.552 81.5492 129.903 81.3451C130.265 81.1255 130.7 81.0162 131.205 81.0162C131.838 81.0162 132.355 81.2148 132.757 81.6128C133.159 82.0078 133.36 82.6235 133.36 83.4597V88.2182H132.273V83.4597C132.273 82.9353 132.131 82.5603 131.845 82.3347C131.558 82.1088 131.202 81.9894 130.838 81.9968C130.34 81.9968 129.955 82.1482 129.682 82.451C129.409 82.7498 129.273 83.1298 129.273 83.59V88.2182H128.168V83.3484C128.168 82.9443 128.038 82.6195 127.777 82.3718C127.516 82.1221 127.18 81.9978 126.769 81.9978C126.487 81.9978 126.222 82.073 125.977 82.2244C125.735 82.3748 125.539 82.5854 125.389 82.8541C125.24 83.1188 125.167 83.4256 125.167 83.7745V88.2182H124.081ZM138.31 88.3666C137.629 88.3666 137.041 88.2152 136.547 87.9124C136.055 87.6048 135.66 87.1615 135.411 86.635C135.147 86.0856 135.014 85.4469 135.014 84.719C135.014 83.9911 135.146 83.3484 135.41 82.7939C135.677 82.2344 136.048 81.8003 136.524 81.4885C137.003 81.1737 137.561 81.0162 138.199 81.0162C138.568 81.0162 138.931 81.0774 139.29 81.2007C139.649 81.3241 139.976 81.5256 140.27 81.8023C140.565 82.077 140.799 82.442 140.975 82.8952C141.149 83.3494 141.237 83.9078 141.237 84.5706V85.0338H135.788V84.0893H140.132C140.132 83.6883 140.053 83.3303 139.893 83.0165C139.744 82.7091 139.511 82.4505 139.221 82.2705C138.914 82.0829 138.559 81.9879 138.199 81.9968C137.767 81.9968 137.392 82.1051 137.077 82.3217C136.767 82.5302 136.518 82.8173 136.354 83.1539C136.184 83.4968 136.101 83.8637 136.101 84.2568V84.8854C136.101 85.4228 136.192 85.878 136.377 86.251C136.564 86.622 136.823 86.9027 137.154 87.0982C137.485 87.2887 137.871 87.385 138.31 87.385C138.595 87.385 138.853 87.3449 139.083 87.2647C139.308 87.1861 139.514 87.0596 139.686 86.8937C139.855 86.7282 139.985 86.5207 140.078 86.2741L141.126 86.5708C141.017 86.9288 140.83 87.2426 140.57 87.5143C140.296 87.7914 139.966 88.0061 139.603 88.144C139.189 88.2976 138.751 88.373 138.31 88.3666ZM143.976 83.9409V88.2182H142.889V81.1095H143.939V82.2194H144.031C144.196 81.8585 144.448 81.5677 144.785 81.3491C145.123 81.1275 145.559 81.0162 146.092 81.0162C146.571 81.0162 146.99 81.1145 147.349 81.312C147.708 81.5065 147.987 81.8033 148.186 82.2014C148.385 82.5954 148.485 83.0957 148.485 83.7003V88.2182H147.399V83.7745C147.399 83.216 147.256 82.7819 146.967 82.4691C146.679 82.1542 146.283 81.9978 145.78 81.9978C145.433 81.9978 145.122 82.073 144.85 82.2244C144.58 82.3748 144.367 82.5954 144.21 82.8862C144.054 83.1769 143.976 83.5278 143.976 83.9409ZM153.546 81.1085V82.0339H149.882V81.1085H153.546ZM150.949 79.405H152.035V86.1818C152.035 86.4896 152.079 86.7212 152.168 86.8756C152.261 87.027 152.377 87.1293 152.518 87.1814C152.663 87.2316 152.814 87.2556 152.974 87.2556C153.093 87.2556 153.192 87.2496 153.269 87.2366L153.452 87.1995L153.673 88.1821C153.573 88.2169 153.469 88.2444 153.364 88.2643C153.233 88.2944 153.065 88.3104 152.863 88.3104C152.557 88.3104 152.255 88.2442 151.962 88.1119C151.669 87.9789 151.418 87.7694 151.234 87.5053C151.044 87.2346 150.949 86.8917 150.949 86.4776V79.405ZM164.604 81.1095L161.991 88.2182H160.887L158.273 81.1095H159.45L161.402 86.7744H161.476L163.427 81.1095H164.605H164.604ZM167.903 88.3846C167.455 88.3846 167.049 88.3004 166.683 88.1299C166.33 87.9676 166.029 87.7096 165.814 87.385C165.598 87.0581 165.492 86.6631 165.492 86.1999C165.492 85.7928 165.572 85.4629 165.731 85.2093C165.891 84.9536 166.104 84.7531 166.37 84.6077C166.637 84.4623 166.932 84.355 167.254 84.2838C167.579 84.2096 167.906 84.1515 168.234 84.1084C168.664 84.0522 169.012 84.0111 169.279 83.983C169.549 83.953 169.746 83.9008 169.869 83.8306C169.994 83.7595 170.057 83.6361 170.057 83.4597V83.4226C170.057 82.9664 169.933 82.6104 169.684 82.3588C169.439 82.1051 169.066 81.9788 168.566 81.9788C168.047 81.9788 167.641 82.0931 167.346 82.3217C167.052 82.5493 166.845 82.7929 166.725 83.0526L165.694 82.6816C165.879 82.2505 166.124 81.9136 166.431 81.673C166.74 81.4293 167.078 81.2599 167.443 81.1636C167.797 81.067 168.162 81.0175 168.53 81.0162C168.756 81.0162 169.017 81.0433 169.311 81.0995C169.609 81.1516 169.896 81.2609 170.173 81.4283C170.452 81.5948 170.683 81.8464 170.868 82.1823C171.051 82.5192 171.144 82.9694 171.144 83.5339V88.2182H170.057V87.2556H170.002C169.907 87.4395 169.783 87.6068 169.634 87.7509C169.437 87.9438 169.204 88.0963 168.948 88.2001C168.662 88.3234 168.314 88.3846 167.903 88.3846ZM168.069 87.403C168.499 87.403 168.861 87.3188 169.155 87.1494C169.435 86.9972 169.668 86.7694 169.827 86.4916C169.977 86.2349 170.057 85.9424 170.057 85.6444V84.6448C170.011 84.6999 169.91 84.7511 169.754 84.7972C169.578 84.8455 169.4 84.8843 169.219 84.9135C168.874 84.9673 168.527 85.0134 168.18 85.0518C167.911 85.0859 167.645 85.1463 167.388 85.2323C167.146 85.3125 166.949 85.4349 166.799 85.5983C166.651 85.7587 166.577 85.9783 166.577 86.256C166.577 86.635 166.717 86.9218 166.996 87.1163C167.278 87.3078 167.636 87.403 168.069 87.403ZM173.126 88.2182V81.1095H174.176V82.1823H174.249C174.378 81.8314 174.611 81.5456 174.948 81.3261C175.288 81.1063 175.685 80.9919 176.09 80.9972C176.169 80.9972 176.269 80.9992 176.389 81.0022C176.508 81.0052 176.599 81.0102 176.661 81.0162V82.1272C176.577 82.1098 176.493 82.0957 176.408 82.0851C176.272 82.063 176.135 82.0522 175.998 82.053C175.654 82.053 175.348 82.1252 175.078 82.2705C174.811 82.4119 174.599 82.6094 174.443 82.8621C174.289 83.1128 174.212 83.3985 174.212 83.7193V88.2182H173.126ZM177.948 88.2182V81.1095H179.035V88.2182H177.948ZM178.5 79.9234C178.297 79.9263 178.1 79.8481 177.953 79.7058C177.881 79.6396 177.824 79.5588 177.785 79.4688C177.746 79.3788 177.727 79.2815 177.728 79.1834C177.728 78.9789 177.803 78.8054 177.953 78.6601C178.1 78.5177 178.297 78.4394 178.5 78.4425C178.713 78.4425 178.893 78.5147 179.044 78.6601C179.117 78.7257 179.176 78.8064 179.215 78.8967C179.255 78.9869 179.275 79.0847 179.274 79.1834C179.275 79.282 179.255 79.3796 179.215 79.4696C179.175 79.5597 179.117 79.6403 179.044 79.7058C178.972 79.7765 178.887 79.8322 178.794 79.8695C178.701 79.9069 178.601 79.9252 178.5 79.9234ZM183.105 88.3856C182.657 88.3856 182.25 88.3004 181.884 88.1299C181.531 87.9676 181.23 87.7096 181.015 87.385C180.8 87.0581 180.693 86.6631 180.693 86.1999C180.693 85.7928 180.773 85.4629 180.932 85.2093C181.092 84.9536 181.305 84.7531 181.572 84.6077C181.838 84.4623 182.133 84.355 182.455 84.2838C182.781 84.2096 183.108 84.1515 183.436 84.1084C183.865 84.0522 184.213 84.0111 184.48 83.983C184.751 83.953 184.947 83.9008 185.07 83.8306C185.195 83.7595 185.258 83.6361 185.258 83.4597V83.4226C185.258 82.9664 185.134 82.6104 184.885 82.3588C184.64 82.1051 184.267 81.9788 183.768 81.9788C183.248 81.9788 182.842 82.0931 182.547 82.3217C182.253 82.5493 182.046 82.7929 181.926 83.0526L180.895 82.6816C181.08 82.2505 181.325 81.9136 181.632 81.673C181.941 81.4293 182.279 81.2599 182.644 81.1636C183.013 81.0654 183.375 81.0162 183.731 81.0162C183.957 81.0162 184.218 81.0433 184.512 81.0995C184.81 81.1516 185.098 81.2609 185.374 81.4283C185.653 81.5948 185.884 81.8464 186.069 82.1823C186.253 82.5192 186.345 82.9694 186.345 83.5339V88.2182H185.258V87.2556H185.203C185.108 87.4395 184.984 87.6068 184.835 87.7509C184.638 87.9438 184.405 88.0963 184.149 88.2001C183.864 88.3234 183.515 88.3856 183.105 88.3856ZM183.27 87.403C183.7 87.403 184.062 87.3188 184.357 87.1494C184.654 86.9789 184.878 86.7603 185.029 86.4916C185.181 86.2229 185.258 85.9402 185.258 85.6444V84.6448C185.212 84.6999 185.111 84.7511 184.955 84.7972C184.779 84.8455 184.601 84.8843 184.421 84.9135C184.075 84.9673 183.728 85.0134 183.381 85.0518C183.112 85.0859 182.846 85.1463 182.589 85.2323C182.347 85.3125 182.15 85.4349 182 85.5983C181.852 85.7587 181.779 85.9783 181.779 86.256C181.779 86.635 181.918 86.9218 182.197 87.1163C182.48 87.3078 182.837 87.403 183.27 87.403ZM188.474 88.2182V78.7393H189.561V82.2385H189.653C189.758 82.0778 189.869 81.9203 189.984 81.7662C190.151 81.5521 190.361 81.3755 190.601 81.2479C190.871 81.0934 191.236 81.0162 191.697 81.0162C192.292 81.0162 192.816 81.1656 193.27 81.4654C193.724 81.7642 194.078 82.1883 194.334 82.7388C194.588 83.2872 194.715 83.9349 194.715 84.6819C194.715 85.4349 194.588 86.0876 194.334 86.64C194.078 87.1895 193.726 87.6146 193.275 87.9174C192.824 88.2172 192.304 88.3666 191.715 88.3666C191.261 88.3666 190.897 88.2904 190.624 88.14C190.38 88.0107 190.166 87.8326 189.994 87.6166C189.873 87.4578 189.759 87.2939 189.653 87.1253H189.524V88.2182H188.474ZM189.542 84.6628C189.542 85.2002 189.621 85.6735 189.777 86.0846C189.934 86.4916 190.162 86.8115 190.462 87.0421C190.763 87.2707 191.131 87.385 191.567 87.385C192.022 87.385 192.4 87.2647 192.705 87.024C193.02 86.767 193.259 86.4273 193.394 86.0424C193.556 85.6012 193.636 85.134 193.63 84.6638C193.63 84.1635 193.553 83.7133 193.399 83.3123C193.267 82.9331 193.029 82.6002 192.713 82.3538C192.409 82.1161 192.028 81.9978 191.567 81.9978C191.125 81.9978 190.754 82.1101 190.453 82.3357C190.153 82.5573 189.926 82.8691 189.772 83.2702C189.619 83.6682 189.542 84.1314 189.542 84.6628ZM197.463 78.7383V88.2182H196.377V78.7393L197.463 78.7383ZM202.417 88.3666C201.735 88.3666 201.148 88.2152 200.653 87.9124C200.161 87.6047 199.766 87.1614 199.517 86.635C199.254 86.0856 199.121 85.4469 199.121 84.719C199.121 83.9911 199.254 83.3484 199.517 82.7939C199.76 82.263 200.146 81.8108 200.631 81.4885C201.11 81.1737 201.668 81.0162 202.306 81.0162C202.674 81.0162 203.038 81.0774 203.397 81.2007C203.756 81.3241 204.083 81.5256 204.377 81.8023C204.672 82.077 204.907 82.442 205.082 82.8952C205.257 83.3494 205.344 83.9078 205.344 84.5706V85.0338H199.895V84.0893H204.24C204.24 83.6883 204.16 83.3303 204 83.0165C203.851 82.7092 203.618 82.4506 203.328 82.2705C203.021 82.0831 202.666 81.9881 202.306 81.9968C201.874 81.9968 201.499 82.1051 201.183 82.3217C200.874 82.5303 200.625 82.8174 200.461 83.1539C200.292 83.4968 200.208 83.8637 200.208 84.2568V84.8854C200.208 85.4228 200.3 85.878 200.484 86.251C200.67 86.622 200.93 86.9027 201.262 87.0982C201.593 87.2887 201.977 87.385 202.417 87.385C202.702 87.385 202.96 87.3449 203.19 87.2647C203.423 87.1814 203.624 87.0581 203.793 86.8937C203.961 86.7282 204.092 86.5207 204.184 86.2741L205.234 86.5708C205.125 86.9253 204.934 87.2487 204.676 87.5143C204.403 87.7915 204.073 88.0063 203.71 88.144C203.297 88.2976 202.858 88.373 202.417 88.3666Z" fill="#D8D8D8"/>
<path d="M297.138 96.7422H87.7702C82.5393 96.7422 78.2988 101.007 78.2988 106.268V118.3C78.2988 123.561 82.5393 127.826 87.7702 127.826H297.138C302.369 127.826 306.609 123.561 306.609 118.3V106.268C306.609 101.007 302.369 96.7422 297.138 96.7422Z" fill="#262626"/>
<path d="M297.138 96.7422H87.7702C82.5393 96.7422 78.2988 101.007 78.2988 106.268V118.3C78.2988 123.561 82.5393 127.826 87.7702 127.826H297.138C302.369 127.826 306.609 123.561 306.609 118.3V106.268C306.609 101.007 302.369 96.7422 297.138 96.7422Z" stroke="#484848" stroke-width="0.999806"/>
<path d="M90.9053 116.795V107.315H92.0468V112.018H92.1565L96.3917 107.315H97.8822L93.9241 111.593L97.8822 116.795H96.5014L93.2253 112.389L92.0468 113.722V116.795H90.9053ZM101.658 116.944C100.977 116.944 100.389 116.792 99.8951 116.49C99.4024 116.182 99.0079 115.739 98.7585 115.212C98.4943 114.663 98.3627 114.024 98.3627 113.296C98.3627 112.568 98.4943 111.927 98.7585 111.371C99.0247 110.812 99.3966 110.376 99.8722 110.066C100.351 109.751 100.909 109.593 101.547 109.593C101.916 109.593 102.279 109.655 102.638 109.778C102.997 109.901 103.324 110.103 103.619 110.379C103.913 110.655 104.147 111.019 104.323 111.472C104.497 111.927 104.585 112.485 104.585 113.148V113.611H99.1354V112.666H103.48C103.48 112.265 103.401 111.907 103.241 111.594C103.091 111.286 102.858 111.028 102.569 110.848C102.261 110.66 101.907 110.565 101.547 110.574C101.114 110.574 100.74 110.682 100.424 110.899C100.115 111.107 99.8655 111.394 99.7017 111.731C99.5322 112.074 99.4484 112.441 99.4484 112.834V113.463C99.4484 114 99.5412 114.455 99.7246 114.828C99.912 115.199 100.171 115.48 100.502 115.675C100.834 115.866 101.219 115.962 101.659 115.962C101.943 115.962 102.201 115.922 102.431 115.842C102.656 115.763 102.862 115.637 103.034 115.471C103.203 115.304 103.333 115.098 103.425 114.851L104.474 115.147C104.366 115.502 104.176 115.826 103.918 116.091C103.644 116.369 103.314 116.583 102.951 116.721C102.537 116.875 102.099 116.95 101.658 116.944ZM106.722 119.461C106.538 119.461 106.374 119.446 106.229 119.415C106.126 119.4 106.026 119.372 105.93 119.332L106.206 118.369C106.47 118.437 106.704 118.462 106.906 118.444C107.113 118.423 107.305 118.325 107.444 118.17C107.604 118.01 107.749 117.749 107.882 117.388L108.084 116.832L105.47 109.686H106.648L108.6 115.351H108.674L110.625 109.686H111.803L108.802 117.832C108.688 118.163 108.518 118.471 108.301 118.744C108.101 118.988 107.869 119.169 107.606 119.286C107.327 119.407 107.026 119.467 106.722 119.461Z" fill="#606060"/>
<path d="M534.421 96.7422H325.053C319.823 96.7422 315.582 101.007 315.582 106.268V118.3C315.582 123.561 319.823 127.826 325.053 127.826H534.421C539.652 127.826 543.892 123.561 543.892 118.3V106.268C543.892 101.007 539.652 96.7422 534.421 96.7422Z" fill="#262626"/>
<path d="M534.421 96.7422H325.053C319.823 96.7422 315.582 101.007 315.582 106.268V118.3C315.582 123.561 319.823 127.826 325.053 127.826H534.421C539.652 127.826 543.892 123.561 543.892 118.3V106.268C543.892 101.007 539.652 96.7422 534.421 96.7422Z" stroke="#484848" stroke-width="0.999806"/>
<path d="M328.575 107.315L331.373 115.296H331.484L334.282 107.315H335.478L332.018 116.795H330.839L327.378 107.315H328.575ZM338.222 116.962C337.774 116.962 337.368 116.878 337.002 116.707C336.649 116.545 336.348 116.287 336.132 115.962C335.917 115.635 335.81 115.24 335.81 114.777C335.81 114.37 335.89 114.04 336.05 113.786C336.209 113.531 336.423 113.33 336.69 113.185C336.956 113.039 337.251 112.932 337.573 112.861C337.898 112.787 338.225 112.729 338.553 112.686C338.983 112.629 339.331 112.588 339.598 112.56C339.868 112.53 340.065 112.478 340.187 112.408C340.313 112.337 340.376 112.213 340.376 112.037V112C340.376 111.544 340.252 111.188 340.003 110.936C339.758 110.682 339.385 110.556 338.885 110.556C338.366 110.556 337.96 110.67 337.665 110.899C337.371 111.126 337.163 111.37 337.044 111.63L336.013 111.259C336.197 110.828 336.443 110.491 336.75 110.25C337.059 110.007 337.397 109.837 337.762 109.741C338.116 109.644 338.481 109.595 338.848 109.593C339.075 109.593 339.336 109.62 339.63 109.677C339.928 109.729 340.215 109.838 340.491 110.005C340.77 110.172 341.002 110.424 341.186 110.759C341.37 111.096 341.462 111.547 341.462 112.111V116.795H340.376V115.833H340.321C340.225 116.017 340.101 116.184 339.953 116.328C339.755 116.521 339.522 116.673 339.267 116.776C338.982 116.901 338.633 116.962 338.222 116.962ZM338.388 115.981C338.817 115.981 339.179 115.896 339.473 115.727C339.754 115.574 339.986 115.347 340.145 115.069C340.296 114.812 340.375 114.52 340.376 114.222V113.222C340.33 113.278 340.229 113.328 340.073 113.374C339.897 113.423 339.718 113.461 339.538 113.491C339.193 113.544 338.846 113.591 338.498 113.629C338.229 113.663 337.964 113.723 337.707 113.809C337.464 113.89 337.268 114.012 337.118 114.175C336.97 114.336 336.896 114.555 336.896 114.833C336.896 115.212 337.036 115.499 337.315 115.693C337.598 115.885 337.955 115.981 338.388 115.981ZM344.531 107.315V116.795H343.444V107.315H344.531ZM350.976 113.889V109.686H352.062V116.795H350.976V115.592H350.902C350.729 115.962 350.462 116.279 350.129 116.513C349.779 116.763 349.338 116.888 348.803 116.888C348.392 116.895 347.986 116.795 347.625 116.597C347.272 116.389 346.99 116.079 346.815 115.707C346.619 115.309 346.52 114.808 346.52 114.204V109.686H347.607V114.129C347.607 114.648 347.75 115.062 348.039 115.37C348.331 115.678 348.702 115.833 349.153 115.833C349.423 115.833 349.697 115.763 349.977 115.624C350.259 115.485 350.495 115.273 350.685 114.986C350.879 114.699 350.976 114.333 350.976 113.889ZM357.015 116.944C356.334 116.944 355.746 116.792 355.253 116.49C354.76 116.182 354.365 115.739 354.116 115.212C353.852 114.663 353.72 114.024 353.72 113.296C353.72 112.568 353.852 111.927 354.116 111.371C354.382 110.812 354.754 110.376 355.23 110.066C355.708 109.751 356.267 109.593 356.905 109.593C357.274 109.593 357.636 109.655 357.995 109.778C358.354 109.901 358.681 110.103 358.976 110.379C359.271 110.655 359.506 111.019 359.68 111.472C359.855 111.927 359.942 112.485 359.942 113.148V113.611H354.493V112.666H358.838C358.838 112.265 358.758 111.907 358.599 111.594C358.449 111.286 358.216 111.028 357.927 110.848C357.619 110.66 357.264 110.565 356.905 110.574C356.472 110.574 356.098 110.682 355.782 110.899C355.472 111.107 355.223 111.394 355.059 111.731C354.89 112.074 354.804 112.451 354.806 112.834V113.463C354.806 114 354.898 114.455 355.082 114.828C355.27 115.199 355.529 115.48 355.86 115.675C356.192 115.866 356.577 115.962 357.015 115.962C357.3 115.962 357.559 115.922 357.789 115.842C358.022 115.759 358.223 115.635 358.391 115.471C358.561 115.304 358.69 115.098 358.783 114.851L359.832 115.147C359.724 115.502 359.533 115.826 359.275 116.091C359.002 116.368 358.672 116.583 358.308 116.721C357.895 116.875 357.456 116.95 357.015 116.944Z" fill="#606060"/>
</g>
</g>
</g>
<defs>
<clipPath id="clip0_1_10407">
<rect width="538.8" height="207.53" fill="white" transform="translate(0 0.780273)"/>
</clipPath>
<clipPath id="clip1_1_10407">
<rect width="457.97" height="56.03" fill="white" transform="translate(83.8096 74.1104)"/>
</clipPath>
<clipPath id="clip2_1_10407">
<rect width="457.97" height="56.03" fill="white" transform="translate(83.8096 74.1104)"/>
</clipPath>
<clipPath id="clip3_1_10407">
<rect width="506.47" height="89.24" fill="white" transform="translate(57.8604 59.1406)"/>
</clipPath>
<clipPath id="clip4_1_10407">
<rect width="506.47" height="89.24" fill="white" transform="translate(57.8604 59.1406)"/>
</clipPath>
</defs>
</svg>
