<svg width="102" height="113" viewBox="0 0 102 113" fill="none" xmlns="http://www.w3.org/2000/svg">
<path d="M0 0V92.0859H94.8774V0H0Z" fill="#8C0025"/>
<path d="M7.53526 102.163C6.62755 101.836 5.64618 101.692 4.75689 101.692C3.70448 101.692 2.68628 101.999 2.68628 103.07C2.68628 103.978 3.43086 104.433 5.13839 105.122C7.28005 106.012 8.73237 106.883 8.73237 109.153C8.73237 111.75 6.48021 112.966 3.93864 112.966C2.75731 112.966 1.27079 112.766 0 112.313L0.470954 110.153C1.63387 110.624 2.90465 110.842 3.84656 110.842C5.28047 110.842 6.0803 110.335 6.0803 109.335C6.0803 108.372 5.29889 107.882 3.53873 107.193C1.46811 106.359 0.0342036 105.322 0.0342036 103.325C0.0342036 100.639 2.39423 99.5684 4.59114 99.5684C5.84351 99.5684 7.04326 99.7315 7.98516 100.039L7.53526 102.163Z" fill="#8C0025"/>
<path d="M16.5307 101.763H12.9657V99.5684H22.761V101.763H19.2696V112.966H16.5307V101.763Z" fill="#8C0025"/>
<path d="M38.0157 108.851C38.0157 111.526 35.7635 112.966 32.7378 112.966C29.749 112.966 27.4968 111.526 27.4968 108.851V99.5684H30.191V108.519C30.191 110.142 31.2434 110.808 32.7194 110.808C34.177 110.808 35.3215 110.106 35.3215 108.519V99.5684H38.0157V108.851Z" fill="#8C0025"/>
<path d="M44.0328 99.5684H48.5924C53.002 99.5684 55.3489 102.084 55.3489 106.212C55.3489 110.358 52.9836 112.968 48.5924 112.968H44.0328V99.5684ZM46.7744 110.771H48.2004C51.2603 110.771 52.61 108.969 52.61 106.249C52.61 103.565 51.2576 101.763 48.2004 101.763H46.7744V110.771Z" fill="#8C0025"/>
<path d="M60.6241 99.5684H63.363V112.966H60.6241V99.5684Z" fill="#8C0025"/>
<path d="M74.95 112.966C71.0456 112.966 68.8671 110.169 68.8671 106.285C68.8671 102.381 71.0087 99.5684 74.95 99.5684C78.9071 99.5684 81.0329 102.384 81.0329 106.285C81.0329 110.169 78.8729 112.966 74.95 112.966ZM74.95 101.692C72.59 101.692 71.5191 103.744 71.5191 106.285C71.5191 108.809 72.6084 110.842 74.9684 110.842C77.3469 110.842 78.3809 108.809 78.3809 106.285C78.3835 103.744 77.31 101.692 74.95 101.692Z" fill="#8C0025"/>
<path d="M93.775 102.163C92.8673 101.836 91.8859 101.692 90.9966 101.692C89.9442 101.692 88.926 101.999 88.926 103.07C88.926 103.978 89.6706 104.433 91.3781 105.122C93.5198 106.012 94.9721 106.883 94.9721 109.153C94.9721 111.75 92.72 112.966 90.1784 112.966C88.9971 112.966 87.5105 112.766 86.2397 112.313L86.7107 110.153C87.8736 110.624 89.1444 110.842 90.0863 110.842C91.5202 110.842 92.32 110.335 92.32 109.335C92.32 108.372 91.5386 107.882 89.7785 107.193C87.7079 106.359 86.274 105.322 86.274 103.325C86.274 100.639 88.634 99.5684 90.8309 99.5684C92.0833 99.5684 93.283 99.7315 94.2249 100.039L93.775 102.163Z" fill="#8C0025"/>
<path d="M54.7595 31.9433V49.2108C62.0317 52.7179 67.7515 49.2055 67.7515 39.939C67.7515 30.4331 64.4022 26.213 54.528 22.8216C50.642 21.5113 43.4198 19.3381 38.4603 18.4172V69.9669L50.121 73.6688V30.4331C50.121 28.4072 51.0261 27.0523 52.4837 27.5206C54.3886 28.0521 54.7595 29.9148 54.7595 31.9433Z" fill="black" stroke="black" stroke-width="0.263103" stroke-miterlimit="10"/>
<path d="M13.0446 58.6139C10.4715 60.524 11.4134 63.8339 17.0595 65.4283C23.1188 67.4226 29.2675 67.8172 35.0426 66.8727C35.4188 66.8095 35.8267 66.7464 36.1924 66.6806V60.6187L30.4225 62.713C28.2914 63.4787 25.1657 63.6392 23.4345 63.0735C21.7059 62.5052 22.0322 61.4291 24.1607 60.6661L36.1924 56.3591V49.5842L19.4722 55.5277C19.4722 55.5225 15.4257 56.8459 13.0446 58.6139Z" fill="black" stroke="black" stroke-width="0.263103" stroke-miterlimit="10"/>
<path d="M77.9257 54.6383C73.0425 52.7861 66.8254 52.1546 61.7449 52.7124C56.6644 53.2754 53.0546 54.5515 53.0546 54.5515L52.3337 54.7962V61.8026L64.8337 57.4009C66.9622 56.6353 70.0905 56.4721 71.8191 57.0404C73.5477 57.6061 73.2241 58.6848 71.0929 59.4478L52.3337 66.1306V72.8818L77.8257 63.7259C77.8257 63.7259 81.254 62.4683 82.651 60.7028C84.0481 58.94 83.4298 56.3774 77.9257 54.6383Z" fill="black" stroke="black" stroke-width="0.263103" stroke-miterlimit="10"/>
<path d="M97.7005 110.871H96.9217V110.603H98.7792V110.871H98.0083V112.966H97.7005V110.871Z" fill="#8C0025"/>
<path d="M100.037 112.966L99.3896 111.048V112.966H99.0792V110.603H99.508L100.189 112.613L100.874 110.603H101.3V112.966H100.992V111.048L100.345 112.966H100.037Z" fill="#8C0025"/>
</svg>
