<svg width="74" height="19" viewBox="0 0 74 19" fill="none" xmlns="http://www.w3.org/2000/svg">
<g clip-path="url(#clip0_20_105)">
<g clip-path="url(#clip1_20_105)">
<g clip-path="url(#clip2_20_105)">
<path d="M1.20117 17.7852V2.03516H8.16425C9.13759 2.03516 10.0211 2.26016 10.8147 2.71016C11.6083 3.14516 12.2299 3.73766 12.6791 4.48766C13.1432 5.23766 13.3754 6.09266 13.3754 7.05266C13.3754 7.99766 13.1432 8.86016 12.6791 9.64016C12.2299 10.4052 11.6083 11.0127 10.8147 11.4627C10.0211 11.9127 9.13759 12.1377 8.16425 12.1377H4.45809V17.7852H1.20117ZM10.1184 17.7852L6.12025 10.6752L9.57933 10.1127L14.0268 17.8077L10.1184 17.7852ZM4.45809 9.39266H8.00702C8.41133 9.39266 8.76322 9.30266 9.06271 9.12266C9.37717 8.92766 9.61676 8.66516 9.78148 8.33516C9.94619 7.99017 10.0286 7.60767 10.0286 7.18766C10.0286 6.73766 9.93122 6.34767 9.73656 6.01766C9.54189 5.68766 9.25737 5.43266 8.88302 5.25266C8.50866 5.05766 8.0744 4.96016 7.58025 4.96016H4.45809V9.39266Z" fill="#36364A"/>
<path d="M20.5559 18.0088C19.2681 18.0088 18.1375 17.7463 17.1641 17.2213C16.2058 16.6962 15.4571 15.9762 14.9179 15.0613C14.3939 14.1463 14.1318 13.0962 14.1318 11.9113C14.1318 10.9813 14.2816 10.1338 14.581 9.36883C14.8805 8.60383 15.2998 7.94384 15.8389 7.38883C16.3779 6.81884 17.0144 6.38384 17.7482 6.08383C18.4968 5.76883 19.3055 5.61133 20.174 5.61133C20.9827 5.61133 21.7313 5.76134 22.4202 6.06133C23.109 6.36134 23.7005 6.78133 24.1947 7.32133C24.7037 7.84634 25.0931 8.47634 25.3627 9.21133C25.6322 9.93133 25.7519 10.7113 25.722 11.5513L25.6996 12.5413H16.1534L15.6367 10.5838H23.0716L22.7122 10.9888V10.4938C22.6822 10.0888 22.5474 9.72883 22.3078 9.41383C22.0833 9.08384 21.7913 8.82883 21.4319 8.64883C21.0725 8.45384 20.6681 8.35633 20.2189 8.35633C19.5601 8.35633 18.9985 8.48384 18.5342 8.73883C18.085 8.99384 17.7407 9.36883 17.501 9.86383C17.2615 10.3588 17.1416 10.9588 17.1416 11.6638C17.1416 12.3838 17.2914 13.0062 17.591 13.5313C17.9054 14.0563 18.3396 14.4687 18.8937 14.7688C19.4627 15.0537 20.129 15.1963 20.8927 15.1963C21.4168 15.1963 21.8961 15.1138 22.3303 14.9488C22.7645 14.7837 23.2287 14.4988 23.723 14.0938L25.2503 16.2313C24.8161 16.6213 24.3368 16.9513 23.8128 17.2213C23.2887 17.4763 22.7496 17.6713 22.1955 17.8063C21.6415 17.9413 21.095 18.0088 20.5559 18.0088Z" fill="#36364A"/>
<path d="M30.9543 18.0098C29.8461 18.0098 28.8578 17.8298 27.9894 17.4698C27.1358 17.0948 26.447 16.5848 25.9229 15.9398L27.922 14.2298C28.3712 14.7248 28.8803 15.0848 29.4494 15.3098C30.0184 15.5198 30.5874 15.6248 31.1564 15.6248C31.381 15.6248 31.5832 15.6023 31.7629 15.5573C31.9575 15.4973 32.1223 15.4223 32.257 15.3323C32.3918 15.2273 32.4892 15.1073 32.549 14.9723C32.624 14.8223 32.6614 14.6648 32.6614 14.4998C32.6614 14.1698 32.5266 13.9148 32.257 13.7348C32.1073 13.6448 31.8752 13.5473 31.5607 13.4423C31.2463 13.3223 30.842 13.1948 30.3478 13.0598C29.5841 12.8648 28.9327 12.6398 28.3937 12.3848C27.8695 12.1148 27.4503 11.8148 27.1358 11.4848C26.8663 11.1698 26.6566 10.8323 26.5069 10.4723C26.3721 10.0973 26.3047 9.68477 26.3047 9.23477C26.3047 8.69477 26.4246 8.20727 26.6641 7.77227C26.9037 7.32227 27.2332 6.93977 27.6524 6.62477C28.0867 6.30977 28.5809 6.06977 29.1349 5.90477C29.6889 5.72477 30.2729 5.63477 30.8869 5.63477C31.5009 5.63477 32.0998 5.70977 32.6838 5.85977C33.2678 6.00978 33.8069 6.22727 34.301 6.51227C34.8101 6.78227 35.252 7.10477 35.6263 7.47977L33.9192 9.36977C33.6497 9.11476 33.3427 8.88227 32.9983 8.67227C32.6689 8.46228 32.3244 8.29727 31.965 8.17727C31.6057 8.05728 31.2837 7.99727 30.9992 7.99727C30.7446 7.99727 30.5126 8.01977 30.3029 8.06477C30.1083 8.10977 29.9435 8.18477 29.8087 8.28977C29.674 8.37977 29.5692 8.49227 29.4943 8.62727C29.4344 8.76227 29.4044 8.91226 29.4044 9.07727C29.4044 9.24227 29.4418 9.39977 29.5167 9.54977C29.6066 9.69978 29.7264 9.82727 29.8761 9.93227C30.0409 10.0223 30.2804 10.1273 30.5949 10.2473C30.9243 10.3673 31.3661 10.5023 31.9201 10.6523C32.6389 10.8473 33.2454 11.0648 33.7395 11.3048C34.2486 11.5448 34.6529 11.8223 34.9524 12.1373C35.207 12.4073 35.3941 12.7148 35.514 13.0598C35.6338 13.4048 35.6937 13.7873 35.6937 14.2073C35.6937 14.9423 35.484 15.5948 35.0647 16.1648C34.6604 16.7348 34.0989 17.1848 33.3801 17.5148C32.6614 17.8448 31.8527 18.0098 30.9543 18.0098Z" fill="#36364A"/>
<path d="M42.4816 18.0088C41.1938 18.0088 40.0633 17.7463 39.0899 17.2213C38.1316 16.6962 37.3829 15.9762 36.8438 15.0613C36.3196 14.1463 36.0576 13.0962 36.0576 11.9113C36.0576 10.9813 36.2073 10.1338 36.5069 9.36883C36.8064 8.60383 37.2256 7.94384 37.7647 7.38883C38.3038 6.81884 38.9402 6.38384 39.6739 6.08383C40.4227 5.76883 41.2313 5.61133 42.0998 5.61133C42.9084 5.61133 43.6572 5.76134 44.3459 6.06133C45.0347 6.36134 45.6262 6.78133 46.1204 7.32133C46.6295 7.84634 47.0189 8.47634 47.2884 9.21133C47.5579 9.93133 47.6778 10.7113 47.6478 11.5513L47.6253 12.5413H38.0792L37.5626 10.5838H44.9973L44.6379 10.9888V10.4938C44.608 10.0888 44.4732 9.72883 44.2336 9.41383C44.009 9.08384 43.717 8.82883 43.3576 8.64883C42.9982 8.45384 42.5939 8.35633 42.1447 8.35633C41.4858 8.35633 40.9243 8.48384 40.4601 8.73883C40.0109 8.99384 39.6664 9.36883 39.4269 9.86383C39.1873 10.3588 39.0675 10.9588 39.0675 11.6638C39.0675 12.3838 39.2172 13.0062 39.5167 13.5313C39.8312 14.0563 40.2655 14.4687 40.8195 14.7688C41.3885 15.0537 42.0549 15.1963 42.8186 15.1963C43.3427 15.1963 43.8218 15.1138 44.2561 14.9488C44.6904 14.7837 45.1546 14.4988 45.6487 14.0938L47.1761 16.2313C46.7418 16.6213 46.2627 16.9513 45.7386 17.2213C45.2144 17.4763 44.6753 17.6713 44.1213 17.8063C43.5673 17.9413 43.0207 18.0088 42.4816 18.0088Z" fill="#36364A"/>
<path d="M48.8818 17.7848V5.88227H51.9365L52.0264 8.31227L51.3975 8.58227C51.5622 8.04227 51.8542 7.55477 52.2735 7.11977C52.7077 6.66977 53.2244 6.30977 53.8233 6.03977C54.4223 5.76977 55.0513 5.63477 55.7101 5.63477C56.6085 5.63477 57.3573 5.81477 57.9562 6.17477C58.5702 6.53477 59.027 7.08227 59.3264 7.81727C59.6408 8.53727 59.7981 9.42978 59.7981 10.4948V17.7848H56.6085V10.7423C56.6085 10.2023 56.5337 9.75227 56.3839 9.39227C56.2342 9.03227 56.0021 8.76977 55.6876 8.60477C55.3882 8.43976 55.0138 8.36477 54.5645 8.37977C54.2051 8.37977 53.8682 8.43978 53.5538 8.55977C53.2543 8.66476 52.9922 8.82228 52.7676 9.03227C52.558 9.24227 52.3858 9.48227 52.251 9.75227C52.1313 10.0223 52.0713 10.3148 52.0713 10.6298V17.7848H50.499C50.1547 17.7848 49.8476 17.7848 49.5781 17.7848C49.3085 17.7848 49.0765 17.7848 48.8818 17.7848Z" fill="#36364A"/>
<path d="M66.381 18.0098C65.3329 18.0098 64.397 17.7473 63.5733 17.2223C62.7647 16.6823 62.1209 15.9547 61.6416 15.0398C61.1775 14.1097 60.9453 13.0373 60.9453 11.8223C60.9453 10.6373 61.1775 9.57977 61.6416 8.64977C62.1209 7.70477 62.7647 6.96977 63.5733 6.44477C64.397 5.90477 65.3329 5.63477 66.381 5.63477C66.9352 5.63477 67.4667 5.72477 67.9758 5.90477C68.4999 6.06977 68.9641 6.30227 69.3684 6.60227C69.7878 6.90227 70.1247 7.23977 70.3792 7.61477C70.6338 7.97477 70.7761 8.34977 70.806 8.73977L69.9973 8.89727V1.13477H73.2093V17.7848H70.177L70.0423 15.0398L70.6712 15.1073C70.6413 15.4822 70.5065 15.8422 70.2669 16.1873C70.0273 16.5323 69.7053 16.8473 69.301 17.1323C68.9118 17.4023 68.4625 17.6197 67.9533 17.7848C67.4592 17.9347 66.9352 18.0098 66.381 18.0098ZM67.0998 15.3548C67.6988 15.3548 68.2229 15.2048 68.6721 14.9048C69.1213 14.6047 69.4733 14.1923 69.7278 13.6673C69.9824 13.1422 70.1096 12.5273 70.1096 11.8223C70.1096 11.1323 69.9824 10.5248 69.7278 9.99977C69.4733 9.47477 69.1213 9.06227 68.6721 8.76227C68.2229 8.46227 67.6988 8.31227 67.0998 8.31227C66.5009 8.31227 65.9767 8.46227 65.5275 8.76227C65.0933 9.06227 64.7489 9.47477 64.4943 9.99977C64.2547 10.5248 64.1349 11.1323 64.1349 11.8223C64.1349 12.5273 64.2547 13.1422 64.4943 13.6673C64.7489 14.1923 65.0933 14.6047 65.5275 14.9048C65.9767 15.2048 66.5009 15.3548 67.0998 15.3548Z" fill="#36364A"/>
</g>
</g>
</g>
<defs>
<clipPath id="clip0_20_105">
<rect width="73" height="18" fill="white" transform="translate(0.280273 0.910156)"/>
</clipPath>
<clipPath id="clip1_20_105">
<rect width="73" height="18" fill="white" transform="translate(0.280273 0.910156)"/>
</clipPath>
<clipPath id="clip2_20_105">
<rect width="73" height="18" fill="white" transform="translate(0.280273 0.910156)"/>
</clipPath>
</defs>
</svg>
