<svg width="342" height="179" viewBox="0 0 342 179" fill="none" xmlns="http://www.w3.org/2000/svg">
<g opacity="0.5" clip-path="url(#clip0_1_10540)">
<g clip-path="url(#clip1_1_10540)">
<path d="M321.187 112.197H19.863C16.578 112.197 13.915 114.857 13.915 118.137V156.146C13.915 159.426 16.578 162.085 19.863 162.085H321.187C324.471 162.085 327.134 159.426 327.134 156.146V118.137C327.134 114.857 324.471 112.197 321.187 112.197Z" fill="#303030"/>
<path d="M46.7403 124.898H30.9205C28.518 124.898 26.5703 126.843 26.5703 129.242V145.039C26.5703 147.438 28.518 149.383 30.9205 149.383H46.7403C49.1429 149.383 51.0905 147.438 51.0905 145.039V129.242C51.0905 126.843 49.1429 124.898 46.7403 124.898Z" fill="#484848"/>
<path fill-rule="evenodd" clip-rule="evenodd" d="M37.446 131.81V134.969H40.2135V131.81H41.4005V134.969H43.3782V136.154H41.3997V138.128H43.3774V139.313H41.3997V142.472H40.2135V139.313H37.4452V142.472H36.2581V139.313H34.2812V138.128H36.2581V136.154H34.2812V134.969H36.2581V131.81H37.446ZM37.446 136.154V138.128H40.2135V136.154H37.446Z" fill="white"/>
<path d="M46.7403 124.898H30.9205C28.518 124.898 26.5703 126.843 26.5703 129.242V145.039C26.5703 147.438 28.518 149.383 30.9205 149.383H46.7403C49.1429 149.383 51.0905 147.438 51.0905 145.039V129.242C51.0905 126.843 49.1429 124.898 46.7403 124.898Z" stroke="#585858" stroke-width="0.790021"/>
<path d="M67.5838 134.81C67.5838 135.922 66.9256 136.428 66.1786 136.68V136.706C67.1278 136.869 67.9382 137.59 67.9382 138.942C67.9382 140.61 66.7488 141.571 64.8758 141.571H60.9775V132.534H64.622C66.4696 132.534 67.5838 133.407 67.5838 134.81ZM62.1162 136.314H64.7997C66.0906 136.314 66.4451 135.758 66.4451 134.936C66.4451 134.115 65.9637 133.546 64.9257 133.546H62.1162V136.314ZM62.1162 137.325V140.559H64.9892C66.4443 140.559 66.7987 139.789 66.7987 138.942C66.7987 137.969 66.1913 137.325 65.2421 137.325H62.1162ZM73.248 135.126H74.2606V141.571H73.248V140.8H73.2226C72.8808 141.255 72.1973 141.748 71.0966 141.748C69.9191 141.748 68.9318 141.103 68.9318 139.624V135.126H69.9444V139.372C69.9444 140.205 70.337 140.863 71.3496 140.863C72.4883 140.863 73.248 140.142 73.248 139.144V135.126ZM76.289 133.875C76.0107 133.875 75.6562 133.659 75.6562 133.268C75.6562 132.876 76.0107 132.661 76.289 132.661C76.58 132.661 76.9218 132.876 76.9218 133.268C76.9218 133.659 76.5808 133.875 76.289 133.875ZM75.7831 135.126H76.7949V141.571H75.7831V135.126ZM78.2278 132.535H79.2404V141.571H78.2278V132.535ZM85.2678 132.535H86.2804V141.571H85.2678V140.775H85.2424C84.8634 141.267 84.2552 141.748 83.218 141.748C81.5979 141.748 80.3078 140.471 80.3078 138.348C80.3078 136.226 81.5979 134.948 83.218 134.948C84.2552 134.948 84.8634 135.404 85.2424 135.96H85.2678V132.535ZM83.3195 140.863C84.5216 140.863 85.2678 139.865 85.2678 138.348C85.2678 136.831 84.5216 135.833 83.3195 135.833C81.9904 135.833 81.3196 137.084 81.3196 138.348C81.3196 139.612 81.9904 140.863 83.3195 140.863ZM91.1017 135.454H89.9614C89.9614 133.849 91.0121 132.662 93.1761 132.662C94.6692 132.662 95.9856 133.533 95.9856 135.075C95.9856 135.998 95.5296 136.579 94.6439 136.933V136.958C95.8841 137.299 96.302 138.095 96.302 139.119C96.302 140.837 95.0744 141.748 93.2015 141.748C90.974 141.748 89.7338 140.585 89.7338 138.614H90.8725C90.8725 139.878 91.4545 140.736 93.1126 140.736C94.6185 140.736 95.1633 140.168 95.1633 139.119C95.1633 137.754 94.1633 137.514 93.3156 137.514H92.3799V136.503H93.2657C94.1641 136.503 94.8477 136.086 94.8477 135.075C94.8477 134.367 94.3663 133.672 93.1769 133.672C91.468 133.672 91.1017 134.595 91.1017 135.454Z" fill="white"/>
<path d="M150.071 129.407H149.166C149.074 128.93 148.8 128.507 148.403 128.226C148.214 128.089 148.002 127.985 147.778 127.919C147.546 127.851 147.305 127.816 147.063 127.817C146.61 127.817 146.2 127.931 145.832 128.16C145.467 128.388 145.176 128.725 144.959 129.17C144.745 129.615 144.638 130.16 144.638 130.807C144.638 131.454 144.745 132 144.959 132.444C145.176 132.889 145.467 133.226 145.832 133.454C146.2 133.683 146.61 133.797 147.063 133.797C147.311 133.797 147.55 133.763 147.778 133.695C148.007 133.627 148.215 133.526 148.403 133.392C148.799 133.108 149.071 132.684 149.166 132.207H150.071C150.011 132.568 149.885 132.916 149.699 133.232C149.519 133.533 149.295 133.79 149.027 134.001C148.757 134.212 148.452 134.373 148.125 134.479C147.782 134.59 147.424 134.645 147.063 134.643C146.425 134.643 145.858 134.488 145.361 134.176C144.865 133.865 144.474 133.423 144.189 132.849C143.904 132.275 143.762 131.595 143.762 130.807C143.762 130.019 143.904 129.339 144.189 128.765C144.474 128.192 144.865 127.749 145.361 127.438C145.858 127.127 146.425 126.971 147.063 126.971C147.44 126.971 147.794 127.026 148.125 127.135C148.458 127.245 148.76 127.405 149.027 127.617C149.295 127.826 149.519 128.081 149.699 128.383C149.879 128.681 150.003 129.023 150.071 129.407ZM151.418 134.541V128.94H152.25V129.786H152.309C152.411 129.509 152.596 129.284 152.864 129.112C153.134 128.938 153.449 128.848 153.77 128.853C153.833 128.853 153.912 128.854 154.007 128.856C154.102 128.858 154.173 128.862 154.223 128.867V129.742C154.156 129.729 154.089 129.718 154.021 129.71C153.914 129.692 153.805 129.684 153.697 129.684C153.424 129.684 153.181 129.741 152.967 129.855C152.759 129.963 152.585 130.124 152.462 130.323C152.341 130.519 152.28 130.744 152.28 130.996V134.541H151.418ZM157.425 134.658C156.885 134.658 156.418 134.539 156.027 134.3C155.635 134.058 155.322 133.709 155.124 133.294C154.915 132.861 154.81 132.358 154.81 131.784C154.81 131.211 154.915 130.705 155.124 130.267C155.317 129.849 155.624 129.493 156.008 129.239C156.387 128.991 156.831 128.867 157.337 128.867C157.629 128.867 157.918 128.916 158.203 129.013C158.487 129.11 158.746 129.269 158.98 129.487C159.214 129.703 159.4 129.99 159.539 130.348C159.677 130.705 159.747 131.145 159.747 131.668V132.032H155.424V131.288H158.871C158.871 130.973 158.808 130.691 158.681 130.443C158.562 130.201 158.378 129.997 158.148 129.855C157.904 129.708 157.623 129.633 157.337 129.64C156.994 129.64 156.697 129.725 156.446 129.896C156.201 130.06 156.003 130.287 155.873 130.552C155.739 130.822 155.67 131.119 155.672 131.42V131.916C155.672 132.339 155.745 132.697 155.891 132.991C156.039 133.283 156.245 133.506 156.508 133.658C156.771 133.809 157.076 133.885 157.425 133.885C157.651 133.885 157.856 133.853 158.038 133.79C158.223 133.724 158.383 133.627 158.517 133.498C158.655 133.36 158.761 133.193 158.827 133.009L159.659 133.243C159.572 133.525 159.424 133.773 159.218 133.987C159 134.205 158.739 134.374 158.451 134.483C158.122 134.603 157.774 134.663 157.425 134.658ZM162.708 134.672C162.375 134.677 162.045 134.608 161.741 134.472C161.461 134.344 161.222 134.141 161.051 133.885C160.88 133.627 160.795 133.316 160.795 132.951C160.795 132.63 160.858 132.37 160.985 132.171C161.112 131.969 161.281 131.811 161.493 131.697C161.704 131.582 161.938 131.498 162.194 131.441C162.452 131.383 162.711 131.337 162.971 131.303C163.312 131.259 163.588 131.226 163.8 131.205C164.014 131.181 164.17 131.14 164.268 131.084C164.368 131.029 164.418 130.931 164.418 130.793V130.764C164.418 130.403 164.319 130.124 164.122 129.924C163.927 129.725 163.631 129.626 163.235 129.626C162.823 129.626 162.5 129.716 162.266 129.895C162.033 130.075 161.868 130.267 161.774 130.471L160.956 130.18C161.102 129.839 161.297 129.574 161.54 129.385C161.786 129.193 162.054 129.06 162.343 128.984C162.624 128.908 162.914 128.868 163.205 128.867C163.385 128.867 163.592 128.889 163.826 128.933C164.062 128.974 164.289 129.06 164.509 129.192C164.73 129.323 164.914 129.521 165.06 129.786C165.206 130.051 165.279 130.406 165.279 130.851V134.541H164.418V133.783H164.373C164.298 133.928 164.199 134.059 164.082 134.172C163.925 134.324 163.74 134.445 163.538 134.526C163.311 134.624 163.035 134.672 162.708 134.672ZM162.84 133.899C163.181 133.899 163.468 133.832 163.702 133.699C163.916 133.583 164.095 133.412 164.221 133.203C164.347 132.995 164.415 132.757 164.418 132.513V131.726C164.381 131.77 164.3 131.81 164.177 131.846C164.037 131.884 163.895 131.914 163.752 131.937C163.478 131.98 163.203 132.016 162.928 132.047C162.714 132.074 162.504 132.122 162.3 132.19C162.107 132.252 161.952 132.348 161.832 132.477C161.715 132.604 161.657 132.776 161.657 132.995C161.657 133.293 161.768 133.52 161.989 133.673C162.213 133.823 162.496 133.899 162.84 133.899ZM169.291 128.94V129.669H166.384V128.941H169.291V128.94ZM167.232 127.599H168.093V132.936C168.093 133.179 168.129 133.362 168.199 133.483C168.261 133.593 168.359 133.678 168.477 133.724C168.591 133.763 168.712 133.782 168.839 133.782C168.934 133.782 169.011 133.777 169.073 133.768L169.218 133.738L169.394 134.511C169.314 134.539 169.232 134.561 169.149 134.577C169.018 134.604 168.884 134.616 168.751 134.613C168.507 134.613 168.268 134.561 168.035 134.457C167.804 134.352 167.604 134.187 167.458 133.979C167.307 133.765 167.232 133.496 167.232 133.17V127.599ZM172.879 134.658C172.339 134.658 171.872 134.539 171.48 134.3C171.089 134.058 170.776 133.709 170.578 133.294C170.369 132.861 170.264 132.358 170.264 131.784C170.264 131.211 170.369 130.705 170.578 130.267C170.771 129.849 171.077 129.493 171.462 129.239C171.842 128.991 172.285 128.867 172.792 128.867C173.083 128.867 173.372 128.916 173.657 129.013C173.941 129.11 174.201 129.269 174.435 129.487C174.668 129.703 174.854 129.99 174.993 130.348C175.132 130.705 175.201 131.145 175.201 131.668V132.032H170.878V131.288H174.325C174.325 130.973 174.262 130.691 174.135 130.443C174.016 130.201 173.832 129.997 173.602 129.855C173.358 129.708 173.077 129.633 172.792 129.64C172.448 129.64 172.151 129.725 171.9 129.896C171.655 130.06 171.457 130.287 171.327 130.552C171.193 130.822 171.124 131.119 171.126 131.42V131.916C171.126 132.339 171.199 132.697 171.345 132.991C171.493 133.283 171.7 133.506 171.962 133.658C172.225 133.809 172.531 133.885 172.879 133.885C173.106 133.885 173.309 133.853 173.493 133.79C173.677 133.724 173.837 133.627 173.971 133.498C174.109 133.36 174.215 133.193 174.281 133.009L175.113 133.243C175.026 133.525 174.879 133.773 174.672 133.987C174.455 134.205 174.193 134.374 173.905 134.483C173.576 134.603 173.229 134.663 172.879 134.658ZM178.63 134.658C178.162 134.658 177.75 134.539 177.392 134.304C177.034 134.066 176.754 133.731 176.553 133.298C176.35 132.863 176.249 132.348 176.249 131.755C176.249 131.167 176.35 130.657 176.553 130.224C176.754 129.791 177.036 129.457 177.396 129.221C177.756 128.985 178.173 128.867 178.644 128.867C179.01 128.867 179.298 128.928 179.51 129.049C179.724 129.168 179.887 129.305 180 129.458C180.114 129.608 180.203 129.733 180.266 129.83H180.339V127.074H181.201V134.541H180.368V133.681H180.266C180.203 133.782 180.112 133.911 179.996 134.067C179.859 134.237 179.688 134.377 179.495 134.479C179.279 134.598 178.99 134.658 178.63 134.658ZM178.747 133.885C179.092 133.885 179.384 133.795 179.623 133.615C179.862 133.433 180.043 133.181 180.167 132.86C180.291 132.536 180.353 132.164 180.353 131.741C180.353 131.323 180.292 130.957 180.171 130.643C180.049 130.326 179.869 130.081 179.63 129.907C179.392 129.729 179.097 129.64 178.747 129.64C178.382 129.64 178.077 129.734 177.834 129.921C177.585 130.116 177.397 130.378 177.29 130.676C177.17 130.992 177.111 131.347 177.111 131.741C177.111 132.139 177.172 132.501 177.293 132.827C177.418 133.15 177.6 133.408 177.841 133.6C178.085 133.79 178.387 133.885 178.747 133.885Z" fill="#A1A1A1"/>
<path d="M219.693 140.991H146.926C145.178 140.991 143.762 142.406 143.762 144.151C143.762 145.896 145.178 147.31 146.926 147.31H219.693C221.441 147.31 222.857 145.896 222.857 144.151C222.857 142.406 221.441 140.991 219.693 140.991Z" fill="#484848"/>
<path d="M309.188 128.139H267.034C264.025 128.139 261.585 130.575 261.585 133.58V140.701C261.585 143.707 264.025 146.143 267.034 146.143H309.188C312.197 146.143 314.637 143.707 314.637 140.701V133.58C314.637 130.575 312.197 128.139 309.188 128.139Z" fill="#262626"/>
<path d="M272.422 139.966V134.222H274.472C274.918 134.222 275.288 134.298 275.582 134.451C275.878 134.605 276.099 134.817 276.245 135.088C276.391 135.357 276.464 135.669 276.464 136.022C276.464 136.374 276.39 136.683 276.242 136.95C276.091 137.221 275.859 137.437 275.579 137.57C275.285 137.718 274.915 137.792 274.469 137.792H272.917V137.046H274.391C274.672 137.046 274.901 137.006 275.077 136.925C275.242 136.855 275.38 136.732 275.467 136.575C275.553 136.404 275.596 136.214 275.591 136.022C275.591 135.805 275.549 135.618 275.464 135.459C275.378 135.297 275.241 135.169 275.074 135.094C274.898 135.007 274.666 134.965 274.38 134.965H273.29V139.966H272.422ZM275.262 137.374L276.683 139.966H275.694L274.301 137.374H275.262ZM279.216 140.053C278.812 140.053 278.459 139.96 278.157 139.776C277.853 139.588 277.61 139.319 277.455 138.998C277.288 138.665 277.205 138.277 277.205 137.832C277.205 137.384 277.288 136.994 277.455 136.659C277.609 136.337 277.853 136.067 278.157 135.879C278.459 135.694 278.812 135.602 279.216 135.602C279.62 135.602 279.973 135.694 280.275 135.879C280.576 136.064 280.811 136.324 280.977 136.659C281.144 136.994 281.227 137.384 281.227 137.831C281.227 138.277 281.144 138.665 280.977 138.998C280.811 139.331 280.576 139.59 280.275 139.775C279.973 139.96 279.62 140.053 279.216 140.053ZM279.218 139.348C279.481 139.348 279.698 139.279 279.87 139.141C280.047 138.996 280.179 138.805 280.252 138.589C280.337 138.359 280.379 138.106 280.379 137.828C280.381 137.571 280.339 137.314 280.252 137.071C280.18 136.854 280.047 136.66 279.87 136.513C279.698 136.373 279.481 136.303 279.218 136.303C278.954 136.303 278.736 136.373 278.562 136.513C278.385 136.66 278.251 136.854 278.176 137.071C278.094 137.301 278.053 137.554 278.053 137.828C278.053 138.106 278.094 138.359 278.176 138.589C278.261 138.818 278.389 139.003 278.562 139.141C278.736 139.28 278.954 139.348 279.218 139.348ZM283.004 134.222V139.966H282.164V134.222H283.004ZM284.974 134.222V139.966H284.134V134.222H284.974ZM286.171 139.966V134.222H287.011V136.356H287.062C287.123 136.246 287.194 136.142 287.273 136.044C287.364 135.926 287.491 135.824 287.654 135.736C287.817 135.646 288.032 135.601 288.3 135.601C288.648 135.601 288.959 135.689 289.233 135.866C289.506 136.041 289.721 136.294 289.876 136.626C290.034 136.956 290.112 137.354 290.112 137.82C290.112 138.285 290.035 138.685 289.879 139.018C289.741 139.328 289.519 139.593 289.238 139.783C288.962 139.963 288.638 140.056 288.309 140.05C288.047 140.05 287.832 140.006 287.666 139.918C287.517 139.843 287.385 139.738 287.278 139.609C287.198 139.511 287.125 139.406 287.062 139.296H286.992V139.966H286.171ZM286.994 137.812C286.994 138.114 287.039 138.38 287.127 138.608C287.215 138.836 287.342 139.015 287.508 139.144C287.675 139.27 287.879 139.335 288.12 139.335C288.372 139.335 288.581 139.268 288.75 139.136C288.918 139.001 289.046 138.819 289.132 138.589C289.22 138.359 289.264 138.1 289.264 137.812C289.264 137.527 289.221 137.273 289.135 137.046C289.061 136.835 288.928 136.649 288.752 136.51C288.584 136.379 288.373 136.314 288.12 136.314C287.877 136.314 287.671 136.377 287.503 136.502C287.329 136.637 287.197 136.819 287.124 137.026C287.033 137.278 286.989 137.544 286.994 137.812ZM292.311 140.061C292.038 140.061 291.79 140.011 291.569 139.909C291.356 139.813 291.174 139.658 291.044 139.464C290.916 139.27 290.853 139.03 290.853 138.749C290.853 138.505 290.9 138.305 290.993 138.148C291.087 137.991 291.214 137.867 291.372 137.775C291.532 137.684 291.71 137.615 291.906 137.568C292.103 137.52 292.303 137.486 292.507 137.461L293.137 137.388C293.298 137.368 293.415 137.335 293.488 137.29C293.561 137.245 293.597 137.172 293.597 137.071V137.052C293.597 136.806 293.528 136.616 293.39 136.482C293.252 136.347 293.049 136.28 292.777 136.28C292.494 136.28 292.271 136.343 292.109 136.468C291.947 136.592 291.836 136.729 291.774 136.88L290.985 136.701C291.079 136.44 291.215 136.228 291.395 136.067C291.577 135.904 291.785 135.786 292.022 135.713C292.262 135.638 292.513 135.6 292.766 135.602C292.938 135.602 293.121 135.622 293.313 135.664C293.509 135.703 293.69 135.775 293.858 135.882C294.029 135.988 294.168 136.141 294.277 136.339C294.386 136.535 294.44 136.79 294.44 137.105V139.966H293.62V139.376H293.586C293.523 139.496 293.441 139.604 293.342 139.696C293.22 139.809 293.078 139.898 292.923 139.958C292.728 140.031 292.52 140.066 292.311 140.061V140.061ZM292.494 139.388C292.726 139.388 292.924 139.342 293.089 139.251C293.256 139.159 293.382 139.039 293.468 138.891C293.555 138.746 293.6 138.581 293.6 138.412V137.857C293.549 137.898 293.49 137.926 293.426 137.941C293.331 137.968 293.234 137.989 293.137 138.005L292.819 138.053L292.561 138.087C292.409 138.105 292.259 138.14 292.114 138.19C291.991 138.232 291.881 138.305 291.794 138.401C291.712 138.502 291.67 138.63 291.676 138.76C291.676 138.967 291.753 139.124 291.906 139.231C292.06 139.335 292.256 139.388 292.494 139.388ZM297.376 140.053C296.958 140.053 296.599 139.958 296.297 139.769C295.997 139.577 295.757 139.304 295.606 138.981C295.445 138.646 295.365 138.263 295.365 137.832C295.365 137.394 295.447 137.008 295.612 136.673C295.776 136.337 296.009 136.074 296.309 135.885C296.608 135.696 296.961 135.602 297.367 135.602C297.695 135.602 297.987 135.662 298.244 135.784C298.5 135.903 298.707 136.072 298.864 136.288C299.024 136.505 299.118 136.759 299.148 137.049H298.331C298.286 136.847 298.178 136.664 298.022 136.527C297.863 136.381 297.649 136.308 297.381 136.308C297.147 136.308 296.942 136.37 296.766 136.493C296.592 136.615 296.457 136.789 296.359 137.015C296.256 137.268 296.207 137.539 296.213 137.812C296.213 138.125 296.261 138.397 296.356 138.625C296.452 138.853 296.587 139.03 296.761 139.156C296.937 139.281 297.144 139.343 297.381 139.343C297.541 139.343 297.685 139.314 297.814 139.256C297.945 139.197 298.055 139.111 298.143 139.001C298.232 138.89 298.295 138.758 298.331 138.603H299.148C299.122 138.87 299.029 139.127 298.876 139.349C298.721 139.57 298.511 139.748 298.266 139.865C298.013 139.99 297.717 140.053 297.376 140.053ZM300.819 138.504L300.813 137.481H300.959L302.678 135.657H303.684L301.723 137.733H301.591L300.819 138.504ZM300.047 139.966V134.222H300.886V139.966H300.047ZM302.771 139.966L301.226 137.918L301.805 137.332L303.802 139.966H302.771Z" fill="white"/>
<path d="M309.188 128.139H267.034C264.025 128.139 261.585 130.575 261.585 133.58V140.701C261.585 143.707 264.025 146.143 267.034 146.143H309.188C312.197 146.143 314.637 143.707 314.637 140.701V133.58C314.637 130.575 312.197 128.139 309.188 128.139Z" stroke="#484848" stroke-width="0.473854"/>
<path d="M321.187 112.197H19.863C16.578 112.197 13.915 114.857 13.915 118.137V156.146C13.915 159.426 16.578 162.085 19.863 162.085H321.187C324.471 162.085 327.134 159.426 327.134 156.146V118.137C327.134 114.857 324.471 112.197 321.187 112.197Z" stroke="#484848" stroke-width="0.790021"/>
</g>
</g>
<g opacity="0.5" clip-path="url(#clip2_1_10540)">
<g clip-path="url(#clip3_1_10540)">
<path d="M321.187 15.2725H19.863C16.578 15.2725 13.915 17.9317 13.915 21.2121V59.2207C13.915 62.5011 16.578 65.1604 19.863 65.1604H321.187C324.471 65.1604 327.134 62.5011 327.134 59.2207V21.2121C327.134 17.9317 324.471 15.2725 321.187 15.2725Z" fill="#303030"/>
<path d="M46.7403 27.9736H30.9205C28.518 27.9736 26.5703 29.9185 26.5703 32.3176V48.1146C26.5703 50.5137 28.518 52.4585 30.9205 52.4585H46.7403C49.1429 52.4585 51.0905 50.5137 51.0905 48.1146V32.3176C51.0905 29.9185 49.1429 27.9736 46.7403 27.9736Z" fill="#484848"/>
<path fill-rule="evenodd" clip-rule="evenodd" d="M37.446 34.8848V38.0442H40.2135V34.8848H41.4005V38.0442H43.3782V39.2287H41.3997V41.2036H43.3774V42.3881H41.3997V45.5475H40.2135V42.3881H37.4452V45.5475H36.2581V42.3881H34.2812V41.2036H36.2581V39.2287H34.2812V38.045H36.2581V34.8856H37.4452L37.446 34.8848ZM37.446 39.2287V41.2036H40.2135V39.2287H37.446Z" fill="white"/>
<path d="M46.7403 27.9736H30.9205C28.518 27.9736 26.5703 29.9185 26.5703 32.3176V48.1146C26.5703 50.5137 28.518 52.4585 30.9205 52.4585H46.7403C49.1429 52.4585 51.0905 50.5137 51.0905 48.1146V32.3176C51.0905 29.9185 49.1429 27.9736 46.7403 27.9736Z" stroke="#585858" stroke-width="0.790021"/>
<path d="M67.583 37.8845C67.583 38.8109 67.1151 39.4349 66.1778 39.7548V39.7801C66.6724 39.8531 67.1228 40.105 67.4434 40.488C67.7725 40.8673 67.9374 41.3772 67.9374 42.017C67.9374 42.8429 67.6631 43.4875 67.1143 43.9507C66.5664 44.4139 65.8194 44.6459 64.8742 44.6459H60.9775V35.6104H64.622C65.5419 35.6104 66.2635 35.8162 66.7868 36.2296C67.3181 36.6334 67.583 37.1853 67.583 37.8845ZM64.7989 39.389C65.4063 39.389 65.8321 39.2702 66.0771 39.035C66.3214 38.799 66.4435 38.457 66.4435 38.0112C66.4435 37.5812 66.3166 37.2447 66.0644 37C65.8107 36.7474 65.4317 36.6207 64.9249 36.6207H62.1155V39.3882L64.7989 39.389ZM62.1155 43.6347H64.9884C66.1953 43.6347 66.7979 43.0955 66.7979 42.017C66.7979 41.5285 66.6552 41.1365 66.3682 40.842C66.0898 40.5466 65.7139 40.3993 65.2421 40.3993H62.1155V43.6347ZM74.2598 38.2004V44.6459H73.2472V43.8747H73.2218C73.0188 44.1439 72.7405 44.3719 72.386 44.5572C72.0315 44.7346 71.601 44.8225 71.0958 44.8225C70.4623 44.8225 69.9437 44.6459 69.5392 44.292C69.134 43.9293 68.931 43.3988 68.931 42.6996V38.2004H69.9436V42.447C69.9436 42.8936 70.0578 43.2554 70.2854 43.5334C70.513 43.8026 70.8675 43.938 71.348 43.938C71.9142 43.938 72.3693 43.7781 72.7151 43.4582C73.0695 43.1375 73.2464 42.7249 73.2464 42.2189V38.2004H74.2598ZM76.2882 36.9493C76.1298 36.9471 75.9773 36.8891 75.8576 36.7854C75.7916 36.7326 75.7389 36.665 75.7038 36.5881C75.6686 36.5113 75.6521 36.4272 75.6554 36.3428C75.6554 36.1575 75.7228 36.0102 75.8576 35.901C75.9771 35.797 76.1297 35.7386 76.2882 35.7363C76.4472 35.736 76.6006 35.7947 76.7188 35.901C76.8536 36.0102 76.921 36.1575 76.921 36.3428C76.921 36.5281 76.8536 36.6754 76.7188 36.7854C76.6007 36.8916 76.4471 36.9501 76.2882 36.9493ZM76.7941 38.2004V44.6459H75.7823V38.2004H76.7941ZM79.2396 35.6104V44.6451H78.227V35.6104H79.2396ZM86.2796 35.6104V44.6451H85.267V43.8493H85.2416C84.7444 44.4986 84.0688 44.8233 83.2172 44.8233C82.6954 44.828 82.1826 44.688 81.7359 44.4186C81.2974 44.1399 80.9477 43.744 80.686 43.2309C80.4323 42.7162 80.3062 42.1144 80.3062 41.4232C80.3062 40.7327 80.4331 40.1301 80.686 39.6162C80.9477 39.1015 81.2974 38.7104 81.7367 38.4411C82.1803 38.164 82.6939 38.0192 83.2172 38.0238C84.1029 38.0238 84.7777 38.3612 85.2416 39.035H85.267V35.6104H86.2796ZM83.3187 43.938C83.9174 43.938 84.3892 43.7107 84.7357 43.2554C85.0902 42.7922 85.267 42.1817 85.267 41.4232C85.267 40.6646 85.0902 40.058 84.7357 39.6035C84.39 39.1403 83.9174 38.9083 83.3179 38.9083C82.8968 38.9083 82.5336 39.0263 82.2299 39.2623C81.9262 39.4982 81.6986 39.8102 81.5464 40.1974C81.3925 40.5876 81.3152 41.0038 81.3188 41.4232C81.3188 41.861 81.3949 42.2744 81.5464 42.6616C81.6986 43.0409 81.9262 43.3481 82.2299 43.5841C82.5336 43.82 82.896 43.938 83.3187 43.938ZM92.8977 35.9136V44.6459H91.759V38.1125C91.5132 38.3398 91.265 38.4831 91.0121 38.5417C90.767 38.5924 90.4094 38.6177 89.936 38.6177V37.7966C90.6536 37.7966 91.1595 37.6406 91.4545 37.3294C91.7582 37.0087 91.9446 36.5368 92.012 35.9136H92.8977Z" fill="white"/>
<path d="M149.546 32.4825H148.64C148.548 32.0052 148.275 31.5819 147.878 31.3011C147.688 31.1645 147.477 31.0611 147.253 30.9955C147.021 30.9266 146.78 30.8919 146.537 30.8925C146.085 30.8925 145.674 31.0074 145.307 31.2362C144.941 31.4642 144.651 31.8008 144.434 32.2458C144.22 32.6908 144.113 33.2364 144.113 33.8833C144.113 34.5294 144.22 35.0758 144.434 35.52C144.651 35.965 144.941 36.3015 145.307 36.5304C145.674 36.7584 146.085 36.8732 146.537 36.8732C146.786 36.8732 147.024 36.8392 147.253 36.7703C147.482 36.703 147.69 36.6016 147.878 36.4686C148.273 36.1843 148.546 35.7606 148.64 35.2832H149.546C149.485 35.6446 149.359 35.9919 149.173 36.3079C148.822 36.9037 148.261 37.3481 147.6 37.555C147.257 37.6662 146.898 37.7215 146.537 37.7189C145.899 37.7189 145.332 37.5629 144.836 37.2517C144.339 36.9413 143.948 36.4987 143.664 35.9246C143.379 35.3513 143.236 34.6704 143.236 33.8833C143.236 33.0954 143.379 32.4152 143.664 31.8412C143.948 31.2679 144.339 30.8252 144.836 30.5141C145.332 30.2029 145.899 30.0469 146.537 30.0469C146.915 30.0469 147.269 30.1023 147.6 30.2116C147.933 30.3208 148.234 30.4808 148.502 30.6922C148.77 30.9013 148.993 31.157 149.173 31.4579C149.354 31.7572 149.478 32.0993 149.546 32.4825ZM150.892 37.6167V32.0161H151.725V32.8618H151.784C151.886 32.5847 152.071 32.3598 152.339 32.1872C152.609 32.0141 152.924 31.9244 153.244 31.929C153.307 31.929 153.386 31.9298 153.481 31.9322C153.577 31.9346 153.648 31.9386 153.697 31.9433V32.8183C153.631 32.8048 153.563 32.7939 153.496 32.7858C153.389 32.7682 153.28 32.7594 153.171 32.7597C152.899 32.7597 152.655 32.8175 152.441 32.9315C152.234 33.0391 152.06 33.2005 151.937 33.3987C151.815 33.5951 151.754 33.8199 151.754 34.0725V37.6167H150.892ZM156.899 37.7331C156.359 37.7331 155.893 37.6144 155.5 37.3768C155.109 37.1343 154.796 36.7847 154.599 36.3696C154.389 35.9373 154.285 35.4337 154.285 34.8604C154.285 34.2863 154.389 33.7811 154.599 33.3433C154.792 32.9254 155.098 32.5694 155.482 32.3155C155.862 32.0676 156.305 31.9433 156.812 31.9433C157.104 31.9433 157.392 31.9916 157.677 32.089C157.962 32.1864 158.221 32.344 158.455 32.5633C158.688 32.7795 158.874 33.0661 159.013 33.4232C159.152 33.7811 159.222 34.2206 159.222 34.7432V35.1074H154.899V34.3647H158.346C158.346 34.048 158.282 33.7661 158.155 33.5182C158.037 33.2762 157.852 33.0728 157.622 32.9315C157.378 32.7839 157.097 32.7091 156.812 32.7161C156.469 32.7161 156.171 32.8016 155.921 32.9719C155.675 33.1364 155.477 33.3625 155.347 33.6275C155.214 33.8972 155.145 34.1944 155.147 34.4954V34.9918C155.147 35.4147 155.22 35.7726 155.366 36.0671C155.514 36.3585 155.72 36.5818 155.983 36.7347C156.246 36.8851 156.551 36.9603 156.899 36.9603C157.126 36.9603 157.33 36.9286 157.513 36.8653C157.698 36.8004 157.857 36.703 157.991 36.5739C158.129 36.4359 158.235 36.2691 158.301 36.0854L159.134 36.3189C159.048 36.5986 158.897 36.8538 158.692 37.0633C158.475 37.2811 158.213 37.4498 157.925 37.5582C157.597 37.679 157.249 37.7383 156.899 37.7331ZM162.183 37.7482C161.827 37.7482 161.505 37.6809 161.215 37.5479C160.935 37.4196 160.696 37.2162 160.525 36.9603C160.355 36.703 160.269 36.3918 160.269 36.0268C160.269 35.7061 160.333 35.4463 160.46 35.2468C160.584 35.0469 160.759 34.8833 160.967 34.7725C161.179 34.6585 161.413 34.573 161.668 34.5175C161.926 34.4589 162.185 34.413 162.446 34.379C162.787 34.3354 163.063 34.3022 163.275 34.2808C163.489 34.2562 163.645 34.2158 163.743 34.1604C163.842 34.1042 163.892 34.0068 163.892 33.8682V33.8389C163.892 33.4794 163.793 33.1999 163.596 33.0004C163.402 32.8016 163.106 32.7019 162.708 32.7019C162.298 32.7019 161.975 32.7913 161.741 32.9711C161.507 33.1516 161.343 33.3433 161.248 33.5475L160.43 33.2562C160.576 32.9157 160.771 32.6504 161.015 32.4612C161.261 32.2687 161.529 32.1349 161.818 32.0597C162.099 31.9835 162.389 31.9444 162.68 31.9433C162.86 31.9433 163.067 31.9647 163.3 32.009C163.536 32.0502 163.764 32.1365 163.984 32.268C164.205 32.3994 164.389 32.5974 164.535 32.8618C164.681 33.1271 164.754 33.4818 164.754 33.9268V37.6167H163.892V36.8582H163.848C163.772 37.0032 163.674 37.135 163.556 37.2485C163.399 37.4005 163.215 37.5207 163.012 37.6025C162.785 37.6991 162.509 37.7482 162.183 37.7482ZM162.314 36.9754C162.655 36.9754 162.942 36.9081 163.176 36.7742C163.391 36.6586 163.57 36.4878 163.696 36.2794C163.822 36.0711 163.889 35.8329 163.892 35.5897V34.8018C163.855 34.8454 163.775 34.8857 163.651 34.9222C163.511 34.96 163.37 34.9904 163.227 35.0132C162.953 35.0557 162.678 35.0922 162.402 35.1225C162.189 35.1493 161.979 35.197 161.774 35.265C161.582 35.3284 161.426 35.4242 161.307 35.5532C161.19 35.6799 161.131 35.8518 161.131 36.0711C161.131 36.3696 161.242 36.5961 161.464 36.7489C161.688 36.8994 161.971 36.9754 162.314 36.9754ZM168.766 32.0161V32.7454H165.859V32.0161H168.766ZM166.707 30.674H167.568V36.0125C167.568 36.2556 167.603 36.4377 167.674 36.5589C167.736 36.6687 167.834 36.754 167.952 36.8004C168.066 36.8392 168.186 36.8582 168.313 36.8582C168.408 36.8582 168.486 36.8534 168.546 36.8439L168.693 36.8146L168.868 37.5874C168.788 37.6152 168.706 37.6371 168.623 37.6532C168.492 37.68 168.359 37.6922 168.225 37.6896C167.982 37.6896 167.743 37.6373 167.51 37.5328C167.278 37.4282 167.079 37.2633 166.933 37.0553C166.782 36.8415 166.707 36.5715 166.707 36.2461V30.6732V30.674ZM172.353 37.7331C171.813 37.7331 171.347 37.6144 170.955 37.3768C170.564 37.1343 170.251 36.7847 170.053 36.3696C169.844 35.9373 169.739 35.4337 169.739 34.8604C169.739 34.2863 169.844 33.7811 170.053 33.3433C170.246 32.9252 170.552 32.5692 170.936 32.3155C171.316 32.0676 171.759 31.9433 172.265 31.9433C172.558 31.9433 172.847 31.9916 173.131 32.089C173.416 32.1864 173.675 32.344 173.909 32.5633C174.142 32.7795 174.329 33.0661 174.467 33.4232C174.606 33.7811 174.676 34.2206 174.676 34.7432V35.1074H170.353V34.3647H173.8C173.8 34.048 173.736 33.7661 173.609 33.5182C173.491 33.2766 173.306 33.0732 173.077 32.9315C172.832 32.7839 172.551 32.7091 172.265 32.7161C171.923 32.7161 171.625 32.8016 171.375 32.9719C171.129 33.1364 170.932 33.3625 170.802 33.6275C170.668 33.8972 170.599 34.1944 170.601 34.4954V34.9918C170.601 35.4147 170.674 35.7726 170.82 36.0671C170.968 36.3585 171.174 36.5818 171.437 36.7347C171.7 36.8851 172.005 36.9603 172.353 36.9603C172.579 36.9603 172.784 36.9286 172.967 36.8653C173.152 36.8004 173.311 36.703 173.445 36.5739C173.583 36.4359 173.689 36.2691 173.755 36.0854L174.588 36.3189C174.502 36.5986 174.351 36.8538 174.146 37.0633C173.929 37.2811 173.668 37.4498 173.379 37.5582C173.051 37.679 172.703 37.7383 172.353 37.7331ZM178.105 37.7331C177.637 37.7331 177.225 37.6152 176.867 37.38C176.509 37.1417 176.229 36.8059 176.026 36.3736C175.825 35.9381 175.723 35.4242 175.723 34.8311C175.723 34.2428 175.825 33.732 176.026 33.2997C176.229 32.8666 176.51 32.5324 176.87 32.2972C177.231 32.0613 177.646 31.9433 178.119 31.9433C178.485 31.9433 178.772 32.0043 178.984 32.1254C179.199 32.2442 179.362 32.3804 179.473 32.534C179.588 32.6845 179.677 32.8088 179.741 32.9062H179.814V30.149H180.675V37.6167H179.843V36.756H179.741C179.677 36.859 179.587 36.9872 179.47 37.1424C179.333 37.3121 179.163 37.4522 178.97 37.5542C178.753 37.6738 178.465 37.7331 178.105 37.7331ZM178.221 36.9603C178.567 36.9603 178.859 36.8708 179.098 36.6911C179.336 36.509 179.518 36.2564 179.642 35.9357C179.766 35.6126 179.828 35.2389 179.828 34.8161C179.828 34.3988 179.767 34.0321 179.646 33.7186C179.523 33.4026 179.343 33.1572 179.105 32.9822C178.866 32.8048 178.572 32.7161 178.221 32.7161C177.856 32.7161 177.552 32.8096 177.309 32.9972C177.06 33.1925 176.871 33.4541 176.765 33.7518C176.641 34.093 176.58 34.4539 176.585 34.8168C176.585 35.2151 176.647 35.577 176.768 35.9032C176.892 36.2263 177.075 36.4836 177.316 36.6761C177.559 36.8661 177.861 36.9603 178.221 36.9603Z" fill="#A1A1A1"/>
<path d="M207.304 44.0674H146.4C144.653 44.0674 143.236 45.4819 143.236 47.2269C143.236 48.9718 144.653 50.3863 146.4 50.3863H207.304C209.051 50.3863 210.468 48.9718 210.468 47.2269C210.468 45.4819 209.051 44.0674 207.304 44.0674Z" fill="#484848"/>
<path d="M309.188 31.3701H265.984C262.975 31.3701 260.535 33.8064 260.535 36.8117V43.6224C260.535 46.6276 262.975 49.0639 265.984 49.0639H309.188C312.198 49.0639 314.638 46.6276 314.638 43.6224V36.8117C314.638 33.8064 312.198 31.3701 309.188 31.3701Z" fill="#262626"/>
<path d="M276.727 42.6754H274.864V36.9307H276.786C277.349 36.9307 277.833 37.0463 278.238 37.2759C278.641 37.502 278.965 37.8454 279.168 38.2601C279.385 38.6869 279.494 39.1985 279.494 39.7947C279.494 40.3933 279.384 40.9072 279.165 41.3372C278.947 41.7671 278.633 42.0981 278.221 42.3301C277.809 42.5598 277.311 42.6754 276.727 42.6754ZM275.733 41.9176H276.679C277.117 41.9176 277.481 41.8352 277.771 41.6713C278.061 41.5051 278.279 41.2643 278.423 40.9508C278.567 40.634 278.64 40.2492 278.64 39.7947C278.64 39.3434 278.567 38.9617 278.423 38.6473C278.293 38.3468 278.07 38.096 277.786 37.9323C277.503 37.7692 277.152 37.6884 276.732 37.6884H275.733V41.9176ZM282.365 42.7617C281.94 42.7617 281.574 42.6714 281.267 42.4901C280.961 42.3066 280.715 42.0388 280.559 41.7188C280.394 41.3863 280.311 40.9959 280.311 40.5493C280.311 40.1075 280.394 39.7187 280.559 39.3822C280.725 39.0456 280.957 38.7827 281.256 38.5943C281.555 38.405 281.905 38.3108 282.305 38.3108C282.549 38.3108 282.785 38.3504 283.014 38.4312C283.242 38.5119 283.447 38.6378 283.629 38.8105C283.811 38.9823 283.953 39.2056 284.059 39.4803C284.163 39.7535 284.216 40.0853 284.216 40.4765V40.7734H280.786V40.1455H283.393C283.397 39.942 283.351 39.7407 283.258 39.5595C283.17 39.3863 283.034 39.2419 282.866 39.1434C282.698 39.0449 282.506 38.9964 282.311 39.0037C282.076 39.0037 281.869 39.0615 281.693 39.1779C281.522 39.2895 281.382 39.444 281.289 39.626C281.195 39.8112 281.147 40.0162 281.149 40.2239V40.7148C281.149 41.0022 281.199 41.2477 281.3 41.4496C281.403 41.6515 281.547 41.8059 281.73 41.9121C281.914 42.0166 282.128 42.0696 282.373 42.0696C282.521 42.0712 282.668 42.0484 282.808 42.0023C282.937 41.9592 283.054 41.8876 283.15 41.793C283.247 41.6984 283.321 41.5832 283.367 41.456L284.163 41.5985C284.101 41.8281 283.983 42.039 283.82 42.2122C283.657 42.3864 283.452 42.5218 283.205 42.6192C282.936 42.7183 282.651 42.7666 282.365 42.7617ZM285.147 44.2907V38.367H285.968V39.0654H286.038C286.1 38.9561 286.17 38.852 286.249 38.7542C286.34 38.6355 286.468 38.5333 286.63 38.4454C286.794 38.356 287.009 38.3108 287.277 38.3108C287.625 38.3108 287.936 38.3987 288.209 38.5745C288.483 38.7503 288.697 39.0037 288.852 39.3347C289.01 39.6656 289.089 40.0631 289.089 40.5295C289.089 40.9951 289.011 41.3942 288.855 41.7268C288.718 42.0368 288.496 42.3021 288.215 42.4925C287.938 42.6717 287.615 42.7646 287.285 42.7593C287.023 42.7593 286.809 42.7158 286.642 42.6279C286.493 42.5526 286.361 42.4475 286.254 42.3191C286.174 42.2203 286.102 42.1151 286.038 42.0047H285.987V44.2907H285.147ZM285.971 40.5216C285.971 40.8241 286.015 41.0893 286.103 41.3174C286.191 41.5454 286.318 41.7244 286.484 41.8535C286.651 41.9802 286.856 42.0435 287.097 42.0435C287.348 42.0435 287.557 41.9778 287.726 41.8455C287.894 41.7109 288.022 41.528 288.108 41.2984C288.196 41.068 288.24 40.809 288.24 40.5208C288.24 40.2365 288.197 39.9816 288.111 39.7551C288.037 39.5439 287.905 39.3581 287.729 39.2198C287.56 39.0884 287.35 39.0235 287.097 39.0235C286.854 39.0235 286.648 39.086 286.479 39.2111C286.305 39.3465 286.174 39.5286 286.1 39.7361C286.009 39.9876 285.965 40.2543 285.971 40.5216ZM290.87 36.9307V42.6754H290.03V36.9307H290.87ZM293.816 42.7617C293.412 42.7617 293.059 42.6698 292.758 42.4845C292.454 42.2973 292.211 42.0279 292.055 41.7078C291.889 41.3752 291.805 40.9856 291.805 40.5406C291.805 40.094 291.889 39.7029 292.055 39.3687C292.222 39.0338 292.456 38.7732 292.758 38.5888C293.059 38.4035 293.412 38.3108 293.816 38.3108C294.221 38.3108 294.574 38.4035 294.876 38.588C295.177 38.774 295.411 39.0338 295.577 39.3679C295.744 39.7029 295.828 40.094 295.828 40.5406C295.828 40.9856 295.744 41.3744 295.577 41.7078C295.411 42.0403 295.177 42.2993 294.876 42.4838C294.574 42.6698 294.221 42.7617 293.816 42.7617ZM293.819 42.0577C294.081 42.0577 294.298 41.9889 294.471 41.8503C294.643 41.7117 294.77 41.528 294.853 41.2984C294.937 41.068 294.98 40.8146 294.98 40.5382C294.983 40.2801 294.94 40.0235 294.853 39.7805C294.78 39.5626 294.648 39.3693 294.471 39.2222C294.298 39.0821 294.081 39.0124 293.819 39.0124C293.555 39.0124 293.336 39.0821 293.162 39.2222C292.985 39.3695 292.852 39.5626 292.777 39.7805C292.693 40.024 292.651 40.2804 292.654 40.5382C292.654 40.8146 292.695 41.068 292.777 41.2984C292.861 41.528 292.99 41.7125 293.162 41.8503C293.336 41.9889 293.555 42.0577 293.819 42.0577ZM297.149 44.2907C296.954 44.2918 296.761 44.2605 296.577 44.1981L296.779 43.5108C296.932 43.5519 297.069 43.5701 297.189 43.5646C297.307 43.5594 297.42 43.5116 297.506 43.43C297.599 43.3453 297.682 43.2083 297.753 43.0174L297.857 42.7316L296.278 38.367H297.178L298.27 41.7101H298.315L299.407 38.367H300.309L298.531 43.2502C298.459 43.4563 298.353 43.6488 298.216 43.8196C298.09 43.9763 297.937 44.0943 297.761 44.1727C297.585 44.2519 297.381 44.2907 297.149 44.2907Z" fill="white"/>
<path d="M309.188 31.3701H265.984C262.975 31.3701 260.535 33.8064 260.535 36.8117V43.6224C260.535 46.6276 262.975 49.0639 265.984 49.0639H309.188C312.198 49.0639 314.638 46.6276 314.638 43.6224V36.8117C314.638 33.8064 312.198 31.3701 309.188 31.3701Z" stroke="#484848" stroke-width="0.473854"/>
<path d="M321.187 15.2725H19.863C16.578 15.2725 13.915 17.9317 13.915 21.2121V59.2207C13.915 62.5011 16.578 65.1604 19.863 65.1604H321.187C324.471 65.1604 327.134 62.5011 327.134 59.2207V21.2121C327.134 17.9317 324.471 15.2725 321.187 15.2725Z" stroke="#484848" stroke-width="0.790021"/>
</g>
</g>
<g clip-path="url(#clip4_1_10540)">
<g clip-path="url(#clip5_1_10540)">
<path d="M331.124 62.0801H10.1378C6.63851 62.0801 3.80176 64.9228 3.80176 68.4294V109.06C3.80176 112.566 6.63851 115.409 10.1378 115.409H331.124C334.623 115.409 337.46 112.566 337.46 109.06V68.4294C337.46 64.9228 334.623 62.0801 331.124 62.0801Z" fill="#303030"/>
<path d="M38.7689 75.6582H21.9172C19.3579 75.6582 17.2832 77.7373 17.2832 80.3019V97.1888C17.2832 99.7534 19.3579 101.832 21.9172 101.832H38.7689C41.3282 101.832 43.4029 99.7534 43.4029 97.1888V80.3019C43.4029 77.7373 41.3282 75.6582 38.7689 75.6582Z" fill="#484848"/>
<path fill-rule="evenodd" clip-rule="evenodd" d="M28.8683 83.0459V86.423H31.8162V83.0459H33.0808V86.423H35.1874V87.6892H33.0799V89.8001H35.1866V91.0663H33.0799V94.4434H31.8162V91.0663H28.8674V94.4434H27.6029V91.0663H25.4971V89.8001H27.6029V87.6892H25.4971V86.423H27.6029V83.0459H28.8683ZM28.8683 87.6892V89.8001H31.8162V87.6892H28.8683Z" fill="white"/>
<path d="M38.7689 75.6582H21.9172C19.3579 75.6582 17.2832 77.7373 17.2832 80.3019V97.1888C17.2832 99.7534 19.3579 101.832 21.9172 101.832H38.7689C41.3282 101.832 43.4029 99.7534 43.4029 97.1888V80.3019C43.4029 77.7373 41.3282 75.6582 38.7689 75.6582Z" stroke="#585858" stroke-width="0.843008"/>
<path d="M60.9709 86.252C60.9709 87.2423 60.4725 87.9092 59.4741 88.2512V88.2783C60.0009 88.3563 60.4807 88.6256 60.8222 89.0349C61.1728 89.4404 61.3485 89.9846 61.3485 90.6685C61.3485 91.5521 61.0562 92.2411 60.4717 92.7362C59.888 93.2314 59.0923 93.4794 58.0854 93.4794H53.9346V83.8203H57.8168C58.7966 83.8203 59.5653 84.0412 60.1228 84.4822C60.6888 84.9147 60.9709 85.5046 60.9709 86.252ZM58.0052 87.8601C58.6522 87.8601 59.1058 87.7332 59.3668 87.481C59.627 87.2296 59.7571 86.8648 59.7571 86.3874C59.7571 85.9278 59.6219 85.5673 59.3533 85.3066C59.083 85.0357 58.6792 84.9012 58.1395 84.9012H55.1467V87.8593L58.0052 87.8601ZM55.1467 92.3985H58.207C59.4927 92.3985 60.1346 91.8221 60.1346 90.6693C60.1346 90.1471 59.9826 89.7281 59.6768 89.4133C59.3803 89.0976 58.9799 88.9401 58.4773 88.9401H55.1467V92.3985ZM68.0832 86.5897V93.4794H67.0046V92.6541H66.9775C66.7613 92.9419 66.4648 93.1857 66.0872 93.3837C65.7096 93.5725 65.251 93.6673 64.7129 93.6673C64.038 93.6673 63.4856 93.4777 63.0548 93.1002C62.6231 92.7125 62.4069 92.1454 62.4069 91.3981V86.5889H63.4856V91.1281C63.4856 91.6046 63.6072 91.9914 63.8496 92.2893C64.0921 92.5771 64.4696 92.721 64.9815 92.721C65.5846 92.721 66.0695 92.5509 66.4378 92.2081C66.8154 91.8661 67.0037 91.4252 67.0037 90.8843V86.5889L68.0832 86.5897ZM70.244 85.2524C70.0753 85.25 69.9128 85.188 69.7853 85.0772C69.715 85.0207 69.6589 84.9484 69.6215 84.8663C69.5841 84.7841 69.5664 84.6943 69.5699 84.6041C69.5699 84.406 69.6417 84.2486 69.7853 84.1309C69.9128 84.0202 70.0753 83.9581 70.244 83.9557C70.4146 83.9557 70.5675 84.015 70.7026 84.1309C70.8462 84.2486 70.918 84.406 70.918 84.6041C70.918 84.8021 70.8462 84.9596 70.7026 85.0772C70.5768 85.1907 70.4133 85.2532 70.244 85.2524ZM70.7829 86.5897V93.4794H69.7051V86.5897H70.7829ZM73.3879 83.8203V93.4794H72.3093V83.8203H73.3879ZM80.8872 83.8203V93.4794H79.8085V92.6279H79.7815C79.2518 93.3219 78.5322 93.6681 77.6249 93.6681C77.0692 93.6735 76.5229 93.5241 76.047 93.2364C75.5799 92.9385 75.2074 92.5153 74.9287 91.966C74.6584 91.4167 74.5241 90.7726 74.5241 90.0345C74.5241 89.2956 74.6592 88.6524 74.9287 88.1031C75.2074 87.5529 75.5799 87.1348 76.0479 86.8462C76.5205 86.5503 77.0677 86.3958 77.6249 86.401C78.5685 86.401 79.2873 86.7607 79.7815 87.481H79.8085V83.8203H80.8872ZM77.7331 92.7227C78.3708 92.7227 78.8734 92.4789 79.2425 91.9931C79.6201 91.4979 79.8085 90.8445 79.8085 90.0345C79.8085 89.2237 79.6201 88.5754 79.2425 88.0895C78.8742 87.5935 78.3708 87.3464 77.7322 87.3464C77.2837 87.3464 76.8968 87.4725 76.5733 87.7247C76.2498 87.977 76.0073 88.3096 75.8452 88.7235C75.6812 89.1409 75.5988 89.586 75.6027 90.0345C75.6027 90.5026 75.6838 90.9436 75.8452 91.3583C76.0073 91.7637 76.2498 92.0921 76.5733 92.3443C76.8968 92.5966 77.2828 92.7227 77.7331 92.7227ZM85.011 87.4141C85.011 86.3959 85.2948 85.5673 85.8607 84.9282C86.4267 84.2799 87.2629 83.9549 88.3686 83.9549C88.8825 83.9494 89.3904 84.0654 89.8511 84.2934C90.3005 84.5093 90.6603 84.8292 90.9298 85.2524C91.1992 85.6756 91.3344 86.175 91.3344 86.7522C91.3344 87.3108 91.2034 87.8017 90.9433 88.2249C90.692 88.6284 90.3674 88.981 89.9862 89.2643C89.6171 89.5352 89.128 89.85 88.5165 90.2097C87.8238 90.6059 87.2942 90.9571 86.9259 91.2635C86.5791 91.5499 86.3294 91.937 86.2113 92.3714V92.3985H91.1992V93.4785H84.7415C84.7415 91.8848 85.6673 90.5474 87.5189 89.4666L88.0578 89.156C88.6153 88.8411 89.0241 88.5889 89.2851 88.4001C89.5384 88.2285 89.7503 88.0024 89.9051 87.7383C90.0487 87.4767 90.1205 87.1526 90.1205 86.7649C90.1205 86.2884 89.9862 85.883 89.7168 85.5495C89.4465 85.2076 88.9887 85.0366 88.3416 85.0366C87.5772 85.0366 87.0332 85.2524 86.7105 85.6849C86.387 86.1166 86.2248 86.693 86.2248 87.4141H85.011Z" fill="white"/>
<path d="M148.283 80.4775H147.318C147.22 79.9673 146.929 79.5148 146.506 79.2147C146.304 79.0683 146.079 78.9575 145.84 78.8872C145.593 78.8138 145.336 78.777 145.078 78.778C144.596 78.778 144.158 78.9007 143.767 79.1445C143.378 79.3891 143.068 79.7488 142.837 80.2245C142.609 80.7001 142.495 81.2825 142.495 81.974C142.495 82.6655 142.609 83.2486 142.837 83.7243C143.068 84.2 143.378 84.5597 143.767 84.8043C144.16 85.0487 144.615 85.1755 145.078 85.1699C145.342 85.1699 145.597 85.1335 145.84 85.0608C146.084 84.988 146.305 84.8805 146.506 84.7374C146.707 84.5919 146.879 84.4141 147.019 84.2042C147.165 83.9816 147.267 83.7327 147.318 83.4712H148.283C148.218 83.8575 148.084 84.2287 147.886 84.5665C147.511 85.203 146.914 85.6777 146.21 85.8987C145.844 86.0178 145.462 86.0773 145.078 86.0747C144.398 86.0747 143.794 85.908 143.265 85.5754C142.736 85.2427 142.32 84.7704 142.017 84.1568C141.714 83.544 141.562 82.8161 141.562 81.974C141.562 81.1326 141.714 80.4047 142.017 79.792C142.32 79.1783 142.736 78.7052 143.265 78.3725C143.794 78.0399 144.398 77.874 145.078 77.874C145.48 77.874 145.857 77.9333 146.21 78.0492C146.565 78.166 146.885 78.3378 147.17 78.5638C147.456 78.7873 147.694 79.0598 147.886 79.3823C148.078 79.7022 148.21 80.067 148.283 80.4775ZM149.717 85.9655V79.979H150.604V80.883H150.667C150.775 80.5867 150.972 80.3463 151.258 80.1618C151.545 79.9766 151.881 79.8803 152.222 79.8851C152.289 79.8851 152.374 79.8867 152.475 79.8893C152.576 79.8918 152.652 79.8952 152.705 79.9011V80.8364C152.634 80.8217 152.562 80.8099 152.49 80.8009C152.376 80.7823 152.26 80.7732 152.145 80.7738C151.854 80.7738 151.595 80.8347 151.367 80.9566C151.146 81.0716 150.961 81.2441 150.83 81.456C150.7 81.6667 150.635 81.9071 150.635 82.1771V85.9655H149.717ZM156.116 86.09C155.54 86.09 155.044 85.963 154.626 85.7082C154.209 85.4492 153.876 85.0758 153.665 84.6325C153.442 84.1695 153.331 83.632 153.331 83.0184C153.331 82.4056 153.442 81.8648 153.665 81.3976C153.871 80.9506 154.197 80.5698 154.606 80.2981C155.011 80.0332 155.483 79.9003 156.023 79.9003C156.334 79.9003 156.641 79.9528 156.944 80.0569C157.254 80.1641 157.536 80.3367 157.773 80.563C158.021 80.7949 158.22 81.1013 158.368 81.483C158.515 81.8648 158.59 82.3354 158.59 82.894V83.2833H153.984V82.4886H157.656C157.656 82.1509 157.589 81.8495 157.454 81.5846C157.327 81.3259 157.131 81.1084 156.886 80.9574C156.626 80.7996 156.327 80.7197 156.023 80.7272C155.657 80.7272 155.34 80.8178 155.073 80.9998C154.812 81.1758 154.601 81.4178 154.463 81.7014C154.32 81.9896 154.247 82.3074 154.249 82.6291V83.1589C154.249 83.6109 154.327 83.9943 154.482 84.3092C154.64 84.6206 154.86 84.8585 155.139 85.0218C155.42 85.1826 155.745 85.2639 156.116 85.2639C156.357 85.2639 156.574 85.23 156.769 85.1623C156.96 85.0963 157.133 84.9901 157.279 84.8508C157.426 84.7033 157.539 84.525 157.609 84.3286L158.496 84.5775C158.403 84.8796 158.246 85.1445 158.026 85.3731C157.794 85.6062 157.516 85.7869 157.209 85.9029C156.859 86.0321 156.488 86.0955 156.116 86.09ZM161.744 86.1052C161.389 86.1103 161.037 86.0372 160.713 85.8911C160.415 85.7543 160.161 85.5371 159.978 85.2639C159.797 84.988 159.706 84.6553 159.706 84.266C159.706 83.9232 159.773 83.6447 159.908 83.4323C160.043 83.2165 160.223 83.0472 160.449 82.9245C160.674 82.8034 160.924 82.7129 161.196 82.6528C161.47 82.5901 161.746 82.541 162.024 82.5046C162.388 82.4572 162.681 82.4225 162.907 82.3988C163.135 82.3735 163.301 82.3303 163.405 82.2702C163.511 82.2109 163.564 82.1068 163.564 81.9587V81.9274C163.564 81.5431 163.459 81.2444 163.249 81.0311C163.042 80.8178 162.727 80.7111 162.304 80.7111C161.866 80.7111 161.523 80.8076 161.273 80.9998C161.024 81.1919 160.849 81.3976 160.748 81.6159L159.877 81.3036C160.033 80.9397 160.24 80.657 160.5 80.4538C160.761 80.249 161.047 80.1068 161.355 80.0256C161.655 79.9441 161.963 79.9023 162.273 79.9011C162.465 79.9011 162.686 79.924 162.934 79.9705C163.186 80.0154 163.428 80.1077 163.662 80.2473C163.898 80.3878 164.094 80.5994 164.249 80.883C164.405 81.1665 164.482 81.5457 164.482 82.0214V85.9655H163.564V85.1547H163.518C163.437 85.3097 163.332 85.4506 163.207 85.572C163.04 85.7341 162.843 85.8623 162.627 85.9495C162.386 86.0536 162.092 86.1052 161.744 86.1052ZM161.884 85.2791C162.247 85.2791 162.553 85.208 162.802 85.065C163.031 84.9413 163.222 84.7585 163.356 84.5357C163.49 84.3128 163.562 84.0581 163.564 83.7979V82.9566C163.525 83.0032 163.44 83.0463 163.307 83.0853C163.159 83.1258 163.008 83.1583 162.856 83.1826C162.564 83.2282 162.272 83.2671 161.978 83.2994C161.75 83.328 161.526 83.3791 161.309 83.4518C161.104 83.5195 160.938 83.621 160.81 83.759C160.686 83.8944 160.624 84.0789 160.624 84.3125C160.624 84.6325 160.742 84.8737 160.978 85.0379C161.217 85.1987 161.518 85.2791 161.884 85.2791ZM168.757 79.979V80.7577H165.66V79.979H168.757ZM166.563 78.5444H167.48V84.2508C167.48 84.5106 167.518 84.7053 167.593 84.8348C167.671 84.9617 167.77 85.0481 167.889 85.0921C168.011 85.1344 168.139 85.1547 168.274 85.1547C168.375 85.1547 168.458 85.1496 168.523 85.1395L168.679 85.1082L168.866 85.9342C168.78 85.9638 168.693 85.9873 168.604 86.0045C168.465 86.0332 168.323 86.0463 168.18 86.0434C167.921 86.0434 167.667 85.9876 167.419 85.8758C167.172 85.764 166.959 85.5877 166.804 85.3655C166.643 85.1369 166.563 84.8483 166.563 84.4996V78.5444ZM172.578 86.09C172.002 86.09 171.506 85.963 171.088 85.7082C170.672 85.4492 170.338 85.0758 170.127 84.6325C169.904 84.1695 169.793 83.632 169.793 83.0184C169.793 82.4056 169.904 81.8648 170.127 81.3976C170.333 80.9504 170.659 80.5696 171.068 80.2981C171.473 80.0332 171.945 79.9003 172.484 79.9003C172.796 79.9003 173.103 79.9528 173.407 80.0569C173.716 80.1641 173.998 80.3367 174.235 80.563C174.484 80.7949 174.682 81.1013 174.83 81.483C174.978 81.8648 175.052 82.3354 175.052 82.894V83.2833H170.447V82.4886H174.119C174.119 82.1509 174.051 81.8495 173.916 81.5846C173.789 81.3263 173.593 81.1089 173.348 80.9574C173.088 80.7996 172.788 80.7197 172.484 80.7272C172.119 80.7272 171.803 80.8178 171.536 80.9998C171.274 81.1758 171.063 81.4178 170.925 81.7014C170.782 81.9896 170.709 82.3074 170.711 82.6291V83.1589C170.711 83.6109 170.789 83.9943 170.944 84.3092C171.102 84.6206 171.322 84.8585 171.601 85.0218C171.882 85.1826 172.207 85.2639 172.578 85.2639C172.819 85.2639 173.037 85.23 173.232 85.1623C173.422 85.0963 173.596 84.9901 173.741 84.8508C173.888 84.7033 174.001 84.525 174.071 84.3286L174.958 84.5775C174.865 84.8796 174.708 85.1445 174.488 85.3731C174.256 85.6062 173.978 85.7869 173.671 85.9029C173.321 86.0321 172.951 86.0955 172.578 86.09ZM178.705 86.09C178.206 86.09 177.767 85.9639 177.386 85.7116C177.004 85.4577 176.706 85.0988 176.491 84.6367C176.276 84.1712 176.168 83.621 176.168 82.9879C176.168 82.3591 176.276 81.8131 176.491 81.351C176.706 80.888 177.006 80.5309 177.389 80.2786C177.774 80.0264 178.216 79.9011 178.72 79.9011C179.109 79.9011 179.416 79.9655 179.641 80.0958C179.87 80.2228 180.043 80.3683 180.162 80.5317C180.285 80.6925 180.38 80.8254 180.447 80.9295H180.525V77.9832H181.442V85.9647H180.556V85.0455H180.447C180.38 85.1547 180.283 85.2927 180.159 85.4586C180.013 85.6399 179.832 85.7896 179.626 85.8987C179.395 86.0256 179.088 86.09 178.705 86.09ZM178.829 85.2639C179.197 85.2639 179.508 85.1674 179.762 84.9761C180.016 84.7806 180.21 84.5114 180.342 84.1687C180.474 83.8233 180.54 83.4238 180.54 82.9719C180.54 82.525 180.475 82.1339 180.346 81.7988C180.216 81.461 180.024 81.1987 179.77 81.0116C179.515 80.822 179.202 80.7272 178.829 80.7272C178.439 80.7272 178.116 80.8271 177.856 81.0268C177.591 81.2358 177.39 81.5158 177.277 81.8343C177.145 82.1987 177.08 82.5842 177.086 82.9719C177.086 83.3984 177.151 83.7852 177.28 84.1331C177.413 84.4793 177.607 84.7544 177.864 84.96C178.123 85.1632 178.445 85.2639 178.829 85.2639Z" fill="#A1A1A1"/>
<path d="M198.013 92.8604H144.932C143.07 92.8604 141.562 94.3723 141.562 96.2375C141.562 98.1026 143.07 99.6146 144.932 99.6146H198.013C199.875 99.6146 201.384 98.1026 201.384 96.2375C201.384 94.3723 199.875 92.8604 198.013 92.8604Z" fill="#484848"/>
<path d="M319.343 80.5127H280.309C277.517 80.5127 275.254 82.7809 275.254 85.5788V91.9111C275.254 94.7091 277.517 96.9772 280.309 96.9772H319.343C322.135 96.9772 324.398 94.7091 324.398 91.9111V85.5788C324.398 82.7809 322.135 80.5127 319.343 80.5127Z" fill="#2E5235" fill-opacity="0.3"/>
<path d="M285.48 87.5817H284.737C284.662 87.1892 284.438 86.8412 284.112 86.6109C283.957 86.4981 283.784 86.4128 283.601 86.3586C283.41 86.302 283.213 86.2735 283.014 86.274C282.643 86.274 282.307 86.3688 282.006 86.5567C281.707 86.7446 281.468 87.0214 281.291 87.387C281.115 87.7526 281.028 88.2012 281.028 88.7328C281.028 89.2651 281.115 89.7137 281.291 90.0785C281.468 90.445 281.707 90.7218 282.006 90.9097C282.307 91.0976 282.643 91.1915 283.014 91.1915C283.218 91.1915 283.413 91.1636 283.601 91.1069C283.788 91.0519 283.959 90.9689 284.112 90.8589C284.437 90.6257 284.66 90.2773 284.737 89.8847H285.48C285.43 90.1816 285.327 90.4669 285.175 90.7269C284.886 91.2168 284.427 91.5822 283.885 91.7527C283.604 91.844 283.31 91.8894 283.014 91.8873C282.491 91.8873 282.027 91.7595 281.62 91.5039C281.213 91.2474 280.893 90.8835 280.659 90.412C280.426 89.9406 280.31 89.3811 280.31 88.7336C280.31 88.0853 280.426 87.5258 280.659 87.0544C280.893 86.5829 281.213 86.219 281.62 85.9625C282.027 85.7069 282.491 85.5791 283.014 85.5791C283.323 85.5791 283.614 85.624 283.885 85.7145C284.158 85.8042 284.405 85.9363 284.624 86.1098C284.844 86.2816 285.027 86.4915 285.175 86.7395C285.322 86.985 285.424 87.266 285.48 87.5817ZM290.7 85.6637H291.443V89.7281C291.443 90.1479 291.344 90.5237 291.146 90.853C290.947 91.1836 290.66 91.4523 290.318 91.6291C289.96 91.817 289.541 91.911 289.061 91.911C288.58 91.911 288.161 91.8179 287.804 91.6291C287.461 91.4521 287.173 91.1835 286.973 90.853C286.774 90.5123 286.672 90.1235 286.679 89.729V85.6629H287.421V89.6689C287.421 89.9685 287.487 90.236 287.619 90.4687C287.75 90.7006 287.937 90.8835 288.181 91.018C288.426 91.1501 288.719 91.2152 289.061 91.2152C289.402 91.2152 289.695 91.1492 289.94 91.018C290.176 90.8931 290.372 90.7024 290.503 90.4687C290.637 90.224 290.705 89.9482 290.7 89.6689V85.6629V85.6637ZM292.924 91.8035V85.6629H294.995C295.474 85.6629 295.866 85.745 296.174 85.9083C296.48 86.0709 296.709 86.2935 296.856 86.577C297.003 86.8614 297.077 87.1839 297.077 87.5461C297.077 87.9075 297.003 88.2283 296.856 88.5085C296.703 88.7939 296.466 89.0247 296.176 89.1687C295.871 89.3261 295.481 89.4048 295.006 89.4048H293.331V88.7328H294.983C295.31 88.7328 295.573 88.6854 295.773 88.5889C295.96 88.5066 296.114 88.3631 296.209 88.1818C296.301 88.004 296.347 87.7924 296.347 87.5461C296.347 87.3007 296.301 87.0848 296.209 86.9012C296.114 86.7138 295.959 86.5638 295.769 86.4754C295.568 86.3739 295.302 86.3231 294.971 86.3231H293.666V91.8035H292.924ZM295.809 89.0442L297.317 91.8035H296.455L294.971 89.0442H295.809ZM298.313 91.8035V85.6629H300.384C300.863 85.6629 301.256 85.745 301.563 85.9083C301.87 86.0709 302.098 86.2935 302.246 86.577C302.392 86.8614 302.467 87.1839 302.467 87.5461C302.467 87.9075 302.392 88.2283 302.246 88.5085C302.093 88.7936 301.855 89.0242 301.566 89.1687C301.261 89.3261 300.871 89.4048 300.396 89.4048H298.721V88.7328H300.372C300.7 88.7328 300.962 88.6854 301.162 88.5889C301.364 88.4932 301.509 88.357 301.599 88.1818C301.691 88.004 301.736 87.7924 301.736 87.5461C301.736 87.3007 301.691 87.0848 301.599 86.9012C301.504 86.7142 301.349 86.5644 301.159 86.4754C300.957 86.3739 300.691 86.3231 300.36 86.3231H299.056V91.8035H298.313ZM301.198 89.0442L302.706 91.8035H301.844L300.36 89.0442H301.198ZM303.703 91.8035V85.6629H307.402V86.3231H304.445V88.3967H307.21V89.0569H304.445V91.1433H307.449V91.8035H303.703ZM313.598 85.6637V91.8035H312.879L309.54 86.9824H309.481V91.8035H308.739V85.6629H309.457L312.808 90.4958H312.868V85.6629H313.598V85.6637ZM314.748 86.3231V85.6629H319.344V86.3231H317.416V91.8035H316.675V86.3231H314.748Z" fill="#A2CEAD"/>
<path d="M319.344 80.9346H280.31C277.75 80.9346 275.676 83.0136 275.676 85.5783V91.9106C275.676 94.4753 277.75 96.5543 280.31 96.5543H319.344C321.903 96.5543 323.978 94.4753 323.978 91.9106V85.5783C323.978 83.0136 321.903 80.9346 319.344 80.9346Z" stroke="#3A523E" stroke-width="0.843008"/>
<path d="M331.124 62.0801H10.1378C6.63851 62.0801 3.80176 64.9228 3.80176 68.4294V109.06C3.80176 112.566 6.63851 115.409 10.1378 115.409H331.124C334.623 115.409 337.46 112.566 337.46 109.06V68.4294C337.46 64.9228 334.623 62.0801 331.124 62.0801Z" stroke="#484848" stroke-width="0.843008"/>
</g>
</g>
<defs>
<clipPath id="clip0_1_10540">
<rect width="314.01" height="51.47" fill="white" transform="translate(13.5195 111.09)"/>
</clipPath>
<clipPath id="clip1_1_10540">
<rect width="314.01" height="51.47" fill="white" transform="translate(13.5195 111.09)"/>
</clipPath>
<clipPath id="clip2_1_10540">
<rect width="314.01" height="51.47" fill="white" transform="translate(13.5195 14.6699)"/>
</clipPath>
<clipPath id="clip3_1_10540">
<rect width="314.01" height="51.47" fill="white" transform="translate(13.5195 14.6699)"/>
</clipPath>
<clipPath id="clip4_1_10540">
<rect width="334.5" height="55.02" fill="white" transform="translate(3.37988 61.5898)"/>
</clipPath>
<clipPath id="clip5_1_10540">
<rect width="334.5" height="55.02" fill="white" transform="translate(3.37988 61.5898)"/>
</clipPath>
</defs>
</svg>
