<svg width="101" height="29" viewBox="0 0 101 29" fill="none" xmlns="http://www.w3.org/2000/svg">
<g clip-path="url(#clip0_20_134)">
<g clip-path="url(#clip1_20_134)">
<g clip-path="url(#clip2_20_134)">
<path d="M14.2674 0.910156C6.60187 0.910156 0.389648 7.17096 0.389648 14.8945C0.389648 22.6158 6.60298 28.8766 14.2674 28.8766C21.9307 28.8766 28.144 22.6158 28.144 14.8934C28.144 7.17096 21.9318 0.910156 14.2674 0.910156ZM14.2674 4.40568C18.7829 4.40568 22.5985 7.33672 24.0374 11.3979H4.49632C5.93521 7.33672 9.75298 4.40568 14.2674 4.40568ZM14.2674 16.6417C14.0396 16.6417 13.8141 16.5965 13.6036 16.5086C13.3932 16.4208 13.202 16.292 13.0409 16.1296C12.8799 15.9673 12.7521 15.7746 12.665 15.5625C12.5778 15.3503 12.5329 15.123 12.5329 14.8934C12.5329 14.6638 12.5778 14.4365 12.665 14.2243C12.7521 14.0122 12.8799 13.8195 13.0409 13.6572C13.202 13.4948 13.3932 13.366 13.6036 13.2782C13.8141 13.1903 14.0396 13.1451 14.2674 13.1451C14.7274 13.1451 15.1685 13.3293 15.4938 13.6572C15.8191 13.985 16.0018 14.4297 16.0018 14.8934C16.0018 15.3571 15.8191 15.8018 15.4938 16.1296C15.1685 16.4575 14.7274 16.6417 14.2674 16.6417ZM3.85854 14.8945C8.59854 14.8945 12.4363 19.4955 12.5185 25.2041C7.61298 24.3574 3.85854 20.0734 3.85854 14.8945ZM16.014 25.2041C16.0963 19.4966 19.9352 14.8945 24.6752 14.8945C24.6752 20.0734 20.9196 24.3585 16.014 25.2041ZM37.284 19.9502C36.513 19.9502 35.8363 19.8236 35.254 19.5694C34.6632 19.2972 34.1401 18.8954 33.7229 18.3934L35.0407 17.1995C35.3374 17.5859 35.6696 17.8793 36.0385 18.0776C36.4052 18.2769 36.833 18.3766 37.3196 18.3766C38.2229 18.3766 38.6729 18.0227 38.6729 17.316C38.6729 17.0393 38.5963 16.8243 38.4418 16.6697C38.2996 16.504 38.0508 16.3942 37.694 16.3382L36.8218 16.1892C35.8475 16.0235 35.1418 15.7412 34.7018 15.3448C34.2629 14.9472 34.0429 14.367 34.0429 13.6043C34.0429 12.6993 34.3285 12.0251 34.8985 11.5838C35.4685 11.1302 36.2763 10.9039 37.3207 10.9039C38.044 10.9039 38.6674 11.0148 39.1896 11.2355C39.724 11.4561 40.1874 11.782 40.5785 12.2132L39.314 13.3892C39.0723 13.1095 38.7752 12.8837 38.4418 12.7262C38.092 12.5565 37.7078 12.4714 37.3196 12.4776C36.4885 12.4776 36.0729 12.8259 36.0729 13.5214C36.0729 13.8092 36.1563 14.0299 36.3229 14.1844C36.4896 14.3278 36.7508 14.4275 37.1063 14.4824L37.9963 14.6313C38.9707 14.7971 39.6652 15.0793 40.0807 15.4769C40.5075 15.8633 40.7218 16.4099 40.7218 17.1166C40.7218 18.0126 40.424 18.707 39.8307 19.2043C39.2374 19.7016 38.3885 19.9502 37.284 19.9502ZM42.4707 19.752V11.1022H44.6252V12.5436H44.8741C45.243 11.4494 45.9729 10.9028 47.0652 10.9028C48.2285 10.9028 48.9818 11.4718 49.3263 12.6097H49.5396C49.7419 12.024 50.0507 11.5928 50.4663 11.3172C50.8929 11.0406 51.4107 10.9028 52.0152 10.9028C52.7985 10.9028 53.4096 11.1683 53.8485 11.698C54.2885 12.2177 54.5085 12.9636 54.5085 13.9347V19.7508H52.3529V14.283C52.3529 13.1563 51.9196 12.5929 51.0529 12.5929C50.6385 12.5929 50.2818 12.7139 49.9852 12.9569C49.7007 13.1888 49.5574 13.5203 49.5574 13.9515V19.7508H47.403V14.283C47.403 13.686 47.2963 13.256 47.0829 12.9905C46.8685 12.7251 46.5485 12.5929 46.1207 12.5929C45.7052 12.5929 45.3496 12.7139 45.0529 12.9569C44.7674 13.1888 44.6252 13.5203 44.6252 13.9515V19.7508H42.4697L42.4707 19.752ZM62.8029 19.752C61.8407 19.752 61.3363 19.2592 61.2885 18.2769H61.0752C60.975 18.7791 60.6884 19.2237 60.274 19.5201C59.8585 19.8068 59.3419 19.9502 58.724 19.9502C57.8696 19.9502 57.2285 19.7296 56.8018 19.2872C56.3741 18.8459 56.1596 18.2265 56.1596 17.4313C56.1596 16.5264 56.463 15.8521 57.0686 15.4108C57.674 14.9684 58.5463 14.7478 59.6863 14.7478H61.1285V14.0019C61.1285 13.4945 61.0096 13.1182 60.7729 12.8752C60.5463 12.6332 60.1674 12.5112 59.6329 12.5112C59.193 12.5112 58.8252 12.6108 58.5285 12.8091C58.2318 12.9972 57.9707 13.2683 57.7452 13.6211L56.4807 12.5604C56.8252 12.0643 57.2585 11.6667 57.7808 11.3676C58.314 11.0585 58.9918 10.9039 59.8107 10.9039C62.1264 10.9039 63.2829 11.9198 63.2829 13.9526V18.1448H64.1029V19.752H62.8029ZM59.544 18.4752C59.9829 18.4752 60.3574 18.3598 60.6663 18.128C60.974 17.8849 61.1285 17.5534 61.1285 17.1334V15.991H59.8285C58.8307 15.991 58.3329 16.3494 58.3329 17.0673V17.4313C58.3329 17.7964 58.4397 18.0619 58.653 18.2265C58.8675 18.3934 59.164 18.4752 59.544 18.4752ZM65.7729 19.752V11.1022H67.9286V12.874H68.1775C68.284 12.3006 68.5041 11.8638 68.8363 11.5659C69.1807 11.2568 69.6253 11.1022 70.1719 11.1022H70.6352V13.1563H69.923C69.2453 13.1563 68.7418 13.256 68.4085 13.4542C68.0885 13.6536 67.9286 14.0008 67.9286 14.498V19.7508L65.7729 19.752ZM74.9286 19.752C74.1807 19.752 73.6396 19.5963 73.3085 19.2872C72.9753 18.978 72.8085 18.4864 72.8085 17.8132V12.7105H71.5807V11.1022H72.2218C72.5307 11.1022 72.7385 11.035 72.844 10.9028C72.9641 10.7706 73.0229 10.5601 73.0229 10.2734V8.75016H74.9641V11.1022H76.6385V12.7105H74.9641V18.1448H76.4952V19.752H74.9286ZM81.5363 19.9502C80.2785 19.9502 79.3163 19.5862 78.6518 18.8571C77.9986 18.128 77.6719 16.9844 77.6719 15.4265C77.6719 13.8697 77.9986 12.7273 78.6518 11.9971C79.3163 11.2691 80.2785 10.9039 81.5363 10.9039C82.4507 10.9039 83.1752 11.0977 83.7096 11.4841C84.2587 11.8752 84.6701 12.4322 84.884 13.0745L83.1218 13.8025C83.0264 13.3836 82.8552 13.0689 82.6052 12.8595C82.3674 12.6377 82.0118 12.528 81.5363 12.528C80.4685 12.528 79.9341 13.1238 79.9341 14.3166V16.5376C79.9341 17.7304 80.4674 18.3262 81.5363 18.3262C82.0352 18.3262 82.4152 18.2164 82.6763 17.9947C82.9374 17.774 83.1329 17.4324 83.264 16.9676L84.9374 17.7136C84.3918 19.2043 83.2574 19.9502 81.5363 19.9502ZM92.5564 19.752C91.5953 19.752 91.0907 19.2592 91.0429 18.2769H90.8297C90.7293 18.779 90.4428 19.2236 90.0285 19.5201C89.6129 19.8068 89.0963 19.9502 88.4796 19.9502C87.624 19.9502 86.9829 19.7296 86.5564 19.2872C86.1285 18.8459 85.9152 18.2265 85.9152 17.4313C85.9152 16.5264 86.2174 15.8521 86.8229 15.4108C87.4285 14.9684 88.3008 14.7478 89.4408 14.7478H90.8829V14.0019C90.8829 13.4945 90.7641 13.1182 90.5275 12.8752C90.3018 12.6332 89.9219 12.5112 89.3875 12.5112C88.9485 12.5112 88.5797 12.6108 88.283 12.8091C87.9864 12.9972 87.7253 13.2683 87.4996 13.6211L86.2352 12.5604C86.5796 12.0643 87.0129 11.6667 87.5352 11.3676C88.0696 11.0585 88.7463 10.9039 89.5652 10.9039C91.8807 10.9039 93.0386 11.9198 93.0386 13.9526V18.1448H93.8574V19.752H92.5564ZM89.2985 18.4752C89.7374 18.4752 90.1118 18.3598 90.4207 18.128C90.7285 17.8849 90.8829 17.5534 90.8829 17.1334V15.991H89.5829C88.5863 15.991 88.0874 16.3494 88.0874 17.0673V17.4313C88.0874 17.7964 88.1941 18.0619 88.4074 18.2265C88.6218 18.3934 88.9185 18.4752 89.2985 18.4752ZM95.5285 19.752V11.1022H97.6829V12.874H97.9318C98.0396 12.3006 98.2586 11.8638 98.5908 11.5659C98.9352 11.2568 99.3796 11.1022 99.9263 11.1022H100.39V13.1563H99.6775C98.9996 13.1563 98.4963 13.256 98.1641 13.4542C97.8429 13.6536 97.6829 14.0008 97.6829 14.498V19.7508H95.5275L95.5285 19.752Z" fill="#36364A"/>
</g>
</g>
</g>
<defs>
<clipPath id="clip0_20_134">
<rect width="100" height="28" fill="white" transform="translate(0.389648 0.910156)"/>
</clipPath>
<clipPath id="clip1_20_134">
<rect width="100" height="28" fill="white" transform="translate(0.389648 0.910156)"/>
</clipPath>
<clipPath id="clip2_20_134">
<rect width="100" height="28" fill="white" transform="translate(0.389648 0.910156)"/>
</clipPath>
</defs>
</svg>
