<svg width="14" height="14" viewBox="0 0 14 14" fill="none" xmlns="http://www.w3.org/2000/svg">
<path d="M10.75 6.375H8.7625C8.5 5.65 7.8125 5.125 7 5.125C6.1875 5.125 5.5 5.65 5.2375 6.375H3.25C3.04375 6.375 2 6.3125 2 5.125V4.5C2 3.35625 2.9625 3.25 3.25 3.25H9.6125C9.875 3.975 10.5625 4.5 11.375 4.5C11.8723 4.5 12.3492 4.30246 12.7008 3.95083C13.0525 3.59919 13.25 3.12228 13.25 2.625C13.25 2.12772 13.0525 1.65081 12.7008 1.29917C12.3492 0.947544 11.8723 0.75 11.375 0.75C10.5625 0.75 9.875 1.275 9.6125 2H3.25C2.24375 2 0.75 2.6625 0.75 4.5V5.125C0.75 6.9625 2.24375 7.625 3.25 7.625H5.2375C5.5 8.35 6.1875 8.875 7 8.875C7.8125 8.875 8.5 8.35 8.7625 7.625H10.75C10.9563 7.625 12 7.6875 12 8.875V9.5C12 10.6438 11.0375 10.75 10.75 10.75H4.3875C4.125 10.025 3.4375 9.5 2.625 9.5C2.12772 9.5 1.65081 9.69754 1.29917 10.0492C0.947544 10.4008 0.75 10.8777 0.75 11.375C0.75 11.8723 0.947544 12.3492 1.29917 12.7008C1.65081 13.0525 2.12772 13.25 2.625 13.25C3.4375 13.25 4.125 12.725 4.3875 12H10.75C11.7563 12 13.25 11.3313 13.25 9.5V8.875C13.25 7.04375 11.7563 6.375 10.75 6.375ZM11.375 2C11.5408 2 11.6997 2.06585 11.8169 2.18306C11.9342 2.30027 12 2.45924 12 2.625C12 2.79076 11.9342 2.94973 11.8169 3.06694C11.6997 3.18415 11.5408 3.25 11.375 3.25C11.2092 3.25 11.0503 3.18415 10.9331 3.06694C10.8158 2.94973 10.75 2.79076 10.75 2.625C10.75 2.45924 10.8158 2.30027 10.9331 2.18306C11.0503 2.06585 11.2092 2 11.375 2ZM2.625 12C2.45924 12 2.30027 11.9342 2.18306 11.8169C2.06585 11.6997 2 11.5408 2 11.375C2 11.2092 2.06585 11.0503 2.18306 10.9331C2.30027 10.8158 2.45924 10.75 2.625 10.75C2.79076 10.75 2.94973 10.8158 3.06694 10.9331C3.18415 11.0503 3.25 11.2092 3.25 11.375C3.25 11.5408 3.18415 11.6997 3.06694 11.8169C2.94973 11.9342 2.79076 12 2.625 12Z" fill="#627EEA"/>
</svg>
