<svg width="65" height="23" viewBox="0 0 65 23" fill="none" xmlns="http://www.w3.org/2000/svg">
<g clip-path="url(#clip0_20_62)">
<g clip-path="url(#clip1_20_62)">
<path fill-rule="evenodd" clip-rule="evenodd" d="M45.1297 17.5185C43.1329 17.5185 41.6354 16.0902 41.6354 13.8049C41.6354 11.5196 43.1329 10.0913 45.1297 10.0913C47.1978 10.0913 48.624 11.5196 48.624 13.8049C48.624 16.0902 47.1978 17.5185 45.1297 17.5185ZM52.0471 16.9472V14.3762V1.02148H48.6953V8.80576C47.7683 7.59171 46.1281 7.0918 44.6305 7.0918C40.9222 7.0918 38.141 9.73417 38.141 13.8763C38.141 18.3041 40.8509 20.5894 44.5592 20.5894C46.2707 20.5894 47.9109 19.8752 48.7666 18.6612C48.7869 18.8442 48.8015 19.0156 48.8152 19.1772C48.8495 19.5827 48.8786 19.9258 48.9806 20.2323H52.0471V16.9472ZM17.1038 7.44883V3.52098H20.3842V7.44883H22.8088V10.2341H20.3842V20.2323H17.1038V10.2341V7.44883ZM12.0405 16.5901C12.0405 17.5184 11.1847 17.8755 10.1863 17.8755C8.974 17.8755 8.18956 17.3042 8.04693 16.3758L4.98047 16.8757C5.26572 18.9467 6.97724 20.5178 10.1863 20.5178C13.4667 20.5178 15.3209 18.9467 15.3209 16.5901C15.3209 14.7332 14.1086 13.4478 11.7552 12.805L10.115 12.3765C9.11662 12.0909 8.68875 11.7338 8.68875 11.091C8.68875 10.3054 9.33056 9.80555 10.3289 9.80555C11.256 9.80555 12.0405 10.3054 12.1118 11.1625L15.107 10.4483C14.7504 8.30583 12.7536 7.09174 10.2576 7.09174C7.11986 7.09174 5.40835 8.87714 5.40835 11.1625C5.40835 12.8764 6.40673 14.2333 9.11662 14.9475L10.8281 15.376C11.6126 15.5902 12.0405 15.9473 12.0405 16.5901ZM26.9449 12.7336H33.0779C32.9352 10.8054 31.7942 9.877 30.1541 9.877C28.3712 9.877 27.3015 10.8768 26.9449 12.7336ZM36.5009 15.019H26.9449C27.1589 16.9472 28.6565 17.6613 30.1541 17.6613C31.723 17.6613 32.65 16.9472 33.2205 15.8045L36.0017 16.8757C35.0746 19.0896 32.7926 20.4465 30.1541 20.4465C26.3745 20.4465 23.7359 17.8041 23.7359 13.7334C23.7359 9.73417 26.3032 6.94896 30.1541 6.94896C33.9337 6.94896 36.5009 9.59134 36.5009 13.7334V15.019ZM54.7568 7.44886H58.1086V20.1608H54.7568V7.44886ZM58.0897 4.379L58.0994 1.02247L61.4511 1.03221L61.4414 4.38874L58.0897 4.379Z" fill="#36364A"/>
</g>
</g>
<defs>
<clipPath id="clip0_20_62">
<rect width="64" height="22" fill="white" transform="translate(0.980469 0.0214844)"/>
</clipPath>
<clipPath id="clip1_20_62">
<rect width="64" height="22" fill="white" transform="translate(0.980469 0.0214844)"/>
</clipPath>
</defs>
</svg>
