<svg width="133" height="18" viewBox="0 0 133 18" fill="none" xmlns="http://www.w3.org/2000/svg">
<g clip-path="url(#clip0_20_87)">
<g clip-path="url(#clip1_20_87)">
<g clip-path="url(#clip2_20_87)">
<path d="M4.23481 0.451172V16.5733H0.826172V0.451172H4.23481ZM10.1154 0.451172V16.5733H6.70674V0.451172H10.1154ZM12.5873 16.5733V0.451172H23.4508V3.26152H15.9959V7.10313H22.892V9.91348H15.9959V13.7629H23.4823V16.5733H12.5873ZM29.1188 0.451172V16.5733H25.7653V0.451172H29.1188ZM36.9832 16.8095C35.7394 16.8095 34.6688 16.5576 33.7714 16.0538C32.8792 15.5447 32.1917 14.8257 31.7089 13.8967C31.2261 12.9627 30.9847 11.8579 30.9847 10.5826C30.9847 9.33881 31.2261 8.24721 31.7089 7.30781C32.1917 6.3684 32.8714 5.63628 33.7478 5.11148C34.6295 4.58667 35.6633 4.32426 36.8494 4.32426C37.647 4.32426 38.3897 4.45284 39.0772 4.71C39.7699 4.9619 40.3735 5.3424 40.8878 5.85145C41.4073 6.36052 41.8115 7.00079 42.1001 7.77226C42.3888 8.53848 42.5331 9.43591 42.5331 10.4645V11.3856H32.3229V9.30732H39.3764C39.3764 8.82451 39.2714 8.39679 39.0615 8.02417C38.8516 7.65155 38.5603 7.36028 38.1876 7.15036C37.8203 6.93519 37.3925 6.8276 36.9045 6.8276C36.3955 6.8276 35.944 6.94568 35.5505 7.18185C35.1621 7.41276 34.8577 7.72503 34.6374 8.11863C34.4169 8.50699 34.304 8.93996 34.2988 9.41754V11.3935C34.2988 11.9917 34.409 12.5086 34.6295 12.9442C34.8551 13.3798 35.1726 13.7158 35.582 13.9518C35.9913 14.188 36.4768 14.3061 37.0383 14.3061C37.411 14.3061 37.752 14.2536 38.0617 14.1487C38.3713 14.0437 38.6363 13.8863 38.8568 13.6764C39.0772 13.4665 39.2452 13.2093 39.3606 12.9049L42.4622 13.1096C42.3047 13.8548 41.982 14.5055 41.494 15.0619C41.0111 15.6129 40.3866 16.0433 39.6204 16.3529C38.8594 16.6572 37.9804 16.8095 36.9832 16.8095ZM55.3372 4.48171L51.1098 16.5733H47.3312L43.1039 4.48171H46.6463L49.1576 13.1331H49.2835L51.7869 4.48171H55.3372ZM61.8416 16.8095C60.5978 16.8095 59.5272 16.5576 58.6298 16.0538C57.7377 15.5447 57.0501 14.8257 56.5673 13.8967C56.0844 12.9627 55.843 11.8579 55.843 10.5826C55.843 9.33881 56.0844 8.24721 56.5673 7.30781C57.0501 6.3684 57.7297 5.63628 58.6061 5.11148C59.4878 4.58667 60.5217 4.32426 61.7078 4.32426C62.5055 4.32426 63.2481 4.45284 63.9356 4.71C64.6284 4.9619 65.2319 5.3424 65.7462 5.85145C66.2658 6.36052 66.6698 7.00079 66.9585 7.77226C67.2472 8.53848 67.3915 9.43591 67.3915 10.4645V11.3856H57.1813V9.30732H64.2348C64.2348 8.82451 64.1298 8.39679 63.9199 8.02417C63.7099 7.65155 63.4187 7.36028 63.0461 7.15036C62.6787 6.93519 62.2509 6.8276 61.7628 6.8276C61.2538 6.8276 60.8025 6.94568 60.4089 7.18185C60.0205 7.41276 59.7161 7.72503 59.4957 8.11863C59.2753 8.50699 59.1624 8.93996 59.1572 9.41754V11.3935C59.1572 11.9917 59.2674 12.5086 59.4878 12.9442C59.7135 13.3798 60.031 13.7158 60.4403 13.9518C60.8497 14.188 61.3352 14.3061 61.8968 14.3061C62.2693 14.3061 62.6105 14.2536 62.9201 14.1487C63.2298 14.0437 63.4948 13.8863 63.7151 13.6764C63.9356 13.4665 64.1036 13.2093 64.219 12.9049L67.3206 13.1096C67.1632 13.8548 66.8404 14.5055 66.3523 15.0619C65.8696 15.6129 65.245 16.0433 64.4788 16.3529C63.7178 16.6572 62.8388 16.8095 61.8416 16.8095ZM72.601 9.58285V16.5733H69.2474V4.48171H72.4435V6.61506H72.5852C72.8529 5.91181 73.3016 5.35552 73.9313 4.94617C74.5611 4.53156 75.3247 4.32426 76.2221 4.32426C77.0618 4.32426 77.7939 4.50795 78.4184 4.87531C79.043 5.24268 79.5284 5.76749 79.8748 6.44974C80.2212 7.12674 80.3944 7.93495 80.3944 8.87435V16.5733H77.0408V9.47264C77.046 8.73266 76.8571 8.15537 76.474 7.74078C76.0909 7.32093 75.5635 7.111 74.8917 7.111C74.4404 7.111 74.0416 7.20809 73.6951 7.40227C73.3541 7.59645 73.0864 7.87985 72.8922 8.25246C72.7032 8.61983 72.6062 9.0633 72.601 9.58285ZM82.7679 16.5733V0.451172H86.1765V13.7629H93.0883V16.5733H82.7679ZM98.3981 16.8016C97.6266 16.8016 96.9391 16.6678 96.3356 16.4001C95.7321 16.1272 95.2545 15.7258 94.9028 15.1957C94.5565 14.6604 94.3833 13.9939 94.3833 13.1961C94.3833 12.5244 94.5066 11.9603 94.7533 11.5036C94.9999 11.047 95.3358 10.6797 95.7609 10.4016C96.186 10.1234 96.6689 9.91348 97.2094 9.77178C97.7552 9.63008 98.3272 9.53037 98.9255 9.47264C99.6288 9.39917 100.196 9.33094 100.626 9.26797C101.056 9.19974 101.369 9.10002 101.563 8.96882C101.757 8.83763 101.854 8.64345 101.854 8.38629V8.33905C101.854 7.84048 101.696 7.45475 101.382 7.18185C101.072 6.90894 100.631 6.7725 100.059 6.7725C99.4556 6.7725 98.9754 6.90633 98.6185 7.17397C98.2617 7.43638 98.0255 7.76702 97.91 8.16587L94.8084 7.91396C94.9658 7.17922 95.2754 6.5442 95.7373 6.0089C96.1991 5.46835 96.7948 5.05375 97.5243 4.7651C98.259 4.47121 99.1092 4.32426 100.075 4.32426C100.747 4.32426 101.39 4.40298 102.004 4.56042C102.623 4.71787 103.171 4.9619 103.649 5.29254C104.132 5.62316 104.513 6.04826 104.791 6.56782C105.069 7.08214 105.208 7.69879 105.208 8.41778V16.5733H102.027V14.8965H101.933C101.738 15.2744 101.479 15.6077 101.153 15.8963C100.828 16.1797 100.437 16.4027 99.9804 16.5654C99.5238 16.7228 98.9963 16.8016 98.3981 16.8016ZM99.3585 14.4872C99.8518 14.4872 100.287 14.3901 100.665 14.1959C101.043 13.9965 101.339 13.7289 101.555 13.393C101.77 13.0571 101.878 12.6766 101.878 12.2515V10.9683C101.773 11.0366 101.629 11.0995 101.444 11.1573C101.266 11.2098 101.064 11.2597 100.838 11.3068C100.613 11.3488 100.387 11.3882 100.161 11.4249C99.9357 11.4564 99.7311 11.4853 99.5474 11.5116C99.1538 11.5693 98.8101 11.6611 98.5162 11.787C98.2223 11.913 97.994 12.0836 97.8313 12.2987C97.6686 12.5086 97.5872 12.7711 97.5872 13.086C97.5872 13.5425 97.7526 13.8915 98.0832 14.1329C98.419 14.3691 98.8442 14.4872 99.3585 14.4872ZM107.539 16.5733V0.451172H110.893V6.51271H110.996C111.143 6.18734 111.355 5.8567 111.633 5.52083C111.917 5.1797 112.284 4.89631 112.735 4.67064C113.192 4.43972 113.759 4.32426 114.436 4.32426C115.317 4.32426 116.131 4.55518 116.876 5.01701C117.621 5.47359 118.217 6.16372 118.663 7.08739C119.109 8.0058 119.332 9.15775 119.332 10.5432C119.332 11.892 119.114 13.0309 118.679 13.9597C118.249 14.8834 117.661 15.584 116.915 16.0616C116.176 16.5339 115.347 16.7701 114.428 16.7701C113.777 16.7701 113.223 16.6625 112.767 16.4474C112.316 16.2322 111.946 15.9619 111.657 15.6365C111.368 15.3059 111.148 14.9727 110.996 14.6367H110.845V16.5733H107.539ZM110.822 10.5275C110.822 11.2465 110.922 11.8736 111.122 12.409C111.321 12.9442 111.609 13.3615 111.987 13.6606C112.365 13.9545 112.824 14.1015 113.365 14.1015C113.911 14.1015 114.372 13.9518 114.75 13.6528C115.128 13.3484 115.414 12.9285 115.609 12.3932C115.808 11.8526 115.908 11.2307 115.908 10.5275C115.908 9.82951 115.811 9.21549 115.617 8.68542C115.422 8.15537 115.136 7.74077 114.758 7.44163C114.38 7.14248 113.916 6.99292 113.365 6.99292C112.819 6.99292 112.357 7.13724 111.979 7.42588C111.607 7.71453 111.321 8.12388 111.122 8.65393C110.922 9.184 110.822 9.80852 110.822 10.5275ZM131.297 7.9297L128.228 8.11863C128.175 7.85623 128.063 7.62006 127.89 7.41014C127.716 7.19497 127.488 7.02441 127.204 6.89846C126.926 6.76725 126.593 6.70164 126.205 6.70164C125.685 6.70164 125.247 6.81186 124.89 7.03228C124.533 7.24745 124.355 7.5361 124.355 7.89821C124.355 8.18686 124.47 8.43089 124.701 8.63033C124.932 8.82975 125.328 8.98982 125.889 9.11052L128.078 9.55136C129.254 9.79277 130.131 10.1811 130.708 10.7164C131.284 11.2517 131.574 11.955 131.574 12.8261C131.574 13.6186 131.34 14.314 130.873 14.9123C130.411 15.5106 129.776 15.9777 128.968 16.3135C128.165 16.6441 127.239 16.8095 126.189 16.8095C124.589 16.8095 123.313 16.4762 122.363 15.8097C121.419 15.1379 120.864 14.2248 120.702 13.0702L124 12.8971C124.1 13.3851 124.342 13.7577 124.725 14.0148C125.108 14.2667 125.598 14.3927 126.197 14.3927C126.784 14.3927 127.257 14.2799 127.614 14.0542C127.976 13.8233 128.16 13.5268 128.165 13.1647C128.16 12.8603 128.031 12.611 127.779 12.4168C127.527 12.2174 127.139 12.0652 126.614 11.9603L124.52 11.543C123.339 11.3068 122.46 10.8975 121.883 10.315C121.311 9.73242 121.025 8.98982 121.025 8.08714C121.025 7.31043 121.234 6.6413 121.654 6.07975C122.08 5.51821 122.675 5.08524 123.442 4.78084C124.213 4.47646 125.116 4.32426 126.149 4.32426C127.677 4.32426 128.878 4.64702 129.755 5.29254C130.636 5.93805 131.151 6.81711 131.297 7.9297Z" fill="#36364A"/>
</g>
</g>
</g>
<defs>
<clipPath id="clip0_20_87">
<rect width="132" height="17.13" fill="white" transform="translate(0.389648 0.451172)"/>
</clipPath>
<clipPath id="clip1_20_87">
<rect width="132" height="17.13" fill="white" transform="translate(0.389648 0.451172)"/>
</clipPath>
<clipPath id="clip2_20_87">
<rect width="132" height="17.1298" fill="white" transform="translate(0.389648 0.451172)"/>
</clipPath>
</defs>
</svg>
