<svg width="37" height="22" viewBox="0 0 37 22" fill="none" xmlns="http://www.w3.org/2000/svg">
<g clip-path="url(#clip0_216_13)">
<g clip-path="url(#clip1_216_13)">
<path d="M16.5 6.56728L16.5 10.1671C16.5 10.5538 16.1866 10.8672 15.7999 10.8672L12.2001 10.8672C11.8135 10.8672 11.5 10.5538 11.5 10.1671L11.5 6.56728C11.5 6.18064 11.8135 5.86721 12.2001 5.86721L15.7999 5.86721C16.1866 5.86721 16.5 6.18064 16.5 6.56728Z" fill="#FDAFAF"/>
</g>
</g>
<g clip-path="url(#clip2_216_13)">
<g clip-path="url(#clip3_216_13)">
<path d="M21.5 1.56728L21.5 5.16712C21.5 5.55376 21.1866 5.86719 20.7999 5.86719L17.2001 5.86719C16.8135 5.86719 16.5 5.55375 16.5 5.16712L16.5 1.56728C16.5 1.18064 16.8135 0.867207 17.2001 0.867207L20.7999 0.867207C21.1866 0.867207 21.5 1.18064 21.5 1.56728Z" fill="#FDAFAF"/>
</g>
</g>
<g clip-path="url(#clip4_216_13)">
<g clip-path="url(#clip5_216_13)">
<path d="M9.79991 15.8672L6.20007 15.8672C5.81343 15.8672 5.5 15.5538 5.5 15.1671L5.5 11.5673C5.5 11.1806 5.81343 10.8672 6.20007 10.8672L9.79991 10.8672C10.1865 10.8672 10.5 11.1806 10.5 11.5673L10.5 15.1671C10.5 15.5538 10.1865 15.8672 9.79991 15.8672Z" fill="#FDAFAF"/>
</g>
</g>
<g clip-path="url(#clip6_216_13)">
<g clip-path="url(#clip7_216_13)">
<path d="M4.79991 20.8672L1.20007 20.8672C0.813432 20.8672 0.5 20.5538 0.5 20.1671L0.500001 16.5673C0.500001 16.1806 0.813433 15.8672 1.20007 15.8672L4.79991 15.8672C5.18655 15.8672 5.49998 16.1806 5.49998 16.5673L5.49998 20.1671C5.49998 20.5538 5.18655 20.8672 4.79991 20.8672Z" fill="#FDAFAF"/>
</g>
</g>
<g clip-path="url(#clip8_216_13)">
<g clip-path="url(#clip9_216_13)">
<path d="M31.5 6.56728L31.5 10.1671C31.5 10.5538 31.1866 10.8672 30.7999 10.8672L27.2001 10.8672C26.8135 10.8672 26.5 10.5538 26.5 10.1671L26.5 6.56728C26.5 6.18064 26.8135 5.86721 27.2001 5.86721L30.7999 5.86721C31.1866 5.86721 31.5 6.18064 31.5 6.56728Z" fill="#FDAFAF"/>
</g>
</g>
<g clip-path="url(#clip10_216_13)">
<g clip-path="url(#clip11_216_13)">
<path d="M36.5 1.56728L36.5 5.16712C36.5 5.55376 36.1866 5.86719 35.7999 5.86719L32.2001 5.86719C31.8135 5.86719 31.5 5.55375 31.5 5.16712L31.5 1.56728C31.5 1.18064 31.8135 0.867207 32.2001 0.867207L35.7999 0.867207C36.1866 0.867207 36.5 1.18064 36.5 1.56728Z" fill="#FDAFAF"/>
</g>
</g>
<g clip-path="url(#clip12_216_13)">
<g clip-path="url(#clip13_216_13)">
<path d="M24.7999 15.8672L21.2001 15.8672C20.8134 15.8672 20.5 15.5538 20.5 15.1671L20.5 11.5673C20.5 11.1806 20.8134 10.8672 21.2001 10.8672L24.7999 10.8672C25.1865 10.8672 25.5 11.1806 25.5 11.5673L25.5 15.1671C25.5 15.5538 25.1865 15.8672 24.7999 15.8672Z" fill="#FDAFAF"/>
</g>
</g>
<g clip-path="url(#clip14_216_13)">
<g clip-path="url(#clip15_216_13)">
<path d="M19.7999 20.8672L16.2001 20.8672C15.8134 20.8672 15.5 20.5538 15.5 20.1671L15.5 16.5673C15.5 16.1806 15.8134 15.8672 16.2001 15.8672L19.7999 15.8672C20.1865 15.8672 20.5 16.1806 20.5 16.5673L20.5 20.1671C20.5 20.5538 20.1865 20.8672 19.7999 20.8672Z" fill="#FDAFAF"/>
</g>
</g>
<g clip-path="url(#clip16_216_13)">
<g clip-path="url(#clip17_216_13)">
<path d="M35.2999 20.3672L31.7001 20.3672C31.3134 20.3672 31 20.0538 31 19.6671L31 16.0673C31 15.6806 31.3134 15.3672 31.7001 15.3672L35.2999 15.3672C35.6865 15.3672 36 15.6806 36 16.0673L36 19.6671C36 20.0538 35.6865 20.3672 35.2999 20.3672Z" fill="#FDAFAF"/>
</g>
</g>
<g clip-path="url(#clip18_216_13)">
<g clip-path="url(#clip19_216_13)">
<path d="M5.29991 5.36719L1.70007 5.36719C1.31343 5.36719 1 5.05376 1 4.66712L1 1.06728C1 0.68064 1.31343 0.367208 1.70007 0.367208L5.29991 0.367208C5.68655 0.367208 5.99998 0.680641 5.99998 1.06728L5.99998 4.66712C5.99998 5.05376 5.68655 5.36719 5.29991 5.36719Z" fill="#FDAFAF"/>
</g>
</g>
<defs>
<clipPath id="clip0_216_13">
<rect width="5" height="6" fill="white" transform="translate(11.5 5.63965)"/>
</clipPath>
<clipPath id="clip1_216_13">
<rect width="5" height="6" fill="white" transform="translate(11.5 5.63965)"/>
</clipPath>
<clipPath id="clip2_216_13">
<rect width="5" height="6" fill="white" transform="translate(16.5 0.639648)"/>
</clipPath>
<clipPath id="clip3_216_13">
<rect width="5" height="6" fill="white" transform="translate(16.5 0.639648)"/>
</clipPath>
<clipPath id="clip4_216_13">
<rect width="5" height="6" fill="white" transform="translate(5.5 10.6396)"/>
</clipPath>
<clipPath id="clip5_216_13">
<rect width="5" height="6" fill="white" transform="translate(5.5 10.6396)"/>
</clipPath>
<clipPath id="clip6_216_13">
<rect width="5" height="6" fill="white" transform="translate(0.5 15.6396)"/>
</clipPath>
<clipPath id="clip7_216_13">
<rect width="5" height="6" fill="white" transform="translate(0.5 15.6396)"/>
</clipPath>
<clipPath id="clip8_216_13">
<rect width="5" height="6" fill="white" transform="translate(26.5 5.63965)"/>
</clipPath>
<clipPath id="clip9_216_13">
<rect width="5" height="6" fill="white" transform="translate(26.5 5.63965)"/>
</clipPath>
<clipPath id="clip10_216_13">
<rect width="5" height="6" fill="white" transform="translate(31.5 0.639648)"/>
</clipPath>
<clipPath id="clip11_216_13">
<rect width="5" height="6" fill="white" transform="translate(31.5 0.639648)"/>
</clipPath>
<clipPath id="clip12_216_13">
<rect width="5" height="6" fill="white" transform="translate(20.5 10.6396)"/>
</clipPath>
<clipPath id="clip13_216_13">
<rect width="5" height="6" fill="white" transform="translate(20.5 10.6396)"/>
</clipPath>
<clipPath id="clip14_216_13">
<rect width="5" height="6" fill="white" transform="translate(15.5 15.6396)"/>
</clipPath>
<clipPath id="clip15_216_13">
<rect width="5" height="6" fill="white" transform="translate(15.5 15.6396)"/>
</clipPath>
<clipPath id="clip16_216_13">
<rect width="5" height="6" fill="white" transform="translate(31 15.1396)"/>
</clipPath>
<clipPath id="clip17_216_13">
<rect width="5" height="6" fill="white" transform="translate(31 15.1396)"/>
</clipPath>
<clipPath id="clip18_216_13">
<rect width="5" height="6" fill="white" transform="translate(1 0.139648)"/>
</clipPath>
<clipPath id="clip19_216_13">
<rect width="5" height="6" fill="white" transform="translate(1 0.139648)"/>
</clipPath>
</defs>
</svg>
