<svg width="162" height="150" viewBox="0 0 162 150" fill="none" xmlns="http://www.w3.org/2000/svg">
<path d="M63.651 17.9615L63.6279 17.9533L63.3915 17.8689L63.3907 17.8683L61.529 16.2604L61.1083 17.0542L60.9373 16.9932C60.937 16.9942 60.9366 16.9952 60.9362 16.9963L82.1062 3.96952M63.651 17.9615L63.6513 17.9606C66.3439 10.3588 72.4403 5.32801 80.0658 4.18085M63.651 17.9615C63.6509 17.9618 63.6507 17.9621 63.6506 17.9624L64.0506 18.1041L63.651 17.9615ZM80.0658 4.18085L80.2755 3.44688L80.2756 3.4465L82.1062 3.96952M80.0658 4.18085L79.94 4.62136M80.0658 4.18085C80.7342 4.08029 81.4144 4.00958 82.105 3.96959C82.1054 3.96957 82.1058 3.96954 82.1062 3.96952M82.1062 3.96952L79.94 4.62136M79.94 4.62136C81.0748 4.44489 82.2475 4.35468 83.4526 4.35461C83.453 4.35461 83.4535 4.35461 83.454 4.35461L79.94 4.62136ZM60.3947 18.3871L60.0063 18.2143L60.3947 18.3871Z" fill="#4CAF4F" stroke="#4CAF4F" stroke-width="6.61111"/>
<path d="M9.09425 112.134C3.28127 119.176 2.60631 128.04 7.28707 135.844M9.09425 112.134L8.76647 111.864L7.28707 135.844M9.09425 112.134C9.13966 112.078 9.18497 112.023 9.23014 111.968L8.77085 111.858C8.7695 111.86 8.76815 111.862 8.76679 111.863L9.09425 112.134ZM7.28707 135.844C10.1865 140.678 14.9784 143.992 20.7806 145.176L7.28707 135.844ZM12.5208 105.955C13.7399 103.761 15.4211 100.733 17.0721 97.759C18.5431 95.1095 19.9921 92.4991 21.0733 90.5513L22.376 88.2044L22.7394 87.5497L22.8349 87.3778L22.8592 87.334L22.8651 87.3233L22.8655 87.3226C22.8649 87.3237 21.234 87.8069 19.6358 87.205M12.5208 105.955L7.45598 108.853C7.48021 108.818 7.50375 108.785 7.52665 108.752L8.14255 107.729L8.15962 107.701L8.37911 107.336C9.38354 105.668 11.9922 100.975 19.6358 87.205M12.5208 105.955L12.9285 106.052L12.5208 105.955ZM19.6358 87.205C19.8593 86.8024 20.0871 86.3921 20.3193 85.9738M19.6358 87.205C19.5049 87.1557 19.3743 87.0992 19.2448 87.0345L20.3193 85.9738M20.3193 85.9738L19.9434 85.7758L20.3193 85.9738ZM31.4392 86.0203L31.4408 86.0193L31.4392 86.0203ZM31.4392 86.0203L31.4376 86.0212L31.4392 86.0203ZM6.54488 110.029L6.21744 109.759L6.54488 110.029ZM6.54488 110.029C6.89392 109.605 7.19415 109.225 7.45566 108.853L6.54488 110.029ZM11.2059 109.038L11.2113 109.04L11.5145 107.766C11.2521 108.239 11.0452 108.611 10.9071 108.858C10.892 108.886 10.8777 108.911 10.8642 108.936L11.2059 109.038ZM49.8598 123.518C49.8597 123.518 49.8596 123.518 49.8596 123.518L49.8598 123.518ZM39.0339 105.478L39.0347 105.479L39.0339 105.478Z" fill="#4CAF4F" stroke="#4CAF4F" stroke-width="6.61111"/>
<path d="M89.1548 105.682C88.7016 106.437 88.5708 107.321 88.781 108.172C88.9936 109.022 89.5275 109.739 90.2833 110.194L93.6663 104.554C92.1127 103.619 90.0894 104.126 89.1548 105.682ZM89.1548 105.682L88.7909 105.464L89.1548 105.682ZM95.5798 113.371L95.3611 113.736L95.5798 113.371Z" fill="#4CAF4F" stroke="#4CAF4F" stroke-width="6.61111"/>
</svg>
