<svg width="41" height="41" viewBox="0 0 41 41" fill="none" xmlns="http://www.w3.org/2000/svg">
<g clip-path="url(#clip0_20_263)">
<path d="M9.33008 28.5801C9.33008 29.6847 10.2255 30.5801 11.3301 30.5801H29.3301C30.4347 30.5801 31.3301 29.6847 31.3301 28.5801M13.3301 30.5801C13.3301 31.6847 14.2255 32.5801 15.3301 32.5801H25.3301C26.4347 32.5801 27.3301 31.6847 27.3301 30.5801" stroke="#071743" stroke-opacity="0.25" stroke-linecap="round" stroke-linejoin="round"/>
<path fill-rule="evenodd" clip-rule="evenodd" d="M32.3301 28.5801H20.3301H8.33008C7.22551 28.5801 6.33008 27.6847 6.33008 26.5801V22.5801V10.5801C6.33008 9.47551 7.22551 8.58008 8.33008 8.58008H32.3301C33.4347 8.58008 34.3301 9.47551 34.3301 10.5801V22.5801V26.5801C34.3301 27.6847 33.4347 28.5801 32.3301 28.5801ZM12.1779 18.2165C16.2118 10.368 24.4484 10.3679 28.4823 18.2164C28.5985 18.4425 28.5985 18.7176 28.4823 18.9437C24.4484 26.7921 16.2118 26.7922 12.1779 18.9437C12.0617 18.7177 12.0617 18.4426 12.1779 18.2165Z" fill="url(#paint0_linear_20_263)" fill-opacity="0.32"/>
<path d="M28.3301 8.58008H32.3301C33.4347 8.58008 34.3301 9.47551 34.3301 10.5801V22.5801V26.5801C34.3301 27.6847 33.4347 28.5801 32.3301 28.5801H20.3301H8.33008C7.22551 28.5801 6.33008 27.6847 6.33008 26.5801V22.5801V10.5801C6.33008 9.47551 7.22551 8.58008 8.33008 8.58008H12.3301M15.3301 8.58008H25.3301" stroke="#36364A" stroke-linecap="round" stroke-linejoin="round"/>
<path d="M13.8301 11.5801H9.83008C9.55394 11.5801 9.33008 11.8039 9.33008 12.0801C9.33008 12.3562 9.55394 12.5801 9.83008 12.5801H13.8301C14.1062 12.5801 14.3301 12.3562 14.3301 12.0801C14.3301 11.8039 14.1062 11.5801 13.8301 11.5801Z" fill="#071743" fill-opacity="0.25"/>
<path d="M30.8301 11.5801H26.8301C26.5539 11.5801 26.3301 11.8039 26.3301 12.0801C26.3301 12.3562 26.5539 12.5801 26.8301 12.5801H30.8301C31.1062 12.5801 31.3301 12.3562 31.3301 12.0801C31.3301 11.8039 31.1062 11.5801 30.8301 11.5801Z" fill="#071743" fill-opacity="0.25"/>
<path d="M13.8301 24.5801H9.83008C9.55394 24.5801 9.33008 24.8039 9.33008 25.0801C9.33008 25.3562 9.55394 25.5801 9.83008 25.5801H13.8301C14.1062 25.5801 14.3301 25.3562 14.3301 25.0801C14.3301 24.8039 14.1062 24.5801 13.8301 24.5801Z" fill="#071743" fill-opacity="0.25"/>
<path d="M30.8301 24.5801H26.8301C26.5539 24.5801 26.3301 24.8039 26.3301 25.0801C26.3301 25.3562 26.5539 25.5801 26.8301 25.5801H30.8301C31.1062 25.5801 31.3301 25.3562 31.3301 25.0801C31.3301 24.8039 31.1062 24.5801 30.8301 24.5801Z" fill="#071743" fill-opacity="0.25"/>
<path d="M10.8301 14.5801H9.83008C9.55394 14.5801 9.33008 14.8039 9.33008 15.0801C9.33008 15.3562 9.55394 15.5801 9.83008 15.5801H10.8301C11.1062 15.5801 11.3301 15.3562 11.3301 15.0801C11.3301 14.8039 11.1062 14.5801 10.8301 14.5801Z" fill="#071743" fill-opacity="0.25"/>
<path d="M30.8301 14.5801H29.8301C29.5539 14.5801 29.3301 14.8039 29.3301 15.0801C29.3301 15.3562 29.5539 15.5801 29.8301 15.5801H30.8301C31.1062 15.5801 31.3301 15.3562 31.3301 15.0801C31.3301 14.8039 31.1062 14.5801 30.8301 14.5801Z" fill="#071743" fill-opacity="0.25"/>
<path d="M10.8301 21.5801H9.83008C9.55394 21.5801 9.33008 21.8039 9.33008 22.0801C9.33008 22.3562 9.55394 22.5801 9.83008 22.5801H10.8301C11.1062 22.5801 11.3301 22.3562 11.3301 22.0801C11.3301 21.8039 11.1062 21.5801 10.8301 21.5801Z" fill="#071743" fill-opacity="0.25"/>
<path d="M30.8301 21.5801H29.8301C29.5539 21.5801 29.3301 21.8039 29.3301 22.0801C29.3301 22.3562 29.5539 22.5801 29.8301 22.5801H30.8301C31.1062 22.5801 31.3301 22.3562 31.3301 22.0801C31.3301 21.8039 31.1062 21.5801 30.8301 21.5801Z" fill="#071743" fill-opacity="0.25"/>
<path d="M10.3301 18.0801C10.3301 17.8039 10.1062 17.5801 9.83008 17.5801C9.55394 17.5801 9.33008 17.8039 9.33008 18.0801C9.33008 18.3562 9.55394 18.5801 9.83008 18.5801C10.1062 18.5801 10.3301 18.3562 10.3301 18.0801Z" fill="#071743" fill-opacity="0.25"/>
<path d="M31.3301 18.0801C31.3301 17.8039 31.1062 17.5801 30.8301 17.5801C30.5539 17.5801 30.3301 17.8039 30.3301 18.0801C30.3301 18.3562 30.5539 18.5801 30.8301 18.5801C31.1062 18.5801 31.3301 18.3562 31.3301 18.0801Z" fill="#071743" fill-opacity="0.25"/>
<path d="M28.4824 18.2164C24.4484 10.3679 16.2119 10.368 12.178 18.2165C12.0618 18.4426 12.0618 18.7177 12.178 18.9437C16.2119 26.7922 24.4484 26.7921 28.4824 18.9437C28.5985 18.7176 28.5985 18.4425 28.4824 18.2164Z" stroke="#36364A" stroke-linecap="round" stroke-linejoin="round"/>
<path d="M21.3301 16.5801L22.9765 18.2265C23.1718 18.4218 23.1718 18.7384 22.9765 18.9337L21.3301 20.5801" stroke="#36364A" stroke-linecap="round" stroke-linejoin="round"/>
<path d="M19.33 16.5801L17.6836 18.2265C17.4883 18.4218 17.4883 18.7384 17.6836 18.9337L19.33 20.5801" stroke="#36364A" stroke-linecap="round" stroke-linejoin="round"/>
</g>
<defs>
<linearGradient id="paint0_linear_20_263" x1="20.3301" y1="8.58008" x2="20.3301" y2="28.5801" gradientUnits="userSpaceOnUse">
<stop stop-color="#818498"/>
<stop offset="1" stop-color="#818498" stop-opacity="0"/>
</linearGradient>
<clipPath id="clip0_20_263">
<rect width="40" height="40" fill="white" transform="translate(0.330078 0.580078)"/>
</clipPath>
</defs>
</svg>
