<svg width="41" height="41" viewBox="0 0 41 41" fill="none" xmlns="http://www.w3.org/2000/svg">
<g clip-path="url(#clip0_20_211)">
<path d="M34.3301 15.5805V12.5805C34.3301 11.8709 33.9606 11.2476 33.4034 10.8926L26.3301 19.3804L24.3301 16.9804L19.3302 22.9804L18.3302 21.7804L16.3302 24.1804L14.3302 21.7804L7.25684 30.2684C7.56694 30.466 7.93517 30.5805 8.33013 30.5805H32.3301C33.4347 30.5805 34.3301 29.6851 34.3301 28.5805V15.5805Z" fill="url(#paint0_linear_20_211)" fill-opacity="0.32"/>
<path d="M9.33008 10.5801C9.33008 9.47551 10.2255 8.58008 11.3301 8.58008H29.3301C30.4347 8.58008 31.3301 9.47551 31.3301 10.5801" stroke="#071743" stroke-opacity="0.25" stroke-linecap="round" stroke-linejoin="round"/>
<path d="M31.3301 30.5801C31.3301 31.6847 30.4347 32.5801 29.3301 32.5801H11.3301C10.2255 32.5801 9.33008 31.6847 9.33008 30.5801" stroke="#071743" stroke-opacity="0.25" stroke-linecap="round" stroke-linejoin="round"/>
<path d="M34.3301 15.5801V12.5801C34.3301 11.4755 33.4347 10.5801 32.3301 10.5801H8.33008C7.22551 10.5801 6.33008 11.4755 6.33008 12.5801V15.5801M34.3301 24.5801V28.5801C34.3301 29.6847 33.4347 30.5801 32.3301 30.5801H20.3301H8.33008C7.22551 30.5801 6.33008 29.6847 6.33008 28.5801V24.5801" stroke="#36364A" stroke-linecap="round" stroke-linejoin="round"/>
<path d="M10.3301 14.0801C10.3301 13.8039 10.1062 13.5801 9.83008 13.5801C9.55394 13.5801 9.33008 13.8039 9.33008 14.0801C9.33008 14.3562 9.55394 14.5801 9.83008 14.5801C10.1062 14.5801 10.3301 14.3562 10.3301 14.0801Z" fill="#071743" fill-opacity="0.25"/>
<path d="M13.3301 14.0801C13.3301 13.8039 13.1062 13.5801 12.8301 13.5801C12.5539 13.5801 12.3301 13.8039 12.3301 14.0801C12.3301 14.3562 12.5539 14.5801 12.8301 14.5801C13.1062 14.5801 13.3301 14.3562 13.3301 14.0801Z" fill="#071743" fill-opacity="0.25"/>
<path d="M16.3301 14.0801C16.3301 13.8039 16.1062 13.5801 15.8301 13.5801C15.5539 13.5801 15.3301 13.8039 15.3301 14.0801C15.3301 14.3562 15.5539 14.5801 15.8301 14.5801C16.1062 14.5801 16.3301 14.3562 16.3301 14.0801Z" fill="#071743" fill-opacity="0.25"/>
<path d="M10.3301 26.5801L14.3301 21.7801L16.3301 24.1801L18.3301 21.7801L19.3301 22.9801L24.3301 16.9801L26.3301 19.3801L30.3301 14.5801" stroke="#36364A" stroke-linecap="round" stroke-linejoin="round"/>
<path d="M6.33008 18.5801V21.5801" stroke="#36364A" stroke-linecap="round" stroke-linejoin="round"/>
<path d="M34.3301 18.5801V21.5801" stroke="#36364A" stroke-linecap="round" stroke-linejoin="round"/>
</g>
<defs>
<linearGradient id="paint0_linear_20_211" x1="16.3301" y1="21.0806" x2="20.7935" y2="30.5805" gradientUnits="userSpaceOnUse">
<stop stop-color="#818498"/>
<stop offset="1" stop-color="#818498" stop-opacity="0"/>
</linearGradient>
<clipPath id="clip0_20_211">
<rect width="40" height="40" fill="white" transform="translate(0.330078 0.580078)"/>
</clipPath>
</defs>
</svg>
