<svg width="120" height="28" viewBox="0 0 120 28" fill="none" xmlns="http://www.w3.org/2000/svg">
<g clip-path="url(#clip0_20_55)">
<g clip-path="url(#clip1_20_55)">
<g clip-path="url(#clip2_20_55)">
<path d="M41.8528 21.8246V14.5658C41.8528 13.4397 41.6165 12.6209 41.1439 12.1097C40.6714 11.5982 39.9385 11.3426 38.9453 11.3426C37.6098 11.3426 36.6323 11.6805 36.0125 12.3568C35.3925 13.0328 35.0827 14.1297 35.0827 15.6466V21.8246H34.0654V5.80273H35.0827V10.8997L35.0312 12.3311H35.1031C35.5209 11.6583 36.0484 11.1709 36.6853 10.8689C37.3223 10.5669 38.1133 10.4156 39.0585 10.4156C41.5927 10.4156 42.8597 11.7783 42.8597 14.5036V21.8246H41.8528ZM55.7116 16.2127C55.7116 18.0387 55.2699 19.4651 54.3865 20.4913C53.5029 21.5177 52.2837 22.0308 50.729 22.0308C49.7495 22.0308 48.8866 21.7942 48.1403 21.3204C47.3936 20.8465 46.8217 20.1671 46.4245 19.281C46.0272 18.396 45.8288 17.3732 45.8288 16.2127C45.8288 14.3868 46.2704 12.964 47.1539 11.9442C48.0374 10.9249 49.2497 10.4149 50.7908 10.4149C52.3248 10.4149 53.5286 10.9315 54.4018 11.9648C55.275 12.9982 55.7116 14.414 55.7116 16.2127ZM46.897 16.2127C46.897 17.7504 47.2343 18.9503 47.909 19.8118C48.5837 20.6732 49.5373 21.104 50.7702 21.104C52.0028 21.104 52.9567 20.6732 53.6314 19.8118C54.3058 18.9503 54.6431 17.7507 54.6431 16.2127C54.6431 14.6683 54.3025 13.4703 53.6211 12.6191C52.9395 11.768 51.9825 11.3423 50.7495 11.3423C49.5167 11.3423 48.5665 11.7662 47.8987 12.6141C47.2308 13.4619 46.897 14.6617 46.897 16.2127ZM72.7552 21.8246V14.4832C72.7552 13.3915 72.5429 12.5948 72.1189 12.094C71.6942 11.5928 71.0438 11.3423 70.1672 11.3423C69.0233 11.3423 68.178 11.6581 67.6294 12.2896C67.0813 12.9211 66.8075 13.9131 66.8075 15.2652V21.8246H65.7699V14.1745C65.7699 12.2863 64.9068 11.3426 63.1807 11.3426C62.0098 11.3426 61.1568 11.684 60.6229 12.3671C60.0884 13.0501 59.8215 14.1433 59.8215 15.6468V21.8248H58.8045V10.632H59.6471L59.8627 12.1663H59.9243C60.2331 11.6103 60.6713 11.1793 61.2394 10.8739C61.8074 10.5685 62.435 10.4156 63.1196 10.4156C64.8797 10.4156 66.0096 11.0782 66.5101 12.4031H66.5515C66.9144 11.7648 67.4025 11.2739 68.0154 10.9306C68.6286 10.5873 69.3257 10.4156 70.1065 10.4156C71.3251 10.4156 72.2395 10.7418 72.849 11.3939C73.4585 12.0461 73.7634 13.0826 73.7634 14.5036V21.8246H72.7552ZM81.8883 22.0308C80.2645 22.0308 78.9998 21.5296 78.0923 20.5274C77.1847 19.5252 76.7311 18.1213 76.7311 16.3158C76.7311 14.5311 77.1693 13.1008 78.0459 12.0271C78.9227 10.9526 80.104 10.4154 81.59 10.4154C82.9045 10.4154 83.9422 10.8756 84.7032 11.7952C85.4628 12.7152 85.8431 13.9645 85.8431 15.5433V16.3674H77.7989C77.8129 17.9046 78.1705 19.0784 78.8725 19.8889C79.574 20.6992 80.5791 21.104 81.8878 21.104C82.5243 21.104 83.0847 21.0597 83.5676 20.9702C84.05 20.881 84.6611 20.6886 85.4012 20.3936V21.3204C84.7712 21.5942 84.189 21.7819 83.6548 21.881C83.1212 21.9811 82.532 22.0308 81.8883 22.0308ZM81.5907 11.3219C80.5157 11.3219 79.652 11.6771 79.0014 12.3876C78.3507 13.0983 77.9707 14.1226 77.8615 15.4614H84.7646C84.7646 14.1641 84.4838 13.1497 83.9223 12.4185C83.3609 11.6875 82.5833 11.3219 81.5907 11.3219ZM93.641 10.4156C95.2022 10.4156 96.379 10.9084 97.17 11.8935C97.9611 12.8784 98.3565 14.3181 98.3565 16.2127C98.3565 18.0729 97.9407 19.5075 97.1085 20.5175C96.2762 21.5263 95.1067 22.0311 93.6002 22.0311C92.8055 22.0311 92.0898 21.8663 91.4529 21.537C90.8166 21.2073 90.313 20.7405 89.9428 20.1363H89.8502L89.5625 21.8246H88.9257V5.80273H89.9428V9.8289C89.9428 10.4329 89.929 10.9889 89.9015 11.497L89.8702 12.3722H89.9421C90.3665 11.6994 90.8785 11.2053 91.4779 10.8896C92.0777 10.5735 92.7989 10.4156 93.641 10.4156ZM93.6206 11.3426C92.306 11.3426 91.3643 11.7203 90.7953 12.4757C90.2273 13.2307 89.9425 14.4767 89.9425 16.2129V16.3887C89.9425 18.077 90.2386 19.2896 90.8311 20.0236C91.4233 20.7582 92.3463 21.1258 93.6 21.1258C94.8189 21.1258 95.7368 20.6983 96.3529 19.8435C96.9695 18.9887 97.2776 17.7724 97.2776 16.1934C97.2778 12.9592 96.0587 11.3426 93.6206 11.3426ZM110.684 16.2127C110.684 18.0387 110.243 19.4651 109.359 20.4913C108.477 21.5177 107.257 22.0308 105.702 22.0308C104.722 22.0308 103.86 21.7942 103.113 21.3204C102.366 20.8465 101.794 20.1671 101.397 19.281C101 18.396 100.801 17.3732 100.801 16.2127C100.801 14.3868 101.244 12.964 102.126 11.9442C103.01 10.9249 104.223 10.4149 105.764 10.4149C107.298 10.4149 108.502 10.9315 109.374 11.9648C110.248 12.9986 110.684 14.414 110.684 16.2127ZM101.87 16.2127C101.87 17.7504 102.208 18.9503 102.882 19.8118C103.556 20.6732 104.51 21.104 105.743 21.104C106.976 21.104 107.93 20.6732 108.605 19.8118C109.279 18.9503 109.616 17.7507 109.616 16.2127C109.616 14.6683 109.276 13.4703 108.594 12.6191C107.913 11.768 106.956 11.3423 105.723 11.3423C104.489 11.3423 103.539 11.7662 102.872 12.6141C102.204 13.4619 101.87 14.6617 101.87 16.2127ZM116.726 21.1246C117.369 21.1246 117.931 21.07 118.41 20.9599V21.7837C117.917 21.9485 117.348 22.0308 116.705 22.0308C115.719 22.0308 114.991 21.7665 114.522 21.238C114.053 20.7093 113.818 19.8788 113.818 18.7461V11.5176H112.164V10.9203L113.818 10.457L114.333 7.92379H114.855V10.632H118.133V11.5176H114.855V18.6017C114.855 19.46 115.006 20.0952 115.308 20.5076C115.609 20.9188 116.082 21.1246 116.726 21.1246Z" fill="#36364A"/>
<path fill-rule="evenodd" clip-rule="evenodd" d="M14.0221 0.142578C6.43264 0.142578 0.280273 6.30931 0.280273 13.916C0.280273 21.5227 6.43264 27.6892 14.0219 27.6892C21.6111 27.6892 27.7635 21.5229 27.7635 13.916C27.7637 6.30931 21.6111 0.142578 14.0221 0.142578Z" fill="#36364A"/>
<path d="M14.0225 26.3715C7.17043 26.3715 1.5957 20.7838 1.5957 13.9163C1.5957 7.04846 7.17043 1.46094 14.0225 1.46094C20.8745 1.46094 26.4493 7.04846 26.4493 13.9163C26.449 20.7838 20.8743 26.3715 14.0225 26.3715Z" fill="#36364A"/>
<path d="M15.0695 13.7805C15.0695 14.697 15.8117 15.4404 16.7273 15.4404C17.1668 15.4406 17.5885 15.266 17.8994 14.9547C18.2104 14.6433 18.3852 14.221 18.3854 13.7805C18.3853 13.3399 18.2105 12.9175 17.8995 12.6061C17.5886 12.2947 17.1669 12.12 16.7273 12.1203C15.8122 12.1203 15.0695 12.8635 15.0695 13.7805ZM9.69145 13.7805C9.69145 14.697 10.4337 15.4404 11.3495 15.4404C12.2655 15.4404 13.0078 14.697 13.0078 13.7805C13.0076 13.3399 12.8328 12.9175 12.5218 12.6061C12.2108 12.2947 11.7891 12.12 11.3495 12.1203C10.4337 12.1203 9.69145 12.8635 9.69145 13.7805ZM11.5574 19.9025H9.7441C9.1499 19.9028 8.66796 19.4202 8.66757 18.8246V16.9959H8.0272C7.70727 16.9959 7.44777 16.7363 7.44727 16.4156V14.068C7.44733 13.914 7.50846 13.7661 7.61722 13.6572C7.72597 13.5484 7.87345 13.4872 8.0272 13.4873H8.66712V11.1846C8.66762 10.5893 9.14938 10.1069 9.74341 10.1071H13.7144V9.44775C12.9366 9.28988 12.3521 8.60282 12.3521 7.77808C12.3523 7.32592 12.5317 6.89236 12.8508 6.57282C13.17 6.25326 13.6028 6.07391 14.0539 6.07422C14.9939 6.07422 15.7559 6.83677 15.7559 7.77808C15.7559 8.62692 15.1359 9.33026 14.3249 9.4606V10.1071H18.3082C18.9025 10.1067 19.3845 10.5891 19.385 11.1846V13.4873H20.0164C20.1703 13.487 20.3181 13.548 20.427 13.6569C20.5359 13.7658 20.5972 13.9138 20.5973 14.068V16.4156C20.597 16.5698 20.5357 16.7175 20.4267 16.8263C20.3179 16.9352 20.1702 16.9962 20.0164 16.9959H19.385V18.8246C19.3844 19.4202 18.9025 19.9026 18.3082 19.9025H11.5574ZM10.7485 16.9751C10.3849 16.9751 10.09 17.2763 10.09 17.6357V17.7363C10.09 18.1011 10.3858 18.3971 10.7485 18.3971H17.4783C17.8421 18.3971 18.1368 18.0958 18.1368 17.7363V17.6357C18.1366 17.2712 17.842 16.9756 17.4783 16.9751H10.7485Z" fill="white"/>
</g>
</g>
</g>
<defs>
<clipPath id="clip0_20_55">
<rect width="119" height="27.77" fill="white" transform="translate(0.280273 0.140625)"/>
</clipPath>
<clipPath id="clip1_20_55">
<rect width="119" height="27.77" fill="white" transform="translate(0.280273 0.140625)"/>
</clipPath>
<clipPath id="clip2_20_55">
<rect width="119" height="27.7667" fill="white" transform="translate(0.280273 0.142578)"/>
</clipPath>
</defs>
</svg>
