<svg width="181" height="44" viewBox="0 0 181 44" fill="none" xmlns="http://www.w3.org/2000/svg">
<path d="M67.6398 17.3922H62.787C62.6486 16.5964 62.3934 15.8914 62.0214 15.2772C61.6495 14.6544 61.1867 14.1267 60.6331 13.6942C60.0794 13.2617 59.448 12.9373 58.7386 12.721C58.0379 12.4961 57.281 12.3837 56.4679 12.3837C55.0233 12.3837 53.7431 12.747 52.6272 13.4736C51.5113 14.1916 50.6376 15.2469 50.0061 16.6397C49.3746 18.0237 49.0589 19.7148 49.0589 21.7131C49.0589 23.7459 49.3746 25.4587 50.0061 26.8514C50.6462 28.2354 51.5199 29.2821 52.6272 29.9915C53.7431 30.6921 55.019 31.0425 56.4549 31.0425C57.2508 31.0425 57.9947 30.9387 58.6867 30.7311C59.3874 30.5148 60.0146 30.1991 60.5682 29.7838C61.1304 29.3686 61.6019 28.8583 61.9825 28.2527C62.3718 27.6472 62.6399 26.9552 62.787 26.1767L67.6398 26.2026C67.4582 27.4656 67.0646 28.6507 66.4591 29.7579C65.8622 30.8651 65.0793 31.8426 64.1105 32.6904C63.1417 33.5294 62.0085 34.1869 60.7109 34.6626C59.4134 35.1298 57.9731 35.3633 56.3901 35.3633C54.0545 35.3633 51.9697 34.8227 50.1359 33.7414C48.302 32.6601 46.8574 31.0987 45.802 29.0572C44.7467 27.0157 44.219 24.5677 44.219 21.7131C44.219 18.8498 44.751 16.4018 45.815 14.3689C46.879 12.3275 48.3279 10.7661 50.1618 9.68478C51.9957 8.60349 54.0718 8.06284 56.3901 8.06284C57.8693 8.06284 59.2447 8.27045 60.5163 8.68566C61.7879 9.10088 62.9211 9.71073 63.9159 10.5152C64.9106 11.311 65.7281 12.2885 66.3682 13.4477C67.017 14.5982 67.4409 15.913 67.6398 17.3922ZM77.5758 35.4022C76.3129 35.4022 75.1754 35.1773 74.1633 34.7275C73.1598 34.269 72.364 33.5943 71.7758 32.7033C71.1962 31.8123 70.9064 30.7138 70.9064 29.4076C70.9064 28.283 71.114 27.3531 71.5292 26.6178C71.9445 25.8825 72.5111 25.2943 73.229 24.8532C73.947 24.412 74.7558 24.0789 75.6554 23.854C76.5637 23.6205 77.5023 23.4518 78.4711 23.348C79.6389 23.2269 80.5861 23.1188 81.3128 23.0236C82.0394 22.9198 82.5671 22.7641 82.8958 22.5565C83.2331 22.3402 83.4018 22.0072 83.4018 21.5574V21.4795C83.4018 20.502 83.112 19.7451 82.5325 19.2088C81.9529 18.6725 81.1181 18.4043 80.0282 18.4043C78.8777 18.4043 77.9651 18.6552 77.2904 19.1569C76.6243 19.6586 76.1745 20.2512 75.9409 20.9345L71.5552 20.3117C71.9012 19.1007 72.4721 18.0886 73.268 17.2755C74.0638 16.4537 75.0369 15.8395 76.1874 15.4329C77.3379 15.0177 78.6095 14.8101 80.0022 14.8101C80.9624 14.8101 81.9183 14.9226 82.8698 15.1475C83.8214 15.3724 84.6907 15.7443 85.4779 16.2634C86.2651 16.7737 86.8966 17.4701 87.3723 18.3524C87.8568 19.2348 88.099 20.3377 88.099 21.6612V35H83.5835V32.2622H83.4278C83.1423 32.8158 82.7401 33.3348 82.2211 33.8192C81.7107 34.295 81.0662 34.6799 80.2877 34.974C79.5178 35.2595 78.6139 35.4022 77.5758 35.4022ZM78.7955 31.9508C79.7384 31.9508 80.5559 31.7648 81.2479 31.3928C81.9399 31.0122 82.4719 30.5105 82.8439 29.8876C83.2245 29.2648 83.4148 28.5858 83.4148 27.8505V25.5019C83.2677 25.623 83.0169 25.7355 82.6622 25.8393C82.3162 25.9431 81.9269 26.0339 81.4944 26.1118C81.0619 26.1896 80.6337 26.2588 80.2099 26.3194C79.786 26.3799 79.4183 26.4318 79.1069 26.4751C78.4063 26.5702 77.7791 26.7259 77.2255 26.9422C76.6719 27.1585 76.235 27.4612 75.915 27.8505C75.5949 28.2311 75.4349 28.7242 75.4349 29.3297C75.4349 30.1947 75.7506 30.8478 76.3821 31.289C77.0136 31.7302 77.818 31.9508 78.7955 31.9508ZM102.774 15.0696V18.7028H91.3169V15.0696H102.774ZM94.1456 10.2946H98.8427V29.0053C98.8427 29.6368 98.9378 30.1212 99.1281 30.4586C99.3271 30.7873 99.5866 31.0122 99.9067 31.1333C100.227 31.2544 100.581 31.315 100.971 31.315C101.265 31.315 101.533 31.2933 101.775 31.2501C102.026 31.2068 102.216 31.1679 102.346 31.1333L103.138 34.8054C102.887 34.8919 102.528 34.987 102.061 35.0908C101.602 35.1946 101.04 35.2552 100.374 35.2725C99.1973 35.3071 98.1377 35.1298 97.1948 34.7405C96.2519 34.3426 95.5037 33.7284 94.95 32.898C94.4051 32.0675 94.1369 31.0295 94.1456 29.7838V10.2946ZM106.703 35V15.0696H111.4V35H106.703ZM109.064 12.241C108.32 12.241 107.68 11.9944 107.144 11.5014C106.607 10.9996 106.339 10.3984 106.339 9.69775C106.339 8.98843 106.607 8.38723 107.144 7.89416C107.68 7.39244 108.32 7.14158 109.064 7.14158C109.817 7.14158 110.457 7.39244 110.985 7.89416C111.521 8.38723 111.789 8.98843 111.789 9.69775C111.789 10.3984 111.521 10.9996 110.985 11.5014C110.457 11.9944 109.817 12.241 109.064 12.241ZM120.927 23.322V35H116.23V15.0696H120.719V18.4562H120.953C121.411 17.3403 122.142 16.4537 123.146 15.7962C124.158 15.1388 125.408 14.8101 126.896 14.8101C128.271 14.8101 129.469 15.1042 130.49 15.6924C131.519 16.2807 132.315 17.1327 132.877 18.2486C133.448 19.3645 133.73 20.7183 133.721 22.31V35H129.024V23.0366C129.024 21.7044 128.678 20.6621 127.986 19.9095C127.302 19.1569 126.355 18.7806 125.144 18.7806C124.322 18.7806 123.591 18.9623 122.951 19.3256C122.32 19.6802 121.822 20.1949 121.459 20.8697C121.104 21.5444 120.927 22.3619 120.927 23.322ZM147.163 42.8891C145.477 42.8891 144.028 42.6599 142.817 42.2014C141.606 41.7516 140.632 41.1461 139.897 40.3848C139.162 39.6236 138.652 38.7802 138.366 37.8546L142.596 36.8295C142.786 37.2188 143.063 37.6038 143.427 37.9844C143.79 38.3736 144.279 38.6937 144.893 38.9446C145.516 39.2041 146.298 39.3338 147.241 39.3338C148.573 39.3338 149.676 39.0094 150.55 38.3607C151.424 37.7205 151.861 36.6652 151.861 35.1946V31.4188H151.627C151.385 31.9032 151.03 32.4006 150.563 32.9109C150.105 33.4213 149.495 33.8495 148.734 34.1955C147.981 34.5415 147.034 34.7145 145.892 34.7145C144.361 34.7145 142.972 34.3555 141.727 33.6376C140.49 32.9109 139.504 31.8297 138.768 30.3937C138.042 28.9491 137.678 27.1412 137.678 24.9699C137.678 22.7814 138.042 20.9345 138.768 19.4294C139.504 17.9156 140.494 16.7694 141.74 15.9909C142.985 15.2037 144.374 14.8101 145.905 14.8101C147.073 14.8101 148.033 15.0091 148.785 15.407C149.547 15.7962 150.152 16.2677 150.602 16.8213C151.052 17.3663 151.393 17.881 151.627 18.3654H151.887V15.0696H156.519V35.3244C156.519 37.0285 156.112 38.4385 155.299 39.5544C154.486 40.6703 153.374 41.5051 151.964 42.0587C150.554 42.6123 148.954 42.8891 147.163 42.8891ZM147.202 31.0295C148.197 31.0295 149.045 30.7873 149.746 30.3029C150.446 29.8184 150.978 29.1221 151.342 28.2138C151.705 27.3055 151.887 26.2156 151.887 24.944C151.887 23.6897 151.705 22.5911 151.342 21.6482C150.987 20.7053 150.459 19.9744 149.759 19.4553C149.067 18.9277 148.214 18.6638 147.202 18.6638C146.156 18.6638 145.282 18.9363 144.581 19.4813C143.881 20.0263 143.353 20.7745 142.998 21.7261C142.644 22.6689 142.466 23.7416 142.466 24.944C142.466 26.1637 142.644 27.232 142.998 28.1489C143.362 29.0572 143.894 29.7665 144.594 30.2769C145.304 30.7786 146.173 31.0295 147.202 31.0295ZM167.068 35.4022C165.805 35.4022 164.667 35.1773 163.655 34.7275C162.652 34.269 161.856 33.5943 161.268 32.7033C160.688 31.8123 160.399 30.7138 160.399 29.4076C160.399 28.283 160.606 27.3531 161.021 26.6178C161.437 25.8825 162.003 25.2943 162.721 24.8532C163.439 24.412 164.248 24.0789 165.148 23.854C166.056 23.6205 166.994 23.4518 167.963 23.348C169.131 23.2269 170.078 23.1188 170.805 23.0236C171.531 22.9198 172.059 22.7641 172.388 22.5565C172.725 22.3402 172.894 22.0072 172.894 21.5574V21.4795C172.894 20.502 172.604 19.7451 172.025 19.2088C171.445 18.6725 170.61 18.4043 169.52 18.4043C168.37 18.4043 167.457 18.6552 166.782 19.1569C166.116 19.6586 165.667 20.2512 165.433 20.9345L161.047 20.3117C161.393 19.1007 161.964 18.0886 162.76 17.2755C163.556 16.4537 164.529 15.8395 165.68 15.4329C166.83 15.0177 168.102 14.8101 169.494 14.8101C170.455 14.8101 171.41 14.9226 172.362 15.1475C173.313 15.3724 174.183 15.7443 174.97 16.2634C175.757 16.7737 176.389 17.4701 176.864 18.3524C177.349 19.2348 177.591 20.3377 177.591 21.6612V35H173.076V32.2622H172.92C172.634 32.8158 172.232 33.3348 171.713 33.8192C171.203 34.295 170.558 34.6799 169.78 34.974C169.01 35.2595 168.106 35.4022 167.068 35.4022ZM168.288 31.9508C169.231 31.9508 170.048 31.7648 170.74 31.3928C171.432 31.0122 171.964 30.5105 172.336 29.8876C172.717 29.2648 172.907 28.5858 172.907 27.8505V25.5019C172.76 25.623 172.509 25.7355 172.154 25.8393C171.808 25.9431 171.419 26.0339 170.987 26.1118C170.554 26.1896 170.126 26.2588 169.702 26.3194C169.278 26.3799 168.91 26.4318 168.599 26.4751C167.898 26.5702 167.271 26.7259 166.718 26.9422C166.164 27.1585 165.727 27.4612 165.407 27.8505C165.087 28.2311 164.927 28.7242 164.927 29.3297C164.927 30.1947 165.243 30.8478 165.874 31.289C166.506 31.7302 167.31 31.9508 168.288 31.9508Z" fill="white"/>
<rect x="0.681818" y="0.681818" width="28.6364" height="28.6364" stroke="#EEEEEE" stroke-width="1.36364"/>
<rect x="6.13635" y="9.54544" width="28.6364" height="28.6364" stroke="#EEEEEE" stroke-width="1.36364"/>
</svg>
