<?xml version="1.0" encoding="utf-8"?>
<!-- Generator: Adobe Illustrator 27.5.0, SVG Export Plug-In . SVG Version: 6.00 Build 0)  -->
<svg version="1.1" xmlns="http://www.w3.org/2000/svg" xmlns:xlink="http://www.w3.org/1999/xlink" x="0px" y="0px"
	 viewBox="0 0 500 500" style="enable-background:new 0 0 500 500;" xml:space="preserve">
<g id="BACKGROUND">
</g>
<g id="OBJECTS">
	<path style="fill:#EDEDED;" d="M132.459,387.187c-7.709,0-13.981-6.272-13.981-13.98v-56.97c0-7.708,6.272-13.98,13.981-13.98
		h17.527c-5.158-12.778-7.844-26.499-7.844-40.366c0-22.218,6.932-43.976,19.651-62.059c-5.658-6.037-13.973-13.343-23.682-17.032
		l-8.26-3.138l2.999-8.312c5.593-15.505,15.181-17.277,17.986-17.451l4.661-0.288l2.916,3.649c0.109,0.137,9.908,12.3,22.09,22.176
		c1.741-1.469,3.526-2.883,5.35-4.236l0.221-0.841c-1.19-2.151-1.886-4.236-2.053-5.542c-0.932-7.299-0.45-10.68,0.15-13.016
		c1.676-8.355,8.231-11.06,11.044-12.22c0.287-0.118,0.569-0.224,0.824-0.348c0.132-0.091,0.286-0.202,0.466-0.33
		c1.913-1.357,5.645-4.003,11.412-6.445c-5.289-1.335-10.288-4.052-10.288-10.476c0-9.79,11.56-11.054,19.21-11.889
		c7.536-0.824,17.485-1.278,28.014-1.278c10.53,0,20.479,0.454,28.015,1.278c7.65,0.836,19.21,2.1,19.21,11.889
		c0,9.354-10.565,10.835-17.17,11.65c15.117,4.833,29.091,12.344,30.513,22.021c0.474,3.218-0.245,6.205-1.488,8.845
		c33.084,19.129,53.927,54.681,53.927,93.395c0,13.867-2.687,27.589-7.845,40.366h17.527c7.71,0,13.981,6.272,13.981,13.98v56.97
		c0,7.708-6.272,13.98-13.981,13.98H132.459z"/>
	
		<ellipse transform="matrix(0.7071 -0.7071 0.7071 0.7071 -111.9615 253.4826)" style="fill:#424242;" cx="250" cy="261.891" rx="98.871" ry="98.871"/>
	<g>
		<g>
			<g>
				<polygon style="fill:#1A1A1A;" points="250.5,173.093 250,261.891 249.5,173.093 250.5,173.093 				"/>
			</g>
			<g>
				<polygon style="fill:#1A1A1A;" points="242.759,173.387 250,261.891 241.762,173.474 242.759,173.387 				"/>
			</g>
			<g>
				<polygon style="fill:#1A1A1A;" points="235.073,174.355 250,261.891 234.088,174.529 235.073,174.355 				"/>
			</g>
			<g>
				<polygon style="fill:#1A1A1A;" points="227.5,175.989 250,261.891 226.534,176.248 227.5,175.989 				"/>
			</g>
			<g>
				<polygon style="fill:#1A1A1A;" points="220.099,178.277 250,261.891 219.159,178.619 220.099,178.277 				"/>
			</g>
			<g>
				<polygon style="fill:#1A1A1A;" points="212.925,181.201 250,261.891 212.019,181.624 212.925,181.201 				"/>
			</g>
			<g>
				<polygon style="fill:#1A1A1A;" points="206.034,184.74 250,261.891 205.168,185.24 206.034,184.74 				"/>
			</g>
			<g>
				<polygon style="fill:#1A1A1A;" points="199.477,188.865 250,261.891 198.658,189.439 199.477,188.865 				"/>
			</g>
			<g>
				<polygon style="fill:#1A1A1A;" points="193.305,193.546 250,261.891 192.539,194.189 193.305,193.546 				"/>
			</g>
			<g>
				<polygon style="fill:#1A1A1A;" points="187.564,198.748 250,261.891 186.857,199.455 187.564,198.748 				"/>
			</g>
			<g>
				<polygon style="fill:#1A1A1A;" points="182.298,204.43 250,261.891 181.655,205.196 182.298,204.43 				"/>
			</g>
			<g>
				<polygon style="fill:#1A1A1A;" points="177.548,210.549 250,261.891 176.974,211.368 177.548,210.549 				"/>
			</g>
			<g>
				<polygon style="fill:#1A1A1A;" points="173.349,217.059 250,261.891 172.849,217.925 173.349,217.059 				"/>
			</g>
			<g>
				<polygon style="fill:#1A1A1A;" points="169.733,223.91 250,261.891 169.31,224.816 169.733,223.91 				"/>
			</g>
			<g>
				<polygon style="fill:#1A1A1A;" points="166.728,231.05 250,261.891 166.386,231.99 166.728,231.05 				"/>
			</g>
			<g>
				<polygon style="fill:#1A1A1A;" points="164.357,238.425 250,261.891 164.098,239.391 164.357,238.425 				"/>
			</g>
			<g>
				<polygon style="fill:#1A1A1A;" points="162.638,245.979 250,261.891 162.464,246.964 162.638,245.979 				"/>
			</g>
			<g>
				<polygon style="fill:#1A1A1A;" points="161.583,253.653 250,261.891 161.496,254.65 161.583,253.653 				"/>
			</g>
			<g>
				<polygon style="fill:#1A1A1A;" points="161.202,261.391 250,261.891 161.202,262.391 161.202,261.391 				"/>
			</g>
			<g>
				<polygon style="fill:#1A1A1A;" points="161.496,269.132 250,261.891 161.583,270.128 161.496,269.132 				"/>
			</g>
			<g>
				<polygon style="fill:#1A1A1A;" points="162.464,276.818 250,261.891 162.638,277.803 162.464,276.818 				"/>
			</g>
			<g>
				<polygon style="fill:#1A1A1A;" points="164.098,284.39 250,261.891 164.357,285.356 164.098,284.39 				"/>
			</g>
			<g>
				<polygon style="fill:#1A1A1A;" points="166.386,291.792 250,261.891 166.728,292.731 166.386,291.792 				"/>
			</g>
			<g>
				<polygon style="fill:#1A1A1A;" points="169.31,298.965 250,261.891 169.733,299.871 169.31,298.965 				"/>
			</g>
			<g>
				<polygon style="fill:#1A1A1A;" points="172.849,305.857 250,261.891 173.349,306.723 172.849,305.857 				"/>
			</g>
			<g>
				<polygon style="fill:#1A1A1A;" points="176.974,312.414 250,261.891 177.548,313.233 176.974,312.414 				"/>
			</g>
			<g>
				<polygon style="fill:#1A1A1A;" points="181.655,318.586 250,261.891 182.298,319.352 181.655,318.586 				"/>
			</g>
			<g>
				<polygon style="fill:#1A1A1A;" points="186.857,324.327 250,261.891 187.564,325.034 186.857,324.327 				"/>
			</g>
			<g>
				<polygon style="fill:#1A1A1A;" points="192.539,329.592 250,261.891 193.305,330.235 192.539,329.592 				"/>
			</g>
			<g>
				<polygon style="fill:#1A1A1A;" points="198.658,334.343 250,261.891 199.477,334.917 198.658,334.343 				"/>
			</g>
			<g>
				<polygon style="fill:#1A1A1A;" points="205.168,338.542 250,261.891 206.034,339.042 205.168,338.542 				"/>
			</g>
			<g>
				<polygon style="fill:#1A1A1A;" points="212.019,342.158 250,261.891 212.925,342.58 212.019,342.158 				"/>
			</g>
			<g>
				<polygon style="fill:#1A1A1A;" points="219.159,345.162 250,261.891 220.099,345.504 219.159,345.162 				"/>
			</g>
			<g>
				<polygon style="fill:#1A1A1A;" points="226.534,347.534 250,261.891 227.5,347.792 226.534,347.534 				"/>
			</g>
			<g>
				<polygon style="fill:#1A1A1A;" points="234.088,349.253 250,261.891 235.073,349.426 234.088,349.253 				"/>
			</g>
			<g>
				<polygon style="fill:#1A1A1A;" points="241.762,350.307 250,261.891 242.759,350.394 241.762,350.307 				"/>
			</g>
			<g>
				<polygon style="fill:#1A1A1A;" points="249.5,350.689 250,261.891 250.5,350.689 249.5,350.689 				"/>
			</g>
			<g>
				<polygon style="fill:#1A1A1A;" points="257.241,350.394 250,261.891 258.237,350.307 257.241,350.394 				"/>
			</g>
			<g>
				<polygon style="fill:#1A1A1A;" points="264.927,349.426 250,261.891 265.912,349.253 264.927,349.426 				"/>
			</g>
			<g>
				<polygon style="fill:#1A1A1A;" points="272.499,347.792 250,261.891 273.465,347.534 272.499,347.792 				"/>
			</g>
			<g>
				<polygon style="fill:#1A1A1A;" points="279.901,345.504 250,261.891 280.84,345.162 279.901,345.504 				"/>
			</g>
			<g>
				<polygon style="fill:#1A1A1A;" points="287.074,342.58 250,261.891 287.981,342.158 287.074,342.58 				"/>
			</g>
			<g>
				<polygon style="fill:#1A1A1A;" points="293.966,339.042 250,261.891 294.832,338.542 293.966,339.042 				"/>
			</g>
			<g>
				<polygon style="fill:#1A1A1A;" points="300.523,334.917 250,261.891 301.342,334.343 300.523,334.917 				"/>
			</g>
			<g>
				<polygon style="fill:#1A1A1A;" points="306.695,330.235 250,261.891 307.461,329.592 306.695,330.235 				"/>
			</g>
			<g>
				<polygon style="fill:#1A1A1A;" points="312.436,325.034 250,261.891 313.143,324.327 312.436,325.034 				"/>
			</g>
			<g>
				<polygon style="fill:#1A1A1A;" points="317.702,319.352 250,261.891 318.344,318.586 317.702,319.352 				"/>
			</g>
			<g>
				<polygon style="fill:#1A1A1A;" points="322.452,313.233 250,261.891 323.026,312.414 322.452,313.233 				"/>
			</g>
			<g>
				<polygon style="fill:#1A1A1A;" points="326.651,306.723 250,261.891 327.151,305.857 326.651,306.723 				"/>
			</g>
			<g>
				<polygon style="fill:#1A1A1A;" points="330.267,299.871 250,261.891 330.689,298.965 330.267,299.871 				"/>
			</g>
			<g>
				<polygon style="fill:#1A1A1A;" points="333.272,292.731 250,261.891 333.614,291.792 333.272,292.731 				"/>
			</g>
			<g>
				<polygon style="fill:#1A1A1A;" points="335.643,285.356 250,261.891 335.901,284.39 335.643,285.356 				"/>
			</g>
			<g>
				<polygon style="fill:#1A1A1A;" points="337.362,277.803 250,261.891 337.535,276.818 337.362,277.803 				"/>
			</g>
			<g>
				<polygon style="fill:#1A1A1A;" points="338.416,270.128 250,261.891 338.503,269.132 338.416,270.128 				"/>
			</g>
			<g>
				<polygon style="fill:#1A1A1A;" points="338.798,262.391 250,261.891 338.798,261.391 338.798,262.391 				"/>
			</g>
			<g>
				<polygon style="fill:#1A1A1A;" points="338.503,254.65 250,261.891 338.416,253.653 338.503,254.65 				"/>
			</g>
			<g>
				<polygon style="fill:#1A1A1A;" points="337.535,246.964 250,261.891 337.362,245.979 337.535,246.964 				"/>
			</g>
			<g>
				<polygon style="fill:#1A1A1A;" points="335.901,239.391 250,261.891 335.643,238.425 335.901,239.391 				"/>
			</g>
			<g>
				<polygon style="fill:#1A1A1A;" points="333.614,231.99 250,261.891 333.272,231.05 333.614,231.99 				"/>
			</g>
			<g>
				<polygon style="fill:#1A1A1A;" points="330.689,224.816 250,261.891 330.267,223.91 330.689,224.816 				"/>
			</g>
			<g>
				<polygon style="fill:#1A1A1A;" points="327.151,217.925 250,261.891 326.651,217.059 327.151,217.925 				"/>
			</g>
			<g>
				<polygon style="fill:#1A1A1A;" points="323.026,211.368 250,261.891 322.452,210.549 323.026,211.368 				"/>
			</g>
			<g>
				<polygon style="fill:#1A1A1A;" points="318.344,205.196 250,261.891 317.702,204.43 318.344,205.196 				"/>
			</g>
			<g>
				<polygon style="fill:#1A1A1A;" points="313.143,199.455 250,261.891 312.436,198.748 313.143,199.455 				"/>
			</g>
			<g>
				<polygon style="fill:#1A1A1A;" points="307.461,194.189 250,261.891 306.695,193.546 307.461,194.189 				"/>
			</g>
			<g>
				<polygon style="fill:#1A1A1A;" points="301.342,189.439 250,261.891 300.523,188.865 301.342,189.439 				"/>
			</g>
			<g>
				<polygon style="fill:#1A1A1A;" points="294.832,185.24 250,261.891 293.966,184.74 294.832,185.24 				"/>
			</g>
			<g>
				<polygon style="fill:#1A1A1A;" points="287.981,181.624 250,261.891 287.074,181.201 287.981,181.624 				"/>
			</g>
			<g>
				<polygon style="fill:#1A1A1A;" points="280.84,178.619 250,261.891 279.901,178.277 280.84,178.619 				"/>
			</g>
			<g>
				<polygon style="fill:#1A1A1A;" points="273.465,176.248 250,261.891 272.499,175.989 273.465,176.248 				"/>
			</g>
			<g>
				<polygon style="fill:#1A1A1A;" points="265.912,174.529 250,261.891 264.927,174.355 265.912,174.529 				"/>
			</g>
			<g>
				<polygon style="fill:#1A1A1A;" points="258.237,173.474 250,261.891 257.241,173.387 258.237,173.474 				"/>
			</g>
		</g>
	</g>
	<g>
		<g>
			<g>
				<g>
					<ellipse style="fill:#C7A55B;" cx="244.853" cy="125.98" rx="38.237" ry="4.18"/>
					<path style="fill:#C7A55B;" d="M266.435,350.295c0,2.308-9.663,4.18-21.582,4.18s-21.582-1.871-21.582-4.18
						s9.663-4.18,21.582-4.18S266.435,347.986,266.435,350.295z"/>
					<polygon style="fill:#C7A55B;" points="249.635,125.98 246.667,350.295 243.441,350.295 240.473,125.98 249.635,125.98 					
						"/>
					<path style="fill:#C7A55B;" d="M276.274,318.909c0.004-1.6-1.418-2.928-3.216-3.021l-5.516-0.283l5.934-0.51
						c1.676-0.144,2.962-1.346,3.08-2.838c0.377-4.783,2.42-5.628,3.991-12.027c5.224-21.28,0-17.05,2.766-21.142
						c2.766-4.092,2.151-7.093,3.688-12.004c0.043-0.136,0.088-0.344,0.134-0.581l-7.454-0.654l5.147-0.756
						c1.527-0.224,2.699-1.325,2.843-2.694c0.002-0.018,0.004-0.037,0.006-0.055c0.18-1.715-1.268-3.226-3.204-3.325l-14.026-0.72
						l14.026,0.72c5.349,0.956,6.762-8.836,6.883-10.312c1.43-17.395,2.774-41.412,1.56-56.196c-0.135-1.644-5.18-2.853-7.029-3.015
						l-6.206-1.099l8.361,0.126c2.146,0.033,4.158-1.056,5.309-2.868c0.227-0.358,0.391-0.621,0.41-0.691
						c1.229-4.365,1.284-7.728,0.256-8.409c-2.292-1.518-7.208,1.654-8.13,0.29c-0.922-1.364,11.562-9.615,10.64-15.89
						c-0.922-6.275-23.357-17.733-51.938-20.462c-28.581-2.728-41.489,9.003-43.947,10.461c-2.458,1.458-6.761,1.816-7.683,6.727
						c-0.145,0.772-0.984,2.473-0.024,9.991c0.178,1.391,2.76,5.604,4.325,5.777l2.417,0.267l-4.617,1.82
						c0.522,3.973,0.458,7.665,1.553,12.564c0.906,4.053,3.998,5.353,3.998,5.353c3.248,2.366,9.705,1.742,9.705,1.742l-9.209,1.352
						c-1.811,0.266-3.067,3.261-3.469,4.851c-1.608,6.351,1.078,6.151,3.827,20.71c0.263,1.393,1.472,2.504,3.056,2.643l7.453,0.654
						l-6.563,0.964c-1.816,0.267-3.053,1.747-2.834,3.37c2.794,20.758,2.794,37.323,5.063,52.769
						c0.594,4.043,8.974,18.21,9.291,20.315c1.879,12.459,1.231,21.734,0.832,25.35c-0.117,1.056,0.359,2.106,1.333,2.722
						c19.353,12.246,54.864,2.742,54.864,1.414C273.959,331.564,276.254,326.004,276.274,318.909z"/>
					<g>
						<path style="fill:#424242;" d="M211.853,170.335c8.319-0.926,27.215-1.819,43.623,0.305
							c16.471,1.674,30.453,6.365,30.411,6.206c0.043-0.05-14.685-5.654-28.362-7.949c-9.664-2.112-30.571-1.771-41.604,0.321
							c10.967-2.982,22.443-4.44,22.442-4.419c0.008-0.021-9.122-0.18-16.989,0.924c-8.104,0.601-26.518,9.522-26.314,9.815
							C197.173,175.145,204.023,172.55,211.853,170.335z"/>
						<path style="fill:#424242;" d="M224.553,229.781c11.059-2.955,22.72-4.285,22.719-4.261c0.009-0.023-9.139-0.29-17.028,0.756
							c-8.136,0.519-26.598,9.405-26.384,9.713c1.931-0.355,7.807-2.559,14.79-4.584c9.434-1.218,27.806-1.944,43.434,0.09
							c15.688,1.636,28.633,6.033,28.6,5.863c0.045-0.052-14.691-5.651-28.4-7.835C253.652,227.796,236.054,227.833,224.553,229.781
							z"/>
						<path style="fill:#424242;" d="M223.024,280.119c3.574-0.503,18.467-3.428,32.29-2.623
							c13.848,0.226,26.626,4.181,26.526,4.078c0.043-0.042-11.164-4.392-21.675-5.806
							C249.513,272.982,222.742,279.275,223.024,280.119z"/>
						<path style="fill:#424242;" d="M223.467,316.625c3.134-0.409,16.172-3.156,28.354-2.592
							c12.19,0.049,15.813,1.658,15.721,1.572c0.039-0.036-2.126-2.147-11.402-3.374
							C246.696,309.783,223.179,315.875,223.467,316.625z"/>
						<path style="fill:#424242;" d="M248.94,192.845c-13.862-3.676-49.277,3.158-49.009,4.252
							c4.743-0.752,24.562-4.155,42.746-2.717c18.251,0.691,34.865,6.223,34.743,6.074
							C277.473,200.395,262.733,194.755,248.94,192.845z"/>
						<path style="fill:#424242;" d="M242.952,190.798c2.992-0.379,15.433-3.068,27.087-2.581
							c11.657-0.007,22.527,3.163,22.438,3.083c0.038-0.034-9.411-3.74-18.289-4.907
							C265.132,184.051,242.663,190.078,242.952,190.798z"/>
						<path style="fill:#424242;" d="M202.957,227.62c2.962-0.572,15.203-4.059,26.864-4.325c11.632-0.76,22.684,1.701,22.59,1.627
							c0.035-0.037-9.633-3.125-18.568-3.716C224.655,219.455,202.622,226.921,202.957,227.62z"/>
						<path style="fill:#424242;" d="M238.574,193.585c-12.969-1.487-41.634,10.222-41.046,11.147
							c3.747-1.269,19.828-7.471,35.899-8.703c15.915-1.976,31.821,1.018,31.627,0.957
							C265.091,196.908,250.958,193.413,238.574,193.585z"/>
						<path style="fill:#424242;" d="M238.669,262.82c13.686-1.27,41.124,1.948,41.012,3.029
							c-4.183-2.036-16.531-5.134-34.941-5.064c-18.382-0.694-35.853,3.879-35.681,3.77
							C209.061,264.467,225.057,262.332,238.669,262.82z"/>
						<path style="fill:#424242;" d="M227.209,275.229c8.637-0.985,31.276,1.113,31.29,1.884c-2.681-1.418-15.41-4.502-27.317-4.061
							c-11.926-0.068-23.031,3.389-22.914,3.302C208.275,276.3,218.502,275.013,227.209,275.229z"/>
						<path style="fill:#424242;" d="M271.563,258.553c-3.758-1.353-11.11-2.691-25.865-0.576
							c-14.934,1.488-20.462,4.585-20.321,4.413c4.782-0.878,4.782-0.878,15.777-2.011
							C251.78,257.758,271.433,257.582,271.563,258.553z"/>
					</g>
				</g>
				<g>
					<path style="fill:#424242;" d="M206.905,184.08c0,0,2.143-4.62,6.031-2.449C212.936,181.631,204.206,190.745,206.905,184.08z"
						/>
					<path style="fill:#424242;" d="M281.408,250.745c0,0-3.176-2.604-0.859-5.415c2.317-2.812,3.462-0.521,3.462-0.521
						S280.158,248.87,281.408,250.745z"/>
					<path style="fill:#424242;" d="M246.823,293.838c0,0-3.176-2.603-0.859-5.415c2.317-2.812,3.462-0.521,3.462-0.521
						S245.573,291.963,246.823,293.838z"/>
					<path style="fill:#424242;" d="M235.665,157.65c0,0-4.095,0.306-4.357-3.328c-0.262-3.634,2.148-2.765,2.148-2.765
						S233.467,157.154,235.665,157.65z"/>
					<path style="fill:#424242;" d="M211.304,252.421c0.659,0.682,2.015,0.641,2.499,0.054c0.25-0.304,0.246-0.731,0.076-1.078
						c-0.328-0.669-1.341-1.181-2.132-0.935C210.878,250.732,210.692,251.788,211.304,252.421z"/>
					<path style="fill:#424242;" d="M274.168,211.964c0.978,1.012,2.993,0.953,3.711,0.08c0.372-0.452,0.366-1.085,0.113-1.601
						c-0.488-0.994-1.992-1.754-3.166-1.389C273.535,209.455,273.259,211.023,274.168,211.964z"/>
					<path style="fill:#424242;" d="M270.499,244.688c0.659,0.682,2.015,0.641,2.499,0.054c0.251-0.304,0.246-0.731,0.076-1.078
						c-0.328-0.67-1.341-1.181-2.132-0.935C270.073,242.999,269.887,244.055,270.499,244.688z"/>
					<path style="fill:#424242;" d="M272.119,179.972c1.557,0.73,3.889-0.098,4.374-1.318c0.251-0.632-0.014-1.318-0.521-1.783
						c-0.976-0.896-3.045-1.152-4.27-0.31C270.357,177.485,270.672,179.294,272.119,179.972z"/>
					<path style="fill:#424242;" d="M278.083,161.581c1.557,0.73,3.889-0.098,4.374-1.318c0.251-0.632-0.014-1.318-0.521-1.783
						c-0.976-0.896-3.045-1.152-4.27-0.31C276.321,159.094,276.636,160.903,278.083,161.581z"/>
					<path style="fill:#424242;" d="M232.301,304.979c0.974,1.416,3.406,1.881,4.44,1.073c0.536-0.418,0.654-1.145,0.452-1.802
						c-0.389-1.266-2.045-2.533-3.528-2.426C232.037,301.942,231.395,303.662,232.301,304.979z"/>
					<path style="fill:#424242;" d="M234.468,299.404c0.64,0.93,2.235,1.235,2.915,0.704c0.352-0.275,0.429-0.751,0.297-1.183
						c-0.255-0.831-1.342-1.663-2.315-1.592C234.295,297.411,233.874,298.539,234.468,299.404z"/>
				</g>
			</g>
			<g>
				<path style="fill:#424242;" d="M212.936,126.294c21.378-4.627,43.766-4.126,65.235-0.314
					C256.52,123.517,234.525,123.001,212.936,126.294L212.936,126.294z"/>
			</g>
			<g>
				<path style="fill:#424242;" d="M239.071,128.755c2.394-3.07,7.188-3.413,10.288-1.244c0.436,0.306,0.844,0.65,1.231,1.002
					c-0.509-0.167-0.973-0.39-1.454-0.565C245.841,126.625,242.131,126.882,239.071,128.755L239.071,128.755z"/>
			</g>
			<g>
				<path style="fill:#424242;" d="M248.116,348.277c-1.184,2.136-4.638,2.093-5.996,0.126
					C244.169,348.986,246.118,349.127,248.116,348.277L248.116,348.277z"/>
			</g>
			<g>
				<path style="fill:#424242;" d="M264.202,350.295c-12.112,3.285-25.11,2.96-37.297,0.207
					C239.294,351.886,251.856,352.226,264.202,350.295L264.202,350.295z"/>
			</g>
		</g>
	</g>
	<path style="fill:#424242;" d="M368.645,378.2h-237.29c-2.148,0-3.889-1.741-3.889-3.889v-59.177c0-2.148,1.741-3.889,3.889-3.889
		h237.29c2.148,0,3.889,1.741,3.889,3.889v59.177C372.534,376.459,370.793,378.2,368.645,378.2z"/>
	<g>
		<g>
			<path style="fill:#424242;" d="M229.349,297.673c4.346-6.058,4.677-14.317,0.327-20.372c-6.548-9.114-11.316,6.059-21.782,10.951
				c-8.198,3.292-11.573-7.567-19.694-7.103c-0.322,0.018-0.665,0.037-0.987,0.034c-20.558-0.204-18.579,11.543-21.057,26.14
				c-0.184,1.083-0.511,2.141-0.875,3.178c-6.282,17.911,10.417,15.651,21.63,9.02c2.198-1.3,4.598-2.205,7.131-2.529
				c6.698-0.856,13.804-1.529,20.656-2.59c1.145-0.177,2.301-0.314,3.456-0.222c5.677,0.449,7.233-3.179,7.95-7.809
				C225.952,302.88,227.54,300.195,229.349,297.673z M178.886,293.726l-0.046-0.086l0.676-0.188
				C179.302,293.549,179.092,293.64,178.886,293.726z"/>
		</g>
	</g>
	<g>
		<g>
			<path style="fill:#EDEDED;" d="M196.701,207.518c-3.085-2.97-6.159-5.952-9.223-8.945c-1.299,1.349-2.597,2.698-3.896,4.047
				c0,0.003,5.585,7.404,2.83,15.734c27.497,25.623,55.781,50.379,84.81,74.234c5.531,4.545,11.889,7.96,18.517,10.056
				c7.719,2.44,15.382,4.885,22.992,7.337C272.594,277.505,233.881,243.318,196.701,207.518z"/>
			<path style="fill:#C7A55B;" d="M189.502,196.21l-10.087,11.53c0,0-15.155-24.619-38.112-33.342c0,0,4.023-11.155,10.087-11.53
				C151.391,162.867,170.22,186.441,189.502,196.21z"/>
			<path style="fill:#424242;" d="M152.67,173.06c-0.907,1.037-2.49,1.135-3.537,0.219c-1.047-0.916-1.16-2.498-0.253-3.535
				c0.907-1.037,2.491-1.135,3.537-0.219C153.464,170.44,153.577,172.023,152.67,173.06z"/>
		</g>
		<path style="fill:#424242;" d="M192.922,219.005c0,0,73.137,72.432,101.477,83.125"/>
	</g>
</g>
<g id="TEXTS">
	<g>
		
			<text transform="matrix(1 0 0 1 134.9995 365.4336)" style="fill:#EDEDED; font-family:'Staatliches-Regular'; font-size:59.897px;">SHAWARMA</text>
	</g>
	<path id="SVGID_x5F_1_x5F_" style="fill:none;" d="M139.731,323.562l106.382-24.927"/>
	<text>	<textPath  xlink:href="#SVGID_x5F_1_x5F_" startOffset="17.285%">
<tspan  style="fill:#EDEDED; font-family:'OoohBaby-Regular'; font-size:34.9201px;">Best</tspan>	</textPath>
</text>
</g>
</svg>
