<svg width="135" height="27" viewBox="0 0 135 27" fill="none" xmlns="http://www.w3.org/2000/svg">
<path d="M0.700195 13.5001C0.700195 8.15956 0.700195 5.48931 2.35928 3.83023C4.01836 2.17114 6.68862 2.17114 12.0291 2.17114C17.3697 2.17114 20.0399 2.17114 21.699 3.83023C23.3581 5.48931 23.3581 8.15956 23.3581 13.5001C23.3581 18.8406 23.3581 21.5108 21.699 23.17C20.0399 24.829 17.3697 24.829 12.0291 24.829C6.68862 24.829 4.01836 24.829 2.35928 23.17C0.700195 21.5108 0.700195 18.8406 0.700195 13.5001Z" fill="#243A5A"/>
<path d="M14.2952 16.8987C14.6081 16.8987 14.8674 17.1548 14.8052 17.4614C14.6954 18.0029 14.4286 18.5048 14.0321 18.9014C13.501 19.4325 12.7806 19.7309 12.0294 19.7309C11.2783 19.7309 10.5579 19.4325 10.0268 18.9014C9.63024 18.5048 9.36344 18.0029 9.25367 17.4614C9.19147 17.1548 9.45079 16.8987 9.76364 16.8987H14.2952Z" fill="#38C49A"/>
<path d="M15.4854 12.2405C15.1832 12.3215 14.9982 12.6376 15.1514 12.9104C15.3127 13.1974 15.5357 13.448 15.8071 13.6424C16.2332 13.9478 16.7519 14.0959 17.2751 14.0616C17.7981 14.0273 18.2931 13.8128 18.6757 13.4544C19.0583 13.0961 19.3048 12.6162 19.3732 12.0964C19.4417 11.5767 19.3278 11.0494 19.051 10.6042C18.7742 10.1591 18.3515 9.82369 17.8552 9.65517C17.3588 9.48665 16.8194 9.49549 16.3288 9.68015C16.0163 9.79774 15.736 9.98201 15.5059 10.2175C15.2873 10.4413 15.3843 10.7946 15.6552 10.951L15.9425 11.1169C16.3796 11.3693 16.2934 12.024 15.8059 12.1547L15.4854 12.2405Z" fill="#38C49A"/>
<path d="M8.57224 12.2405C8.87444 12.3215 9.0595 12.6376 8.90628 12.9104C8.74501 13.1974 8.52194 13.448 8.25061 13.6424C7.82453 13.9478 7.30572 14.0959 6.78267 14.0616C6.25956 14.0273 5.76455 13.8128 5.38196 13.4544C4.99936 13.0961 4.75285 12.6162 4.68443 12.0964C4.61601 11.5767 4.7299 11.0494 5.00672 10.6042C5.28353 10.1591 5.70613 9.82369 6.20252 9.65517C6.69889 9.48665 7.23837 9.49549 7.72897 9.68015C8.04137 9.79774 8.3217 9.98201 8.55179 10.2175C8.77038 10.4413 8.67341 10.7946 8.40248 10.951L8.11512 11.1169C7.67811 11.3693 7.76432 12.024 8.25175 12.1547L8.57224 12.2405Z" fill="#38C49A"/>
<path d="M37.8525 19C36.9413 19 36.2291 18.8717 35.7158 18.615C35.2025 18.3584 34.8432 17.9734 34.6379 17.4601C34.4325 16.9468 34.3299 16.3115 34.3299 15.5544V11.2618C34.3299 10.0299 34.6058 9.12518 35.1576 8.5477C35.7094 7.95739 36.6077 7.66224 37.8525 7.66224H43.6465C44.5319 7.66224 45.2056 7.71357 45.6676 7.81623C46.1424 7.90606 46.3798 8.00231 46.3798 8.10497L45.9949 9.70265C45.7767 9.66415 45.1286 9.62565 44.0507 9.58716C42.9856 9.53582 41.4328 9.51016 39.3924 9.51016H38.4107C37.3841 9.51016 36.8708 9.96572 36.8708 10.8768V15.7854C36.8708 16.2217 36.9798 16.5618 37.198 16.8056C37.429 17.0366 37.8332 17.1521 38.4107 17.1521H39.1999C40.4319 17.1521 41.4713 17.1457 42.3183 17.1328C43.1652 17.1072 43.8646 17.0879 44.4164 17.0751V14.4572L43.2615 14.4764L40.7398 14.6689V12.7825H46.9381V18.1915L47.1306 18.5958C47.1306 18.6984 46.8611 18.7947 46.3221 18.8845C45.7831 18.9615 44.872 19 43.5887 19H37.8525ZM49.8239 19L50.0164 17.4601V7.68149H52.5573V17.1521H60.5265L61.2964 18.7883C61.2964 18.8396 61.1232 18.8909 60.7767 18.9423C60.4302 18.9808 59.8335 19 58.9865 19H49.8239ZM66.3503 19C65.452 19 64.7462 18.8717 64.2328 18.615C63.7195 18.3584 63.3538 17.9734 63.1356 17.4601C62.9303 16.9468 62.8277 16.3115 62.8277 15.5544V11.1078C62.8277 10.3635 62.9303 9.74115 63.1356 9.24067C63.341 8.72736 63.7003 8.34238 64.2136 8.08572C64.7269 7.81623 65.4391 7.68149 66.3503 7.68149H71.971C72.8693 7.68149 73.5687 7.81623 74.0692 8.08572C74.5825 8.34238 74.9418 8.72736 75.1471 9.24067C75.3653 9.74115 75.4744 10.3635 75.4744 11.1078V15.5544C75.4744 16.6837 75.2241 17.5435 74.7236 18.1338C74.2232 18.7113 73.3056 19 71.971 19H66.3503ZM66.9085 17.1521H71.432C71.9069 17.1521 72.2726 17.0302 72.5292 16.7863C72.7987 16.5425 72.9335 16.2089 72.9335 15.7854V10.8768C72.9335 10.5047 72.7987 10.1903 72.5292 9.93364C72.2598 9.66415 71.894 9.52941 71.432 9.52941H66.9085C66.4465 9.52941 66.0744 9.65132 65.792 9.89514C65.5097 10.139 65.3685 10.4662 65.3685 10.8768V15.7854C65.3685 16.2217 65.5033 16.5618 65.7728 16.8056C66.0551 17.0366 66.4337 17.1521 66.9085 17.1521ZM78.3593 19V7.66224H86.7327C87.939 7.66224 88.8181 7.90606 89.3699 8.39371C89.9217 8.86852 90.1976 9.44599 90.1976 10.1261V10.7036C90.1976 11.2298 90.0821 11.6661 89.8511 12.0126C89.6329 12.3462 89.3955 12.5836 89.1389 12.7248C89.7035 12.9044 90.1527 13.2188 90.4863 13.668C90.82 14.1043 90.9868 14.6818 90.9868 15.4004V15.7469C90.9868 16.1319 90.9419 16.5169 90.852 16.9018C90.7622 17.2868 90.589 17.6397 90.3323 17.9605C90.0885 18.2685 89.7356 18.5188 89.2736 18.7113C88.8245 18.9038 88.2342 19 87.5027 19H78.3593ZM80.9002 12.205H86.3285C86.7776 12.2179 87.1113 12.1088 87.3294 11.8778C87.5476 11.634 87.6567 11.3324 87.6567 10.9731V10.7806C87.6567 10.4855 87.554 10.2031 87.3487 9.93364C87.1434 9.65132 86.7584 9.51016 86.1937 9.51016H80.9002V12.205ZM80.9002 17.1521H86.9637C87.4514 17.1521 87.8171 17.0302 88.0609 16.7863C88.3176 16.5425 88.4459 16.2089 88.4459 15.7854V15.4389C88.4459 15.0411 88.2983 14.7203 88.0032 14.4764C87.708 14.2198 87.2204 14.0915 86.5402 14.0915H80.9002V17.1521ZM97.5488 19L97.5296 9.51016H92.5248V7.66224H105.114V9.51016H100.09V19H97.5488ZM107.045 19V7.68149H119.018V9.52941H109.586V12.1858H116.785V14.0915H109.586V17.1521H119.095L119.865 18.7883C119.865 18.8396 119.692 18.8909 119.345 18.9423C118.999 18.9808 118.402 19 117.555 19H107.045Z" fill="#4062FF"/>
<path d="M120.435 19L121.167 17.845L125.44 13.3407L120.435 7.68149H123.515L127.23 11.9356H127.442L131.176 7.68149H134.256L133.505 8.81719L129.251 13.3407L134.256 19H131.176L127.442 14.7074H127.23L123.515 19H120.435Z" fill="#38C49A"/>
</svg>
