<svg width="103" height="24" viewBox="0 0 103 24" fill="none" xmlns="http://www.w3.org/2000/svg">
<path d="M33.8895 17.9992H30.7695V3.99922H34.5895L38.4095 14.2592L42.2095 3.99922H46.0295V17.9992H42.9095V9.35922L39.6895 17.9992H37.1095L33.8895 9.35922V17.9992ZM49.5858 6.33922C49.0791 6.33922 48.6458 6.16589 48.2858 5.81922C47.9391 5.45922 47.7658 5.01922 47.7658 4.49922C47.7658 3.99255 47.9391 3.56589 48.2858 3.21922C48.6458 2.87255 49.0791 2.69922 49.5858 2.69922C50.1058 2.69922 50.5391 2.87255 50.8858 3.21922C51.2325 3.56589 51.4058 3.99255 51.4058 4.49922C51.4058 5.01922 51.2325 5.45922 50.8858 5.81922C50.5391 6.16589 50.1058 6.33922 49.5858 6.33922ZM51.1258 17.9992H48.0458V7.39922H51.1258V17.9992ZM52.963 17.9992V7.39922H55.443L55.703 8.89922C55.9963 8.33922 56.4496 7.88589 57.063 7.53922C57.6896 7.19255 58.3896 7.01922 59.163 7.01922C60.283 7.01922 61.1763 7.37922 61.843 8.09922C62.523 8.81922 62.863 9.78589 62.863 10.9992V17.9992H59.783V11.1592C59.783 10.7059 59.6363 10.3459 59.343 10.0792C59.0496 9.81255 58.6496 9.67922 58.143 9.67922C57.543 9.67922 57.043 9.85922 56.643 10.2192C56.243 10.5792 56.043 11.0459 56.043 11.6192V17.9992H52.963ZM69.2692 17.9992C68.0026 17.9992 67.0292 17.7059 66.3492 17.1192C65.6826 16.5325 65.3492 15.6792 65.3492 14.5592V9.99922H63.6092V7.39922H65.3492V3.77922H68.4292V7.39922H71.0292V9.99922H68.4292V14.2192C68.4292 14.6059 68.5292 14.8992 68.7292 15.0992C68.9292 15.2992 69.2159 15.3992 69.5892 15.3992H70.8092V17.9992H69.2692ZM75.3895 17.9992H72.3095V2.99922H75.3895V17.9992ZM78.7858 6.33922C78.2791 6.33922 77.8458 6.16589 77.4858 5.81922C77.1391 5.45922 76.9658 5.01922 76.9658 4.49922C76.9658 3.99255 77.1391 3.56589 77.4858 3.21922C77.8458 2.87255 78.2791 2.69922 78.7858 2.69922C79.3058 2.69922 79.7391 2.87255 80.0858 3.21922C80.4325 3.56589 80.6058 3.99255 80.6058 4.49922C80.6058 5.01922 80.4325 5.45922 80.0858 5.81922C79.7391 6.16589 79.3058 6.33922 78.7858 6.33922ZM80.3258 17.9992H77.2458V7.39922H80.3258V17.9992ZM83.343 17.9992V9.99922H81.603V7.39922H83.343V6.23922C83.343 5.18589 83.663 4.38589 84.303 3.83922C84.943 3.27922 85.8696 2.99922 87.083 2.99922H89.343V5.59922H87.403C86.7496 5.59922 86.423 5.92589 86.423 6.57922V7.39922H89.143V9.99922H86.423V17.9992H83.343ZM90.4595 21.9992V19.3992H92.5995C93.3195 19.3992 93.7729 19.1459 93.9595 18.6392L94.1995 17.9992H93.7395L89.5395 7.39922H92.8395L95.4795 14.5392L98.1195 7.39922H101.319L96.8395 19.4192C96.5195 20.2859 96.0195 20.9325 95.3395 21.3592C94.6595 21.7859 93.7462 21.9992 92.5995 21.9992H90.4595Z" fill="#0F4F57"/>
<mask id="mask0_20_492" style="mask-type:luminance" maskUnits="userSpaceOnUse" x="0" y="0" width="21" height="21">
<path d="M21 0H0V21H21V0Z" fill="white"/>
</mask>
<g mask="url(#mask0_20_492)">
<path d="M5.53338 7.66241C5.54806 5.66259 6.34114 3.74714 7.74443 2.32227H7.74185L2.32412 7.73999H2.32671C2.30654 7.75586 2.28753 7.77314 2.26981 7.79171C0.95223 9.10757 0.153396 10.8545 0.0199146 12.7118C-0.113567 14.5691 0.42726 16.4123 1.54314 17.9031L7.01517 12.431L7.07206 12.3767C6.05218 11.0186 5.51109 9.36073 5.53338 7.66241Z" fill="#0C8C5E"/>
<path d="M18.6882 13.2695C17.6513 14.2857 16.3497 14.9901 14.9318 15.3024C13.514 15.6147 12.0369 15.5223 10.669 15.0358C9.93963 14.7768 9.25417 14.408 8.63634 13.9419L8.57945 13.9988L3.10742 19.4682C4.59878 20.5813 6.44095 21.1204 8.29711 20.987C10.1533 20.8536 11.8994 20.0565 13.2162 18.7415L13.2705 18.6872L18.6882 13.2695Z" fill="#0C8C5E"/>
<path d="M21.0104 7.73998V3.873e-06H13.2704C12.2539 -0.00101453 11.2472 0.198818 10.3081 0.588023C9.36903 0.977229 8.51612 1.54814 7.79835 2.26795L7.74404 2.32226C6.79795 3.28273 6.12105 4.47511 5.78125 5.77977C6.39637 5.62048 7.02851 5.53626 7.66388 5.52893C9.36226 5.50894 11.0196 6.05079 12.3782 7.0702C13.5992 7.98076 14.5233 9.23241 15.0341 10.6674C15.5546 12.134 15.623 13.7231 15.2306 15.2291C16.5355 14.8899 17.728 14.2129 18.6881 13.2663L18.7424 13.2146C19.4625 12.4965 20.0336 11.6432 20.4228 10.7037C20.812 9.76414 21.0117 8.75694 21.0104 7.73998Z" fill="#18E299"/>
</g>
</svg>
