<svg width="116" height="29" viewBox="0 0 116 29" fill="none" xmlns="http://www.w3.org/2000/svg">
<g clip-path="url(#clip0_1_11502)">
<g clip-path="url(#clip1_1_11502)">
<path fill-rule="evenodd" clip-rule="evenodd" d="M0.692383 26.8356C0.692383 27.6496 1.35238 28.3096 2.16638 28.3096H8.06038C8.87338 28.3096 9.53338 27.6496 9.53338 26.8356V23.7796C9.53338 22.9656 10.1934 22.3056 11.0074 22.3056H11.8534C12.6674 22.3056 13.3274 21.6456 13.3274 20.8316V17.1476C13.3274 16.3336 12.6674 15.6736 11.8534 15.6736H8.17038C7.35638 15.6736 6.69638 16.3336 6.69638 17.1476V17.9936C6.69638 18.8076 6.03638 19.4676 5.22338 19.4676H2.16638C1.35238 19.4676 0.692383 20.1276 0.692383 20.9416V26.8356ZM9.53438 5.57657C9.53438 6.39057 10.1944 7.05057 11.0084 7.05057H11.8544C12.6684 7.05057 13.3284 7.71057 13.3284 8.52357V11.4716C13.3284 12.2856 12.6684 12.9446 11.8544 12.9446H8.90738C8.09338 12.9446 7.43338 12.2846 7.43338 11.4716V10.6256C7.43338 9.81157 6.77338 9.15157 5.95938 9.15157H2.16638C1.35238 9.15157 0.692383 8.49157 0.692383 7.67857V1.78357C0.692383 0.96957 1.35238 0.30957 2.16638 0.30957H8.06038C8.87438 0.30957 9.53438 0.96957 9.53438 1.78357V5.57657ZM21.9514 10.6256C21.9514 9.81157 22.6114 9.15157 23.4254 9.15157H27.2184C28.0324 9.15157 28.6924 8.49157 28.6924 7.67857V1.78357C28.6924 0.96957 28.0324 0.30957 27.2184 0.30957H21.3244C20.5104 0.30957 19.8504 0.96957 19.8504 1.78357V5.57657C19.8504 6.39057 19.1904 7.05057 18.3764 7.05057H17.5304C16.7164 7.05057 16.0564 7.71057 16.0564 8.52357V11.4716C16.0564 12.2856 16.7164 12.9446 17.5304 12.9446H20.4784C21.2914 12.9446 21.9514 12.2846 21.9514 11.4716V10.6256ZM28.6914 26.8356C28.6914 27.6496 28.0324 28.3096 27.2184 28.3096H21.3234C20.5094 28.3096 19.8504 27.6496 19.8504 26.8356V23.0426C19.8504 22.2286 19.1904 21.5686 18.3764 21.5686H17.5304C16.7164 21.5686 16.0574 20.9086 16.0574 20.0956V17.1476C16.0574 16.3336 16.7174 15.6746 17.5304 15.6746H20.4784C21.2914 15.6746 21.9514 16.3346 21.9514 17.1476V17.9936C21.9514 18.8076 22.6114 19.4676 23.4254 19.4676H27.2184C28.0324 19.4676 28.6924 20.1276 28.6924 20.9416L28.6914 26.8356Z" fill="white"/>
<path d="M39.845 22.8845C39.7 22.8845 39.627 22.7875 39.627 22.6665V6.13948C39.627 5.99348 39.7 5.89648 39.845 5.89648H48.412C51.032 5.89648 53.192 7.78948 53.192 10.9195C53.192 13.8565 51.639 15.5305 49.552 15.9675L53.338 22.5925C53.435 22.7625 53.362 22.8835 53.168 22.8835H50.57C50.511 22.883 50.4531 22.8671 50.4022 22.8372C50.3514 22.8074 50.3092 22.7647 50.28 22.7135L46.494 16.0885H42.538V22.6405C42.538 22.7865 42.441 22.8835 42.295 22.8835H39.845V22.8845ZM42.539 13.7355H46.786C48.63 13.7355 50.28 13.2505 50.28 10.9695C50.28 8.71248 48.533 8.25148 46.786 8.25148H42.539V13.7355ZM55.837 22.8845C55.691 22.8845 55.57 22.7875 55.57 22.6415V10.9935C55.57 10.8485 55.691 10.7515 55.837 10.7515H58.094C58.239 10.7515 58.361 10.8485 58.361 10.9935V22.6415C58.361 22.7875 58.24 22.8845 58.094 22.8845H55.837ZM55.4 7.48448C55.4 6.61048 56.104 5.90748 56.978 5.90748C57.851 5.90748 58.555 6.61048 58.555 7.48448C58.555 8.35848 57.851 9.06148 56.978 9.06148C56.7707 9.06201 56.5653 9.02159 56.3737 8.94254C56.1821 8.86348 56.0079 8.74736 55.8613 8.60083C55.7147 8.4543 55.5985 8.28025 55.5193 8.08868C55.4401 7.8971 55.3996 7.69177 55.4 7.48448ZM66.187 28.2965C62.693 28.2965 60.533 26.5485 60.533 23.8065C60.533 23.6615 60.63 23.5645 60.775 23.5645H63.202C63.348 23.5645 63.445 23.6615 63.445 23.8065C63.445 24.9225 64.391 26.1115 66.187 26.1115C67.837 26.1115 69.293 25.4085 69.293 22.9575V20.4335H69.245C68.638 21.6955 67.4 22.8115 65.459 22.8115C62.256 22.8115 60.29 20.7495 60.29 16.8915C60.29 12.9115 62.207 10.5085 65.459 10.5085C67.497 10.5085 68.638 11.5765 69.245 13.1285H69.293V10.9935C69.293 10.8485 69.39 10.7515 69.536 10.7515H71.963C72.108 10.7515 72.205 10.8485 72.205 10.9935V22.9095C72.205 26.8655 69.535 28.2975 66.187 28.2975V28.2965ZM63.202 16.6475C63.202 19.3655 64.537 20.6275 66.357 20.6275C68.031 20.6275 69.293 19.3655 69.293 16.6475C69.293 14.1475 68.031 12.6925 66.357 12.6925C64.537 12.6925 63.202 14.1485 63.202 16.6475ZM76.198 23.1275C75.9907 23.1279 75.7853 23.0873 75.5938 23.0082C75.4022 22.929 75.2281 22.8127 75.0816 22.6661C74.9351 22.5195 74.819 22.3454 74.7399 22.1538C74.6609 21.9621 74.6204 21.7568 74.621 21.5495C74.621 20.6765 75.325 19.9725 76.198 19.9725C77.072 19.9725 77.776 20.6765 77.776 21.5495C77.776 22.4235 77.072 23.1275 76.198 23.1275ZM84.582 23.1275C81.718 23.1275 79.486 20.7495 79.486 16.8905C79.486 13.0565 81.67 10.5085 84.582 10.5085C86.766 10.5085 87.906 11.7705 88.416 13.6635H88.464V6.25948C88.464 6.11348 88.561 6.01648 88.707 6.01648H91.012C91.158 6.01648 91.255 6.11348 91.255 6.25948V22.6415C91.255 22.7875 91.158 22.8845 91.012 22.8845H88.707C88.561 22.8845 88.464 22.7875 88.464 22.6415V20.3855H88.416C87.858 22.0355 86.669 23.1275 84.582 23.1275ZM82.398 16.8905C82.398 19.5605 83.732 20.9435 85.407 20.9435C87.1049 20.9435 88.343 19.5595 88.343 16.8905C88.343 14.1485 87.1049 12.6925 85.407 12.6925C83.732 12.6925 82.398 14.1485 82.398 16.8905ZM98.546 23.1275C95.003 23.1275 92.892 20.7735 92.892 16.7695C92.892 13.3235 95.004 10.5085 98.546 10.5085C101.968 10.5085 104.031 13.3235 104.031 17.0845C104.031 17.2545 103.958 17.3515 103.812 17.3515H95.804C95.926 19.6815 96.921 20.9435 98.619 20.9435C100.027 20.9435 100.803 20.3605 101.143 19.3175C101.192 19.1715 101.289 19.0985 101.41 19.0985H103.691C103.861 19.0985 103.934 19.1965 103.909 19.3655C103.351 21.4775 101.604 23.1275 98.546 23.1275ZM95.828 16.0655H101.022C101.022 14.0275 100.172 12.6925 98.546 12.6925C97.09 12.6925 96.046 13.7605 95.828 16.0655ZM108.705 22.8845C108.584 22.8845 108.487 22.8355 108.438 22.6905L103.949 10.9455C103.901 10.8235 103.949 10.7515 104.07 10.7515H106.764C106.837 10.7515 106.91 10.7755 106.934 10.8965L109.919 20.0455H109.967L112.904 10.8965C112.928 10.7755 113.001 10.7515 113.073 10.7515H115.767C115.888 10.7515 115.937 10.8235 115.888 10.9455L111.423 22.6905C111.375 22.8355 111.278 22.8845 111.156 22.8845H108.705Z" fill="white"/>
</g>
</g>
<defs>
<clipPath id="clip0_1_11502">
<rect width="116" height="28" fill="white" transform="translate(0 0.30957)"/>
</clipPath>
<clipPath id="clip1_1_11502">
<rect width="116" height="28" fill="white" transform="translate(0 0.30957)"/>
</clipPath>
</defs>
</svg>
