<svg width="109" height="26" viewBox="0 0 109 26" fill="none" xmlns="http://www.w3.org/2000/svg">
<g clip-path="url(#clip0_1_11573)">
<path fill-rule="evenodd" clip-rule="evenodd" d="M0.137695 24.632C0.137695 25.387 0.749695 26 1.5057 26H6.9797C7.7357 26 8.3477 25.387 8.3477 24.632V21.793C8.3477 21.038 8.9607 20.425 9.71669 20.425H10.5027C11.2577 20.425 11.8707 19.812 11.8707 19.056V15.636C11.8707 14.88 11.2577 14.267 10.5027 14.267H7.0817C6.3257 14.267 5.7127 14.88 5.7127 15.635V16.421C5.7127 17.177 5.0997 17.79 4.3447 17.79H1.5057C0.750695 17.79 0.137695 18.402 0.137695 19.158V24.632ZM8.3477 4.89C8.3477 5.646 8.9607 6.258 9.71669 6.258H10.5027C11.2577 6.258 11.8707 6.871 11.8707 7.627V10.364C11.8707 11.119 11.2577 11.732 10.5027 11.732H7.7657C7.58596 11.7321 7.40797 11.6968 7.24188 11.6282C7.07579 11.5595 6.92486 11.4587 6.79773 11.3317C6.67059 11.2046 6.56973 11.0538 6.50092 10.8877C6.43211 10.7217 6.3967 10.5437 6.3967 10.364V9.578C6.3967 8.822 5.7847 8.21 5.0287 8.21H1.5057C1.14288 8.21 0.794923 8.06587 0.538373 7.80932C0.281823 7.55277 0.137695 7.20482 0.137695 6.842V1.37C0.137695 0.613 0.749695 0 1.5057 0H6.9797C7.7357 0 8.3477 0.613 8.3477 1.369V4.89ZM19.8777 9.578C19.8777 8.822 20.4907 8.21 21.2467 8.21H24.7697C25.5247 8.21 26.1377 7.597 26.1377 6.841V1.37C26.1377 1.007 25.9936 0.658838 25.7371 0.40197C25.4806 0.145103 25.1327 0.000529927 24.7697 0L19.2957 0C18.9327 0.000264867 18.5846 0.144583 18.328 0.401263C18.0713 0.657943 17.927 1.006 17.9267 1.369V4.89C17.9267 5.646 17.3147 6.258 16.5587 6.258H15.7727C15.0177 6.258 14.4047 6.871 14.4047 7.627V10.364C14.4047 11.119 15.0177 11.732 15.7727 11.732H18.5097C19.2657 11.732 19.8787 11.119 19.8787 10.364L19.8777 9.578ZM26.1377 24.631C26.1377 25.386 25.5247 25.999 24.7687 25.999H19.2957C19.116 25.9991 18.938 25.9638 18.7719 25.8952C18.6058 25.8265 18.4549 25.7257 18.3277 25.5987C18.2006 25.4716 18.0997 25.3208 18.0309 25.1547C17.9621 24.9887 17.9267 24.8107 17.9267 24.631V21.108C17.9267 20.353 17.3137 19.74 16.5587 19.74H15.7727C15.593 19.74 15.415 19.7046 15.249 19.6358C15.0829 19.567 14.9321 19.4661 14.805 19.339C14.678 19.2118 14.5772 19.0609 14.5085 18.8948C14.4399 18.7287 14.4046 18.5507 14.4047 18.371V15.635C14.4047 14.879 15.0177 14.266 15.7727 14.266H18.5097C18.8727 14.2663 19.2208 14.4106 19.4774 14.6673C19.7341 14.9239 19.8784 15.272 19.8787 15.635V16.42C19.8787 17.176 20.4907 17.789 21.2467 17.789H24.7687C25.5247 17.789 26.1377 18.401 26.1377 19.157V24.631Z" fill="#131313"/>
<path d="M36.494 20.962C36.359 20.962 36.292 20.872 36.292 20.76V5.41396C36.292 5.27896 36.359 5.18896 36.495 5.18896H44.449C46.882 5.18896 48.888 6.94696 48.888 9.85296C48.888 12.58 47.446 14.135 45.508 14.541L49.023 20.692C49.113 20.85 49.046 20.962 48.866 20.962H46.454C46.3992 20.9617 46.3454 20.9471 46.298 20.9195C46.2506 20.892 46.2113 20.8525 46.184 20.805L42.669 14.653H38.996V20.737C38.996 20.872 38.906 20.963 38.77 20.963L36.494 20.962ZM38.996 12.467H42.939C44.652 12.467 46.184 12.017 46.184 9.89896C46.184 7.80296 44.561 7.37496 42.939 7.37496H38.996V12.467ZM51.344 20.962C51.209 20.962 51.096 20.872 51.096 20.737V9.92096C51.096 9.78596 51.209 9.69596 51.344 9.69596H53.44C53.575 9.69596 53.687 9.78596 53.687 9.92096V20.737C53.687 20.872 53.575 20.963 53.44 20.963L51.344 20.962ZM50.938 6.66196C50.938 5.85196 51.592 5.19796 52.403 5.19796C53.214 5.19796 53.868 5.85096 53.868 6.66196C53.868 7.47396 53.214 8.12696 52.403 8.12696C52.2105 8.12736 52.0198 8.08974 51.8419 8.01625C51.664 7.94277 51.5023 7.83487 51.3662 7.69876C51.2301 7.56264 51.1222 7.40098 51.0487 7.22306C50.9752 7.04514 50.9376 6.85446 50.938 6.66196ZM60.955 25.988C57.71 25.988 55.705 24.365 55.705 21.818C55.705 21.684 55.795 21.593 55.93 21.593H58.183C58.318 21.593 58.408 21.683 58.408 21.819C58.408 22.855 59.288 23.959 60.955 23.959C62.487 23.959 63.839 23.306 63.839 21.03V18.687H63.794C63.231 19.858 62.081 20.895 60.279 20.895C57.304 20.895 55.479 18.98 55.479 15.397C55.479 11.701 57.259 9.46996 60.279 9.46996C62.171 9.46996 63.231 10.462 63.794 11.904H63.839V9.92096C63.839 9.78596 63.929 9.69596 64.064 9.69596H66.318C66.453 9.69596 66.543 9.78596 66.543 9.92096V20.985C66.543 24.658 64.064 25.988 60.955 25.988ZM58.183 15.17C58.183 17.694 59.423 18.866 61.113 18.866C62.667 18.866 63.839 17.694 63.839 15.17C63.839 12.85 62.667 11.497 61.112 11.497C59.422 11.497 58.183 12.849 58.183 15.17ZM70.25 21.188C70.0576 21.1882 69.867 21.1505 69.6892 21.077C69.5114 21.0034 69.3499 20.8955 69.2138 20.7594C69.0778 20.6233 68.97 20.4617 68.8966 20.2838C68.8232 20.106 68.7856 19.9154 68.786 19.723C68.786 18.912 69.439 18.259 70.251 18.259C71.061 18.259 71.715 18.912 71.715 19.723C71.715 20.534 71.061 21.188 70.25 21.188ZM78.035 21.188C75.376 21.188 73.303 18.98 73.303 15.397C73.303 11.837 75.331 9.46996 78.035 9.46996C80.063 9.46996 81.123 10.642 81.595 12.4H81.641V5.52496C81.641 5.38996 81.731 5.29996 81.866 5.29996H84.006C84.142 5.29996 84.232 5.38996 84.232 5.52496V20.737C84.232 20.872 84.142 20.963 84.007 20.963H81.867C81.731 20.963 81.641 20.873 81.641 20.737V18.642H81.596C81.077 20.174 79.972 21.188 78.035 21.188ZM76.007 15.397C76.007 17.875 77.247 19.16 78.801 19.16C80.379 19.16 81.528 17.875 81.528 15.397C81.528 12.85 80.378 11.498 78.801 11.498C77.247 11.498 76.007 12.85 76.007 15.397ZM91.003 21.188C87.713 21.188 85.753 19.002 85.753 15.284C85.753 12.084 87.713 9.46996 91.003 9.46996C94.18 9.46996 96.095 12.084 96.095 15.577C96.095 15.735 96.028 15.825 95.892 15.825H88.456C88.569 17.988 89.493 19.16 91.07 19.16C92.377 19.16 93.098 18.619 93.414 17.65C93.459 17.515 93.549 17.447 93.662 17.447H95.78C95.937 17.447 96.005 17.537 95.983 17.695C95.464 19.655 93.842 21.188 91.003 21.188ZM88.479 14.631H93.301C93.301 12.738 92.512 11.498 91.003 11.498C89.651 11.498 88.682 12.49 88.479 14.631ZM100.436 20.962C100.323 20.962 100.233 20.918 100.188 20.782L96.019 9.87597C95.974 9.76297 96.019 9.69596 96.132 9.69596H98.633C98.701 9.69596 98.769 9.71797 98.791 9.83097L101.563 18.326H101.608L104.334 9.83097C104.357 9.71797 104.424 9.69596 104.492 9.69596H106.993C107.106 9.69596 107.151 9.76297 107.106 9.87597L102.96 20.782C102.915 20.918 102.825 20.962 102.712 20.962H100.436Z" fill="#131313"/>
</g>
<defs>
<clipPath id="clip0_1_11573">
<rect width="108" height="26" fill="white" transform="translate(0.0195312)"/>
</clipPath>
</defs>
</svg>
