<svg width="14" height="16" viewBox="0 0 14 16" fill="none" xmlns="http://www.w3.org/2000/svg">
<g clip-path="url(#clip0_1_10743)">
<g clip-path="url(#clip1_1_10743)">
<path fill-rule="evenodd" clip-rule="evenodd" d="M0 13.9818C0 14.3888 0.33 14.7188 0.737 14.7188H3.684C4.091 14.7188 4.421 14.3888 4.421 13.9818V12.4538C4.421 12.0468 4.751 11.7168 5.158 11.7168H5.581C5.988 11.7168 6.318 11.3868 6.318 10.9798V9.13775C6.318 9.04097 6.29894 8.94513 6.2619 8.85571C6.22486 8.7663 6.17057 8.68505 6.10214 8.61661C6.0337 8.54818 5.95245 8.49389 5.86304 8.45685C5.77362 8.41981 5.67778 8.40075 5.581 8.40075H3.739C3.54354 8.40075 3.35608 8.4784 3.21786 8.61661C3.07965 8.75483 3.002 8.94229 3.002 9.13775V9.56075C3.002 9.96775 2.672 10.2978 2.265 10.2978H0.737C0.541535 10.2978 0.354077 10.3754 0.215862 10.5136C0.077648 10.6518 0 10.8393 0 11.0347L0 13.9818ZM4.421 3.35175C4.421 3.75875 4.751 4.08875 5.158 4.08875H5.581C5.988 4.08875 6.318 4.41875 6.318 4.82575V6.29975C6.318 6.70675 5.988 7.03675 5.581 7.03675H4.107C3.91154 7.03675 3.72408 6.9591 3.58586 6.82089C3.44765 6.68267 3.37 6.49521 3.37 6.29975V5.87675C3.37 5.68146 3.29249 5.49415 3.15449 5.35597C3.01649 5.21778 2.82929 5.14002 2.634 5.13975H0.737C0.541535 5.13975 0.354077 5.0621 0.215862 4.92389C0.077648 4.78567 0 4.59821 0 4.40275L0 1.45575C0 1.04875 0.33 0.71875 0.737 0.71875H3.684C4.091 0.71875 4.421 1.04875 4.421 1.45575V3.35175ZM10.63 5.87675C10.63 5.46975 10.96 5.13975 11.366 5.13975H13.263C13.67 5.13975 14 4.80975 14 4.40275V1.45575C14 1.26029 13.9224 1.07283 13.7841 0.934612C13.6459 0.796398 13.4585 0.71875 13.263 0.71875H10.316C10.2192 0.71875 10.1234 0.737813 10.034 0.774851C9.94455 0.811889 9.8633 0.866176 9.79486 0.934612C9.72643 1.00305 9.67214 1.0843 9.6351 1.17371C9.59806 1.26313 9.579 1.35897 9.579 1.45575V3.35175C9.579 3.75875 9.249 4.08875 8.842 4.08875H8.42C8.22454 4.08875 8.03708 4.1664 7.89886 4.30461C7.76065 4.44283 7.683 4.63029 7.683 4.82575V6.29975C7.683 6.70675 8.013 7.03675 8.42 7.03675H9.894C10.301 7.03675 10.631 6.70675 10.631 6.29975L10.63 5.87675ZM14 13.9818C14 14.3888 13.67 14.7188 13.263 14.7188H10.316C10.2192 14.7188 10.1234 14.6997 10.034 14.6626C9.94455 14.6256 9.8633 14.5713 9.79486 14.5029C9.72643 14.4345 9.67214 14.3532 9.6351 14.2638C9.59806 14.1744 9.579 14.0785 9.579 13.9818V12.0848C9.57874 11.8895 9.50097 11.7023 9.36278 11.5643C9.2246 11.4263 9.03729 11.3488 8.842 11.3488H8.419C8.22354 11.3488 8.03608 11.2711 7.89786 11.1329C7.75965 10.9947 7.682 10.8072 7.682 10.6118V9.13775C7.682 8.73075 8.012 8.40075 8.419 8.40075H9.893C10.3 8.40075 10.63 8.73075 10.63 9.13775V9.56075C10.63 9.96775 10.96 10.2978 11.366 10.2978H13.263C13.67 10.2978 14 10.6278 14 11.0347V13.9818Z" fill="white"/>
</g>
</g>
<defs>
<clipPath id="clip0_1_10743">
<rect width="14" height="15" fill="white" transform="translate(0 0.339844)"/>
</clipPath>
<clipPath id="clip1_1_10743">
<rect width="14" height="15" fill="white" transform="translate(0 0.339844)"/>
</clipPath>
</defs>
</svg>
