<svg width="156" height="30" viewBox="0 0 156 30" fill="none" xmlns="http://www.w3.org/2000/svg">
<g clip-path="url(#clip0_110_34)">
<path d="M0 2.16345H4.34132V19.5001H0V2.16345Z" fill="white"/>
<path d="M14.4997 10.6885V19.5144H10.1584V4.44157L8.95483 2.45001V2.16345H14.0555L20.4887 11.9637V2.16345H24.83V19.5001H20.4887L14.4997 10.6885Z" fill="white"/>
<path d="M39.8742 7.12087C39.0002 6.56209 37.3955 5.946 36.149 5.946C34.9025 5.946 34.4726 6.4618 34.4726 7.04924C34.4726 7.45041 34.8738 7.89457 35.5902 8.29575L37.5531 9.41332C39.8455 10.7458 40.7912 12.3505 40.7912 14.3564C40.7912 17.2076 38.9572 19.7866 34.7449 19.7866C33.0828 19.7866 31.4495 19.4284 30.3032 18.9699V14.2561C31.2489 15.0012 33.0255 15.7319 34.5586 15.7319C35.5759 15.7319 36.1633 15.345 36.1633 14.6143C36.1633 14.2131 35.8338 13.8263 35.0171 13.3678L32.9539 12.1929C30.5325 10.8174 29.8161 9.25571 29.8161 7.19251C29.8161 4.67082 31.3778 1.89124 36.1633 1.89124C37.3668 1.89124 38.7423 2.14914 39.8599 2.60762V7.12087H39.8742Z" fill="white"/>
<path d="M77.9861 19.5144L74.7194 9.90047V19.5144H70.3781V2.1778H75.7366L79.863 13.9839L83.9894 2.1778H89.3194V19.5144H84.9781V9.87181L81.7113 19.5144H77.9861Z" fill="white"/>
<path d="M99.3631 10.6885V19.5144H95.0218V4.44157L93.8183 2.45001V2.16345H98.919L105.352 11.9493V2.16345H109.693V19.5001H105.352L99.3631 10.6885Z" fill="white"/>
<path d="M115.367 2.16345H119.709V19.5001H115.367V2.16345Z" fill="white"/>
<path d="M134.953 16.3766H129.165L128.119 19.5144H123.276L129.652 2.1778H134.495L140.871 19.5144H136.028L134.953 16.3766ZM130.598 12.1929H133.549L132.073 7.83727L130.598 12.1929Z" fill="white"/>
<path d="M155.399 19.0703C154.296 19.5288 153.049 19.7867 151.745 19.7867C146.673 19.7867 142.819 15.9038 142.819 10.8318C142.819 5.75978 146.673 1.87695 151.745 1.87695C153.049 1.87695 154.296 2.13485 155.399 2.59334V7.56508C154.554 6.77705 153.279 6.21827 151.745 6.21827C149.195 6.21827 147.29 8.31013 147.29 10.8318C147.29 13.3822 149.195 15.4454 151.745 15.4454C153.279 15.4454 154.597 14.8866 155.399 14.1415V19.0703Z" fill="white"/>
<path d="M130.068 25.5465C129.681 25.3459 129.122 25.2026 128.506 25.2026C127.661 25.2026 127.016 25.833 127.016 26.7357C127.016 27.581 127.618 28.2687 128.449 28.2687C129.222 28.2687 129.652 27.7529 129.652 27.3231V27.2658H128.434V25.962H131.142C131.199 26.1912 131.228 26.5351 131.228 26.8503C131.228 28.3547 130.297 29.7158 128.406 29.7158C126.729 29.7158 125.526 28.4263 125.526 26.7357C125.526 25.045 126.772 23.7555 128.506 23.7555C129.079 23.7555 129.681 23.8415 130.068 23.9847V25.5465Z" fill="white"/>
<path d="M135.741 28.5839H133.807L133.463 29.6299H131.844L133.965 23.8558H135.584L137.704 29.6299H136.085L135.741 28.5839ZM134.28 27.1798H135.269L134.781 25.7327L134.28 27.1798Z" fill="white"/>
<path d="M141.444 29.6299L140.355 26.4204V29.6299H138.908V23.8558H140.699L142.074 27.7959L143.45 23.8558H145.226V29.6299H143.779V26.4204L142.69 29.6299H141.444Z" fill="white"/>
<path d="M147.118 29.6299V23.8558H150.499V25.2456H148.565V26.0193H150.327V27.4091H148.565V28.2401H150.499V29.6299H147.118Z" fill="white"/>
<path d="M155.399 25.4892C155.113 25.3029 154.568 25.1023 154.153 25.1023C153.737 25.1023 153.594 25.2742 153.594 25.4748C153.594 25.6038 153.723 25.7614 153.966 25.8903L154.625 26.2629C155.385 26.707 155.7 27.2371 155.7 27.9105C155.7 28.8562 155.084 29.7158 153.68 29.7158C153.121 29.7158 152.577 29.6012 152.204 29.4436V27.8676C152.519 28.1111 153.107 28.3547 153.622 28.3547C153.966 28.3547 154.153 28.2258 154.153 27.9822C154.153 27.8532 154.038 27.7243 153.766 27.5667L153.078 27.1798C152.276 26.7213 152.032 26.2055 152.032 25.5178C152.032 24.6725 152.548 23.7555 154.153 23.7555C154.554 23.7555 155.012 23.8415 155.385 23.9991V25.4892H155.399Z" fill="white"/>
<path d="M53.0414 4.5849C52.2677 4.36998 51.451 4.28401 50.5914 4.36998C47.4679 4.68519 44.9892 7.24986 44.7743 10.3733C44.5164 14.1702 47.5109 17.3366 51.2648 17.3366C51.8809 17.3366 52.4826 17.2507 53.0414 17.093C53.1704 17.0501 53.1847 16.8781 53.0557 16.8208C50.7346 15.8322 49.1013 13.5254 49.1013 10.8318C49.1013 8.13818 50.7346 5.83141 53.0557 4.8428C53.1847 4.79981 53.1704 4.61355 53.0414 4.5849Z" fill="#78B1BB"/>
<path d="M62.0966 10.8318C62.0966 15.8322 58.7152 20.0446 54.1017 21.2911C53.9584 21.3341 53.9727 21.549 54.116 21.5776C54.7751 21.6636 55.4485 21.6923 56.1362 21.6636C61.6667 21.3914 66.137 16.9068 66.4092 11.3763C66.7244 5.14367 61.767 0 55.5917 0C55.0903 0 54.6031 0.0286556 54.1303 0.100294C53.9727 0.114622 53.9584 0.343867 54.116 0.38685C58.7152 1.63337 62.0966 5.83141 62.0966 10.8318Z" fill="#78B1BB"/>
</g>
<defs>
<clipPath id="clip0_110_34">
<rect width="155.7" height="29.7158" fill="white"/>
</clipPath>
</defs>
</svg>
