<svg width="468" height="181" viewBox="0 0 468 181" fill="none" xmlns="http://www.w3.org/2000/svg">
<path d="M25.255 18.7852L30.2836 59.1261H30.7306L49.169 18.7852H66.7134L38.3295 76H17.0974L7.71059 18.7852H25.255ZM77.944 76.7822C73.3623 76.7822 69.5629 75.9069 66.5457 74.1562C63.5286 72.3868 61.4053 69.8539 60.1761 66.5573C58.9469 63.2421 58.7234 59.2751 59.5056 54.6562C60.2506 50.2235 61.7872 46.3496 64.1152 43.0344C66.4619 39.7193 69.4139 37.1397 72.9712 35.2959C76.5472 33.4521 80.5515 32.5302 84.9841 32.5302C88.2248 32.5302 91.065 33.033 93.5049 34.0387C95.9633 35.0445 97.9655 36.5065 99.5113 38.4248C101.057 40.3432 102.1 42.6619 102.64 45.3811C103.199 48.0817 103.199 51.1361 102.64 54.5444L102.082 58.1204H63.752L65.093 49.6275H89.2305C89.4168 48.3983 89.2957 47.3181 88.8673 46.3869C88.4576 45.437 87.7964 44.7013 86.8838 44.1798C85.9898 43.6397 84.9096 43.3697 83.6431 43.3697C82.3767 43.3697 81.1847 43.6397 80.0672 44.1798C78.9684 44.72 78.0278 45.4743 77.2456 46.4427C76.482 47.4112 75.9698 48.5473 75.7091 49.851L74.0328 58.7909C73.8093 60.1691 73.8932 61.3983 74.2843 62.4785C74.6754 63.5588 75.3552 64.4062 76.3237 65.0208C77.2921 65.6354 78.54 65.9427 80.0672 65.9427C81.1102 65.9427 82.0973 65.803 83.0285 65.5237C83.9784 65.2257 84.8165 64.7973 85.5428 64.2386C86.2878 63.6612 86.8838 62.9628 87.3308 62.1433H101.411C100.405 65.1232 98.8129 67.712 96.6338 69.9098C94.4733 72.0888 91.81 73.7837 88.6438 74.9943C85.4963 76.1862 81.9297 76.7822 77.944 76.7822ZM124.913 51.8625L120.89 76H105.469L112.621 33.0889H127.26L125.919 41.2465H126.366C127.725 38.5087 129.709 36.3761 132.316 34.8489C134.942 33.3031 137.838 32.5302 141.005 32.5302C144.04 32.5302 146.564 33.2193 148.576 34.5975C150.587 35.9757 152.012 37.8754 152.85 40.2966C153.688 42.7178 153.837 45.4929 153.297 48.6218L148.715 76H133.294L137.317 51.8625C137.671 49.7393 137.41 48.0724 136.535 46.8618C135.678 45.6512 134.263 45.0459 132.288 45.0459C131.04 45.0459 129.895 45.3253 128.852 45.884C127.828 46.4241 126.971 47.2063 126.282 48.2307C125.611 49.2364 125.155 50.447 124.913 51.8625ZM176.778 76.7822C172.122 76.7822 168.285 75.8603 165.268 74.0165C162.269 72.154 160.165 69.5652 158.954 66.25C157.743 62.9162 157.501 59.0516 158.228 54.6562C158.954 50.2608 160.472 46.4055 162.781 43.0903C165.091 39.7565 168.062 37.1677 171.693 35.3238C175.325 33.4614 179.478 32.5302 184.153 32.5302C188.791 32.5302 192.609 33.4614 195.607 35.3238C198.625 37.1677 200.738 39.7565 201.949 43.0903C203.178 46.4055 203.43 50.2608 202.703 54.6562C201.977 59.0516 200.45 62.9162 198.122 66.25C195.794 69.5652 192.814 72.154 189.182 74.0165C185.569 75.8603 181.434 76.7822 176.778 76.7822ZM178.678 65.384C180.019 65.384 181.238 64.9463 182.337 64.0709C183.455 63.1956 184.405 61.9477 185.187 60.3274C185.988 58.707 186.574 56.7794 186.947 54.5444C187.319 52.2909 187.375 50.3632 187.115 48.7615C186.854 47.1412 186.314 45.8933 185.494 45.018C184.675 44.1426 183.594 43.7049 182.253 43.7049C180.913 43.7049 179.683 44.1426 178.566 45.018C177.448 45.8933 176.498 47.1412 175.716 48.7615C174.934 50.3632 174.357 52.2909 173.984 54.5444C173.612 56.7794 173.546 58.707 173.789 60.3274C174.049 61.9477 174.589 63.1956 175.409 64.0709C176.247 64.9463 177.337 65.384 178.678 65.384ZM205.497 76L212.649 33.0889H227.288L225.947 41.2465H226.394C227.716 38.5645 229.588 36.4413 232.009 34.8769C234.43 33.3124 237.14 32.5302 240.139 32.5302C243.137 32.5302 245.596 33.331 247.514 34.9327C249.432 36.5158 250.401 38.6204 250.42 41.2465H250.867C252.021 38.6204 253.912 36.5158 256.538 34.9327C259.164 33.331 262.079 32.5302 265.282 32.5302C269.361 32.5302 272.462 33.8525 274.585 36.4972C276.727 39.1419 277.425 42.6619 276.68 47.0574L271.875 76H256.454L260.7 50.9685C260.961 49.0874 260.7 47.6161 259.918 46.5545C259.136 45.4743 257.944 44.9341 256.342 44.9341C254.759 44.9341 253.418 45.4743 252.319 46.5545C251.239 47.6161 250.569 49.0874 250.308 50.9685L246.061 76H231.311L235.557 50.9685C235.818 49.0874 235.557 47.6161 234.775 46.5545C233.993 45.4743 232.801 44.9341 231.199 44.9341C230.156 44.9341 229.206 45.1763 228.349 45.6605C227.511 46.1447 226.813 46.8432 226.254 47.7558C225.714 48.6498 225.351 49.7207 225.165 50.9685L220.918 76H205.497Z" fill="white"/>
<g filter="url(#filter0_d_105_3)">
<mask id="path-2-outside-1_105_3" maskUnits="userSpaceOnUse" x="276" y="48" width="54" height="49" fill="black">
<rect fill="white" x="276" y="48" width="54" height="49"/>
<path d="M280.909 92.4947C280.385 92.5996 280.018 92.5734 279.808 92.4161C279.598 92.2587 279.598 92.0227 279.808 91.708C280.122 91.236 280.83 90.5804 281.932 89.7413C282.823 89.007 283.872 88.1416 285.079 87.1452C286.337 86.0962 287.281 85.0735 287.911 84.077C288.855 83.0805 290.061 81.7693 291.53 80.1435C293.051 78.5176 294.624 76.7869 296.25 74.9512C295.935 74.2694 295.621 73.6138 295.306 72.9845C294.991 72.3027 294.65 71.6209 294.283 70.9391C293.392 69.1559 292.657 67.3727 292.08 65.5895C291.503 63.7538 291.215 62.1018 291.215 60.6332C291.215 59.6367 291.372 58.7714 291.687 58.0371C292.002 57.3029 292.552 56.8046 293.339 56.5424C293.496 56.4899 293.89 56.3326 294.519 56.0704C295.201 55.8081 295.935 55.5197 296.722 55.205C297.509 54.8903 298.164 54.6281 298.689 54.4183C299.266 54.156 299.554 54.0249 299.554 54.0249L300.262 54.733L298.689 55.5983C297.797 56.0179 297.351 57.0668 297.351 58.7451C297.351 60.1612 297.64 61.8657 298.217 63.8587C298.846 65.7993 299.606 67.8447 300.498 69.995C301.39 68.9985 302.439 67.766 303.645 66.2975C304.904 64.829 306.215 63.308 307.578 61.7346C308.994 60.1612 310.384 58.7189 311.748 57.4078C313.112 56.0966 314.344 55.1001 315.445 54.4183C316.022 54.1036 316.862 53.7889 317.963 53.4742C319.064 53.1596 320.218 52.8973 321.424 52.6875C322.683 52.4777 323.732 52.3204 324.571 52.2155C325.41 52.0582 325.83 51.9795 325.83 51.9795L325.987 52.6875L323.391 53.2382C322.185 53.5005 320.821 54.1823 319.3 55.2837C317.779 56.3326 316.206 57.6175 314.58 59.1385C312.954 60.607 311.381 62.1542 309.86 63.7801C308.391 65.3535 307.028 66.8482 305.769 68.2643C304.563 69.6279 303.592 70.7555 302.858 71.6471C302.176 72.4862 301.835 72.9058 301.835 72.9058C302.78 74.8464 303.75 76.682 304.746 78.4127C305.743 80.1435 306.661 81.5858 307.5 82.7396C308.339 83.8934 309.021 84.6277 309.545 84.9424C310.647 83.7361 311.8 82.4774 313.007 81.1662C314.265 79.8026 315.55 78.4914 316.862 77.2327C318.173 75.9215 319.484 74.7152 320.795 73.6138C322.106 72.46 323.391 71.516 324.65 70.7817L325.043 71.6471C323.837 72.4862 322.526 73.6401 321.11 75.1086C319.746 76.5247 318.409 78.0456 317.098 79.6715C315.839 81.2973 314.711 82.8445 313.715 84.313C312.718 85.7291 312.01 86.8305 311.591 87.6172L304.432 92.3374C303.96 91.708 303.383 90.6329 302.701 89.1119C302.019 87.591 301.232 85.8602 300.341 83.9197L297.587 77.862C295.332 80.4844 293.418 82.897 291.844 85.0997C290.271 87.3025 289.327 88.9808 289.012 90.1346C289.012 90.1346 288.461 90.2395 287.36 90.4493C286.311 90.6591 285.367 90.8951 284.528 91.1573C283.899 91.3671 283.322 91.6031 282.797 91.8654C282.273 92.1801 281.643 92.3898 280.909 92.4947Z"/>
</mask>
<path d="M280.909 92.4947C280.385 92.5996 280.018 92.5734 279.808 92.4161C279.598 92.2587 279.598 92.0227 279.808 91.708C280.122 91.236 280.83 90.5804 281.932 89.7413C282.823 89.007 283.872 88.1416 285.079 87.1452C286.337 86.0962 287.281 85.0735 287.911 84.077C288.855 83.0805 290.061 81.7693 291.53 80.1435C293.051 78.5176 294.624 76.7869 296.25 74.9512C295.935 74.2694 295.621 73.6138 295.306 72.9845C294.991 72.3027 294.65 71.6209 294.283 70.9391C293.392 69.1559 292.657 67.3727 292.08 65.5895C291.503 63.7538 291.215 62.1018 291.215 60.6332C291.215 59.6367 291.372 58.7714 291.687 58.0371C292.002 57.3029 292.552 56.8046 293.339 56.5424C293.496 56.4899 293.89 56.3326 294.519 56.0704C295.201 55.8081 295.935 55.5197 296.722 55.205C297.509 54.8903 298.164 54.6281 298.689 54.4183C299.266 54.156 299.554 54.0249 299.554 54.0249L300.262 54.733L298.689 55.5983C297.797 56.0179 297.351 57.0668 297.351 58.7451C297.351 60.1612 297.64 61.8657 298.217 63.8587C298.846 65.7993 299.606 67.8447 300.498 69.995C301.39 68.9985 302.439 67.766 303.645 66.2975C304.904 64.829 306.215 63.308 307.578 61.7346C308.994 60.1612 310.384 58.7189 311.748 57.4078C313.112 56.0966 314.344 55.1001 315.445 54.4183C316.022 54.1036 316.862 53.7889 317.963 53.4742C319.064 53.1596 320.218 52.8973 321.424 52.6875C322.683 52.4777 323.732 52.3204 324.571 52.2155C325.41 52.0582 325.83 51.9795 325.83 51.9795L325.987 52.6875L323.391 53.2382C322.185 53.5005 320.821 54.1823 319.3 55.2837C317.779 56.3326 316.206 57.6175 314.58 59.1385C312.954 60.607 311.381 62.1542 309.86 63.7801C308.391 65.3535 307.028 66.8482 305.769 68.2643C304.563 69.6279 303.592 70.7555 302.858 71.6471C302.176 72.4862 301.835 72.9058 301.835 72.9058C302.78 74.8464 303.75 76.682 304.746 78.4127C305.743 80.1435 306.661 81.5858 307.5 82.7396C308.339 83.8934 309.021 84.6277 309.545 84.9424C310.647 83.7361 311.8 82.4774 313.007 81.1662C314.265 79.8026 315.55 78.4914 316.862 77.2327C318.173 75.9215 319.484 74.7152 320.795 73.6138C322.106 72.46 323.391 71.516 324.65 70.7817L325.043 71.6471C323.837 72.4862 322.526 73.6401 321.11 75.1086C319.746 76.5247 318.409 78.0456 317.098 79.6715C315.839 81.2973 314.711 82.8445 313.715 84.313C312.718 85.7291 312.01 86.8305 311.591 87.6172L304.432 92.3374C303.96 91.708 303.383 90.6329 302.701 89.1119C302.019 87.591 301.232 85.8602 300.341 83.9197L297.587 77.862C295.332 80.4844 293.418 82.897 291.844 85.0997C290.271 87.3025 289.327 88.9808 289.012 90.1346C289.012 90.1346 288.461 90.2395 287.36 90.4493C286.311 90.6591 285.367 90.8951 284.528 91.1573C283.899 91.3671 283.322 91.6031 282.797 91.8654C282.273 92.1801 281.643 92.3898 280.909 92.4947Z" fill="#361D27"/>
<path d="M280.909 92.4947L280.485 89.5249L280.402 89.5367L280.321 89.553L280.909 92.4947ZM279.808 92.4161L281.608 90.0161H281.608L279.808 92.4161ZM279.808 91.708L282.304 93.3721H282.304L279.808 91.708ZM281.932 89.7413L283.75 92.1276L283.795 92.0932L283.839 92.0571L281.932 89.7413ZM285.079 87.1452L286.989 89.4581L286.999 89.4498L285.079 87.1452ZM287.911 84.077L285.733 82.0138L285.531 82.2269L285.374 82.475L287.911 84.077ZM291.53 80.1435L289.339 78.094L289.321 78.1132L289.303 78.1326L291.53 80.1435ZM296.25 74.9512L298.496 76.9403L299.795 75.4734L298.974 73.6941L296.25 74.9512ZM295.306 72.9845L292.582 74.2417L292.602 74.2842L292.623 74.3261L295.306 72.9845ZM294.283 70.9391L291.6 72.2807L291.62 72.3213L291.642 72.3614L294.283 70.9391ZM292.08 65.5895L289.218 66.489L289.222 66.501L289.226 66.5129L292.08 65.5895ZM291.687 58.0371L288.93 56.8554L288.93 56.8554L291.687 58.0371ZM293.339 56.5424L292.39 53.6963L292.39 53.6963L293.339 56.5424ZM294.519 56.0704L293.442 53.2703L293.404 53.2852L293.365 53.3011L294.519 56.0704ZM296.722 55.205L297.836 57.9904L297.836 57.9904L296.722 55.205ZM298.689 54.4183L299.803 57.2037L299.867 57.178L299.93 57.1494L298.689 54.4183ZM299.554 54.0249L301.675 51.9036L300.205 50.4335L298.313 51.2938L299.554 54.0249ZM300.262 54.733L301.708 57.3616L305.208 55.4364L302.383 52.6116L300.262 54.733ZM298.689 55.5983L299.966 58.3128L300.052 58.2725L300.134 58.227L298.689 55.5983ZM298.217 63.8587L295.335 64.6929L295.348 64.7388L295.363 64.7842L298.217 63.8587ZM300.498 69.995L297.727 71.1441L299.554 75.5497L302.734 71.9954L300.498 69.995ZM303.645 66.2975L301.367 64.3451L301.347 64.369L301.327 64.3933L303.645 66.2975ZM307.578 61.7346L305.349 59.7277L305.33 59.7486L305.311 59.7698L307.578 61.7346ZM311.748 57.4078L309.669 55.2453V55.2453L311.748 57.4078ZM315.445 54.4183L314.009 51.7846L313.936 51.8241L313.866 51.8675L315.445 54.4183ZM317.963 53.4742L317.139 50.5897L317.139 50.5897L317.963 53.4742ZM321.424 52.6875L320.931 49.7283L320.921 49.7301L320.91 49.7319L321.424 52.6875ZM324.571 52.2155L324.943 55.1923L325.034 55.181L325.124 55.1641L324.571 52.2155ZM325.83 51.9795L328.758 51.3287L328.129 48.4961L325.277 49.0309L325.83 51.9795ZM325.987 52.6875L326.61 55.6222L329.573 54.9937L328.916 52.0367L325.987 52.6875ZM323.391 53.2382L322.769 50.3035L322.761 50.3051L322.754 50.3067L323.391 53.2382ZM319.3 55.2837L321.003 57.7533L321.032 57.7337L321.06 57.7135L319.3 55.2837ZM314.58 59.1385L316.591 61.3648L316.61 61.3472L316.63 61.3293L314.58 59.1385ZM309.86 63.7801L307.669 61.7306L307.667 61.7331L309.86 63.7801ZM305.769 68.2643L303.527 66.2712L303.522 66.2765L305.769 68.2643ZM302.858 71.6471L300.542 69.74L300.536 69.7476L300.53 69.7553L302.858 71.6471ZM301.835 72.9058L299.507 71.014L298.301 72.4984L299.138 74.2182L301.835 72.9058ZM304.746 78.4127L307.346 76.9158L304.746 78.4127ZM309.545 84.9424L308.002 87.5149L310.106 88.7774L311.761 86.9652L309.545 84.9424ZM313.007 81.1662L310.802 79.1314L310.799 79.135L313.007 81.1662ZM316.861 77.2327L318.939 79.3968L318.961 79.3756L318.983 79.354L316.861 77.2327ZM320.795 73.6138L322.725 75.911L322.751 75.8888L322.777 75.866L320.795 73.6138ZM324.65 70.7817L327.381 69.5403L326.007 66.5171L323.138 68.1904L324.65 70.7817ZM325.043 71.6471L326.756 74.1098L328.809 72.6819L327.774 70.4057L325.043 71.6471ZM321.11 75.1086L318.95 73.0262L318.949 73.0277L321.11 75.1086ZM317.098 79.6715L314.762 77.7882L314.744 77.8114L314.725 77.8349L317.098 79.6715ZM313.715 84.313L316.168 86.0395L316.183 86.0186L316.197 85.9975L313.715 84.313ZM311.591 87.6172L313.242 90.1218L313.879 89.7019L314.238 89.0289L311.591 87.6172ZM304.432 92.3374L302.032 94.1374L303.726 96.3962L306.083 94.842L304.432 92.3374ZM302.701 89.1119L299.963 90.3391L302.701 89.1119ZM300.341 83.9197L297.61 85.1611L297.615 85.1722L300.341 83.9197ZM297.587 77.862L300.318 76.6206L298.375 72.3452L295.313 75.9059L297.587 77.862ZM289.012 90.1346L289.574 93.0816L291.414 92.7311L291.906 90.924L289.012 90.1346ZM287.36 90.4493L286.799 87.5023L286.785 87.5049L286.772 87.5076L287.36 90.4493ZM284.528 91.1573L283.633 88.2939L283.606 88.3023L283.579 88.3113L284.528 91.1573ZM282.797 91.8654L281.456 89.1821L281.353 89.2336L281.254 89.2929L282.797 91.8654ZM280.321 89.553C280.215 89.5742 280.278 89.5488 280.454 89.5614C280.623 89.5734 281.101 89.636 281.608 90.0161L278.008 94.8161C278.724 95.3535 279.491 95.5078 280.027 95.5461C280.57 95.5849 281.079 95.5201 281.497 95.4365L280.321 89.553ZM281.608 90.0161C281.845 90.1941 282.123 90.4708 282.337 90.8715C282.556 91.2825 282.65 91.7175 282.65 92.1211C282.65 92.8538 282.347 93.3079 282.304 93.3721L277.312 90.0439C277.059 90.4228 276.65 91.1523 276.65 92.1211C276.65 93.2979 277.244 94.2433 278.008 94.8161L281.608 90.0161ZM282.304 93.3721C282.271 93.4222 282.33 93.326 282.613 93.0636C282.874 92.8222 283.246 92.5117 283.75 92.1276L280.114 87.355C279.021 88.1878 277.935 89.1087 277.312 90.0439L282.304 93.3721ZM283.839 92.0571C284.732 91.3216 285.782 90.4552 286.989 89.458L283.168 84.8323C281.963 85.8281 280.915 86.6925 280.025 87.4255L283.839 92.0571ZM286.999 89.4498C288.412 88.2724 289.599 87.0213 290.447 85.679L285.374 82.475C284.963 83.1257 284.263 83.92 283.158 84.8405L286.999 89.4498ZM290.089 86.1402C291.056 85.1195 292.28 83.7888 293.756 82.1543L289.303 78.1326C287.843 79.7499 286.654 81.0416 285.733 82.0138L290.089 86.1402ZM293.72 82.193C295.262 80.5454 296.854 78.7943 298.496 76.9403L294.004 72.9621C292.395 74.7794 290.839 76.4899 289.339 78.094L293.72 82.193ZM298.974 73.6941C298.647 72.9858 298.319 72.3019 297.989 71.6428L292.623 74.3261C292.922 74.9258 293.224 75.5531 293.526 76.2084L298.974 73.6941ZM298.03 71.7273C297.688 70.9879 297.32 70.2511 296.925 69.5168L291.642 72.3614C291.981 72.9907 292.294 73.6174 292.582 74.2417L298.03 71.7273ZM296.966 69.5974C296.138 67.9406 295.462 66.2969 294.935 64.666L289.226 66.5129C289.852 68.4484 290.645 70.3711 291.6 72.2807L296.966 69.5974ZM294.942 64.69C294.43 63.0605 294.215 61.7189 294.215 60.6332H288.215C288.215 62.4846 288.577 64.4471 289.218 66.489L294.942 64.69ZM294.215 60.6332C294.215 59.9457 294.324 59.4996 294.444 59.2189L288.93 56.8554C288.42 58.0432 288.215 59.3278 288.215 60.6332H294.215ZM294.444 59.2189C294.446 59.2145 294.441 59.2289 294.422 59.2546C294.404 59.2808 294.379 59.3099 294.349 59.3373C294.319 59.3646 294.292 59.382 294.276 59.3912C294.261 59.3999 294.262 59.3969 294.288 59.3884L292.39 53.6963C290.826 54.2178 289.596 55.3 288.93 56.8554L294.444 59.2189ZM294.288 59.3884C294.573 59.2933 295.083 59.0853 295.673 58.8396L293.365 53.3011C293.057 53.4296 292.816 53.5284 292.638 53.5996C292.438 53.6797 292.375 53.7014 292.39 53.6963L294.288 59.3884ZM295.596 58.8704C296.292 58.6027 297.039 58.3093 297.836 57.9904L295.608 52.4196C294.831 52.73 294.11 53.0136 293.442 53.2703L295.596 58.8704ZM297.836 57.9904C298.623 57.6757 299.278 57.4135 299.803 57.2037L297.574 51.6328C297.05 51.8426 296.394 52.1049 295.608 52.4196L297.836 57.9904ZM299.93 57.1494C299.961 57.1354 299.953 57.1389 299.983 57.1252C299.985 57.1246 299.989 57.1228 299.99 57.1222C299.992 57.1213 299.994 57.1201 299.996 57.1192C300.009 57.1134 299.997 57.1192 300.009 57.1134C300.021 57.1081 300.011 57.1127 300.022 57.1075C300.031 57.1034 300.026 57.1059 300.035 57.1017C300.091 57.0761 300.029 57.1045 300.085 57.0791C300.117 57.0645 300.101 57.0715 300.133 57.0572C300.208 57.023 300.105 57.07 300.179 57.0361C300.192 57.0302 300.189 57.0316 300.202 57.0258C300.205 57.0242 300.221 57.0172 300.224 57.0157C300.225 57.0151 300.228 57.0138 300.23 57.0132C300.23 57.0131 300.235 57.0108 300.235 57.0107C300.251 57.0036 300.23 57.0129 300.246 57.0058C300.247 57.0054 300.248 57.005 300.249 57.0046C300.249 57.0042 300.25 57.0038 300.251 57.0034C300.256 57.0011 300.252 57.0032 300.257 57.0009C300.282 56.9894 300.242 57.0077 300.267 56.9961C300.287 56.987 300.289 56.9861 300.309 56.9773C300.348 56.9596 300.31 56.9767 300.348 56.9592C300.409 56.9315 300.307 56.9781 300.368 56.9505C300.387 56.9419 300.368 56.9505 300.386 56.9419C300.407 56.9326 300.403 56.9345 300.423 56.9254C300.431 56.9218 300.45 56.9131 300.457 56.9097C300.476 56.9012 300.447 56.9144 300.466 56.9059C300.485 56.8973 300.455 56.9106 300.474 56.9021C300.513 56.8846 300.452 56.9122 300.49 56.8947C300.496 56.892 300.488 56.8956 300.494 56.8929C300.495 56.8928 300.498 56.8911 300.498 56.8911C300.502 56.8894 300.499 56.8909 300.502 56.8893C300.512 56.8849 300.497 56.8919 300.506 56.8875C300.507 56.8872 300.507 56.8869 300.508 56.8866C300.509 56.8863 300.509 56.886 300.51 56.8857C300.511 56.8854 300.511 56.8851 300.512 56.8848C300.513 56.8846 300.513 56.8843 300.514 56.884C300.516 56.8829 300.515 56.8833 300.518 56.8822C300.518 56.8819 300.519 56.8816 300.52 56.8814C300.52 56.8811 300.521 56.8808 300.522 56.8805C300.752 56.7759 300.351 56.9579 300.579 56.8544C300.626 56.833 300.559 56.8635 300.605 56.8425C300.612 56.8394 300.611 56.8397 300.618 56.8368C300.642 56.8259 300.606 56.8422 300.63 56.8313C300.635 56.8289 300.636 56.8284 300.641 56.826C300.645 56.8244 300.649 56.8225 300.653 56.8209C300.653 56.8207 300.654 56.8205 300.654 56.8203C300.654 56.8201 300.655 56.8199 300.655 56.8197C300.657 56.819 300.657 56.8191 300.658 56.8185C300.66 56.8174 300.661 56.8171 300.663 56.816C300.703 56.7983 300.635 56.8291 300.674 56.8113C300.713 56.7937 300.655 56.8199 300.693 56.8025C300.704 56.7978 300.687 56.8052 300.698 56.8004C300.698 56.8002 300.699 56.8001 300.699 56.7999C300.699 56.7997 300.7 56.7996 300.7 56.7994C300.703 56.7981 300.699 56.7997 300.702 56.7984C300.703 56.7982 300.704 56.7976 300.704 56.7974C300.705 56.7972 300.705 56.797 300.706 56.7969C300.706 56.7967 300.706 56.7965 300.707 56.7964C300.708 56.796 300.708 56.7958 300.709 56.7954C300.711 56.7942 300.708 56.7956 300.711 56.7944C300.732 56.7849 300.698 56.8002 300.719 56.7907C300.73 56.7857 300.712 56.7939 300.723 56.7889C300.73 56.7856 300.72 56.7904 300.727 56.7871C300.732 56.7848 300.737 56.7827 300.741 56.7806C300.832 56.7396 300.701 56.7991 300.782 56.7622C300.786 56.7605 300.78 56.7631 300.784 56.7614C300.784 56.7611 300.784 56.7611 300.785 56.7607C300.788 56.7596 300.785 56.7605 300.788 56.7595C300.791 56.7581 300.787 56.7597 300.79 56.7584C300.791 56.7582 300.792 56.7577 300.792 56.7576C300.795 56.7564 300.793 56.7573 300.795 56.7564C300.796 56.7557 300.793 56.7569 300.795 56.7562C300.795 56.7561 300.795 56.7563 300.795 56.7561C300.795 56.7561 300.795 56.7561 300.795 56.7561C300.795 56.756 300.795 56.756 300.795 56.756C300.795 56.756 300.795 56.756 300.795 56.756C300.795 56.756 300.795 56.756 299.554 54.0249C298.313 51.2938 298.313 51.2938 298.313 51.2938C298.313 51.2938 298.313 51.2938 298.313 51.2938C298.313 51.2938 298.313 51.2938 298.313 51.2939C298.313 51.2939 298.313 51.2939 298.313 51.2939C298.313 51.2939 298.313 51.2939 298.312 51.2939C298.312 51.2939 298.312 51.2939 298.312 51.2939C298.312 51.2939 298.312 51.2939 298.312 51.2939C298.312 51.2939 298.312 51.2939 298.312 51.2939C298.312 51.294 298.312 51.294 298.312 51.294C298.312 51.294 298.312 51.294 298.312 51.294C298.312 51.2942 298.312 51.294 298.312 51.2942C298.312 51.2942 298.312 51.2943 298.312 51.2943C298.311 51.2943 298.311 51.2943 298.311 51.2944C298.311 51.2944 298.311 51.2944 298.311 51.2944C298.31 51.2948 298.312 51.2943 298.311 51.2947C298.31 51.295 298.311 51.2945 298.31 51.2948C298.309 51.2953 298.311 51.2946 298.31 51.295C298.31 51.295 298.31 51.2952 298.31 51.2952C298.31 51.2952 298.31 51.2952 298.309 51.2953C298.309 51.2953 298.309 51.2953 298.309 51.2954C298.307 51.2966 298.308 51.2958 298.305 51.2973C298.304 51.2978 298.301 51.2992 298.299 51.3C298.151 51.3675 298.416 51.2468 298.259 51.3184C298.255 51.3198 298.248 51.3233 298.244 51.3249C298.242 51.3257 298.238 51.3277 298.236 51.3285C298.235 51.3292 298.236 51.3287 298.234 51.3294C298.234 51.3297 298.233 51.3301 298.232 51.3303C298.231 51.3309 298.229 51.3317 298.228 51.3322C298.21 51.3403 298.229 51.332 298.21 51.3403C298.174 51.3569 298.237 51.328 298.201 51.3446C298.071 51.4038 298.321 51.2899 298.191 51.3491C298.19 51.3495 298.189 51.3499 298.188 51.3503C298.188 51.3505 298.188 51.3507 298.187 51.3509C298.187 51.3511 298.186 51.3513 298.186 51.3515C298.185 51.3517 298.185 51.3519 298.184 51.3521C298.184 51.3523 298.184 51.3525 298.183 51.3527C298.181 51.3535 298.182 51.353 298.181 51.3538C298.062 51.4076 298.288 51.3049 298.17 51.3587C298.165 51.3611 298.169 51.3589 298.164 51.3613C298.158 51.3639 298.167 51.3599 298.161 51.3625C298.156 51.3648 298.164 51.3615 298.159 51.3638C298.14 51.3724 298.172 51.3579 298.153 51.3665C298.152 51.3667 298.152 51.3669 298.151 51.3671C298.151 51.3673 298.15 51.3676 298.15 51.3678C298.149 51.368 298.149 51.3682 298.148 51.3684C298.148 51.3687 298.147 51.3689 298.147 51.3691C298.119 51.3819 298.151 51.3672 298.122 51.3803C298.114 51.384 298.105 51.3882 298.096 51.3922C298.076 51.4012 298.089 51.3955 298.068 51.4048C298.06 51.4086 298.048 51.4143 298.039 51.4183C298.026 51.4243 298.037 51.4192 298.023 51.4253C298.013 51.4301 298.018 51.4276 298.008 51.4325C298.005 51.4336 297.977 51.4462 297.975 51.4475C297.95 51.4588 297.965 51.4517 297.94 51.4632C297.934 51.4658 297.91 51.4769 297.904 51.4797C297.891 51.4854 297.84 51.5084 297.826 51.5151C297.816 51.5196 297.795 51.5291 297.784 51.5339C297.566 51.6331 297.982 51.4443 297.763 51.5436C297.688 51.5778 297.817 51.5193 297.741 51.5535C297.709 51.5682 297.729 51.5589 297.697 51.5739C297.684 51.5795 297.697 51.5735 297.685 51.5791C297.662 51.5894 297.696 51.574 297.674 51.5843C297.642 51.5985 297.693 51.5754 297.662 51.5896C297.654 51.5934 297.658 51.5912 297.65 51.595C297.649 51.5954 297.648 51.5959 297.647 51.5963C297.646 51.5968 297.645 51.5972 297.644 51.5977C297.642 51.5985 297.64 51.5995 297.638 51.6004C297.634 51.6024 297.631 51.6038 297.626 51.6058C297.574 51.6295 297.654 51.5931 297.602 51.6169C297.592 51.6214 297.587 51.6235 297.577 51.6281C297.574 51.6294 297.574 51.6297 297.571 51.631C297.559 51.6365 297.577 51.6283 297.565 51.6338C297.493 51.6665 297.624 51.6068 297.552 51.6395C297.512 51.6576 297.541 51.6447 297.5 51.663C297.408 51.7048 297.54 51.6451 297.447 51.6872L299.93 57.1494ZM297.433 56.1462L298.141 56.8543L302.383 52.6116L301.675 51.9036L297.433 56.1462ZM298.816 52.1043L297.243 52.9697L300.134 58.227L301.708 57.3616L298.816 52.1043ZM297.411 52.8839C294.86 54.0844 294.351 56.7761 294.351 58.7451H300.351C300.351 58.4546 300.371 58.2396 300.396 58.0884C300.408 58.0141 300.42 57.9601 300.43 57.9239C300.44 57.8877 300.447 57.8721 300.447 57.8731C300.445 57.8765 300.413 57.9511 300.322 58.051C300.226 58.156 300.102 58.2488 299.966 58.3128L297.411 52.8839ZM294.351 58.7451C294.351 60.5413 294.712 62.5424 295.335 64.6929L301.098 63.0245C300.567 61.1891 300.351 59.7811 300.351 58.7451H294.351ZM295.363 64.7842C296.02 66.81 296.809 68.9303 297.727 71.1441L303.269 68.846C302.404 66.759 301.672 64.7885 301.07 62.9332L295.363 64.7842ZM302.734 71.9954C303.662 70.9574 304.74 69.6905 305.963 68.2017L301.327 64.3933C300.137 65.8415 299.117 67.0396 298.262 67.9946L302.734 71.9954ZM305.923 68.2499C307.178 66.7858 308.485 65.269 309.845 63.6994L305.311 59.7698C303.944 61.3471 302.63 62.8722 301.367 64.3451L305.923 68.2499ZM309.808 63.7415C311.182 62.2156 312.521 60.8259 313.827 59.5703L309.669 55.2453C308.247 56.6119 306.807 58.1069 305.349 59.7277L309.808 63.7415ZM313.827 59.5703C315.101 58.3453 316.165 57.5014 317.024 56.9691L313.866 51.8675C312.523 52.6988 311.122 53.8479 309.669 55.2453L313.827 59.5703ZM316.882 57.052C317.173 56.8933 317.766 56.6504 318.787 56.3588L317.139 50.5897C315.957 50.9274 314.872 51.3139 314.009 51.7846L316.882 57.052ZM318.787 56.3588C319.78 56.0752 320.83 55.836 321.938 55.6432L320.91 49.7319C319.607 49.9586 318.349 50.2439 317.139 50.5897L318.787 56.3588ZM321.918 55.6467C323.154 55.4406 324.159 55.2903 324.943 55.1923L324.199 49.2387C323.305 49.3505 322.212 49.5149 320.931 49.7283L321.918 55.6467ZM325.124 55.1641C325.508 55.0922 325.343 55.123 325.675 55.0609C325.871 55.0241 325.924 55.0141 326.068 54.9871C326.364 54.9317 326.061 54.9885 326.304 54.9429C326.341 54.9359 326.339 54.9363 326.363 54.9318C326.382 54.9283 326.362 54.9319 326.378 54.929C326.384 54.9278 326.376 54.9294 326.382 54.9283C326.383 54.9281 326.381 54.9284 326.382 54.9282C326.383 54.9281 326.382 54.9282 326.383 54.9281C326.383 54.9281 326.383 54.9281 326.383 54.9281C326.383 54.9281 326.383 54.9281 326.383 54.9281C326.383 54.9281 326.383 54.9281 326.383 54.9281C326.383 54.9281 326.383 54.9281 325.83 51.9795C325.277 49.0309 325.277 49.0309 325.277 49.0309C325.277 49.0309 325.277 49.0309 325.277 49.0309C325.277 49.0309 325.277 49.0309 325.277 49.0309C325.277 49.0309 325.277 49.0309 325.277 49.0309C325.277 49.0309 325.277 49.0309 325.277 49.0309C325.277 49.0309 325.277 49.0309 325.277 49.0309C325.277 49.0309 325.277 49.0309 325.277 49.0309C325.276 49.031 325.277 49.0309 325.276 49.031C325.276 49.0311 325.276 49.031 325.276 49.0311C325.276 49.0312 325.276 49.031 325.276 49.0311C325.274 49.0314 325.275 49.0313 325.272 49.0318C325.271 49.032 325.272 49.0319 325.271 49.032C325.27 49.0321 325.27 49.0322 325.269 49.0323C325.269 49.0323 325.269 49.0324 325.269 49.0324C325.269 49.0324 325.269 49.0324 325.269 49.0325C325.268 49.0325 325.268 49.0325 325.268 49.0325C325.268 49.0326 325.268 49.0326 325.268 49.0326C325.268 49.0327 325.267 49.0327 325.267 49.0328C325.267 49.0328 325.266 49.0329 325.266 49.033C325.263 49.0336 325.265 49.0331 325.262 49.0337C325.26 49.0341 325.262 49.0337 325.26 49.0341C325.259 49.0342 325.258 49.0345 325.257 49.0346C325.214 49.0427 325.255 49.0351 325.198 49.0456C325.159 49.0529 325.152 49.0543 325.1 49.0641C325.084 49.0672 325.102 49.0638 325.085 49.0669C325.08 49.0678 325.082 49.0674 325.077 49.0683C325.076 49.0685 325.074 49.0689 325.073 49.0691C325.071 49.0695 325.071 49.0694 325.069 49.0698C325.056 49.0724 325.075 49.0688 325.061 49.0713C325.059 49.0717 325.055 49.0725 325.053 49.0729C325.05 49.0734 325.048 49.0739 325.045 49.0745C325.041 49.0751 325.044 49.0746 325.04 49.0753C325.04 49.0754 325.039 49.0755 325.038 49.0757C325.038 49.0758 325.037 49.0759 325.036 49.0761C325.01 49.081 325.028 49.0776 325 49.0827C324.986 49.0854 324.977 49.0871 324.962 49.0899C324.803 49.1197 324.387 49.1977 324.018 49.2669L325.124 55.1641ZM322.901 52.6303L323.059 53.3383L328.916 52.0367L328.758 51.3287L322.901 52.6303ZM325.365 49.7528L322.769 50.3035L324.014 56.1729L326.61 55.6222L325.365 49.7528ZM322.754 50.3067C320.988 50.6906 319.239 51.6239 317.541 52.8538L321.06 57.7135C322.403 56.7407 323.382 56.3104 324.028 56.1698L322.754 50.3067ZM317.597 52.814C315.932 53.9622 314.244 55.3452 312.531 56.9477L316.63 61.3293C318.168 59.8899 319.626 58.703 321.003 57.7533L317.597 52.814ZM312.569 56.9122C310.88 58.438 309.247 60.0443 307.669 61.7306L312.051 65.8295C313.515 64.2641 315.029 62.776 316.591 61.3648L312.569 56.9122ZM307.667 61.7331C306.184 63.3219 304.804 64.8347 303.527 66.2712L308.011 70.2574C309.252 68.8617 310.599 67.385 312.053 65.827L307.667 61.7331ZM303.522 66.2765C302.304 67.6535 301.308 68.8103 300.542 69.74L305.174 73.5542C305.877 72.7007 306.821 71.6023 308.016 70.252L303.522 66.2765ZM300.53 69.7553C300.439 69.867 300.494 69.7993 300.406 69.9077C300.398 69.9172 300.354 69.9716 300.347 69.9803C300.32 70.014 300.317 70.0174 300.29 70.0503C300.272 70.0723 300.252 70.0968 300.235 70.1179C300.224 70.1317 300.22 70.1372 300.208 70.1508C300.19 70.174 300.201 70.1601 300.182 70.1831C300.154 70.2182 300.159 70.2114 300.131 70.2458C300.125 70.253 300.125 70.2539 300.119 70.2611C300.074 70.3159 300.157 70.2139 300.113 70.2687C300.112 70.2696 300.107 70.2753 300.107 70.2762C300.097 70.2881 300.104 70.2793 300.094 70.2912C300.092 70.294 300.091 70.2958 300.088 70.2986C300.087 70.2998 300.086 70.3011 300.085 70.3023C300.084 70.3035 300.083 70.3048 300.082 70.306C300.058 70.3356 300.083 70.3058 300.059 70.3352C300.037 70.3619 300.057 70.3373 300.035 70.3638C299.955 70.4622 300.07 70.3214 299.991 70.4191C299.985 70.4261 299.974 70.439 299.969 70.4458C299.959 70.458 299.973 70.4402 299.963 70.4524C299.942 70.4785 299.979 70.4329 299.958 70.459C299.946 70.4742 299.96 70.4567 299.948 70.472C299.929 70.495 299.956 70.4618 299.937 70.4848C299.935 70.4873 299.929 70.495 299.927 70.4975C299.908 70.5208 299.925 70.4992 299.907 70.5224C299.898 70.5332 299.876 70.5603 299.868 70.5703C299.835 70.6099 299.862 70.577 299.831 70.6158C299.738 70.7302 299.853 70.5882 299.763 70.6994C299.758 70.7058 299.76 70.7027 299.755 70.7091C299.747 70.719 299.755 70.7089 299.747 70.7187C299.726 70.7444 299.76 70.7025 299.739 70.7282C299.739 70.7289 299.738 70.7297 299.737 70.7305C299.737 70.7313 299.736 70.7321 299.736 70.7328C299.735 70.7336 299.734 70.7344 299.734 70.7352C299.733 70.7359 299.732 70.7367 299.732 70.7375C299.731 70.7385 299.725 70.7456 299.724 70.7466C299.724 70.7475 299.718 70.7547 299.717 70.7556C299.713 70.7608 299.707 70.7681 299.703 70.7731C299.678 70.8032 299.7 70.777 299.676 70.8063C299.673 70.8102 299.653 70.8339 299.651 70.837C299.647 70.8413 299.631 70.8618 299.628 70.8653C299.573 70.9332 299.661 70.8241 299.607 70.8911C299.573 70.9331 299.621 70.8733 299.588 70.9145C299.586 70.9175 299.582 70.9224 299.579 70.9252C299.562 70.9466 299.588 70.9142 299.571 70.9354C299.568 70.9391 299.543 70.9694 299.543 70.9698C299.543 70.9704 299.538 70.9764 299.537 70.9769C299.536 70.9781 299.536 70.979 299.535 70.9802C299.533 70.9825 299.534 70.981 299.532 70.9833C299.527 70.9902 299.528 70.9883 299.523 70.9944C299.507 71.0136 299.524 70.9931 299.511 71.0091C299.51 71.0111 299.509 71.0117 299.508 71.0128C299.507 71.0139 299.508 71.0129 299.507 71.0137C299.507 71.0141 299.507 71.0136 299.507 71.014C299.507 71.014 299.507 71.014 299.507 71.014C299.507 71.014 299.507 71.014 299.507 71.014C299.507 71.014 299.507 71.014 299.507 71.014C299.507 71.014 299.507 71.014 301.835 72.9058C304.164 74.7976 304.164 74.7976 304.164 74.7976C304.164 74.7976 304.164 74.7976 304.164 74.7976C304.164 74.7976 304.164 74.7976 304.164 74.7976C304.164 74.7975 304.164 74.7975 304.164 74.7975C304.164 74.7974 304.164 74.7975 304.164 74.7974C304.164 74.7974 304.164 74.7973 304.164 74.7973C304.164 74.7967 304.164 74.7971 304.165 74.7964C304.168 74.7926 304.164 74.7973 304.168 74.7927C304.168 74.7926 304.17 74.7902 304.17 74.7899C304.17 74.7897 304.171 74.7893 304.171 74.7891C304.171 74.7885 304.171 74.7889 304.171 74.7883C304.172 74.7878 304.172 74.7879 304.172 74.7874C304.172 74.7873 304.172 74.7871 304.172 74.787C304.173 74.7868 304.173 74.7867 304.173 74.7865C304.173 74.7857 304.178 74.7796 304.18 74.7779C304.243 74.7005 304.134 74.8341 304.2 74.7533C304.299 74.6316 304.126 74.8439 304.228 74.7189C304.239 74.7051 304.25 74.6917 304.264 74.6747C304.264 74.6739 304.266 74.6723 304.266 74.6716C304.268 74.6699 304.267 74.6701 304.269 74.6684C304.269 74.668 304.271 74.6658 304.271 74.6653C304.272 74.6647 304.272 74.6642 304.273 74.6637C304.273 74.6631 304.273 74.6626 304.274 74.6621C304.287 74.6463 304.272 74.6648 304.285 74.6489C304.293 74.6386 304.299 74.6317 304.308 74.6206C304.449 74.447 304.216 74.7335 304.36 74.5567C304.413 74.4907 304.363 74.5522 304.419 74.4829C304.422 74.4796 304.425 74.4763 304.428 74.473C304.458 74.4356 304.405 74.5004 304.436 74.4629C304.454 74.4402 304.434 74.4653 304.452 74.4423C304.458 74.4356 304.451 74.4438 304.457 74.4371C304.465 74.4265 304.452 74.4425 304.461 74.4318C304.471 74.4194 304.46 74.4336 304.47 74.4211C304.489 74.397 304.454 74.4399 304.474 74.4157C304.494 74.3913 304.459 74.4347 304.478 74.4103C304.479 74.4094 304.48 74.4085 304.481 74.4076C304.481 74.4067 304.482 74.4058 304.483 74.4048C304.485 74.4029 304.486 74.4013 304.487 74.3993C304.495 74.3901 304.516 74.3639 304.524 74.3538C304.547 74.3266 304.54 74.334 304.563 74.3059C304.588 74.2759 304.559 74.3112 304.584 74.281C304.588 74.275 304.589 74.2744 304.594 74.2683C304.599 74.2623 304.599 74.2616 304.604 74.2555C304.623 74.2321 304.606 74.253 304.625 74.2294C304.685 74.1557 304.587 74.2765 304.647 74.2026C304.678 74.165 304.706 74.1305 304.739 74.0896C304.842 73.963 304.733 74.0964 304.839 73.9666C304.841 73.9644 304.863 73.9368 304.865 73.9344C304.869 73.9295 304.888 73.9065 304.892 73.9015C304.909 73.8809 304.889 73.9055 304.905 73.8848C304.912 73.8761 304.912 73.8767 304.919 73.868C304.924 73.8622 304.942 73.8399 304.947 73.8339C304.976 73.7974 304.973 73.8011 305.004 73.7638C305.038 73.7212 305.027 73.7347 305.063 73.6913C305.151 73.5829 305.096 73.6506 305.187 73.5389L300.53 69.7553ZM299.138 74.2182C300.11 76.2164 301.113 78.114 302.146 79.9096L307.346 76.9158C306.387 75.25 305.449 73.4763 304.533 71.5934L299.138 74.2182ZM302.146 79.9096C303.177 81.6992 304.153 83.2379 305.074 84.5041L309.926 80.9751C309.169 79.9337 308.309 78.5877 307.346 76.9158L302.146 79.9096ZM305.074 84.5041C305.916 85.6626 306.904 86.8565 308.002 87.5149L311.089 82.3699C311.173 82.4206 311.093 82.3883 310.839 82.1143C310.605 81.8629 310.302 81.4922 309.926 80.9751L305.074 84.5041ZM311.761 86.9652C312.859 85.7619 314.01 84.506 315.214 83.1974L310.799 79.135C309.59 80.4487 308.434 81.7103 307.33 82.9196L311.761 86.9652ZM315.211 83.201C316.43 81.8809 317.672 80.6129 318.939 79.3968L314.784 75.0685C313.428 76.3699 312.101 77.7243 310.802 79.1314L315.211 83.201ZM318.983 79.354C320.238 78.0992 321.485 76.9522 322.725 75.911L318.865 71.3167C317.483 72.4783 316.108 73.7438 314.74 75.1114L318.983 79.354ZM322.777 75.866C323.97 74.8158 325.099 73.9927 326.161 73.3731L323.138 68.1904C321.683 69.0392 320.242 70.1042 318.813 71.3617L322.777 75.866ZM321.919 72.0231L322.312 72.8885L327.774 70.4057L327.381 69.5403L321.919 72.0231ZM323.33 69.1844C321.915 70.1691 320.454 71.4666 318.95 73.0262L323.269 77.191C324.597 75.8136 325.759 74.8034 326.756 74.1098L323.33 69.1844ZM318.949 73.0277C317.521 74.5108 316.125 76.0982 314.762 77.7882L319.433 81.5547C320.692 79.9931 321.972 78.5385 323.271 77.1895L318.949 73.0277ZM314.725 77.8349C313.434 79.5028 312.269 81.1009 311.232 82.6285L316.197 85.9975C317.153 84.5882 318.243 83.0919 319.47 81.508L314.725 77.8349ZM311.261 82.5865C310.247 84.0283 309.452 85.2513 308.944 86.2054L314.238 89.0289C314.568 88.4097 315.19 87.4298 316.168 86.0395L311.261 82.5865ZM309.939 85.1126L302.78 89.8328L306.083 94.842L313.242 90.1218L309.939 85.1126ZM306.832 90.5374C306.572 90.1915 306.107 89.3759 305.438 87.8847L299.963 90.3391C300.658 91.8898 301.347 93.2246 302.032 94.1374L306.832 90.5374ZM305.438 87.8847C304.752 86.3534 303.961 84.6139 303.067 82.6672L297.615 85.1722C298.503 87.1065 299.286 88.8285 299.963 90.3391L305.438 87.8847ZM303.072 82.6783L300.318 76.6206L294.856 79.1035L297.61 85.1611L303.072 82.6783ZM295.313 75.9059C293.014 78.5789 291.041 81.0632 289.403 83.356L294.286 86.8434C295.795 84.7307 297.65 82.3899 299.862 79.8182L295.313 75.9059ZM289.403 83.356C287.818 85.575 286.586 87.6306 286.118 89.3453L291.906 90.924C292.068 90.331 292.724 89.03 294.286 86.8434L289.403 83.356ZM289.012 90.1346C288.451 87.1876 288.451 87.1876 288.451 87.1876C288.451 87.1876 288.451 87.1876 288.451 87.1876C288.451 87.1876 288.451 87.1876 288.451 87.1876C288.451 87.1876 288.451 87.1876 288.451 87.1876C288.449 87.1879 288.452 87.1874 288.451 87.1877C288.451 87.1877 288.451 87.1877 288.451 87.1877C288.451 87.1877 288.45 87.1877 288.45 87.1877C288.448 87.1881 288.452 87.1874 288.45 87.1878C288.449 87.1879 288.45 87.1877 288.45 87.1878C288.449 87.1879 288.449 87.1879 288.449 87.1879C288.423 87.193 288.472 87.1836 288.444 87.1888C288.444 87.1888 288.444 87.189 288.444 87.189C288.44 87.1896 288.446 87.1885 288.443 87.1892C288.443 87.1892 288.442 87.1892 288.442 87.1893C288.442 87.1893 288.442 87.1893 288.442 87.1893C288.441 87.1895 288.442 87.1893 288.441 87.1895C288.367 87.2036 288.511 87.1762 288.436 87.1904C288.403 87.1968 288.465 87.1849 288.431 87.1914C288.397 87.1978 288.459 87.1861 288.425 87.1925C288.425 87.1926 288.424 87.1926 288.424 87.1927C288.424 87.1927 288.424 87.1928 288.423 87.1928C288.423 87.1929 288.423 87.1929 288.423 87.193C288.422 87.1931 288.422 87.1931 288.422 87.1932C288.419 87.1936 288.421 87.1934 288.418 87.1938C288.395 87.1982 288.439 87.1898 288.416 87.1942C288.414 87.1947 288.417 87.194 288.414 87.1945C288.411 87.1953 288.416 87.1942 288.413 87.1949C288.412 87.195 288.412 87.195 288.412 87.1951C288.411 87.1952 288.411 87.1952 288.411 87.1953C288.357 87.2055 288.456 87.1866 288.402 87.1969C288.38 87.201 288.415 87.1945 288.393 87.1987C288.392 87.1987 288.392 87.1988 288.392 87.1989C288.391 87.199 288.391 87.1991 288.39 87.1991C288.39 87.1992 288.39 87.1993 288.389 87.1994C288.389 87.1995 288.388 87.1995 288.388 87.1996C288.377 87.2016 288.393 87.1986 288.383 87.2006C288.372 87.2027 288.391 87.199 288.38 87.2011C288.38 87.2012 288.379 87.2013 288.379 87.2014C288.378 87.2014 288.378 87.2015 288.377 87.2016C288.353 87.2063 288.399 87.1974 288.375 87.2021C288.363 87.2043 288.383 87.2005 288.372 87.2027C288.366 87.2038 288.372 87.2026 288.366 87.2038C288.351 87.2067 288.375 87.202 288.36 87.2049C288.356 87.2057 288.361 87.2046 288.357 87.2055C288.341 87.2086 288.37 87.2029 288.354 87.2061C288.353 87.2062 288.353 87.2063 288.352 87.2064C288.352 87.2065 288.351 87.2066 288.351 87.2067C288.35 87.2068 288.35 87.2069 288.349 87.207C288.349 87.2071 288.348 87.2072 288.348 87.2073C288.213 87.2329 288.428 87.1919 288.29 87.2183C288.222 87.2312 288.341 87.2086 288.273 87.2215C288.239 87.2279 288.29 87.2183 288.256 87.2248C288.22 87.2317 288.283 87.2196 288.247 87.2265C288.185 87.2383 288.3 87.2164 288.237 87.2283C288.061 87.2619 288.405 87.1964 288.228 87.23C288.162 87.2427 288.29 87.2183 288.223 87.2309C288.223 87.2311 288.222 87.2313 288.221 87.2314C288.22 87.2316 288.219 87.2317 288.219 87.2319C288.204 87.2346 288.214 87.2328 288.199 87.2356C288.198 87.2358 288.197 87.2359 288.196 87.2361C288.195 87.2363 288.195 87.2364 288.194 87.2366C288.193 87.2368 288.192 87.2369 288.191 87.2371C288.19 87.2372 288.189 87.2374 288.189 87.2376C288.098 87.2548 288.269 87.2223 288.178 87.2395C288.143 87.2462 288.208 87.2339 288.173 87.2405C288.128 87.2491 288.212 87.233 288.168 87.2416C288.139 87.2471 288.186 87.2381 288.157 87.2436C288.152 87.2446 288.156 87.2437 288.151 87.2447C288.055 87.263 288.242 87.2274 288.146 87.2457C288.111 87.2523 288.169 87.2412 288.135 87.2478C288.101 87.2543 288.157 87.2435 288.123 87.25C288.065 87.261 288.17 87.2412 288.112 87.2522C287.999 87.2736 288.212 87.233 288.1 87.2545C288.053 87.2634 288.141 87.2466 288.094 87.2556C288.089 87.2565 288.092 87.2559 288.088 87.2568C288.029 87.268 288.122 87.2502 288.063 87.2614C288.042 87.2656 288.072 87.2597 288.051 87.2638C288.005 87.2725 288.083 87.2576 288.038 87.2663C287.625 87.345 287.487 87.3712 286.799 87.5023L287.921 93.3963C287.928 93.3951 287.941 93.3926 287.947 93.3914C288.02 93.3776 287.887 93.4028 287.96 93.389C287.962 93.3886 287.964 93.3882 287.966 93.3878C287.968 93.3874 287.971 93.387 287.973 93.3866C288.025 93.3765 287.945 93.3918 287.998 93.3817C288.006 93.3801 288.015 93.3786 288.023 93.377C288.215 93.3403 287.881 93.4041 288.073 93.3675C288.206 93.3421 287.964 93.3883 288.097 93.3628C288.125 93.3576 288.082 93.3658 288.109 93.3605C288.111 93.3601 288.113 93.3598 288.115 93.3594C288.117 93.359 288.119 93.3586 288.122 93.3582C288.144 93.3539 288.111 93.3603 288.134 93.3559C288.182 93.3468 288.098 93.3628 288.146 93.3536C288.183 93.3465 288.132 93.3562 288.17 93.3491C288.296 93.3249 288.066 93.3687 288.193 93.3446C288.195 93.3442 288.197 93.3438 288.199 93.3434C288.201 93.3431 288.203 93.3427 288.205 93.3423C288.342 93.3161 288.079 93.3663 288.217 93.3401C288.335 93.3175 288.191 93.3449 288.309 93.3226C288.356 93.3135 288.272 93.3295 288.32 93.3204C288.322 93.3201 288.324 93.3197 288.326 93.3194C288.327 93.319 288.329 93.3186 288.331 93.3183C288.408 93.3036 288.265 93.3308 288.342 93.3162C288.344 93.3158 288.346 93.3155 288.348 93.3151C288.35 93.3147 288.352 93.3144 288.353 93.314C288.355 93.3137 288.357 93.3133 288.359 93.313C288.361 93.3126 288.363 93.3123 288.364 93.3119C288.427 93.3001 288.313 93.3217 288.376 93.3098C288.379 93.3091 288.383 93.3085 288.386 93.3077C288.388 93.3074 288.39 93.3071 288.392 93.3067C288.394 93.3064 288.396 93.306 288.397 93.3057C288.428 93.2998 288.377 93.3095 288.408 93.3036C288.41 93.3033 288.412 93.3029 288.414 93.3026C288.415 93.3022 288.417 93.3019 288.419 93.3015C288.559 93.2749 288.301 93.3241 288.441 93.2974C288.585 93.27 288.339 93.3168 288.483 93.2894C288.708 93.2464 288.299 93.3244 288.524 93.2815C288.526 93.2811 288.528 93.2808 288.53 93.2805C288.531 93.2802 288.533 93.2798 288.535 93.2795C288.536 93.2792 288.538 93.2789 288.54 93.2785C288.542 93.2782 288.543 93.2779 288.545 93.2776C288.594 93.2682 288.516 93.2831 288.565 93.2737C288.598 93.2674 288.552 93.2761 288.585 93.2699C288.587 93.2696 288.589 93.2693 288.59 93.2689C288.592 93.2686 288.594 93.2683 288.595 93.268C288.597 93.2677 288.599 93.2674 288.6 93.267C288.602 93.2667 288.603 93.2664 288.605 93.2661C288.685 93.2509 288.545 93.2776 288.625 93.2624C288.628 93.2616 288.641 93.2593 288.644 93.2587C288.754 93.2378 288.573 93.2722 288.683 93.2514C288.847 93.22 288.537 93.2791 288.701 93.2478C288.769 93.2349 288.653 93.257 288.72 93.2442C288.792 93.2304 288.666 93.2545 288.739 93.2407C288.774 93.2339 288.721 93.244 288.757 93.2372C288.957 93.1991 288.593 93.2684 288.793 93.2304C288.845 93.2203 288.88 93.2138 288.928 93.2046C288.976 93.1955 288.897 93.2106 288.944 93.2015C288.946 93.2013 288.947 93.201 288.948 93.2008C288.95 93.2005 288.951 93.2002 288.952 93.2C288.953 93.1997 288.955 93.1995 288.956 93.1992C288.957 93.199 288.959 93.1987 288.96 93.1985C289.016 93.1879 288.92 93.2061 288.976 93.1955C289.017 93.1876 288.949 93.2005 288.991 93.1926C289.068 93.1779 288.975 93.1956 289.051 93.1812C289.061 93.1793 289.056 93.1803 289.065 93.1785C289.066 93.1782 289.068 93.178 289.069 93.1778C289.07 93.1776 289.071 93.1773 289.072 93.1771C289.074 93.1769 289.075 93.1767 289.076 93.1764C289.077 93.1762 289.078 93.176 289.079 93.1758C289.114 93.1691 289.072 93.1771 289.107 93.1705C289.328 93.1284 288.941 93.2022 289.161 93.1603C289.247 93.1438 289.175 93.1576 289.257 93.1419C289.271 93.1392 289.254 93.1424 289.268 93.1397C289.393 93.116 289.155 93.1614 289.279 93.1376C289.514 93.093 289.067 93.1781 289.301 93.1336C289.315 93.1309 289.292 93.1353 289.306 93.1326C289.327 93.1285 289.29 93.1356 289.311 93.1316C289.386 93.1174 289.247 93.1438 289.321 93.1297C289.366 93.1212 289.297 93.1343 289.341 93.1259C289.437 93.1077 289.255 93.1423 289.351 93.1241C289.357 93.1229 289.349 93.1244 289.355 93.1232C289.388 93.1169 289.327 93.1285 289.36 93.1223C289.406 93.1135 289.319 93.1302 289.365 93.1214C289.366 93.1213 289.366 93.1211 289.367 93.121C289.368 93.1208 289.369 93.1207 289.369 93.1205C289.426 93.1097 289.317 93.1305 289.374 93.1197C289.416 93.1116 289.336 93.1269 289.378 93.1188C289.409 93.113 289.352 93.1238 289.383 93.118C289.383 93.1178 289.384 93.1177 289.385 93.1176C289.386 93.1174 289.386 93.1173 289.387 93.1172C289.422 93.1104 289.36 93.1223 289.396 93.1155C289.407 93.1134 289.389 93.1168 289.4 93.1147C289.401 93.1146 289.401 93.1145 289.402 93.1143C289.403 93.1142 289.403 93.1141 289.404 93.1139C289.405 93.1138 289.405 93.1137 289.406 93.1135C289.407 93.1134 289.407 93.1133 289.408 93.1131C289.409 93.113 289.409 93.1129 289.41 93.1128C289.411 93.1126 289.412 93.1125 289.412 93.1124C289.503 93.0952 289.338 93.1265 289.428 93.1094C289.438 93.1075 289.426 93.1098 289.435 93.1079C289.545 93.087 289.333 93.1274 289.443 93.1065C289.443 93.1064 289.444 93.1063 289.445 93.1062C289.445 93.1061 289.446 93.106 289.446 93.1058C289.447 93.1057 289.448 93.1056 289.448 93.1055C289.449 93.1054 289.449 93.1053 289.45 93.1052C289.454 93.1044 289.453 93.1046 289.457 93.1038C289.583 93.0799 289.338 93.1265 289.464 93.1026C289.469 93.1015 289.465 93.1023 289.47 93.1013C289.471 93.1012 289.471 93.1011 289.472 93.101C289.472 93.1009 289.473 93.1008 289.473 93.1007C289.474 93.1006 289.475 93.1005 289.475 93.1004C289.476 93.1003 289.476 93.1002 289.477 93.1001C289.481 93.0992 289.478 93.0998 289.483 93.0989C289.526 93.0908 289.452 93.1048 289.494 93.0967C289.58 93.0805 289.431 93.1087 289.515 93.0927C289.518 93.0923 289.516 93.0927 289.518 93.0922C289.54 93.088 289.498 93.096 289.52 93.0918C289.673 93.0627 289.372 93.1201 289.525 93.0909C289.544 93.0872 289.507 93.0942 289.527 93.0905C289.53 93.0898 289.526 93.0908 289.529 93.0901C289.685 93.0605 289.378 93.1189 289.533 93.0893C289.556 93.0849 289.526 93.0908 289.548 93.0866C289.661 93.0649 289.458 93.1037 289.567 93.0829C289.572 93.0818 289.563 93.0837 289.568 93.0827C289.57 93.0823 289.567 93.083 289.569 93.0826C289.57 93.0823 289.568 93.0826 289.57 93.0823C289.57 93.0822 289.57 93.0823 289.57 93.0822C289.571 93.0822 289.571 93.0822 289.571 93.0822C289.571 93.0822 289.571 93.0821 289.571 93.0821C289.578 93.0808 289.565 93.0832 289.572 93.0819C289.575 93.0813 289.57 93.0823 289.573 93.0817C289.573 93.0817 289.573 93.0817 289.573 93.0817C289.573 93.0817 289.573 93.0817 289.573 93.0817C289.573 93.0817 289.573 93.0817 289.573 93.0817C289.573 93.0817 289.573 93.0817 289.573 93.0817C289.573 93.0817 289.573 93.0817 289.573 93.0817C289.573 93.0816 289.573 93.0816 289.574 93.0816C289.574 93.0816 289.574 93.0816 289.574 93.0816C289.574 93.0816 289.574 93.0816 289.012 90.1346ZM286.772 87.5076C285.641 87.7338 284.592 87.9943 283.633 88.2939L285.423 94.0208C286.142 93.7959 286.982 93.5844 287.948 93.391L286.772 87.5076ZM283.579 88.3113C282.832 88.5602 282.122 88.8488 281.456 89.1821L284.139 94.5487C284.521 94.3575 284.965 94.174 285.477 94.0034L283.579 88.3113ZM281.254 89.2929C281.137 89.3631 280.905 89.4648 280.485 89.5249L281.333 95.4646C282.381 95.3149 283.409 94.997 284.341 94.4379L281.254 89.2929Z" fill="white" mask="url(#path-2-outside-1_105_3)"/>
</g>
<path d="M37.4355 122.308C37.6031 120.464 37.1561 119.021 36.0945 117.978C35.0329 116.916 33.2449 116.386 30.7306 116.386C29.1289 116.386 27.7879 116.572 26.7077 116.944C25.6461 117.317 24.8173 117.829 24.2213 118.481C23.6439 119.133 23.2808 119.887 23.1318 120.744C22.9641 121.414 22.9735 122.029 23.1597 122.588C23.3646 123.128 23.7464 123.621 24.3051 124.068C24.8825 124.515 25.6368 124.916 26.568 125.27C27.5179 125.623 28.6447 125.94 29.9484 126.219L34.4183 127.225C37.4727 127.896 40.0336 128.78 42.1009 129.879C44.1869 130.959 45.8259 132.245 47.0178 133.734C48.2098 135.224 48.992 136.891 49.3645 138.735C49.7557 140.579 49.765 142.59 49.3925 144.77C48.7592 148.532 47.2972 151.717 45.0064 154.324C42.7156 156.931 39.7263 158.915 36.0386 160.275C32.351 161.634 28.0859 162.314 23.2435 162.314C18.2894 162.314 14.0802 161.578 10.616 160.107C7.17048 158.617 4.67478 156.345 3.12893 153.29C1.60172 150.217 1.22922 146.297 2.01146 141.529H16.7622C16.5387 143.28 16.7249 144.751 17.3209 145.943C17.9169 147.135 18.876 148.038 20.1984 148.653C21.5207 149.267 23.169 149.575 25.1432 149.575C26.8194 149.575 28.2535 149.37 29.4455 148.96C30.6375 148.55 31.578 147.982 32.2671 147.256C32.9563 146.53 33.3753 145.701 33.5243 144.77C33.6733 143.913 33.5243 143.149 33.0773 142.479C32.6303 141.808 31.8202 141.203 30.6468 140.663C29.4734 140.123 27.8624 139.629 25.8137 139.182L20.3381 137.953C15.4771 136.835 11.808 134.992 9.33093 132.421C6.85386 129.851 5.9785 126.331 6.70486 121.861C7.30085 118.211 8.80013 115.026 11.2027 112.307C13.6239 109.569 16.697 107.446 20.4219 105.937C24.1654 104.41 28.3094 103.646 32.8538 103.646C37.4727 103.646 41.3373 104.419 44.4476 105.965C47.5766 107.511 49.8208 109.681 51.1804 112.474C52.5587 115.268 52.9312 118.546 52.2979 122.308H37.4355ZM50.1607 177.735L60.0504 118.732H75.3598L74.1306 126.219H74.4659C75.2481 124.767 76.2724 123.435 77.5389 122.224C78.824 120.995 80.3326 120.017 82.0647 119.291C83.8154 118.546 85.7524 118.174 87.8756 118.174C90.7065 118.174 93.2674 118.928 95.5582 120.437C97.8491 121.945 99.5346 124.32 100.615 127.56C101.695 130.801 101.807 135.01 100.95 140.188C100.131 145.142 98.6685 149.249 96.564 152.508C94.478 155.767 92.0196 158.198 89.1886 159.8C86.3763 161.401 83.4429 162.202 80.3885 162.202C78.377 162.202 76.6356 161.876 75.1643 161.224C73.6929 160.554 72.5103 159.651 71.6163 158.515C70.7223 157.36 70.1077 156.056 69.7725 154.603H69.4372L65.6378 177.735H50.1607ZM71.5604 140.188C71.2252 142.274 71.1972 144.08 71.4766 145.608C71.7746 147.116 72.3613 148.29 73.2366 149.128C74.1306 149.947 75.2853 150.357 76.7008 150.357C78.1163 150.357 79.3828 149.957 80.5002 149.156C81.6177 148.336 82.5676 147.172 83.3498 145.664C84.132 144.136 84.7094 142.311 85.0819 140.188C85.4171 138.065 85.4451 136.249 85.1657 134.74C84.8863 133.213 84.3183 132.049 83.4615 131.248C82.6048 130.429 81.4687 130.019 80.0532 130.019C78.6378 130.019 77.3434 130.429 76.17 131.248C75.0153 132.049 74.0375 133.213 73.2366 134.74C72.4544 136.249 71.8957 138.065 71.5604 140.188ZM103.821 161.643L110.972 118.732H126.394L119.242 161.643H103.821ZM119.354 114.262C117.268 114.262 115.582 113.573 114.297 112.195C113.012 110.798 112.537 109.141 112.872 107.222C113.207 105.267 114.232 103.609 115.945 102.25C117.659 100.871 119.558 100.182 121.644 100.182C123.749 100.182 125.425 100.871 126.673 102.25C127.921 103.609 128.386 105.267 128.07 107.222C127.772 109.141 126.766 110.798 125.053 112.195C123.358 113.573 121.458 114.262 119.354 114.262ZM142.576 162.202C139.522 162.202 136.84 161.401 134.53 159.8C132.239 158.198 130.591 155.767 129.585 152.508C128.598 149.249 128.514 145.142 129.334 140.188C130.191 135.01 131.69 130.801 133.832 127.56C135.992 124.32 138.469 121.945 141.263 120.437C144.075 118.928 146.897 118.174 149.728 118.174C151.851 118.174 153.648 118.546 155.12 119.291C156.61 120.017 157.792 120.995 158.668 122.224C159.543 123.435 160.139 124.767 160.456 126.219H160.679L164.311 104.429H179.732L170.234 161.643H154.924L156.098 154.603H155.762C154.924 156.056 153.853 157.36 152.55 158.515C151.264 159.651 149.784 160.554 148.108 161.224C146.431 161.876 144.588 162.202 142.576 162.202ZM150.231 150.357C151.646 150.357 152.931 149.947 154.086 149.128C155.241 148.29 156.219 147.116 157.019 145.608C157.82 144.08 158.388 142.274 158.724 140.188C159.077 138.065 159.105 136.249 158.807 134.74C158.509 133.213 157.913 132.049 157.019 131.248C156.144 130.429 154.999 130.019 153.583 130.019C152.168 130.019 150.892 130.429 149.756 131.248C148.62 132.049 147.661 133.213 146.878 134.74C146.115 136.249 145.556 138.065 145.202 140.188C144.848 142.311 144.802 144.136 145.062 145.664C145.342 147.172 145.919 148.336 146.795 149.156C147.67 149.957 148.815 150.357 150.231 150.357ZM198.254 162.426C193.673 162.426 189.873 161.55 186.856 159.8C183.839 158.03 181.716 155.497 180.486 152.201C179.257 148.886 179.034 144.919 179.816 140.3C180.561 135.867 182.098 131.993 184.426 128.678C186.772 125.363 189.724 122.783 193.282 120.939C196.858 119.096 200.862 118.174 205.294 118.174C208.535 118.174 211.375 118.676 213.815 119.682C216.274 120.688 218.276 122.15 219.822 124.068C221.367 125.987 222.41 128.305 222.951 131.025C223.509 133.725 223.509 136.78 222.951 140.188L222.392 143.764H184.062L185.403 135.271H209.541C209.727 134.042 209.606 132.962 209.178 132.03C208.768 131.08 208.107 130.345 207.194 129.823C206.3 129.283 205.22 129.013 203.953 129.013C202.687 129.013 201.495 129.283 200.378 129.823C199.279 130.363 198.338 131.118 197.556 132.086C196.792 133.055 196.28 134.191 196.019 135.495L194.343 144.434C194.12 145.813 194.203 147.042 194.595 148.122C194.986 149.202 195.666 150.05 196.634 150.664C197.602 151.279 198.85 151.586 200.378 151.586C201.421 151.586 202.408 151.446 203.339 151.167C204.289 150.869 205.127 150.441 205.853 149.882C206.598 149.305 207.194 148.606 207.641 147.787H221.721C220.716 150.767 219.123 153.356 216.944 155.553C214.784 157.732 212.12 159.427 208.954 160.638C205.807 161.83 202.24 162.426 198.254 162.426ZM225.667 161.643L232.819 118.732H247.793L246.453 126.89H246.9C248.185 123.873 249.796 121.666 251.733 120.269C253.67 118.872 255.783 118.174 258.074 118.174C258.745 118.174 259.387 118.229 260.002 118.341C260.635 118.434 261.259 118.565 261.874 118.732L259.639 131.919C258.912 131.639 258.009 131.444 256.929 131.332C255.849 131.202 254.889 131.136 254.051 131.136C252.561 131.136 251.165 131.481 249.861 132.17C248.576 132.84 247.477 133.79 246.564 135.02C245.67 136.23 245.074 137.655 244.776 139.294L241.089 161.643H225.667ZM292.688 133.036L290.788 144.658H263.969L265.869 133.036H292.688ZM306.391 104.429H325.724L333.658 136.835H334.328L352.99 104.429H372.322L362.824 161.643H347.626L353.102 128.566H352.655L334.552 161.196H325.388L318.125 128.343H317.678L312.09 161.643H296.893L306.391 104.429ZM382.254 162.314C379.535 162.314 377.197 161.867 375.242 160.973C373.305 160.06 371.889 158.682 370.995 156.838C370.12 154.976 369.924 152.629 370.409 149.798C370.8 147.452 371.535 145.449 372.616 143.792C373.696 142.134 375.037 140.775 376.639 139.713C378.24 138.651 380.038 137.841 382.03 137.282C384.042 136.705 386.165 136.333 388.4 136.165C390.821 135.979 392.786 135.746 394.295 135.467C395.803 135.187 396.93 134.805 397.675 134.321C398.42 133.837 398.867 133.185 399.016 132.366V132.254C399.184 131.136 398.886 130.28 398.122 129.684C397.377 129.088 396.334 128.79 394.993 128.79C393.54 128.79 392.283 129.106 391.222 129.74C390.179 130.373 389.462 131.36 389.071 132.701H374.879C375.475 130.093 376.694 127.691 378.538 125.493C380.401 123.277 382.869 121.507 385.942 120.185C389.033 118.844 392.721 118.174 397.005 118.174C400.059 118.174 402.741 118.537 405.05 119.263C407.36 119.971 409.269 120.967 410.777 122.252C412.305 123.519 413.376 125.009 413.99 126.722C414.623 128.417 414.772 130.261 414.437 132.254L409.52 161.643H395.105L396.111 155.609H395.775C394.658 157.211 393.401 158.505 392.004 159.492C390.626 160.479 389.117 161.196 387.478 161.643C385.858 162.09 384.116 162.314 382.254 162.314ZM388.959 152.592C390.113 152.592 391.25 152.35 392.367 151.866C393.485 151.381 394.444 150.683 395.245 149.77C396.045 148.858 396.558 147.75 396.781 146.446L397.34 142.87C396.93 143.037 396.474 143.196 395.971 143.345C395.487 143.475 394.975 143.606 394.434 143.736C393.913 143.866 393.354 143.987 392.758 144.099C392.181 144.211 391.585 144.323 390.97 144.434C389.741 144.621 388.707 144.928 387.869 145.356C387.031 145.766 386.379 146.278 385.914 146.893C385.448 147.489 385.159 148.159 385.048 148.904C384.88 150.078 385.15 150.99 385.858 151.642C386.584 152.275 387.618 152.592 388.959 152.592ZM436.445 137.506L432.422 161.643H417L424.152 118.732H438.791L437.45 126.89H437.897C439.257 124.152 441.24 122.02 443.848 120.492C446.474 118.947 449.37 118.174 452.536 118.174C455.572 118.174 458.096 118.863 460.107 120.241C462.119 121.619 463.543 123.519 464.381 125.94C465.22 128.361 465.369 131.136 464.828 134.265L460.247 161.643H444.826L448.849 137.506C449.202 135.383 448.942 133.716 448.066 132.505C447.21 131.295 445.794 130.689 443.82 130.689C442.572 130.689 441.427 130.969 440.384 131.527C439.359 132.068 438.503 132.85 437.813 133.874C437.143 134.88 436.687 136.09 436.445 137.506Z" fill="white"/>
<a href="https://www.bing.com/ck/a?!&#38;&#38;p=4bd2ab0e4059912aJmltdHM9MTY3MTc1MzYwMCZpZ3VpZD0yNTQ0YzczMy1hZjhiLTY1ODctM2U5NS1kNWIyYWU5ZjY0OTkmaW5zaWQ9NTE3OA&#38;ptn=3&#38;hsh=3&#38;fclid=2544c733-af8b-6587-3e95-d5b2ae9f6499&#38;psq=spiderman&#38;u=a1aHR0cHM6Ly9lbi53aWtpcGVkaWEub3JnL3dpa2kvU3BpZGVyLU1hbg&#38;ntb=1">
<rect fill="black" fill-opacity="0" y="-0.104511" width="467.399" height="95.209"/>
</a>
<defs>
<filter id="filter0_d_105_3" x="269.493" y="45.9795" width="66.4942" height="60.6726" filterUnits="userSpaceOnUse" color-interpolation-filters="sRGB">
<feFlood flood-opacity="0" result="BackgroundImageFix"/>
<feColorMatrix in="SourceAlpha" type="matrix" values="0 0 0 0 0 0 0 0 0 0 0 0 0 0 0 0 0 0 127 0" result="hardAlpha"/>
<feOffset dy="4"/>
<feGaussianBlur stdDeviation="5"/>
<feComposite in2="hardAlpha" operator="out"/>
<feColorMatrix type="matrix" values="0 0 0 0 0 0 0 0 0 0 0 0 0 0 0 0 0 0 0.25 0"/>
<feBlend mode="normal" in2="BackgroundImageFix" result="effect1_dropShadow_105_3"/>
<feBlend mode="normal" in="SourceGraphic" in2="effect1_dropShadow_105_3" result="shape"/>
</filter>
</defs>
</svg>
