<svg width="18" height="17" viewBox="0 0 18 17" fill="none" xmlns="http://www.w3.org/2000/svg">
<path d="M9.70538 7.54752V2.88086C9.70538 1.77629 10.6009 0.880859 11.7054 0.880859H13.1221C14.2267 0.880859 15.1221 1.77629 15.1221 2.88086V7.54752M9.70538 4.21419H11.7888M3.03874 7.54752V4.09343C3.03874 3.76245 3.12088 3.43664 3.2778 3.14523L4.29953 1.24772C4.4212 1.02176 4.65711 0.880859 4.91374 0.880859C5.17037 0.880859 5.40628 1.02176 5.52795 1.24772L6.54968 3.14523C6.7066 3.43664 6.78874 3.76245 6.78874 4.09343V7.54752M1.37207 7.54752H16.7888V13.4642C16.7888 14.5688 15.8933 15.4642 14.7888 15.4642H3.37207C2.2675 15.4642 1.37207 14.5688 1.37207 13.4642V7.54752Z" stroke="#0F4F57" stroke-opacity="0.7" stroke-width="1.5" stroke-linecap="round" stroke-linejoin="round"/>
</svg>
